<?xml version="1.0" encoding="UTF-8"?> <svg xmlns="http://www.w3.org/2000/svg" width="64" height="64" viewBox="0 0 64 64" fill="none"><path d="M2.17725 56.1801H30.2122L40.125 46.3083V2.17762C40.125 1.49275 39.57 0.9375 38.8853 0.9375H2.17725C1.49262 0.9375 0.9375 1.49275 0.9375 2.17762V54.94C0.9375 55.6249 1.4925 56.1801 2.17725 56.1801Z" fill="#260C64"></path><path d="M5.70947 59.7143L34.9944 60.9643L44.9073 51.0924L43.6573 5.71174C43.6573 5.02687 43.1023 4.47162 42.4175 4.47162H5.70947C5.02485 4.47162 4.46973 5.02687 4.46973 5.71174V58.4741C4.46973 59.1591 5.02473 59.7143 5.70947 59.7143Z" fill="#260C64"></path><path d="M9.23877 63.0622H38.5237L47.1866 54.4404V9.0597C47.1866 8.37483 46.6316 7.81958 45.9468 7.81958H9.23877C8.55415 7.81958 7.99902 8.37483 7.99902 9.0597V61.8221C7.99915 62.5071 8.55415 63.0622 9.23877 63.0622Z" fill="#260C64"></path><path d="M38.5244 63.0623V55.6001C38.5244 54.9152 39.0794 54.36 39.7642 54.36H47.1873L38.5244 63.0623Z" fill="#260C64"></path><path d="M16.8242 47.2853H21.5126V54.9853H16.8242V47.2853Z" fill="#260C64"></path><path d="M21.5166 40.6431H26.205V54.9853H21.5166V40.6431Z" fill="#01BEDF"></path><path d="M26.2158 44.8853H30.9042V54.9852H26.2158V44.8853Z" fill="#260C64"></path><path d="M48.527 44.2137C56.5527 44.2137 63.0588 37.7075 63.0588 29.6818C63.0588 21.6561 56.5527 15.15 48.527 15.15C40.5012 15.15 33.9951 21.6561 33.9951 29.6818C33.9951 37.7075 40.5012 44.2137 48.527 44.2137Z" fill="#260C64"></path><path d="M62.5786 33.4053C63.8574 28.5682 62.5993 23.2027 58.803 19.4062C57.5185 18.1217 56.0541 17.1288 54.4916 16.4252L48.5273 29.6816L62.5786 33.4053Z" fill="#260C64"></path><path d="M48.5276 29.6818L38.252 39.9574C43.9316 45.637 53.1234 45.637 58.8032 39.9574C60.6864 38.0741 61.9444 35.8046 62.5788 33.4053L48.5276 29.6818Z" fill="#01BEDF"></path><path d="M15.1903 17.3237H33.5854C34.7976 17.3237 34.7976 15.4487 33.5854 15.4487H15.1903C13.9782 15.4487 13.9782 17.3237 15.1903 17.3237Z" fill="white"></path><path d="M15.1903 24.2018H29.3354C30.5476 24.2018 30.5476 22.3268 29.3354 22.3268H15.1903C13.9782 22.3268 13.9782 24.2018 15.1903 24.2018Z" fill="white"></path><path d="M15.1903 31.08H27.3354C28.5476 31.08 28.5476 29.205 27.3354 29.205H15.1903C13.9782 29.205 13.9782 31.08 15.1903 31.08Z" fill="white"></path><path d="M32.4633 54.0478H31.8422V44.8854C31.8422 44.3677 31.4226 43.9479 30.9047 43.9479H27.1425V40.6432C27.1425 40.1254 26.7229 39.7057 26.205 39.7057H21.5166C20.9987 39.7057 20.5791 40.1254 20.5791 40.6432V46.3478H16.8242C16.3064 46.3478 15.8867 46.7675 15.8867 47.2853V54.0478H15.2656C14.7477 54.0478 14.3281 54.4675 14.3281 54.9853C14.3281 55.503 14.7477 55.9228 15.2656 55.9228H32.4632C32.9811 55.9228 33.4007 55.503 33.4007 54.9853C33.4007 54.4675 32.9811 54.0478 32.4633 54.0478ZM17.7619 54.0478V48.2228H20.5754V54.0478H17.7619ZM22.4542 54.0478V41.5807H25.2676V54.0478H22.4542ZM27.1537 54.0478V45.8229H29.9672V54.0478H27.1537Z" fill="white"></path><path d="M63.9919 29.2003C63.8698 25.2538 62.2624 21.5401 59.4655 18.7432C58.1235 17.4012 56.594 16.3586 54.9609 15.6138C54.9335 15.5981 54.9051 15.5835 54.8758 15.5702C54.8458 15.5567 54.8154 15.545 54.7849 15.535C52.6728 14.6036 50.3937 14.1666 48.1248 14.2251V9.05986C48.1248 7.85911 47.1482 6.88224 45.9475 6.88224H44.5954V5.71174C44.5954 4.51099 43.6188 3.53412 42.4182 3.53412H41.0623V2.17762C41.0624 0.976873 40.0857 0 38.8852 0H2.17725C0.976623 0 0 0.976873 0 2.17762V54.9401C0 56.1409 0.976623 57.1178 2.17725 57.1178H3.53312V58.4743C3.53312 59.675 4.50974 60.6519 5.70649 60.6519L7.06261 60.6574V61.8224C7.06261 63.0231 8.03923 64 9.23986 64H38.5247C38.7698 64 39.0123 63.9 39.186 63.727L47.8489 55.1051C48.0257 54.9291 48.125 54.69 48.125 54.4406V45.1464C48.2514 45.1495 48.3778 45.1525 48.5042 45.1525C51.1467 45.1525 53.7779 44.4772 56.0793 43.1877C57.1369 42.5952 56.2203 40.9598 55.1628 41.5519C50.1574 44.3568 43.893 43.6657 39.6023 39.9325L48.8087 30.7262L61.3949 34.0614C60.8401 35.7016 59.9634 37.2579 58.7598 38.6309C57.9608 39.5424 59.3705 40.7784 60.1696 39.8671C62.7559 36.9169 64.1133 33.1288 63.9919 29.2003ZM53.2358 16.9306L47.7424 29.1403L38.2747 38.6082C33.6241 33.2741 33.8367 25.1466 38.9143 20.069C42.7798 16.2035 48.413 15.1578 53.2358 16.9306ZM5.71011 58.7768C5.54349 58.7768 5.40799 58.641 5.40799 58.4741V5.71174C5.40799 5.54486 5.54349 5.40911 5.71011 5.40911H12.2499C13.462 5.40911 13.462 3.53412 12.2499 3.53412H5.71011C4.50962 3.53412 3.53299 4.51099 3.53299 5.71174V55.2426H2.17725C2.01062 55.2426 1.875 55.1069 1.875 54.94V2.17762C1.875 2.01075 2.01062 1.875 2.17725 1.875H38.8852C39.0518 1.875 39.1874 2.01075 39.1874 2.17762V3.53424H17.5C16.2878 3.53424 16.2878 5.40924 17.5 5.40924H42.4183C42.5849 5.40924 42.7205 5.54499 42.7205 5.71186V6.88236H9.23973C8.03923 6.88236 7.06249 7.85924 7.06249 9.05998V58.7824L5.71011 58.7768ZM8.93748 61.8223V9.05986C8.93748 8.89298 9.07311 8.75723 9.23973 8.75723H45.9477C46.1143 8.75723 46.2499 8.89298 46.2499 9.05986V14.3872C43.078 14.8555 40.0247 16.3071 37.5884 18.7433C31.5569 24.7748 31.5569 34.5888 37.5884 40.6204C39.9608 42.9927 42.9514 44.4959 46.2499 44.9837V53.4226H39.7643C38.5638 53.4226 37.5871 54.3995 37.5871 55.6003V62.1249H9.23973C9.07311 62.1249 8.93748 61.9891 8.93748 61.8223ZM39.462 60.7918V55.6003C39.462 55.4334 39.5977 55.2976 39.7643 55.2976H44.9313L39.462 60.7918ZM49.8353 29.0586L54.9465 17.6981C56.0945 18.3122 57.1725 19.1021 58.1395 20.0691C61.4254 23.3551 62.6869 27.9571 61.871 32.2481L49.8353 29.0586Z" fill="white"></path></svg> 