<?xml version="1.0" encoding="UTF-8"?> <svg xmlns="http://www.w3.org/2000/svg" width="65" height="64" viewBox="0 0 65 64" fill="none"><path d="M32.0549 29.5259C39.9488 29.5259 46.3481 23.1266 46.3481 15.2327C46.3481 7.33879 39.9488 0.939514 32.0549 0.939514C24.161 0.939514 17.7617 7.33879 17.7617 15.2327C17.7617 23.1266 24.161 29.5259 32.0549 29.5259Z" fill="#260C64"></path><path d="M38.3793 15.1841L40.2377 13.1664C40.6125 12.7594 40.6794 12.1562 40.4028 11.677L39.3089 9.78224C39.0323 9.30317 38.4764 9.05938 37.9366 9.18047L35.2608 9.78086C35.2288 9.76246 35.2073 9.74993 35.1754 9.73153L34.3574 7.11408C34.1923 6.58605 33.7033 6.22644 33.1501 6.22644H30.9622C30.409 6.22644 29.9199 6.58593 29.7549 7.11408L28.9369 9.73153C28.905 9.74993 28.8834 9.76246 28.8515 9.78086L26.1757 9.18047C25.6359 9.05938 25.08 9.30305 24.8034 9.78224L23.7095 11.677C23.4329 12.156 23.4998 12.7594 23.8745 13.1664L25.7329 15.1841V15.2815L23.8745 17.2992C23.4998 17.7061 23.4329 18.3094 23.7095 18.7886L24.8034 20.6833C25.08 21.1624 25.6359 21.4061 26.1757 21.2851L28.8515 20.6847C28.8834 20.7031 28.905 20.7156 28.9369 20.734L29.7549 23.3514C29.9199 23.8795 30.409 24.2391 30.9622 24.2391H33.1499C33.7031 24.2391 34.1922 23.8796 34.3572 23.3514L35.1753 20.7337C35.2071 20.7153 35.2286 20.7029 35.2604 20.6847L37.9365 21.2851C38.4762 21.4061 39.0322 21.1625 39.3088 20.6833L40.4026 18.7886C40.6792 18.3095 40.6124 17.7061 40.2376 17.2992L38.3792 15.2815V15.1841H38.3793ZM32.0562 17.2566C30.9384 17.2566 30.0324 16.3505 30.0324 15.2328C30.0324 14.115 30.9384 13.2089 32.0562 13.2089C33.174 13.2089 34.08 14.115 34.08 15.2328C34.08 16.3505 33.1738 17.2566 32.0562 17.2566Z" fill="#01BEDF"></path><path d="M34.334 38.9118V50.9181H50.0185V38.9118C50.0185 36.3969 47.9798 34.3582 45.4649 34.3582H38.8875C36.3727 34.3582 34.334 36.3969 34.334 38.9118Z" fill="#260C64"></path><path d="M42.1768 34.3582C44.9711 34.3582 47.2364 32.0929 47.2364 29.2986C47.2364 26.5042 44.9711 24.239 42.1768 24.239C39.3825 24.239 37.1172 26.5042 37.1172 29.2986C37.1172 32.0929 39.3825 34.3582 42.1768 34.3582Z" fill="#260C64"></path><path d="M14.0938 38.9117V50.918H29.7783V38.9117C29.7783 36.3968 27.7396 34.3581 25.2247 34.3581H18.6472C16.1325 34.3581 14.0938 36.3968 14.0938 38.9117Z" fill="#260C64"></path><path d="M21.9356 34.3582C24.7299 34.3582 26.9952 32.0929 26.9952 29.2986C26.9952 26.5042 24.7299 24.239 21.9356 24.239C19.1412 24.239 16.876 26.5042 16.876 29.2986C16.876 32.0929 19.1412 34.3582 21.9356 34.3582Z" fill="#260C64"></path><path d="M24.2139 38.9117V50.918H39.8984V38.9117C39.8984 36.3968 37.8597 34.3581 35.3448 34.3581H28.7674C26.2526 34.3581 24.2139 36.3968 24.2139 38.9117Z" fill="#260C64"></path><path d="M32.0557 34.3582C34.85 34.3582 37.1153 32.0929 37.1153 29.2986C37.1153 26.5042 34.85 24.239 32.0557 24.239C29.2614 24.239 26.9961 26.5042 26.9961 29.2986C26.9961 32.0929 29.2614 34.3582 32.0557 34.3582Z" fill="#260C64"></path><path d="M9.03418 44.8466H13.5878V61.0371H9.03418V44.8466Z" fill="#260C64"></path><path d="M62.2824 41.3755C61.0968 40.19 59.1747 40.19 57.9892 41.3755L48.4467 50.918H39.6446C41.3212 50.918 42.6804 49.5588 42.6804 47.8822C42.6804 46.2056 41.3212 44.8466 39.6447 44.8466H30.0316L28.0814 43.2655C26.3153 41.8334 24.1105 41.052 21.8367 41.052C19.6071 41.052 17.4426 41.8034 15.6927 43.185L13.5879 44.8467V61.0372L31.9101 62.1862C33.1326 62.2628 34.3589 62.1169 35.5292 61.7554L49.7634 57.3596C50.5503 57.1166 51.2659 56.6852 51.8481 56.103L62.2822 45.6688C63.4679 44.4832 63.4679 42.561 62.2824 41.3755Z" fill="#260C64"></path><path d="M0.938477 42.8227H9.03375V63.0609H0.938477V42.8227Z" fill="#260C64"></path><path d="M35.0186 15.2327C35.0186 13.5989 33.6893 12.2698 32.0557 12.2698C30.4219 12.2698 29.0928 13.599 29.0928 15.2327C29.0928 16.8663 30.422 18.1956 32.0557 18.1956C33.6895 18.1956 35.0186 16.8665 35.0186 15.2327ZM32.0558 16.3174C31.4578 16.3174 30.9711 15.8308 30.9711 15.2327C30.9711 14.6345 31.4577 14.148 32.0558 14.148C32.654 14.148 33.1404 14.6345 33.1404 15.2327C33.1404 15.8308 32.6538 16.3174 32.0558 16.3174Z" fill="white"></path><path d="M62.9466 40.7113C62.1958 39.9604 61.1975 39.5468 60.1357 39.5468C59.0739 39.5468 58.0757 39.9604 57.3248 40.7113L50.9567 47.0802V43.9898C50.9567 43.4712 50.5362 43.0507 50.0176 43.0507C49.4988 43.0507 49.0785 43.4712 49.0785 43.9898V48.9588L48.0584 49.979H43.0202C43.3996 49.3701 43.619 48.6518 43.619 47.8828C43.619 46.8205 43.2055 45.8221 42.455 45.0713C41.9946 44.6109 41.4409 44.278 40.8367 44.0889V38.9117C40.8367 37.5285 40.3217 36.2641 39.4748 35.2973H45.4647C47.4574 35.2973 49.0785 36.9191 49.0785 38.9123V39.6073C49.0785 40.1259 49.499 40.5464 50.0176 40.5464C50.5363 40.5464 50.9567 40.1259 50.9567 39.6073V38.9123C50.9567 36.2177 49.0062 33.9715 46.4436 33.5083C47.5127 32.4245 48.174 30.9375 48.174 29.2986C48.174 26.866 46.7176 24.7685 44.6317 23.8282C46.3521 21.3077 47.2877 18.3035 47.2877 15.2328C47.2877 11.0941 45.6577 7.22492 42.6981 4.33788C42.3266 3.97551 41.732 3.98303 41.37 4.35441C41.0079 4.72566 41.0153 5.3203 41.3865 5.68242C43.9807 8.21297 45.4095 11.6046 45.4095 15.2328C45.4095 18.1543 44.4431 21.0066 42.6801 23.3228C42.5134 23.3088 42.3453 23.3 42.1751 23.3C40.0501 23.3 38.1811 24.4117 37.1151 26.083C36.5949 25.2672 35.8833 24.5854 35.0436 24.1007C35.1295 23.9554 35.2005 23.7987 35.2527 23.6317L35.8328 21.7757L37.7301 22.2014C38.6755 22.4136 39.6368 21.9923 40.1213 21.1529L41.2151 19.2584C41.6998 18.4191 41.5842 17.3761 40.9276 16.6631L39.6103 15.2329L40.9276 13.8027C41.5842 13.0898 41.6998 12.0467 41.2151 11.2076L40.1213 9.31297C39.6368 8.47354 38.6757 8.0522 37.7301 8.26431L35.8327 8.69003L35.2527 6.834C34.9635 5.90905 34.1182 5.28749 33.1491 5.28749H30.9613C29.9921 5.28749 29.1466 5.90905 28.8576 6.83413L28.2777 8.69003L26.3805 8.26431C25.4348 8.05195 24.4739 8.47354 23.9892 9.31284L22.8953 11.2074C22.4107 12.0467 22.5263 13.0898 23.1828 13.8026L24.5002 15.2328L23.1828 16.663C22.5263 17.3759 22.4107 18.4187 22.8953 19.2581L23.9892 21.1527C24.4738 21.992 25.4344 22.4134 26.3805 22.2013L28.2777 21.7755L28.8576 23.6315C28.9098 23.7985 28.9807 23.9553 29.0667 24.1006C28.227 24.5853 27.5154 25.267 26.9952 26.0829C25.9292 24.4115 24.0602 23.2999 21.9352 23.2999C21.765 23.2999 21.5969 23.3088 21.4302 23.3227C19.6673 21.0065 18.7009 18.1543 18.7009 15.2327C18.7009 7.86901 24.6916 1.87832 32.0553 1.87832C34.169 1.87832 36.1916 2.35839 38.0669 3.30512C38.5298 3.5389 39.0945 3.35308 39.3284 2.89004C39.5621 2.427 39.3764 1.86217 38.9133 1.62852C36.7733 0.547932 34.4658 0 32.0553 0C23.656 0 16.8227 6.83325 16.8227 15.2325C16.8227 18.3033 17.7583 21.3076 19.4788 23.8279C17.3928 24.7683 15.9365 26.8658 15.9365 29.2985C15.9365 30.9374 16.5977 32.4243 17.6668 33.5081C15.1039 33.9715 13.1535 36.2174 13.1535 38.9117V43.9074H9.97347V42.8227C9.97347 42.3041 9.553 41.8836 9.03437 41.8836H0.939098C0.420465 41.8836 0 42.3041 0 42.8227V63.0609C0 63.5795 0.420465 64 0.939098 64H9.03437C9.553 64 9.97347 63.5795 9.97347 63.0609V61.9762H13.5647L25.881 62.7491C26.3982 62.7802 26.8447 62.3883 26.8771 61.8706C26.9095 61.353 26.5162 60.907 25.9986 60.8746L14.5276 60.1547V45.3014L16.2753 43.9217C17.0623 43.3002 17.9429 42.8178 18.8924 42.4879C19.842 42.1585 20.8326 41.9914 21.8364 41.9914C23.8889 41.9914 25.8964 42.7031 27.4898 43.996L29.4406 45.5762C29.6077 45.7116 29.8165 45.7855 30.0317 45.7855H39.6447C40.2045 45.7855 40.7309 46.0035 41.1267 46.3994C41.5226 46.7954 41.7406 47.3221 41.7406 47.8828C41.7406 49.0387 40.8004 49.979 39.6446 49.979C38.4887 49.979 39.6446 49.979 39.6446 49.979H28.7666C28.5175 49.979 28.2786 50.0779 28.1026 50.2541L26.7744 51.5823C26.4077 51.949 26.4077 52.5435 26.7744 52.9104C26.9577 53.0938 27.1981 53.1855 27.4384 53.1855C27.6787 53.1855 27.9191 53.0938 28.1024 52.9104L29.1555 51.8573H48.4474C48.6965 51.8573 48.9355 51.7583 49.1115 51.5823L58.653 42.0396C59.0491 41.6435 59.5756 41.4253 60.1357 41.4253C60.6958 41.4253 61.2224 41.6435 61.6185 42.0396C62.436 42.8572 62.436 44.1875 61.6185 45.0052L51.1843 55.4394C50.7121 55.9115 50.1251 56.2651 49.4863 56.4622L35.2512 60.8587C34.1883 61.1876 33.0839 61.3191 31.9688 61.2493L30.3723 61.1492C29.8543 61.1165 29.4087 61.5099 29.3762 62.0276C29.3438 62.5453 29.7371 62.9913 30.2547 63.0237L31.8514 63.1239C32.0846 63.1384 32.3171 63.1457 32.5494 63.1457C33.6549 63.1457 34.7476 62.9806 35.806 62.6531L50.0403 58.2569C50.97 57.9701 51.8248 57.4551 52.5126 56.7676L62.9468 46.3333C64.4965 44.7831 64.4965 42.2611 62.9466 40.7113ZM42.1754 25.1781C44.4475 25.1781 46.2959 27.0265 46.2959 29.2986C46.2959 31.5706 44.4475 33.419 42.1754 33.419C39.9034 33.419 38.055 31.5706 38.055 29.2986C38.055 27.0265 39.9034 25.1781 42.1754 25.1781ZM30.9615 23.2999C30.8183 23.2999 30.6933 23.2081 30.6506 23.0714L29.8328 20.4539C29.7624 20.2289 29.6101 20.0386 29.406 19.9208L29.3213 19.8718C29.1773 19.7884 29.0149 19.7456 28.851 19.7456C28.7823 19.7456 28.7133 19.7531 28.6454 19.7684L25.9696 20.3688C25.8296 20.4 25.6877 20.3377 25.6161 20.2138L24.5222 18.3192C24.4506 18.1951 24.4676 18.0408 24.5647 17.9355L26.4231 15.9178C26.5827 15.7444 26.6714 15.5174 26.6714 15.2816V15.184C26.6714 14.9482 26.5827 14.7212 26.4231 14.5477L24.5647 12.5301C24.4676 12.4248 24.4506 12.2705 24.5222 12.1464L25.6161 10.2518C25.6878 10.1277 25.8302 10.0657 25.9696 10.0968L28.6454 10.6972C28.8755 10.7489 29.1169 10.7121 29.3213 10.5938L29.406 10.5448C29.6101 10.427 29.7625 10.2367 29.8328 10.0117L30.6506 7.3942C30.6933 7.25747 30.8183 7.16569 30.9615 7.16569H33.1494C33.2926 7.16569 33.4176 7.2576 33.4603 7.3942L34.2782 10.0117C34.3484 10.2364 34.5003 10.4266 34.7042 10.5444L34.7897 10.5938C34.9942 10.712 35.2358 10.749 35.4656 10.6972L38.1414 10.0968C38.2811 10.0654 38.4232 10.1279 38.4949 10.2518L39.5888 12.1465C39.6603 12.2705 39.6433 12.4246 39.5463 12.5301L37.6879 14.5477C37.5282 14.7212 37.4396 14.9482 37.4396 15.184V15.2814C37.4396 15.5171 37.5282 15.7442 37.6879 15.9176L39.5463 17.9353C39.6432 18.0406 39.6603 18.1947 39.5887 18.3189L38.4949 20.2136C38.4232 20.3377 38.2811 20.3995 38.1414 20.3685L35.4653 19.7681C35.2356 19.7164 34.9948 19.7531 34.7907 19.8709L34.7043 19.9208C34.5006 20.0387 34.3486 20.2288 34.2784 20.4534L33.4604 23.0711C33.4176 23.2079 33.2926 23.2998 33.1495 23.2998H30.9615V23.2999ZM32.0554 25.1781C34.3274 25.1781 36.1758 27.0265 36.1758 29.2986C36.1758 31.5706 34.3274 33.419 32.0554 33.419C29.7834 33.419 27.9349 31.5706 27.9349 29.2986C27.9349 27.0265 29.7833 25.1781 32.0554 25.1781ZM21.9353 25.1781C24.2073 25.1781 26.0558 27.0265 26.0558 29.2986C26.0558 31.5706 24.2074 33.419 21.9353 33.419C19.6633 33.419 17.8149 31.5706 17.8149 29.2986C17.8149 27.0265 19.6633 25.1781 21.9353 25.1781ZM8.09527 62.1218H1.8782V43.7618H8.09527V62.1218ZM9.97347 45.7856H12.6493V60.098H9.97347V45.7856ZM18.2763 40.7135C17.128 41.1124 16.0632 41.6958 15.1115 42.4475L15.0318 42.5103V38.9116C15.0318 36.9186 16.6533 35.2972 18.6462 35.2972H24.6359C23.789 36.2639 23.2738 37.5283 23.2738 38.9116V40.2104C22.7989 40.1465 22.3187 40.1131 21.8364 40.1131C20.6226 40.1131 19.4248 40.3151 18.2763 40.7135ZM28.6727 42.5367C27.6239 41.6859 26.426 41.0449 25.1522 40.6359V38.9116C25.1522 36.9186 26.7737 35.2972 28.7666 35.2972H35.344C37.3369 35.2972 38.9584 36.9187 38.9584 38.9116V43.9071H30.3643L28.6727 42.5367Z" fill="white"></path></svg> 