<?xml version="1.0" encoding="UTF-8"?> <svg xmlns="http://www.w3.org/2000/svg" width="62" height="64" viewBox="0 0 62 64" fill="none"><path d="M60.5662 28.8527L52.7998 31.8446V15.9065L60.5662 18.8984C60.8454 19.006 61.0297 19.2744 61.0297 19.5736V28.1774C61.0297 28.4767 60.8454 28.7451 60.5662 28.8527V28.8527Z" fill="#01BEDF"></path><path d="M60.5662 15.8537L52.7998 18.8456V2.90747L60.5662 5.89935C60.8454 6.00697 61.0297 6.27535 61.0297 6.5746V15.1783C61.0297 15.4777 60.8454 15.7461 60.5662 15.8537V15.8537Z" fill="#260C64"></path><path d="M9.70996 1.57162V54.1325C9.70996 54.4827 9.99384 54.7666 10.3441 54.7666H53.753C54.1032 54.7666 54.3871 54.4827 54.3871 54.1325V1.57162C54.3871 1.22137 54.1032 0.9375 53.753 0.9375H10.3441C9.99384 0.9375 9.70996 1.22137 9.70996 1.57162V1.57162Z" fill="#260C64"></path><path d="M42.1886 12.4251V62.4284C42.1886 62.7786 41.9047 63.0625 41.5545 63.0625H13.166L0.9375 50.834V12.4251C0.9375 12.0749 1.22138 11.791 1.57163 11.791H41.5545C41.9046 11.7911 42.1886 12.075 42.1886 12.4251V12.4251Z" fill="#260C64"></path><path d="M20.9228 21.9387H16.8883C16.7343 21.9387 16.6094 21.8138 16.6094 21.6598V17.6253C16.6094 17.3943 16.4221 17.2069 16.1911 17.2069H12.0848C11.8538 17.2069 11.6664 17.3943 11.6664 17.6253V21.6598C11.6664 21.8138 11.5416 21.9387 11.3876 21.9387H7.35295C7.12195 21.9387 6.93457 22.126 6.93457 22.357V26.4633C6.93457 26.6943 7.12195 26.8817 7.35295 26.8817H11.3874C11.5414 26.8817 11.6663 27.0065 11.6663 27.1605V31.195C11.6663 31.426 11.8536 31.6134 12.0847 31.6134H16.1909C16.4219 31.6134 16.6093 31.426 16.6093 31.195V27.1605C16.6093 27.0065 16.7342 26.8817 16.8882 26.8817H20.9227C21.1537 26.8817 21.3411 26.6943 21.3411 26.4633V22.357C21.3412 22.126 21.1538 21.9387 20.9228 21.9387V21.9387Z" fill="#01BEDF"></path><path d="M35.8118 23.2589H30.5174C30.3082 23.2589 30.1387 23.0893 30.1387 22.8802V17.5858C30.1387 17.3767 30.3083 17.207 30.5174 17.207H35.8118C36.0209 17.207 36.1905 17.3767 36.1905 17.5858V22.8802C36.1905 23.0893 36.021 23.2589 35.8118 23.2589Z" fill="#260C64"></path><path d="M13.166 63.0625V52.0884C13.166 51.3955 12.6044 50.8339 11.9115 50.8339H0.9375L13.166 63.0625Z" fill="#260C64"></path><path d="M61.9674 15.1788V6.575C61.9674 5.8935 61.5399 5.27062 60.9032 5.02525L55.3249 2.87538V1.57125C55.3249 0.704875 54.6194 0 53.7524 0H10.3436C9.47725 0 8.77238 0.704875 8.77238 1.57125V10.8536H1.57162C0.705 10.8536 0 11.5586 0 12.4253V24.4102C0 24.928 0.41975 25.3477 0.9375 25.3477C1.45525 25.3477 1.875 24.928 1.875 24.4102V12.7286H41.2511V62.125H14.1036V52.0885C14.1036 50.8799 13.1202 49.8965 11.9116 49.8965H1.87513V28.7852C1.87513 28.2675 1.45537 27.8477 0.937625 27.8477C0.419875 27.8477 0.000124931 28.2675 0.000124931 28.7852V50.834C0.000124931 51.0906 0.108 51.3303 0.27475 51.4969L12.5034 63.7254C12.6696 63.8916 12.9073 64 13.1663 64H41.5546C42.4212 64 43.1263 63.295 43.1263 62.4284V55.7038H53.7525C54.6196 55.7038 55.325 54.9989 55.325 54.1325V43.0975C55.325 42.5797 54.9053 42.16 54.3875 42.16C53.8698 42.16 53.45 42.5797 53.45 43.0975V53.8288H43.1263V12.4251C43.1263 11.5585 42.4212 10.8535 41.5546 10.8535H10.6474V1.875H53.4499V38.7225C53.4499 39.2402 53.8696 39.66 54.3874 39.66C54.9051 39.66 55.3249 39.2402 55.3249 38.7225V31.8771L60.9034 29.7271C61.5397 29.4818 61.9674 28.859 61.9674 28.1775V19.5737C61.9674 18.8922 61.5399 18.2694 60.9032 18.024L59.2226 17.3762L60.9034 16.7285C61.5399 16.4831 61.9674 15.8603 61.9674 15.1788V15.1788ZM12.2286 52.0885V60.7993L3.20087 51.7715H11.9116C12.0865 51.7715 12.2286 51.9138 12.2286 52.0885V52.0885ZM60.0924 19.7209V28.0304L55.3249 29.8678V18.8784L56.6159 18.3809L60.0924 19.7209ZM60.0924 15.0316L55.3249 16.869V4.88475L60.0924 6.72213V15.0316Z" fill="white"></path><path d="M36.1905 52.0029H17.707C17.1893 52.0029 16.7695 52.4226 16.7695 52.9404C16.7695 53.4581 17.1893 53.8779 17.707 53.8779H36.1904C36.7082 53.8779 37.1279 53.4581 37.1279 52.9404C37.1279 52.4226 36.7083 52.0029 36.1905 52.0029V52.0029Z" fill="white"></path><path d="M6.93457 39.66H10.9469C11.4647 39.66 11.8844 39.2402 11.8844 38.7225C11.8844 38.2047 11.4647 37.785 10.9469 37.785H6.93457C6.41682 37.785 5.99707 38.2047 5.99707 38.7225C5.99707 39.2402 6.41682 39.66 6.93457 39.66Z" fill="white"></path><path d="M16.7695 38.7225C16.7695 39.2402 17.1893 39.66 17.707 39.66H36.1904C36.7082 39.66 37.1279 39.2402 37.1279 38.7225C37.1279 38.2047 36.7082 37.785 36.1904 37.785H17.707C17.1893 37.785 16.7695 38.2047 16.7695 38.7225V38.7225Z" fill="white"></path><path d="M6.93457 46.769H10.9469C11.4647 46.769 11.8844 46.3492 11.8844 45.8315C11.8844 45.3137 11.4647 44.894 10.9469 44.894H6.93457C6.41682 44.894 5.99707 45.3137 5.99707 45.8315C5.99707 46.3492 6.41682 46.769 6.93457 46.769Z" fill="white"></path><path d="M36.1905 44.894H17.707C17.1893 44.894 16.7695 45.3137 16.7695 45.8315C16.7695 46.3492 17.1893 46.769 17.707 46.769H36.1904C36.7082 46.769 37.1279 46.3492 37.1279 45.8315C37.1279 45.3137 36.7083 44.894 36.1905 44.894V44.894Z" fill="white"></path><path d="M16.1909 16.2694H12.0846C11.3369 16.2694 10.7287 16.8777 10.7287 17.6253V21.0012H7.35295C6.60532 21.0012 5.99707 21.6094 5.99707 22.357V26.4634C5.99707 27.211 6.60532 27.8193 7.35295 27.8193H10.7288V31.1953C10.7288 31.9429 11.3371 32.5512 12.0847 32.5512H16.1911C16.9387 32.5512 17.5469 31.9429 17.5469 31.1953V27.8193H20.9228C21.6704 27.8193 22.2787 27.211 22.2787 26.4634V22.357C22.2787 21.6094 21.6704 21.0012 20.9228 21.0012H17.5469V17.6253C17.5469 16.8777 16.9386 16.2694 16.1909 16.2694ZM20.4037 22.8762V25.9442H16.8882C16.2174 25.9442 15.6718 26.4899 15.6718 27.1605V30.6759H12.6038V27.1605C12.6038 26.4898 12.0581 25.9442 11.3874 25.9442H7.87207V22.8762H11.3874C12.0582 22.8762 12.6038 22.3305 12.6038 21.6598V18.1443H15.6718V21.6598C15.6718 22.3305 16.2174 22.8762 16.8882 22.8762H20.4037Z" fill="white"></path><path d="M35.8118 24.1964C36.5377 24.1964 37.128 23.6059 37.128 22.8802V17.5858C37.128 16.8599 36.5375 16.2695 35.8118 16.2695H30.5174C29.7917 16.2695 29.2012 16.86 29.2012 17.5858V22.8802C29.2012 23.606 29.7917 24.1964 30.5174 24.1964H35.8118ZM31.0762 18.1444H35.2532V22.3214H31.0762V18.1444Z" fill="white"></path></svg> 