<svg width="755" height="309" viewBox="0 0 755 309" fill="none" xmlns="http://www.w3.org/2000/svg">
<mask id="mask0_687_5792" style="mask-type:alpha" maskUnits="userSpaceOnUse" x="0" y="0" width="755" height="309">
<rect y="0.480469" width="755" height="308.04" fill="#D9D9D9"/>
</mask>
<g mask="url(#mask0_687_5792)">
<path d="M-595.946 336.707C-560.944 311.586 -458.178 268.88 -327.131 299.026C-163.321 336.707 -49.952 336.707 1.88811 283.209C73.1119 209.706 62.2775 146.011 96.6269 92.9396C143.296 20.8327 268.837 41.3017 308.506 123.643C348.175 205.985 461.581 209.241 504.984 178.537C548.386 147.834 597.856 81.3095 679.06 92.9396C744.024 102.244 786.089 159.619 795.267 165.977" stroke="black" stroke-opacity="0.15"/>
<path d="M592.293 82.2745L603.028 80.8107L604.979 74.4676L610.347 70.0762L616.69 72.5158L620.593 79.8349H638.159L640.111 73.9796L644.502 70.0762L650.357 73.4917L652.797 79.8349L662.068 83.2504V92.0332L669.387 93.0091L673.778 97.4005L671.826 105.207L663.531 107.159L659.628 114.478H592.293V82.2745Z" fill="#F9F9F9"/>
<g clip-path="url(#clip0_687_5792)">
<path d="M667.37 90.1183C666.135 90.1183 664.938 90.3802 663.834 90.8667V82.0172C663.834 81.0069 663.03 80.2024 662.019 80.2024H653.188C653.675 79.0985 653.937 77.9012 653.937 76.6663C653.937 71.7832 649.952 67.7982 645.069 67.7982C640.186 67.7982 636.219 71.7832 636.219 76.6663C636.219 77.9012 636.481 79.0985 636.949 80.2024H628.118H628.099H619.287C619.774 79.0985 620.036 77.9012 620.036 76.6663C620.036 71.7832 616.051 67.7982 611.168 67.7982C606.284 67.7982 602.318 71.7832 602.318 76.6663C602.318 77.9012 602.58 79.0985 603.066 80.2024H594.236C593.225 80.2024 592.421 81.0069 592.421 82.0172V94.4401C592.421 95.2072 592.889 95.8807 593.6 96.1427C594.311 96.4046 595.115 96.1988 595.601 95.6188C596.63 94.4027 598.052 93.7479 599.605 93.7479C602.486 93.7479 604.844 96.0865 604.844 98.9865C604.844 101.868 602.505 104.225 599.605 104.225C598.052 104.225 596.649 103.57 595.601 102.354C595.115 101.774 594.311 101.568 593.6 101.83C592.889 102.092 592.421 102.766 592.421 103.533V115.956C592.421 116.442 592.608 116.891 592.945 117.247C593.282 117.583 593.749 117.771 594.236 117.771H628.118H662.019C663.03 117.771 663.834 116.966 663.834 115.956V107.125C664.938 107.611 666.135 107.873 667.37 107.873C672.253 107.873 676.238 103.888 676.238 99.0052C676.238 94.0846 672.272 90.1183 667.37 90.1183ZM596.05 107.088C597.154 107.574 598.352 107.836 599.605 107.836C604.488 107.836 608.473 103.87 608.473 98.9677C608.473 94.0846 604.507 90.0996 599.605 90.0996C598.352 90.0996 597.154 90.3615 596.05 90.8479V83.8133H606.64C607.407 83.8133 608.081 83.3268 608.342 82.6159C608.604 81.9049 608.38 81.1004 607.8 80.614C606.621 79.6224 605.948 78.1818 605.948 76.6476C605.948 73.7664 608.286 71.409 611.168 71.409C614.049 71.409 616.406 73.7664 616.406 76.6476C616.406 78.1818 615.733 79.6224 614.554 80.614C613.974 81.1004 613.749 81.9049 614.011 82.6159C614.273 83.3268 614.947 83.8133 615.714 83.8133H626.303L626.322 94.4401C626.322 95.2072 626.808 95.8807 627.519 96.1427C628.23 96.4046 629.035 96.1801 629.521 95.6001C630.513 94.4214 631.953 93.7479 633.506 93.7479C636.388 93.7479 638.745 96.1052 638.745 98.9865C638.745 101.868 636.388 104.206 633.506 104.206C631.953 104.206 630.513 103.533 629.54 102.354C629.054 101.774 628.249 101.55 627.538 101.812C626.827 102.073 626.341 102.747 626.341 103.514L626.322 114.122H596.069V107.088H596.05ZM667.37 104.206C665.836 104.206 664.395 103.533 663.404 102.354C662.917 101.774 662.113 101.55 661.383 101.812C660.672 102.073 660.186 102.747 660.186 103.514V114.104H629.933V107.088C631.037 107.574 632.253 107.836 633.488 107.836C638.371 107.836 642.356 103.87 642.356 98.9865C642.356 94.1033 638.371 90.1183 633.488 90.1183C632.234 90.1183 631.037 90.3802 629.933 90.8667V83.832H640.522C641.289 83.832 641.963 83.3455 642.225 82.6346C642.487 81.9236 642.262 81.1191 641.682 80.614C640.522 79.6411 639.849 78.2005 639.849 76.6476C639.849 73.7664 642.187 71.409 645.069 71.409C647.95 71.409 650.307 73.7664 650.307 76.6476C650.307 78.1818 649.634 79.6224 648.455 80.614C647.875 81.1004 647.651 81.9049 647.912 82.6346C648.174 83.3455 648.848 83.832 649.615 83.832H660.204V94.4401C660.204 95.2072 660.691 95.8807 661.402 96.1427C662.113 96.4046 662.917 96.1801 663.404 95.6001C664.395 94.4214 665.836 93.7479 667.37 93.7479C670.251 93.7479 672.609 96.0865 672.609 98.9677C672.609 101.849 670.27 104.206 667.37 104.206ZM634.33 49.1451C635.34 49.2012 636.144 48.3219 636.144 47.3303L636.126 38.8363C636.126 37.826 635.321 37.0215 634.33 37.0215C633.319 37.0215 632.515 37.8447 632.515 38.8363L632.533 47.3303C632.515 48.3406 633.338 49.1451 634.33 49.1451ZM607.987 54.8888C608.324 55.4688 608.941 55.7868 609.559 55.7868C609.858 55.7868 610.176 55.712 610.457 55.5436C611.317 55.0385 611.617 53.9346 611.111 53.074L606.864 45.7213C606.359 44.8419 605.255 44.5426 604.395 45.0477C603.534 45.5529 603.235 46.6567 603.74 47.5174L607.987 54.8888ZM610.475 138.257C609.615 137.752 608.492 138.051 607.987 138.912L603.74 146.246C603.235 147.107 603.534 148.229 604.395 148.734C604.675 148.903 604.993 148.978 605.312 148.978C605.929 148.978 606.546 148.659 606.883 148.079L611.13 140.745C611.635 139.885 611.336 138.762 610.475 138.257ZM634.348 144.656C633.338 144.656 632.533 145.46 632.533 146.47L632.515 154.946C632.515 155.956 633.319 156.761 634.33 156.761C635.321 156.761 636.144 155.956 636.144 154.946L636.163 146.47C636.163 145.479 635.359 144.656 634.348 144.656ZM660.71 138.912C660.204 138.051 659.101 137.752 658.24 138.238C657.379 138.744 657.08 139.847 657.566 140.708L661.795 148.042C662.131 148.622 662.749 148.959 663.366 148.959C663.666 148.959 663.984 148.884 664.264 148.716C665.125 148.21 665.424 147.107 664.938 146.246L660.71 138.912ZM658.221 55.5436C658.502 55.712 658.82 55.7868 659.119 55.7868C659.755 55.7868 660.354 55.4688 660.691 54.8701L664.919 47.5174C665.424 46.6567 665.125 45.5342 664.246 45.0477C663.385 44.5426 662.262 44.8419 661.776 45.7213L657.548 53.074C657.043 53.9346 657.342 55.0385 658.221 55.5436Z" fill="url(#paint0_linear_687_5792)" stroke="url(#paint1_linear_687_5792)" stroke-width="2"/>
</g>
<g clip-path="url(#clip1_687_5792)">
<path d="M219.594 49.3917C218.774 38.3779 227.832 29.1574 238.859 29.7816L239.465 29.8159C242.372 29.9804 245.179 30.9308 247.589 32.5657L249.203 33.661C254.161 37.0255 260.744 36.715 265.364 32.8989V32.8989C267.59 31.0599 270.348 29.984 273.231 29.8295L274.814 29.7447C286.012 29.1448 295.109 38.6714 293.993 49.8306L291.822 71.5443C291.126 78.5052 288.16 85.044 283.38 90.1527L282.644 90.9397C271.252 103.117 252.4 104.459 239.398 94.0183L233.624 89.3811C231.381 87.5804 229.393 85.4847 227.713 83.1509L226.715 81.7653C223.28 76.9944 221.231 71.3665 220.794 65.5038L219.594 49.3917Z" fill="#F9F9F9"/>
<path d="M281.637 67.983L277.902 64.8826L281.178 60.9336L284.912 64.0341L281.637 67.983Z" fill="url(#paint2_linear_687_5792)"/>
<path d="M269.998 27.6073C264.581 28.7284 260.286 32.0221 257.595 36.9563C255.238 32.6169 251.316 29.2913 246.549 27.9195C238.564 25.6228 229.749 28.7728 224.16 34.7037C217.508 41.7642 215.818 51.8467 219.523 62.3654L224.36 60.6601C220.191 48.826 224.783 41.5257 227.892 38.2264C232.473 33.3646 239.401 31.2092 245.132 32.8572C250.017 34.2627 253.447 38.273 254.866 44.1851L248.441 57.9459C246.634 61.8171 247.861 66.4076 251.36 68.8608C255.682 71.8914 261.877 70.3326 264.256 65.6308L268.589 57.0639L274.701 62.1382L277.976 58.1889L269.39 51.0607C268.147 50.029 266.19 50.4425 265.464 51.8767L259.68 63.3134C258.689 65.2722 256.107 65.9231 254.303 64.6584C252.847 63.6376 252.336 61.7279 253.088 60.1179L259.574 46.2262C259.83 45.9089 260.016 45.5291 260.1 45.108C261.467 38.2475 265.351 33.8093 271.037 32.6325C277.537 31.2862 284.954 34.5134 289.075 40.4784C292.139 44.9151 295.899 54.5386 286.642 69.1424C286.014 70.1326 286.137 71.4223 286.94 72.2758L287.023 72.3624C287.038 72.3784 290.263 76.2148 290.263 76.2148C291.287 77.4346 291.119 79.3098 289.902 80.3296C288.666 81.3669 286.815 81.2055 285.777 79.9693C284.867 78.8845 283.249 78.7437 282.164 79.655C281.08 80.5664 280.939 82.1848 281.85 83.2699L281.85 83.2701C281.852 83.2718 281.853 83.2735 281.854 83.2752L282.153 83.6311C283.03 84.6756 282.9 86.2464 281.863 87.1326C280.795 88.0451 279.145 87.8761 278.271 86.7831C277.359 85.6986 275.742 85.5587 274.658 86.4701C273.574 87.3816 273.434 89 274.344 90.0848C275.252 91.1663 275.1 92.8374 274.014 93.7382C272.919 94.6459 271.285 94.4985 270.37 93.4094C270.213 93.2224 270.007 93.0436 269.817 92.8857C268.795 91.9907 267.253 92.0485 266.3 93.0176C265.348 93.9868 265.316 95.5309 266.227 96.5385C267.195 97.6082 267.155 99.2466 266.136 100.268C265.134 101.273 263.508 101.333 262.435 100.405L261.421 99.5286L258.068 103.413L259.082 104.289C263.699 107.994 267.973 105.728 269.767 103.893C271 102.632 271.752 101.077 271.981 99.4504C273.843 99.542 275.745 98.9675 277.286 97.6899C278.772 96.4585 279.725 94.756 279.999 92.8611C281.904 92.9238 283.735 92.2816 285.194 91.0348C286.704 89.7445 287.585 87.9792 287.804 86.1392C289.703 86.1914 291.63 85.5772 293.197 84.2626C296.56 81.4424 297.015 76.2792 294.19 72.9142L291.966 70.2644C297.789 60.339 300.754 49.8706 293.294 37.5606C288.683 29.9531 278.871 25.7704 269.998 27.6073Z" fill="url(#paint3_linear_687_5792)"/>
<path d="M259.028 84.3626C257.49 83.0732 255.597 82.479 253.733 82.5449C253.487 80.6395 252.561 78.8191 250.993 77.5204C249.402 76.1864 247.43 75.5979 245.504 75.7133C245.228 73.8665 244.31 72.1114 242.786 70.8492C241.248 69.5598 239.355 68.9656 237.491 69.0315C237.245 67.1261 236.319 65.3057 234.751 64.007C231.449 61.2394 226.51 61.6711 223.74 64.9704L219.824 69.6339C217.009 72.9877 217.49 78.0113 220.832 80.6828C222.519 82.0317 224.365 82.5495 226.084 82.511C226.325 84.4272 227.267 86.2457 228.867 87.5249C230.617 88.9241 232.539 89.4284 234.312 89.3457C234.584 91.2016 235.519 92.9534 237.073 94.1961C238.761 95.5449 240.607 96.0628 242.326 96.0242C242.567 97.9404 243.509 99.759 245.109 101.038C249.211 104.317 254.254 102.692 256.119 100.075L260.035 95.4112C262.793 92.1265 262.324 87.0924 259.028 84.3626ZM224.129 76.7519C222.955 75.8479 222.813 74.0524 223.752 72.9347L227.667 68.2712C228.62 67.1357 230.32 66.9878 231.452 67.9366C232.615 68.8325 232.766 70.6021 231.855 71.7227C231.829 71.753 231.802 71.7818 231.776 71.8126L227.86 76.4762C227.857 76.4803 227.854 76.4846 227.85 76.4887C226.888 77.5565 225.24 77.6817 224.129 76.7519ZM232.164 83.5941C231.073 82.7531 230.875 81.1411 231.608 80.0205C231.69 79.9217 231.77 79.8217 231.842 79.7194L235.758 75.0559C235.761 75.052 235.765 75.0477 235.768 75.0436C236.731 73.9747 238.38 73.8505 239.488 74.7788C240.662 75.6832 240.806 77.4788 239.867 78.5973L235.951 83.2609C234.999 84.3953 233.301 84.5445 232.164 83.5941ZM240.371 90.2653C239.197 89.3613 239.055 87.5658 239.993 86.4482L243.909 81.7846C244.862 80.6491 246.562 80.5012 247.694 81.45C248.857 82.3459 249.008 84.1155 248.097 85.2361C248.071 85.2664 248.043 85.2952 248.018 85.326L244.102 89.9896C244.099 89.9937 244.096 89.998 244.092 90.0021C243.13 91.0698 241.482 91.1949 240.371 90.2653ZM256.108 92.1107L252.193 96.7743C251.241 97.9087 249.543 98.0579 248.406 97.1075C247.315 96.2665 247.117 94.6545 247.85 93.5339C247.932 93.4349 248.012 93.3351 248.084 93.2329L252 88.5693C252.003 88.5654 252.006 88.5611 252.01 88.557C252.973 87.4881 254.622 87.3639 255.73 88.2922C256.904 89.1964 257.048 90.992 256.108 92.1107Z" fill="url(#paint4_linear_687_5792)"/>
</g>
<g clip-path="url(#clip2_687_5792)">
<path d="M98.5037 67.6389L106.311 65.1992L109.726 121.8L118.509 132.046H87.2812L97.5279 120.824L98.5037 67.6389Z" fill="#F9F9F9"/>
<path d="M142.735 94.4391H130.907C129.724 94.4391 128.935 95.2276 128.935 96.4104C128.935 97.5933 129.724 98.3818 130.907 98.3818H140.763C140.763 102.719 137.215 106.267 132.878 106.267C128.541 106.267 124.992 102.719 124.992 98.3818V96.8047L132.878 76.3025L137.806 89.3135C138.201 90.2992 139.383 90.8906 140.369 90.4964C141.355 90.1021 141.946 88.9193 141.552 87.9336L136.426 74.7254H138.792C139.975 74.7254 140.763 73.9369 140.763 72.7541C140.763 71.5712 139.975 70.7827 138.792 70.7827H135.638C135.441 70.7827 135.046 70.7827 134.849 70.7827L134.652 70.1913C134.455 69.4027 133.666 68.8113 132.878 68.8113C132.089 68.8113 131.301 69.4027 131.104 69.9941V70.1913C128.738 69.5999 126.372 68.8113 124.204 67.6285C119.67 64.8686 114.347 64.2772 109.419 65.6571C108.433 64.4743 107.053 63.6858 105.476 63.0944V51.069C105.476 49.8862 104.687 49.0977 103.505 49.0977C102.322 49.0977 101.533 49.8862 101.533 51.069V63.0944C99.9561 63.4886 98.5761 64.4743 97.5904 65.6571C92.662 64.2772 87.1422 64.8686 82.8052 67.6285C80.4395 68.8113 78.0739 69.797 75.7083 70.1913V69.9941C75.314 69.4027 74.5254 68.8113 73.7369 68.8113C72.9483 68.8113 72.1598 69.4027 71.9627 69.9941L71.5684 70.7827C71.3712 70.7827 70.977 70.7827 70.7798 70.7827H67.8228C66.64 70.7827 65.8514 71.5712 65.8514 72.7541C65.8514 73.9369 66.64 74.7254 67.8228 74.7254H70.1884L62.1058 95.6219C61.9087 96.0162 61.9087 96.2133 61.9087 96.4104V98.3818C61.9087 104.887 67.2314 110.21 73.7369 110.21C80.2424 110.21 85.5651 104.887 85.5651 98.3818V96.4104C85.5651 95.2276 84.7765 94.4391 83.5937 94.4391H71.7655C70.5827 94.4391 69.7942 95.2276 69.7942 96.4104C69.7942 97.5933 70.5827 98.3818 71.7655 98.3818H81.6224C81.6224 102.719 78.0739 106.267 73.7369 106.267C69.3999 106.267 65.8514 102.719 65.8514 98.3818V96.8047L73.7369 76.3025L78.6653 89.3135C79.0596 90.2992 80.2424 90.8906 81.2281 90.4964C82.2138 90.1021 82.8052 88.9193 82.4109 87.9336L77.0882 74.134C79.651 73.5426 82.2138 72.5569 84.5794 71.177C87.9307 69.2056 91.8735 68.6142 95.6191 69.4027C95.6191 69.797 95.4219 70.3884 95.4219 70.9798C95.4219 73.3455 96.4076 75.3168 97.9847 76.6968L95.8162 117.11C95.6191 120.658 93.6477 123.812 90.4935 125.39L86.5508 127.361C84.9737 128.149 83.5937 130.121 83.5937 131.895C82.4109 131.895 81.6224 132.684 81.6224 133.866C81.6224 135.049 82.4109 135.838 83.5937 135.838H123.021C124.204 135.838 124.992 135.049 124.992 133.866C124.992 132.684 124.204 131.895 123.021 131.895C123.021 130.121 121.641 128.149 120.064 127.361L116.121 125.39C112.967 123.812 110.996 120.658 110.799 117.11L109.024 84.5823C109.024 83.3994 108.039 82.6109 106.856 82.808C105.673 82.808 104.884 83.7937 105.082 84.9765L106.856 117.504C107.053 122.432 110.01 126.769 114.347 129.135L118.487 131.304C118.684 131.501 119.078 131.895 119.078 132.289H87.5365C87.5365 132.092 87.9307 131.501 88.325 131.304L92.2677 129.332C96.6047 127.164 99.5618 122.63 99.7589 117.701L101.73 78.8653C102.125 78.8653 102.716 79.0624 103.11 79.0624C107.447 79.0624 110.996 75.514 110.996 71.177C110.996 70.5855 110.996 70.1913 110.799 69.5999C114.544 68.8113 118.487 69.2056 121.838 71.3741C124.204 72.7541 126.57 73.7397 129.329 74.3311L121.05 96.0162C121.05 96.2133 120.853 96.4105 120.853 96.8047V98.7761C120.853 105.282 126.175 110.604 132.681 110.604C139.186 110.604 144.509 105.282 144.509 98.7761V96.8047C144.706 95.2276 143.918 94.4391 142.735 94.4391ZM103.307 74.7254C101.139 74.7254 99.3646 72.9512 99.3646 70.7827C99.3646 68.6142 101.139 66.84 103.307 66.84C105.476 66.84 107.25 68.6142 107.25 70.7827C107.25 72.9512 105.476 74.7254 103.307 74.7254Z" fill="url(#paint5_linear_687_5792)" stroke="url(#paint6_linear_687_5792)" stroke-width="1.5"/>
</g>
<g clip-path="url(#clip3_687_5792)">
<rect x="474.703" y="127.168" width="58.5521" height="54.6487" rx="23.6705" fill="#F9F9F9"/>
<path d="M489.752 183.776V197.639C489.752 201.13 492.604 203.982 496.096 203.982H512.344C515.836 203.982 518.688 201.13 518.688 197.639V183.776C529.525 178.314 536.457 167.148 536.457 154.979C536.474 137.21 522.006 122.742 504.22 122.742C486.434 122.742 471.966 137.21 471.966 154.996C471.966 167.148 478.914 178.314 489.752 183.776ZM515.231 184.986V190.863H493.209V184.986H515.231ZM512.344 200.525H496.096C494.506 200.525 493.209 199.229 493.209 197.639V194.337H515.248V197.639C515.231 199.229 513.934 200.525 512.344 200.525ZM504.22 126.199C520.088 126.199 533.017 139.111 533.017 154.996C533.017 166.18 526.431 176.43 516.25 181.131C516.043 181.235 515.87 181.373 515.715 181.546H492.725C492.57 181.391 492.397 181.235 492.189 181.131C482.009 176.43 475.423 166.18 475.423 154.996C475.423 139.111 488.352 126.199 504.22 126.199Z" fill="url(#paint7_linear_687_5792)" stroke="url(#paint8_linear_687_5792)" stroke-width="2"/>
<path d="M504.216 164.052C509.211 164.052 513.273 159.99 513.273 154.995C513.273 150 509.211 145.938 504.216 145.938C499.22 145.938 495.158 150 495.158 154.995C495.158 159.99 499.22 164.052 504.216 164.052ZM504.216 149.377C507.31 149.377 509.816 151.901 509.816 154.978C509.816 158.054 507.31 160.595 504.216 160.595C501.122 160.595 498.615 158.072 498.615 154.995C498.615 151.918 501.122 149.377 504.216 149.377Z" fill="url(#paint9_linear_687_5792)" stroke="url(#paint10_linear_687_5792)" stroke-width="2"/>
<path d="M487.793 164.054L484.838 167.528C484.25 168.22 484.302 169.24 484.924 169.879L489.332 174.287C489.971 174.926 490.991 174.961 491.682 174.373L495.157 171.418C496.384 172.109 497.68 172.645 499.029 173.025L499.392 177.571C499.461 178.47 500.221 179.161 501.12 179.161H507.343C508.242 179.161 509.002 178.47 509.071 177.571L509.434 173.025C510.783 172.645 512.079 172.092 513.306 171.418L516.78 174.373C517.472 174.961 518.492 174.926 519.131 174.287L523.539 169.879C524.179 169.24 524.213 168.22 523.625 167.528L520.635 164.054C521.326 162.827 521.862 161.53 522.243 160.182L526.789 159.819C527.687 159.75 528.379 158.99 528.379 158.091V151.868C528.379 150.969 527.687 150.209 526.789 150.14L522.243 149.777C521.862 148.428 521.309 147.132 520.635 145.905L523.591 142.43C524.179 141.739 524.127 140.719 523.504 140.08L519.097 135.706C518.457 135.067 517.437 135.032 516.746 135.62L513.272 138.576C512.044 137.884 510.748 137.349 509.4 136.968L509.054 132.422C508.985 131.523 508.224 130.832 507.326 130.832H501.103C500.204 130.832 499.443 131.523 499.374 132.422L499.011 136.968C497.663 137.349 496.367 137.902 495.139 138.576L491.665 135.62C490.974 135.032 489.954 135.084 489.314 135.706L484.907 140.114C484.267 140.754 484.233 141.774 484.82 142.465L487.776 145.939C487.085 147.167 486.549 148.463 486.168 149.811L481.622 150.174C480.724 150.243 480.032 151.004 480.032 151.903V158.125C480.032 159.024 480.724 159.785 481.622 159.854L486.168 160.217C486.583 161.53 487.119 162.827 487.793 164.054ZM483.507 153.476L487.69 153.147C488.45 153.078 489.09 152.525 489.245 151.782C489.625 149.967 490.351 148.255 491.371 146.683C491.786 146.043 491.734 145.196 491.233 144.626L488.502 141.428L490.645 139.284L493.843 142.016C494.431 142.517 495.26 142.569 495.9 142.154C497.473 141.134 499.184 140.425 500.999 140.028C501.742 139.872 502.296 139.233 502.365 138.472L502.693 134.289H505.718L506.046 138.472C506.116 139.233 506.669 139.872 507.412 140.028C509.227 140.408 510.938 141.134 512.511 142.154C513.151 142.569 513.998 142.517 514.568 142.016L517.766 139.284L519.909 141.428L517.178 144.626C516.677 145.213 516.625 146.043 517.04 146.683C518.06 148.255 518.768 149.967 519.166 151.782C519.321 152.525 519.961 153.078 520.722 153.147L524.905 153.476V156.501L520.722 156.829C519.961 156.898 519.321 157.451 519.166 158.194C518.786 160.009 518.06 161.721 517.04 163.294C516.625 163.933 516.677 164.78 517.178 165.351L519.926 168.548L517.783 170.692L514.585 167.978C513.998 167.477 513.168 167.425 512.528 167.84C510.955 168.859 509.244 169.568 507.429 169.966C506.686 170.121 506.133 170.761 506.064 171.521L505.735 175.704H502.71L502.382 171.521C502.313 170.761 501.76 170.121 501.016 169.966C499.201 169.585 497.49 168.859 495.917 167.84C495.278 167.425 494.431 167.477 493.86 167.978L490.663 170.709L488.502 168.548L491.233 165.351C491.734 164.763 491.786 163.933 491.371 163.294C490.351 161.721 489.643 160.009 489.245 158.194C489.09 157.451 488.45 156.898 487.69 156.829L483.507 156.501V153.476Z" fill="url(#paint11_linear_687_5792)" stroke="url(#paint12_linear_687_5792)" stroke-width="2"/>
</g>
<g clip-path="url(#clip4_687_5792)">
<rect x="324.419" y="132.045" width="69.2867" height="70.2626" rx="30.4335" fill="#F9F9F9"/>
<path fill-rule="evenodd" clip-rule="evenodd" d="M380.289 133.729C381.527 129.096 383.516 125.209 386.229 122.074C387.004 121.176 388.202 120.764 389.367 120.995C390.529 121.226 391.479 122.064 391.855 123.189C391.855 123.189 391.918 123.374 392.023 123.697C393.667 128.624 397.531 132.488 402.458 134.132C402.781 134.237 402.966 134.3 402.966 134.3C404.091 134.676 404.929 135.627 405.16 136.788C405.391 137.95 404.982 139.148 404.085 139.923C400.953 142.642 397.072 144.642 392.436 145.879C396.353 152.02 398.623 159.313 398.623 167.131C398.623 188.986 380.88 206.729 359.025 206.729C337.169 206.729 319.426 188.986 319.426 167.131C319.426 145.275 337.169 127.532 359.025 127.532C366.849 127.532 374.145 129.806 380.289 133.729ZM379.032 140.896C373.481 136.653 366.545 134.132 359.025 134.132C340.812 134.132 326.026 148.919 326.026 167.131C326.026 185.343 340.812 200.13 359.025 200.13C377.237 200.13 392.023 185.343 392.023 167.131C392.023 159.709 389.568 152.855 385.424 147.341C385.374 147.272 385.325 147.203 385.278 147.13C384.714 147.183 384.14 147.226 383.559 147.262L375.161 155.66C377.468 158.897 378.824 162.857 378.824 167.131C378.824 178.057 369.95 186.93 359.025 186.93C348.099 186.93 339.225 178.057 339.225 167.131C339.225 156.205 348.099 147.331 359.025 147.331C363.298 147.331 367.258 148.688 370.495 150.994L378.897 142.593C378.933 142.018 378.979 141.451 379.032 140.896ZM365.73 155.759C363.763 154.598 361.47 153.931 359.025 153.931C351.738 153.931 345.825 159.844 345.825 167.131C345.825 174.417 351.738 180.33 359.025 180.33C366.311 180.33 372.224 174.417 372.224 167.131C372.224 164.685 371.558 162.392 370.396 160.425L361.358 169.464C360.071 170.751 357.978 170.751 356.691 169.464C355.405 168.177 355.405 166.085 356.691 164.798L365.73 155.759ZM388.258 130.987C386.975 133.706 386.14 136.867 385.714 140.451C389.304 140.029 392.462 139.194 395.178 137.903C392.403 136.118 390.044 133.759 388.258 130.987Z" fill="url(#paint13_linear_687_5792)"/>
</g>
</g>
<defs>
<linearGradient id="paint0_linear_687_5792" x1="634.33" y1="37.0215" x2="634.33" y2="156.761" gradientUnits="userSpaceOnUse">
<stop stop-color="#1657FF"/>
<stop offset="1" stop-color="#B557FF"/>
</linearGradient>
<linearGradient id="paint1_linear_687_5792" x1="634.33" y1="37.0215" x2="634.33" y2="156.761" gradientUnits="userSpaceOnUse">
<stop stop-color="#1657FF"/>
<stop offset="1" stop-color="#B557FF"/>
</linearGradient>
<linearGradient id="paint2_linear_687_5792" x1="281.407" y1="60.9336" x2="281.407" y2="67.983" gradientUnits="userSpaceOnUse">
<stop stop-color="#1657FF"/>
<stop offset="1" stop-color="#B557FF"/>
</linearGradient>
<linearGradient id="paint3_linear_687_5792" x1="257.667" y1="27.166" x2="257.667" y2="106.279" gradientUnits="userSpaceOnUse">
<stop stop-color="#1657FF"/>
<stop offset="1" stop-color="#B557FF"/>
</linearGradient>
<linearGradient id="paint4_linear_687_5792" x1="239.91" y1="62.1836" x2="239.91" y2="102.87" gradientUnits="userSpaceOnUse">
<stop stop-color="#1657FF"/>
<stop offset="1" stop-color="#B557FF"/>
</linearGradient>
<linearGradient id="paint5_linear_687_5792" x1="103.224" y1="49.0977" x2="103.224" y2="135.838" gradientUnits="userSpaceOnUse">
<stop stop-color="#1B58FF"/>
<stop offset="1" stop-color="#AF58FF"/>
</linearGradient>
<linearGradient id="paint6_linear_687_5792" x1="103.224" y1="49.0977" x2="103.224" y2="135.838" gradientUnits="userSpaceOnUse">
<stop stop-color="#1C58FF"/>
<stop offset="1" stop-color="#B358FF"/>
</linearGradient>
<linearGradient id="paint7_linear_687_5792" x1="504.211" y1="122.742" x2="504.211" y2="203.982" gradientUnits="userSpaceOnUse">
<stop stop-color="#1657FF"/>
<stop offset="1" stop-color="#B557FF"/>
</linearGradient>
<linearGradient id="paint8_linear_687_5792" x1="504.211" y1="122.742" x2="504.211" y2="203.982" gradientUnits="userSpaceOnUse">
<stop stop-color="#1657FF"/>
<stop offset="1" stop-color="#B557FF"/>
</linearGradient>
<linearGradient id="paint9_linear_687_5792" x1="504.216" y1="145.938" x2="504.216" y2="164.052" gradientUnits="userSpaceOnUse">
<stop stop-color="#1657FF"/>
<stop offset="1" stop-color="#B557FF"/>
</linearGradient>
<linearGradient id="paint10_linear_687_5792" x1="504.216" y1="145.938" x2="504.216" y2="164.052" gradientUnits="userSpaceOnUse">
<stop stop-color="#1657FF"/>
<stop offset="1" stop-color="#B557FF"/>
</linearGradient>
<linearGradient id="paint11_linear_687_5792" x1="504.206" y1="130.832" x2="504.206" y2="179.161" gradientUnits="userSpaceOnUse">
<stop stop-color="#1657FF"/>
<stop offset="1" stop-color="#B557FF"/>
</linearGradient>
<linearGradient id="paint12_linear_687_5792" x1="504.206" y1="130.832" x2="504.206" y2="179.161" gradientUnits="userSpaceOnUse">
<stop stop-color="#1657FF"/>
<stop offset="1" stop-color="#B557FF"/>
</linearGradient>
<linearGradient id="paint13_linear_687_5792" x1="362.325" y1="120.932" x2="362.325" y2="206.729" gradientUnits="userSpaceOnUse">
<stop stop-color="#1657FF"/>
<stop offset="1" stop-color="#B557FF"/>
</linearGradient>
<clipPath id="clip0_687_5792">
<rect width="119.739" height="119.739" fill="white" transform="translate(574.459 37.0215)"/>
</clipPath>
<clipPath id="clip1_687_5792">
<rect width="80.1403" height="80.1403" fill="white" transform="translate(217.597 26.6523)"/>
</clipPath>
<clipPath id="clip2_687_5792">
<rect width="86.7401" height="86.7401" fill="white" transform="translate(56.3735 48.3359)"/>
</clipPath>
<clipPath id="clip3_687_5792">
<rect width="82.9688" height="82.9688" fill="white" transform="translate(462.733 121.877)"/>
</clipPath>
<clipPath id="clip4_687_5792">
<rect width="105.597" height="105.597" fill="white" transform="translate(306.229 114.334)"/>
</clipPath>
</defs>
</svg>
