<svg width="1440" height="326" viewBox="0 0 1440 326" fill="none" xmlns="http://www.w3.org/2000/svg">
<rect x="0.000488281" y="0.976562" width="1440" height="323.224" fill="#6055E0"/>
<mask id="mask0_2761_13692" style="mask-type:alpha" maskUnits="userSpaceOnUse" x="0" y="0" width="1441" height="326">
<rect x="0.000488281" y="0.976562" width="1440" height="324.242" fill="#1D3130"/>
</mask>
<g mask="url(#mask0_2761_13692)">
<g opacity="0.1">
<path d="M-628.583 651.101C-266.214 493.155 324.056 22.9626 -213.817 -594.238" stroke="white" stroke-width="0.610662"/>
<path d="M2074.45 167.882C1712.08 325.828 1121.81 796.02 1659.69 1413.22" stroke="white" stroke-width="0.610662"/>
<path d="M-595.212 645.135C-239.24 473.257 332.355 -19.4694 -229.046 -615.349" stroke="white" stroke-width="0.610662"/>
<path d="M-561.841 639.169C-212.801 453.618 339.258 -60.9021 -244.826 -634.566" stroke="white" stroke-width="0.610662"/>
<path d="M-528.471 633.204C-186.888 434.257 344.805 -101.282 -261.084 -651.866" stroke="white" stroke-width="0.610662"/>
<path d="M-495.1 627.238C-161.488 415.196 349.039 -140.557 -277.743 -667.233" stroke="white" stroke-width="0.610662"/>
<path d="M-461.729 621.272C-136.59 396.454 352.004 -178.677 -294.729 -680.653" stroke="white" stroke-width="0.610662"/>
<path d="M-428.357 615.307C-112.181 378.05 353.745 -215.594 -311.966 -692.115" stroke="white" stroke-width="0.610662"/>
<path d="M-394.987 609.341C-88.2481 360.003 354.308 -251.261 -329.379 -701.611" stroke="white" stroke-width="0.610662"/>
<path d="M-361.616 603.375C-64.7759 342.331 353.746 -285.633 -346.89 -709.134" stroke="white" stroke-width="0.610662"/>
<path d="M-328.245 597.41C-41.7501 325.051 352.107 -318.669 -364.423 -714.684" stroke="white" stroke-width="0.610662"/>
<path d="M-294.875 591.444C-19.1563 308.181 349.444 -350.327 -381.903 -718.26" stroke="white" stroke-width="0.610662"/>
<path d="M-261.504 585.479C3.02388 291.738 345.814 -380.568 -399.25 -719.866" stroke="white" stroke-width="0.610662"/>
<path d="M-228.133 579.513C24.8061 275.736 341.269 -409.356 -416.391 -719.509" stroke="white" stroke-width="0.610662"/>
<path d="M-194.762 573.547C46.208 260.191 335.868 -436.657 -433.248 -717.198" stroke="white" stroke-width="0.610662"/>
<path d="M-161.392 567.581C67.2463 245.117 329.668 -462.438 -449.748 -712.946" stroke="white" stroke-width="0.610662"/>
<path d="M-128.021 561.616C87.9418 230.529 322.731 -486.67 -465.813 -706.767" stroke="white" stroke-width="0.610662"/>
<path d="M-94.6494 555.65C108.312 216.438 315.115 -509.325 -481.37 -698.681" stroke="white" stroke-width="0.610662"/>
<path d="M-61.2793 549.684C128.377 202.857 306.882 -530.379 -496.346 -688.709" stroke="white" stroke-width="0.610662"/>
<path d="M-27.9082 543.719C148.157 189.799 298.097 -549.808 -510.667 -676.873" stroke="white" stroke-width="0.610662"/>
<path d="M5.46289 537.753C167.672 177.272 288.821 -567.592 -524.262 -663.201" stroke="white" stroke-width="0.610662"/>
<path d="M38.8335 531.787C186.943 165.288 279.118 -583.714 -537.06 -647.724" stroke="white" stroke-width="0.610662"/>
<path d="M72.2046 525.822C205.992 153.855 269.054 -598.158 -548.992 -630.472" stroke="white" stroke-width="0.610662"/>
<path d="M105.575 519.856C224.839 142.981 258.694 -610.911 -559.99 -611.481" stroke="white" stroke-width="0.610662"/>
<path d="M138.946 513.89C243.506 132.674 248.104 -621.964 -569.987 -590.788" stroke="white" stroke-width="0.610662"/>
<path d="M172.317 507.925C262.017 122.942 237.35 -631.307 -578.917 -568.433" stroke="white" stroke-width="0.610662"/>
<path d="M205.688 501.959C280.392 113.787 226.498 -638.938 -586.717 -544.461" stroke="white" stroke-width="0.610662"/>
<path d="M239.058 495.994C298.655 105.217 215.613 -644.852 -593.326 -518.913" stroke="white" stroke-width="0.610662"/>
<path d="M272.429 490.027C316.829 97.2334 204.765 -649.052 -598.682 -491.84" stroke="white" stroke-width="0.610662"/>
<path d="M305.8 484.062C334.935 89.8424 194.019 -651.536 -602.729 -463.289" stroke="white" stroke-width="0.610662"/>
<path d="M339.171 478.097C352.998 83.0433 183.441 -652.314 -605.408 -433.314" stroke="white" stroke-width="0.610662"/>
<path d="M372.542 472.13C371.04 76.8379 173.096 -651.391 -606.668 -401.968" stroke="white" stroke-width="0.610662"/>
<path d="M405.912 466.166C389.084 71.2286 163.052 -648.778 -606.454 -369.307" stroke="white" stroke-width="0.610662"/>
<path d="M439.283 460.199C407.154 66.2118 153.373 -644.488 -604.717 -335.39" stroke="white" stroke-width="0.610662"/>
<path d="M472.654 454.234C425.272 61.7886 144.125 -638.537 -601.411 -300.275" stroke="white" stroke-width="0.610662"/>
<path d="M506.024 448.269C443.461 57.9556 135.369 -630.941 -596.489 -264.026" stroke="white" stroke-width="0.610662"/>
<path d="M539.396 442.303C461.744 54.7092 127.172 -621.723 -589.908 -226.706" stroke="white" stroke-width="0.610662"/>
<path d="M572.767 436.337C480.145 52.0458 119.595 -610.905 -581.629 -188.379" stroke="white" stroke-width="0.610662"/>
<path d="M606.137 430.371C498.684 49.9605 112.7 -598.511 -571.614 -149.113" stroke="white" stroke-width="0.610662"/>
<path d="M639.508 424.406C517.385 48.4478 106.546 -584.57 -559.827 -108.975" stroke="white" stroke-width="0.610662"/>
<path d="M672.879 418.44C536.27 47.5 101.195 -569.111 -546.236 -68.0348" stroke="white" stroke-width="0.610662"/>
<path d="M706.25 412.474C555.361 47.1103 96.703 -552.167 -530.811 -26.3631" stroke="white" stroke-width="0.610662"/>
<path d="M739.621 406.509C574.678 47.2705 93.1277 -533.771 -513.527 15.9691" stroke="white" stroke-width="0.610662"/>
<path d="M772.991 400.543C594.243 47.9706 90.5248 -513.962 -494.357 58.8882" stroke="white" stroke-width="0.610662"/>
<path d="M806.362 394.577C614.077 49.2009 88.9489 -492.777 -473.28 102.321" stroke="white" stroke-width="0.610662"/>
<path d="M839.733 388.612C634.2 50.9513 88.4515 -470.257 -450.28 146.194" stroke="white" stroke-width="0.610662"/>
<path d="M873.104 382.646C654.632 53.209 89.0842 -446.446 -425.339 190.432" stroke="white" stroke-width="0.610662"/>
<path d="M906.475 376.68C675.394 55.9622 90.8965 -421.387 -398.445 234.958" stroke="white" stroke-width="0.610662"/>
<path d="M939.846 370.714C696.503 59.1979 93.9356 -395.129 -369.587 279.697" stroke="white" stroke-width="0.610662"/>
<path d="M973.216 364.749C717.977 62.9025 98.2466 -367.718 -338.761 324.574" stroke="white" stroke-width="0.610662"/>
<path d="M1006.59 358.783C739.835 67.0607 103.874 -339.205 -305.962 369.511" stroke="white" stroke-width="0.610662"/>
<path d="M1039.96 352.817C762.095 71.6577 110.859 -309.643 -271.188 414.432" stroke="white" stroke-width="0.610662"/>
<path d="M1073.33 346.852C784.773 76.678 119.241 -279.084 -234.442 459.26" stroke="white" stroke-width="0.610662"/>
<path d="M1106.7 340.886C807.884 82.1042 129.058 -247.584 -195.729 503.919" stroke="white" stroke-width="0.610662"/>
<path d="M1140.07 334.92C831.446 87.9197 140.346 -215.199 -155.057 548.333" stroke="white" stroke-width="0.610662"/>
<path d="M1173.44 328.955C855.471 94.1071 153.138 -181.986 -112.437 592.426" stroke="white" stroke-width="0.610662"/>
<path d="M1206.81 322.989C879.975 100.647 167.464 -148.005 -67.8828 636.122" stroke="white" stroke-width="0.610662"/>
<path d="M1240.18 317.023C904.97 107.522 183.353 -113.315 -21.4118 679.348" stroke="white" stroke-width="0.610662"/>
<path d="M1273.55 311.058C930.47 114.712 200.833 -77.9785 26.9575 722.028" stroke="white" stroke-width="0.610662"/>
<path d="M1306.92 305.092C956.485 122.197 219.925 -42.0561 77.2012 764.091" stroke="white" stroke-width="0.610662"/>
<path d="M1340.3 299.127C983.028 129.958 240.653 -5.61161 129.295 805.464" stroke="white" stroke-width="0.610662"/>
<path d="M1373.67 293.161C1010.11 137.972 263.034 31.2903 183.21 846.074" stroke="white" stroke-width="0.610662"/>
<path d="M1407.04 287.195C1037.73 146.22 287.086 68.5871 238.915 885.853" stroke="white" stroke-width="0.610662"/>
<path d="M1440.41 281.23C1065.92 154.681 312.823 106.213 296.378 924.732" stroke="white" stroke-width="0.610662"/>
<path d="M1473.78 275.264C1094.66 163.331 340.255 144.1 355.561 962.642" stroke="white" stroke-width="0.610662"/>
<path d="M1507.15 269.298C1123.98 172.15 369.392 182.187 416.426 999.519" stroke="white" stroke-width="0.610662"/>
<path d="M1540.52 263.333C1153.87 181.115 400.241 220.403 478.932 1035.3" stroke="white" stroke-width="0.610662"/>
<path d="M1573.89 257.367C1184.34 190.204 432.805 258.685 543.034 1069.91" stroke="white" stroke-width="0.610662"/>
<path d="M1607.26 251.401C1215.4 199.394 467.085 296.964 608.687 1103.31" stroke="white" stroke-width="0.610662"/>
<path d="M1640.63 245.436C1247.05 208.661 503.08 335.175 675.841 1135.42" stroke="white" stroke-width="0.610662"/>
<path d="M1674 239.47C1279.29 217.985 540.786 373.251 744.448 1166.2" stroke="white" stroke-width="0.610662"/>
<path d="M1707.37 233.504C1312.13 227.34 580.197 411.126 814.452 1195.58" stroke="white" stroke-width="0.610662"/>
<path d="M1740.74 227.539C1345.56 236.705 621.302 448.733 885.798 1223.51" stroke="white" stroke-width="0.610662"/>
<path d="M1774.12 221.573C1379.58 246.056 664.092 486.008 958.432 1249.95" stroke="white" stroke-width="0.610662"/>
<path d="M1807.49 215.607C1414.2 255.37 708.551 522.885 1032.29 1274.84" stroke="white" stroke-width="0.610662"/>
<path d="M1840.86 209.642C1449.4 264.625 754.663 559.3 1107.32 1298.14" stroke="white" stroke-width="0.610662"/>
<path d="M1874.23 203.676C1485.2 273.796 802.409 595.188 1183.45 1319.79" stroke="white" stroke-width="0.610662"/>
<path d="M1907.6 197.71C1521.58 282.863 851.767 630.489 1260.62 1339.77" stroke="white" stroke-width="0.610662"/>
<path d="M1940.97 191.745C1558.55 291.801 902.712 665.138 1338.76 1358.04" stroke="white" stroke-width="0.610662"/>
<path d="M1974.34 185.779C1596.09 300.588 955.22 699.075 1417.8 1374.55" stroke="white" stroke-width="0.610662"/>
<path d="M2007.71 179.813C1634.19 309.204 1009.26 732.24 1497.69 1389.27" stroke="white" stroke-width="0.610662"/>
<path d="M2041.08 173.848C1672.86 317.624 1064.8 764.574 1578.34 1402.17" stroke="white" stroke-width="0.610662"/>
</g>
</g>
</svg>
