<svg width="36" height="36" viewBox="0 0 36 36" fill="none" xmlns="http://www.w3.org/2000/svg">
<path d="M11.5903 24.4832V11.4008M31.0438 28.8252H4.95579H31.0438ZM17.8873 22.5659V24.5959V22.5659ZM17.8873 10.7806V12.8106V10.7806ZM17.8873 17.7165C16.7066 17.7165 15.7508 16.7579 15.6383 15.4608C15.5821 14.2204 16.4255 13.0925 17.55 12.9233C18.7307 12.7555 19.8552 13.5438 20.1363 14.7841L17.8873 17.7165ZM18.056 17.7165C19.0118 17.7165 19.8552 18.3367 20.1925 19.2952C20.5299 20.254 20.305 21.269 19.5741 21.9457C18.8431 22.6224 17.7749 22.7351 16.9315 22.2841C16.0319 21.8328 15.5259 20.8743 15.6383 19.8592L18.056 17.7165ZM0.570312 33.2236H35.4293H0.570312ZM4.95579 7.11533H31.0438L17.9998 2.77344L4.95579 7.11533ZM5.18069 24.4832V11.4008V24.4832ZM30.8189 11.4008V24.4832V11.4008ZM24.4094 24.4832V11.4008V24.4832Z" stroke="#ABBED1" stroke-linecap="round" stroke-linejoin="round"/>
</svg>
