<svg width="36" height="36" viewBox="0 0 36 36" fill="none" xmlns="http://www.w3.org/2000/svg">
<path d="M17.9254 34.718L17.9254 34.718L28.3731 27.9189L28.4135 27.8895C28.4135 27.8894 28.4135 27.8894 28.4135 27.8894C27.2454 26.2897 25.0115 25.8035 23.2169 26.7566L19.1332 28.9242C19.0162 27.8827 18.084 27.0724 16.9594 27.0724H14.1475C13.3516 25.9209 11.9826 25.217 10.5132 25.217H7.52459V24.4568C7.52459 24.2067 7.3217 24.0039 7.0716 24.0039H2.4147C2.16461 24.0039 1.96172 24.2067 1.96172 24.4568C1.96172 24.7069 2.16461 24.9098 2.4147 24.9098H6.61847L6.61843 24.9492L6.61825 25.3732L6.61798 27.045C6.61788 28.4539 6.61798 30.3863 6.61859 32.3742H2.4147C2.1646 32.3742 1.96172 32.5771 1.96172 32.8272C1.96172 33.0773 2.16461 33.2802 2.4147 33.2802H7.07159C7.32169 33.2802 7.52458 33.0773 7.52458 32.8272V32.1147L15.1883 34.8678C16.0559 35.2286 17.074 35.1856 17.9254 34.718ZM13.5121 27.7584L13.5122 27.7585C13.5941 27.8946 13.7415 27.9784 13.9008 27.9784H16.9594C17.6696 27.9784 18.2396 28.5058 18.2396 29.1452C18.2396 29.7993 17.6523 30.312 16.9594 30.312H12.2789C12.0288 30.312 11.8259 30.5149 11.8259 30.765C11.8259 31.0151 12.0288 31.218 12.2789 31.218H16.9594C17.8163 31.218 18.5613 30.7477 18.9192 30.0631L23.6415 27.5565L23.6181 27.5123L23.6416 27.5565C24.8623 26.9082 26.3991 27.1359 27.3498 28.0452L17.4769 33.9309C17.4766 33.931 17.4764 33.9312 17.4761 33.9313C16.887 34.254 16.1613 34.2922 15.5173 34.0236L15.5173 34.0235L15.515 34.0227L7.52457 31.152V26.123H10.5132C11.7599 26.123 12.9084 26.7508 13.5121 27.7584ZM7.58796 8.10985C8.75605 9.70963 10.9895 10.1947 12.7846 9.24268L12.7846 9.24268L16.8688 7.07559C16.9858 8.11704 17.9179 8.92686 19.042 8.92686H21.8539C22.6499 10.0784 24.0188 10.7828 25.4882 10.7828H28.4769V11.543C28.4769 11.7931 28.6798 11.9959 28.9298 11.9959H33.5867C33.8368 11.9959 34.0397 11.7931 34.0397 11.543C34.0397 11.2929 33.8368 11.09 33.5867 11.09H29.3829C29.383 10.6943 29.3832 10.2504 29.3835 9.78012C29.3845 7.52367 29.3859 4.66196 29.383 3.62509H33.5867C33.8368 3.62508 34.0397 3.4222 34.0397 3.17209C34.0397 2.922 33.8368 2.71911 33.5867 2.71911H28.9299C28.6798 2.71911 28.4769 2.922 28.4769 3.17209V3.88442L20.8132 1.13205C19.9352 0.765708 18.9165 0.81921 18.076 1.2818L18.076 1.28178L18.0746 1.28266L7.72183 7.45337L7.72181 7.45338C7.61207 7.51887 7.53548 7.62738 7.50958 7.75219L7.50954 7.75237C7.48416 7.87691 7.51251 8.00669 7.58796 8.10985ZM22.4893 8.24092L22.4893 8.24083C22.4073 8.10464 22.2599 8.02088 22.1006 8.02088H19.042C18.3323 8.02088 17.7624 7.49347 17.7624 6.85406C17.7624 6.71431 17.7892 6.58062 17.8389 6.45627C17.8439 6.44596 17.8484 6.43542 17.8522 6.42514C18.0393 5.99552 18.5008 5.68776 19.042 5.68776H23.7231C23.9732 5.68776 24.176 5.48487 24.176 5.23477C24.176 4.98468 23.9732 4.78179 23.7231 4.78179H19.042C18.1851 4.78179 17.4406 5.25207 17.0828 5.9362L12.3599 8.44282C11.1381 9.0911 9.60282 8.86384 8.65161 7.9541L18.5254 2.06846C19.115 1.74472 19.8406 1.70711 20.4841 1.97621L20.4841 1.97627L20.4865 1.97714L28.4769 4.84711V9.87682H25.4882C24.2421 9.87682 23.0931 9.24905 22.4893 8.24092ZM28.254 28.503C28.3516 28.4447 28.4198 28.3482 28.4429 28.2369L28.254 28.503Z" fill="#ABBED1" stroke="#ABBED1" stroke-width="0.1"/>
<path d="M18.0037 10.4187C13.8214 10.4187 10.4187 13.8214 10.4187 18.0043C10.4187 22.1835 13.8214 25.5835 18.0037 25.5835C22.1829 25.5835 25.5829 22.1835 25.5829 18.0043C25.5829 13.8214 22.183 10.4187 18.0037 10.4187ZM18.0037 24.6775C14.321 24.6775 11.3247 21.6837 11.3247 18.0043C11.3247 14.321 14.3211 11.3247 18.0037 11.3247C21.6832 11.3247 24.677 14.321 24.677 18.0043C24.677 21.6838 21.6833 24.6775 18.0037 24.6775Z" fill="#ABBED1" stroke="#ABBED1" stroke-width="0.1"/>
<path d="M18 15.3487C18.6057 15.3487 19.0986 15.8416 19.0986 16.4479C19.0986 16.698 19.3015 16.9009 19.5516 16.9009C19.8017 16.9009 20.0046 16.698 20.0046 16.4479C20.0046 15.4978 19.3407 14.7014 18.453 14.4954V13.6569C18.453 13.4068 18.2501 13.2039 18 13.2039C17.7499 13.2039 17.547 13.4068 17.547 13.6569V14.4953C16.659 14.7012 15.9949 15.4977 15.9949 16.4479C15.9949 17.5533 16.8941 18.4525 18 18.4525C18.6057 18.4525 19.0986 18.9453 19.0986 19.5516C19.0986 20.1573 18.6058 20.6502 18 20.6502C17.3938 20.6502 16.9009 20.1573 16.9009 19.5516C16.9009 19.3015 16.698 19.0986 16.4479 19.0986C16.1978 19.0986 15.9949 19.3015 15.9949 19.5516C15.9949 20.5013 16.659 21.2977 17.547 21.5036V22.3426C17.547 22.5927 17.7499 22.7956 18 22.7956C18.2501 22.7956 18.453 22.5927 18.453 22.3426V21.5035C19.3407 21.2976 20.0046 20.5012 20.0046 19.5516C20.0046 18.4457 19.1054 17.5465 18 17.5465C17.3938 17.5465 16.9009 17.0536 16.9009 16.4479C16.9009 15.8416 17.3938 15.3487 18 15.3487Z" fill="#ABBED1" stroke="#ABBED1" stroke-width="0.1"/>
</svg>
