<svg width="14" height="16" viewBox="0 0 14 16" fill="none" xmlns="http://www.w3.org/2000/svg">
<path d="M6.9987 12.666C7.13055 12.666 7.25945 12.6269 7.36908 12.5537C7.47871 12.4804 7.56416 12.3763 7.61462 12.2545C7.66508 12.1327 7.67828 11.9986 7.65255 11.8693C7.62683 11.74 7.56334 11.6212 7.4701 11.5279C7.37687 11.4347 7.25808 11.3712 7.12876 11.3455C6.99944 11.3198 6.86539 11.333 6.74358 11.3834C6.62176 11.4339 6.51764 11.5193 6.44438 11.629C6.37113 11.7386 6.33203 11.8675 6.33203 11.9993C6.33203 12.1762 6.40227 12.3457 6.52729 12.4708C6.65232 12.5958 6.82189 12.666 6.9987 12.666ZM10.332 12.666C10.4639 12.666 10.5928 12.6269 10.7024 12.5537C10.812 12.4804 10.8975 12.3763 10.948 12.2545C10.9984 12.1327 11.0116 11.9986 10.9859 11.8693C10.9602 11.74 10.8967 11.6212 10.8034 11.5279C10.7102 11.4347 10.5914 11.3712 10.4621 11.3455C10.3328 11.3198 10.1987 11.333 10.0769 11.3834C9.95509 11.4339 9.85097 11.5193 9.77772 11.629C9.70446 11.7386 9.66536 11.8675 9.66536 11.9993C9.66536 12.1762 9.7356 12.3457 9.86063 12.4708C9.98565 12.5958 10.1552 12.666 10.332 12.666ZM10.332 9.99935C10.4639 9.99935 10.5928 9.96025 10.7024 9.887C10.812 9.81374 10.8975 9.70962 10.948 9.58781C10.9984 9.46599 11.0116 9.33194 10.9859 9.20262C10.9602 9.0733 10.8967 8.95451 10.8034 8.86128C10.7102 8.76804 10.5914 8.70455 10.4621 8.67883C10.3328 8.6531 10.1987 8.6663 10.0769 8.71676C9.95509 8.76722 9.85097 8.85267 9.77772 8.9623C9.70446 9.07193 9.66536 9.20083 9.66536 9.33268C9.66536 9.50949 9.7356 9.67906 9.86063 9.80409C9.98565 9.92911 10.1552 9.99935 10.332 9.99935ZM6.9987 9.99935C7.13055 9.99935 7.25945 9.96025 7.36908 9.887C7.47871 9.81374 7.56416 9.70962 7.61462 9.58781C7.66508 9.46599 7.67828 9.33194 7.65255 9.20262C7.62683 9.0733 7.56334 8.95451 7.4701 8.86128C7.37687 8.76804 7.25808 8.70455 7.12876 8.67883C6.99944 8.6531 6.86539 8.6663 6.74358 8.71676C6.62176 8.76722 6.51764 8.85267 6.44438 8.9623C6.37113 9.07193 6.33203 9.20083 6.33203 9.33268C6.33203 9.50949 6.40227 9.67906 6.52729 9.80409C6.65232 9.92911 6.82189 9.99935 6.9987 9.99935ZM11.6654 1.99935H10.9987V1.33268C10.9987 1.15587 10.9285 0.986302 10.8034 0.861278C10.6784 0.736253 10.5088 0.666016 10.332 0.666016C10.1552 0.666016 9.98565 0.736253 9.86063 0.861278C9.7356 0.986302 9.66536 1.15587 9.66536 1.33268V1.99935H4.33203V1.33268C4.33203 1.15587 4.26179 0.986302 4.13677 0.861278C4.01174 0.736253 3.84218 0.666016 3.66536 0.666016C3.48855 0.666016 3.31898 0.736253 3.19396 0.861278C3.06894 0.986302 2.9987 1.15587 2.9987 1.33268V1.99935H2.33203C1.8016 1.99935 1.29289 2.21006 0.917818 2.58514C0.542745 2.96021 0.332031 3.46892 0.332031 3.99935V13.3327C0.332031 13.8631 0.542745 14.3718 0.917818 14.7469C1.29289 15.122 1.8016 15.3327 2.33203 15.3327H11.6654C12.1958 15.3327 12.7045 15.122 13.0796 14.7469C13.4547 14.3718 13.6654 13.8631 13.6654 13.3327V3.99935C13.6654 3.46892 13.4547 2.96021 13.0796 2.58514C12.7045 2.21006 12.1958 1.99935 11.6654 1.99935ZM12.332 13.3327C12.332 13.5095 12.2618 13.6791 12.1368 13.8041C12.0117 13.9291 11.8422 13.9993 11.6654 13.9993H2.33203C2.15522 13.9993 1.98565 13.9291 1.86063 13.8041C1.7356 13.6791 1.66536 13.5095 1.66536 13.3327V7.33268H12.332V13.3327ZM12.332 5.99935H1.66536V3.99935C1.66536 3.82254 1.7356 3.65297 1.86063 3.52794C1.98565 3.40292 2.15522 3.33268 2.33203 3.33268H2.9987V3.99935C2.9987 4.17616 3.06894 4.34573 3.19396 4.47075C3.31898 4.59578 3.48855 4.66602 3.66536 4.66602C3.84218 4.66602 4.01174 4.59578 4.13677 4.47075C4.26179 4.34573 4.33203 4.17616 4.33203 3.99935V3.33268H9.66536V3.99935C9.66536 4.17616 9.7356 4.34573 9.86063 4.47075C9.98565 4.59578 10.1552 4.66602 10.332 4.66602C10.5088 4.66602 10.6784 4.59578 10.8034 4.47075C10.9285 4.34573 10.9987 4.17616 10.9987 3.99935V3.33268H11.6654C11.8422 3.33268 12.0117 3.40292 12.1368 3.52794C12.2618 3.65297 12.332 3.82254 12.332 3.99935V5.99935ZM3.66536 9.99935C3.79722 9.99935 3.92611 9.96025 4.03574 9.887C4.14538 9.81374 4.23083 9.70962 4.28128 9.58781C4.33174 9.46599 4.34494 9.33194 4.31922 9.20262C4.2935 9.0733 4.23 8.95451 4.13677 8.86128C4.04353 8.76804 3.92475 8.70455 3.79542 8.67883C3.6661 8.6531 3.53206 8.6663 3.41024 8.71676C3.28842 8.76722 3.18431 8.85267 3.11105 8.9623C3.0378 9.07193 2.9987 9.20083 2.9987 9.33268C2.9987 9.50949 3.06894 9.67906 3.19396 9.80409C3.31898 9.92911 3.48855 9.99935 3.66536 9.99935ZM3.66536 12.666C3.79722 12.666 3.92611 12.6269 4.03574 12.5537C4.14538 12.4804 4.23083 12.3763 4.28128 12.2545C4.33174 12.1327 4.34494 11.9986 4.31922 11.8693C4.2935 11.74 4.23 11.6212 4.13677 11.5279C4.04353 11.4347 3.92475 11.3712 3.79542 11.3455C3.6661 11.3198 3.53206 11.333 3.41024 11.3834C3.28842 11.4339 3.18431 11.5193 3.11105 11.629C3.0378 11.7386 2.9987 11.8675 2.9987 11.9993C2.9987 12.1762 3.06894 12.3457 3.19396 12.4708C3.31898 12.5958 3.48855 12.666 3.66536 12.666Z" fill="#1569E7"/>
</svg>
