<svg width="52" height="45" viewBox="0 0 52 45" fill="none" xmlns="http://www.w3.org/2000/svg">
<circle cx="14" cy="35" r="3" fill="#D9D9D9"/>
<circle cx="38" cy="35" r="3" fill="#D9D9D9"/>
<path d="M45.7514 24.3606H41.834C41.3574 24.3606 40.9674 24.7506 40.9674 25.2273V27.6453H40.7854L39.9274 25.3226C39.5077 24.2007 38.7563 23.2332 37.7732 22.5489C36.7901 21.8646 35.6219 21.4959 34.424 21.4919H17.5674C15.1234 21.4919 12.9134 23.0346 12.064 25.3226L11.206 27.6453H11.024V25.2273C11.024 24.7506 10.634 24.3606 10.1574 24.3606H6.24004C5.19137 24.3606 4.33337 25.2186 4.33337 26.2759V27.4633C4.33337 28.5206 5.19137 29.3786 6.24004 29.3786H10.114C9.21377 30.0226 8.48 30.8719 7.97357 31.8561C7.46714 32.8403 7.20265 33.9311 7.20204 35.0379V38.9206C7.20204 40.3159 8.33737 41.4513 9.73271 41.4513H10.3914V42.2659C10.3914 42.9026 10.6443 43.5133 11.0945 43.9635C11.5447 44.4137 12.1553 44.6666 12.792 44.6666H17.3767C18.0134 44.6666 18.624 44.4137 19.0742 43.9635C19.5244 43.5133 19.7774 42.9026 19.7774 42.2659V41.4513H32.214V42.2659C32.214 42.9026 32.467 43.5133 32.9172 43.9635C33.3674 44.4137 33.978 44.6666 34.6147 44.6666H39.1994C39.8361 44.6666 40.4467 44.4137 40.8969 43.9635C41.3471 43.5133 41.6 42.9026 41.6 42.2659V41.4513H42.2587C43.654 41.4513 44.798 40.3159 44.798 38.9206V35.0379C44.798 32.7066 43.6454 30.6439 41.886 29.3786H45.7514C46.8 29.3786 47.6667 28.5206 47.6667 27.4633V26.2759C47.6667 25.2186 46.8 24.3606 45.7514 24.3606ZM14.0834 37.0313C12.8267 37.0313 11.8127 36.0173 11.8127 34.7606C11.8127 33.5039 12.8267 32.4813 14.0834 32.4813C15.34 32.4813 16.3627 33.5039 16.3627 34.7606C16.3627 36.0173 15.34 37.0313 14.0834 37.0313ZM30.4287 37.6033H21.5627C21.086 37.6033 20.696 37.2133 20.696 36.7366C20.696 36.2599 21.086 35.8699 21.5627 35.8699H30.4287C30.9054 35.8699 31.2954 36.2599 31.2954 36.7366C31.2954 37.2133 30.9054 37.6033 30.4287 37.6033ZM30.4287 33.6513H21.5627C21.086 33.6513 20.696 33.2613 20.696 32.7846C20.696 32.2993 21.086 31.9179 21.5627 31.9179H30.4287C30.9054 31.9179 31.2954 32.2993 31.2954 32.7846C31.2954 33.2613 30.9054 33.6513 30.4287 33.6513ZM14.17 28.0613C13.7194 28.0613 13.2774 28.1046 12.8527 28.1913L13.6934 25.9206C13.9881 25.1305 14.5169 24.4491 15.2091 23.9675C15.9014 23.4859 16.7241 23.2269 17.5674 23.2253H34.424C36.1487 23.2253 37.7 24.3086 38.298 25.9206L39.1387 28.1913C38.714 28.1046 38.272 28.0613 37.8214 28.0613H14.17ZM37.908 37.0313C36.6514 37.0313 35.6287 36.0173 35.6287 34.7606C35.6287 33.5039 36.6514 32.4813 37.908 32.4813C39.1647 32.4813 40.1787 33.5039 40.1787 34.7606C40.1787 36.0173 39.1647 37.0313 37.908 37.0313Z" fill="#48CBFF"/>
<path d="M26 1.33337C19.5434 1.33337 14.3 6.58537 14.3 13.0334C14.3 15.5034 15.0887 17.8867 16.4927 19.8367C16.848 19.7847 17.2034 19.7587 17.5674 19.7587H34.424C34.788 19.7587 35.1521 19.7847 35.5074 19.8367C36.9027 17.8867 37.7 15.5034 37.7 13.0334C37.7 6.58537 32.448 1.33337 26 1.33337ZM26.234 10.546C26.9794 10.7627 29.25 11.4214 29.25 13.5967C29.25 15.0094 28.236 16.1967 26.8667 16.5607V17.202C26.8667 17.6787 26.4767 18.0687 26 18.0687C25.5147 18.0687 25.1334 17.6787 25.1334 17.202V16.5607C23.7554 16.1967 22.7414 15.0094 22.7414 13.5967C22.7414 13.12 23.1314 12.73 23.608 12.73C24.0847 12.73 24.4747 13.12 24.4747 13.5967C24.4747 14.342 25.1594 14.9487 26 14.9487C26.832 14.9487 27.5167 14.342 27.5167 13.5967C27.5167 13.146 27.3 12.6607 25.7574 12.21C23.7554 11.6294 22.7414 10.6067 22.7414 9.15937C22.7414 7.74671 23.7554 6.56804 25.1334 6.20404V5.56271C25.1334 5.07737 25.5147 4.69604 26 4.69604C26.4767 4.69604 26.8667 5.07737 26.8667 5.56271V6.20404C28.236 6.56804 29.25 7.74671 29.25 9.15937C29.25 9.64471 28.86 10.026 28.3834 10.026C27.9067 10.026 27.5167 9.64471 27.5167 9.15937C27.5167 8.41404 26.832 7.80737 26 7.80737C25.1594 7.80737 24.4747 8.41404 24.4747 9.15937C24.4747 9.37604 24.4747 10.0347 26.234 10.546Z" fill="#2875E9"/>
<path d="M18.5 23.5C14.5 23.5 13.1667 26.5 13 28H39C37.8 24.4 35.1667 23.5 34 23.5H18.5Z" fill="#7740FF" stroke="#7740FF"/>
</svg>
