<svg width="27" height="27" viewBox="0 0 27 27" fill="none" xmlns="http://www.w3.org/2000/svg">
<path d="M15.085 13.5007L22.1725 6.42445C22.3843 6.21261 22.5033 5.92529 22.5033 5.6257C22.5033 5.32611 22.3843 5.03879 22.1725 4.82695C21.9606 4.61511 21.6733 4.49609 21.3737 4.49609C21.0741 4.49609 20.7868 4.61511 20.575 4.82695L13.4987 11.9144L6.42246 4.82695C6.21062 4.61511 5.9233 4.49609 5.62371 4.49609C5.32412 4.49609 5.0368 4.61511 4.82496 4.82695C4.61312 5.03879 4.49411 5.32611 4.49411 5.6257C4.49411 5.92529 4.61312 6.21261 4.82496 6.42445L11.9125 13.5007L4.82496 20.5769C4.71952 20.6815 4.63582 20.806 4.57871 20.943C4.52159 21.0801 4.49219 21.2272 4.49219 21.3757C4.49219 21.5242 4.52159 21.6713 4.57871 21.8083C4.63582 21.9454 4.71952 22.0699 4.82496 22.1744C4.92954 22.2799 5.05397 22.3636 5.19106 22.4207C5.32815 22.4778 5.4752 22.5072 5.62371 22.5072C5.77222 22.5072 5.91927 22.4778 6.05636 22.4207C6.19345 22.3636 6.31788 22.2799 6.42246 22.1744L13.4987 15.0869L20.575 22.1744C20.6795 22.2799 20.804 22.3636 20.9411 22.4207C21.0782 22.4778 21.2252 22.5072 21.3737 22.5072C21.5222 22.5072 21.6693 22.4778 21.8064 22.4207C21.9435 22.3636 22.0679 22.2799 22.1725 22.1744C22.2779 22.0699 22.3616 21.9454 22.4187 21.8083C22.4758 21.6713 22.5052 21.5242 22.5052 21.3757C22.5052 21.2272 22.4758 21.0801 22.4187 20.943C22.3616 20.806 22.2779 20.6815 22.1725 20.5769L15.085 13.5007Z" fill="black"/>
</svg>
