<svg width="1224" height="348" viewBox="0 0 1224 348" fill="none" xmlns="http://www.w3.org/2000/svg">
<mask id="mask0_646_3479" style="mask-type:alpha" maskUnits="userSpaceOnUse" x="0" y="0" width="1224" height="348">
<rect width="1224" height="348" fill="#D9D9D9"/>
</mask>
<g mask="url(#mask0_646_3479)">
<path d="M828.377 208.919C1004.75 189.788 1076.3 163.051 1071 97.5508C1064.86 21.625 771 1.05244 615.5 1.05244C473 0.140686 174 10.0518 174 116.051C174 222.05 652 228.051 828.377 208.919Z" stroke="black" stroke-opacity="0.5"/>
<path d="M617 218.051C617 218.051 622 251.551 588.5 268.551C555 285.551 490.5 314.363 347 292.551C203.5 270.739 145.5 292.842 145.5 349.051" stroke="black" stroke-opacity="0.5"/>
<path d="M616.865 218.551C616.865 218.551 621 245.908 597 263.051C583 273.051 552.225 283.768 534.5 290.051C499.585 302.426 458 318.377 458 349.551" stroke="black" stroke-opacity="0.5"/>
<path d="M617.264 218.051C617.264 218.051 612.264 251.551 645.764 268.551C679.264 285.551 743.764 314.363 887.264 292.551C1030.76 270.739 1088.76 292.842 1088.76 349.051" stroke="black" stroke-opacity="0.5"/>
<path d="M617.398 218.551C617.398 218.551 613.264 245.908 637.264 263.051C651.264 273.051 682.039 283.768 699.764 290.051C734.678 302.426 776.264 318.377 776.264 349.551" stroke="black" stroke-opacity="0.5"/>
</g>
</svg>
