<svg width="168" height="159" viewBox="0 0 168 159" fill="none" xmlns="http://www.w3.org/2000/svg">
<g id="Group 1781">
<g id="Group">
<path id="Vector" d="M97.8968 128.108C96.3164 128.533 94.6104 127.963 93.4408 126.818C84.2678 117.872 70.1024 70.7987 73.8044 71.1902C76.3224 70.4024 109.8 124.909 97.8968 128.108Z" fill="#A377FF"/>
<path id="Vector_2" d="M79.9907 79.0002L80.6866 79.6817L81.5372 77.618L81.5421 77.6035L82.8422 73.9643C83.1708 73.0267 83.2723 72.0359 83.1225 71.0548L81.4454 67.0096C81.4454 67.0096 80.2034 66.478 80.5417 68.9476C80.6287 69.5904 80.2082 70.5425 79.8216 71.2965L79.1643 68.9186L77.5452 63.6169C77.0329 62.1525 70.2329 64.3515 70.059 67.2754L69.8705 68.822C69.9333 70.9678 69.5757 72.64 70.4698 74.5925L74.0075 80.2568L79.9907 79.0002Z" fill="#A377FF"/>
<path id="Vector_3" d="M69.4306 106.026C85.782 106.026 99.0374 92.7709 99.0374 76.4195C99.0374 60.0681 85.782 46.8127 69.4306 46.8127C53.0793 46.8127 39.8239 60.0681 39.8239 76.4195C39.8239 92.7709 53.0793 106.026 69.4306 106.026Z" fill="#C6B1FF"/>
<g id="Group_2">
<g id="Vector_4" filter="url(#filter0_b_2967_461)">
<path d="M111.642 38.7706V135.217C111.642 137.223 110.298 138.842 108.645 138.842H13.9964C12.3484 138.842 11 137.223 11 135.217V38.7706C11 36.7794 12.3484 35.1604 13.9964 35.1604H108.645C110.298 35.1604 111.642 36.7794 111.642 38.7706Z" fill="#DCDCDC" fill-opacity="0.21"/>
</g>
<path id="Vector_5" d="M111.647 38.7706V45.3676H11V38.7706C11 36.7746 12.3436 35.1555 14.0061 35.1555H108.65C110.303 35.1555 111.647 36.7746 111.647 38.7706Z" fill="#1E2351"/>
</g>
<g id="Group_3">
<path id="Vector_6" d="M79.9955 127.726H47.0588V138.842H79.9955V127.726Z" fill="#C6B1FF"/>
<path id="Vector_7" d="M78.0865 125.817H45.1498V151.012H78.0865V125.817Z" fill="#C9F2FF"/>
<path id="Vector_8" d="M74.3504 131.404H48.8855V132.869H74.3504V131.404Z" fill="#C4ACFF"/>
<path id="Vector_9" d="M59.2426 131.404H48.8855V132.869H59.2426V131.404Z" fill="#3F53FF"/>
<path id="Vector_10" d="M74.3504 135.585H48.8855V137.049H74.3504V135.585Z" fill="#C4ACFF"/>
<path id="Vector_11" d="M67.5794 135.585H48.8855V137.049H67.5794V135.585Z" fill="#C4ACFF"/>
<path id="Vector_12" d="M74.3504 139.77H48.8855V141.234H74.3504V139.77Z" fill="#C4ACFF"/>
<path id="Vector_13" d="M55.1587 139.77H48.8855V141.234H55.1587V139.77Z" fill="#3F53FF"/>
<path id="Vector_14" d="M74.3504 143.955H48.8855V145.42H74.3504V143.955Z" fill="#C4ACFF"/>
<path id="Vector_15" d="M71.3395 143.955H48.8855V145.42H71.3395V143.955Z" fill="#C4ACFF"/>
</g>
<path id="Vector_16" d="M96.9494 78.4059H72.5526V102.803H96.9494V78.4059Z" fill="white"/>
<path id="Vector_17" d="M55.8452 57.3052H31.4484V81.702H55.8452V57.3052Z" fill="white"/>
<path id="Vector_18" d="M55.8452 99.5066H31.4484V123.903H55.8452V99.5066Z" fill="white"/>
<g id="Group_4">
<path id="Vector_19" d="M50.306 65.8987L38.6489 65.8698L38.6299 73.5348L50.287 73.5637L50.306 65.8987Z" fill="#D8C8ED"/>
<path id="Vector_20" d="M50.5627 64.7817L46.4063 60.5915L38.2096 60.5625L38.142 78.401L50.5144 78.4445L50.5627 64.7817ZM39.4614 67.1547L49.282 67.1933L49.2771 67.6911L39.4614 67.6525V67.1547ZM39.4565 69.2328L49.2723 69.2715V69.7741L39.4565 69.7355V69.2328ZM39.4469 71.8136L39.4517 71.3159L49.2675 71.3545V71.8571L39.4469 71.8136Z" fill="#7740FF"/>
<path id="Vector_21" d="M46.3917 64.7671L50.5674 64.7816L46.4062 60.5914L46.3917 64.7671Z" fill="#B694FF"/>
</g>
<g id="Group_5">
<path id="Vector_22" d="M50.3058 107.795L38.6487 107.766L38.6297 115.432L50.2868 115.46L50.3058 107.795Z" fill="#D8C8ED"/>
<path id="Vector_23" d="M50.5627 106.679L46.4063 102.488L38.2096 102.459L38.142 120.298L50.5144 120.341L50.5627 106.679ZM39.4614 109.052L49.282 109.09L49.2771 109.588L39.4614 109.549V109.052ZM39.4565 111.13L49.2723 111.168V111.671L39.4565 111.632V111.13ZM39.4469 113.706L39.4517 113.208L49.2675 113.247V113.749L39.4469 113.706Z" fill="#7740FF"/>
<path id="Vector_24" d="M46.3917 106.659L50.5674 106.674L46.4062 102.484L46.3917 106.659Z" fill="#B694FF"/>
</g>
<g id="Group_6">
<path id="Vector_25" d="M85.0893 76.0956L82.233 73.4858H87.9456L85.0893 76.0956Z" fill="white"/>
</g>
<g id="Group_7">
<path id="Vector_26" d="M85.0893 107.346L82.233 109.951H87.9456L85.0893 107.346Z" fill="white"/>
</g>
<g id="Group_8">
<path id="Vector_27" d="M43.3905 97.7279L40.5342 95.1229H46.2468L43.3905 97.7279Z" fill="white"/>
<path id="Vector_28" d="M43.3905 83.4805L40.5342 86.0854H46.2468L43.3905 83.4805Z" fill="white"/>
</g>
<g id="Group_9">
<path id="Vector_29" d="M92.4645 86.8297H77.0425V87.5112H92.4645V86.8297Z" fill="#7740FF"/>
<path id="Vector_30" d="M92.4645 90.2853H77.0425V90.9667H92.4645V90.2853Z" fill="#7740FF"/>
<path id="Vector_31" d="M92.4645 93.6971H77.0425V94.3786H92.4645V93.6971Z" fill="#7740FF"/>
</g>
<g id="Group_10">
<path id="Vector_32" d="M42.2258 21.135H35.6771V29.4332H42.2258V21.135Z" fill="#1E2351"/>
<path id="Vector_33" d="M53.2304 14.4656H46.6818V29.4381H53.2304V14.4656Z" fill="#48CBFF"/>
<path id="Vector_34" d="M64.2303 10H57.6816V29.4334H64.2303V10Z" fill="white"/>
</g>
<g id="Group_11">
<path id="Vector_35" d="M139.842 13.4316V52.714C139.842 53.5694 139.151 54.2605 138.3 54.2605H77.3566C76.5012 54.2605 75.8101 53.5694 75.8101 52.714V13.4316C75.8101 12.581 76.5012 11.8899 77.3566 11.8899H138.3C139.156 11.8899 139.842 12.5762 139.842 13.4316Z" fill="#7740FF"/>
<path id="Vector_36" d="M139.842 13.4316V16.2444H75.8101V13.4316C75.8101 12.581 76.5012 11.8899 77.3566 11.8899H138.3C139.156 11.8899 139.842 12.5762 139.842 13.4316Z" fill="#1E2351"/>
<g id="Group_12">
<path id="Vector_37" d="M83.4655 42.5743L82.6777 42.2746C82.7309 42.1345 84.0213 38.7997 86.5538 35.407C89.9417 30.8688 93.9385 28.4717 98.1142 28.4717C103.406 28.4717 106.045 31.8934 108.597 35.204C110.912 38.2053 113.101 41.0422 117.137 41.0422C125.532 41.0422 131.583 28.8293 131.641 28.7037L132.399 29.0758C132.336 29.2063 130.814 32.3042 128.185 35.4505C124.667 39.6648 120.844 41.888 117.137 41.888C112.681 41.888 110.264 38.7514 107.925 35.7163C105.499 32.5652 102.986 29.3126 98.1142 29.3126C93.1991 29.3126 89.4874 32.889 87.2401 35.8903C84.7752 39.196 83.48 42.5404 83.4655 42.5743Z" fill="white"/>
<path id="Vector_38" d="M132.617 29.5301C133.562 29.5301 134.328 28.7642 134.328 27.8193C134.328 26.8744 133.562 26.1084 132.617 26.1084C131.672 26.1084 130.906 26.8744 130.906 27.8193C130.906 28.7642 131.672 29.5301 132.617 29.5301Z" fill="#C4ACFF"/>
<path id="Vector_39" d="M98.2739 30.6756C99.2188 30.6756 99.9847 29.9097 99.9847 28.9648C99.9847 28.0199 99.2188 27.2539 98.2739 27.2539C97.329 27.2539 96.563 28.0199 96.563 28.9648C96.563 29.9097 97.329 30.6756 98.2739 30.6756Z" fill="#C4ACFF"/>
<path id="Vector_40" d="M116.253 43.1639C117.197 43.1639 117.963 42.3979 117.963 41.4531C117.963 40.5082 117.197 39.7422 116.253 39.7422C115.308 39.7422 114.542 40.5082 114.542 41.4531C114.542 42.3979 115.308 43.1639 116.253 43.1639Z" fill="#C4ACFF"/>
<path id="Vector_41" d="M83.0355 44.527C83.9803 44.527 84.7463 43.761 84.7463 42.8161C84.7463 41.8712 83.9803 41.1052 83.0355 41.1052C82.0906 41.1052 81.3246 41.8712 81.3246 42.8161C81.3246 43.761 82.0906 44.527 83.0355 44.527Z" fill="#C4ACFF"/>
</g>
</g>
<g id="Group_13">
<path id="Vector_42" d="M156.095 25.9197V29.4864C153.626 29.4864 151.63 31.4873 151.63 33.9521H148.063C148.058 29.5154 151.659 25.9197 156.095 25.9197Z" fill="white"/>
<path id="Vector_43" d="M161.755 39.6551C160.305 41.1002 158.304 41.9894 156.095 41.9894C151.659 41.9894 148.063 38.3937 148.063 33.957H151.63C151.63 36.4267 153.626 38.4275 156.095 38.4275C157.318 38.4275 158.425 37.9394 159.232 37.1371L161.755 39.6551Z" fill="#48CBFF"/>
<path id="Vector_44" d="M164.128 33.9521C164.128 36.1849 163.219 38.2003 161.755 39.655L159.232 37.1322C160.054 36.3251 160.561 35.199 160.561 33.9521C160.561 31.4873 158.565 29.4864 156.095 29.4864V25.9197C160.532 25.9197 164.128 29.5154 164.128 33.9521Z" fill="#C4ACFF"/>
<g id="Group_14">
<path id="Vector_45" d="M164.331 43.8452H147.86V44.4107H164.331V43.8452Z" fill="white"/>
<path id="Vector_46" d="M164.331 46.2666H147.86V46.8321H164.331V46.2666Z" fill="white"/>
</g>
</g>
<g id="Group_15">
<path id="Vector_47" d="M85.2489 73.1815L84.7656 73.1766C84.7898 71.0743 84.2726 69.6244 83.2335 68.8608C82.2524 68.1407 80.9137 68.1165 79.5073 68.1552L57.5656 68.7593L57.5511 68.276L79.4928 67.6719C80.6866 67.638 82.3201 67.5945 83.5187 68.4693C84.6883 69.3296 85.273 70.9148 85.2489 73.1815Z" fill="white"/>
</g>
<g id="Group_16">
<path id="Vector_48" d="M56.8214 113.503L56.8118 113.02L76.5883 112.72C78.5166 112.691 80.5078 112.662 82.4217 112.299C83.0934 112.174 83.857 111.981 84.408 111.521C84.8865 111.12 85.2393 110.39 84.9831 109.767L85.4326 109.583C85.7902 110.458 85.3118 111.396 84.7173 111.894C84.0794 112.425 83.2433 112.638 82.5087 112.778C80.5513 113.145 78.5408 113.179 76.5931 113.208L56.8214 113.503Z" fill="white"/>
</g>
<g id="Group_17">
<path id="Vector_49" d="M43.1103 96.3168C43.0474 92.895 43.0378 89.425 43.0861 86.0081L43.5694 86.0129C43.5211 89.425 43.5307 92.8902 43.5936 96.3071L43.1103 96.3168Z" fill="white"/>
</g>
</g>
</g>
<defs>
<filter id="filter0_b_2967_461" x="-28.3" y="-4.1396" width="179.242" height="182.282" filterUnits="userSpaceOnUse" color-interpolation-filters="sRGB">
<feFlood flood-opacity="0" result="BackgroundImageFix"/>
<feGaussianBlur in="BackgroundImageFix" stdDeviation="19.65"/>
<feComposite in2="SourceAlpha" operator="in" result="effect1_backgroundBlur_2967_461"/>
<feBlend mode="normal" in="SourceGraphic" in2="effect1_backgroundBlur_2967_461" result="shape"/>
</filter>
</defs>
</svg>
