<svg width="43" height="41" viewBox="0 0 43 41" fill="none" xmlns="http://www.w3.org/2000/svg">
<path d="M42.7917 20.8553L35.3608 12.8915C35.2373 12.7605 35.0711 12.6858 34.8972 12.6831H29.5625V9.30498C29.5625 8.69241 29.3355 8.10483 28.9312 7.671C28.5269 7.23718 27.9784 6.9925 27.4058 6.9906H2.17016C1.59576 6.9906 1.04479 7.2342 0.637995 7.66803C0.231204 8.10185 0.00177833 8.69051 4.06306e-10 9.30498L4.06305e-10 27.6259C-5.51898e-06 27.9301 0.0562218 28.2313 0.165446 28.5122C0.274671 28.793 0.434736 29.048 0.636432 29.2624C0.838127 29.4769 1.07747 29.6465 1.34069 29.7616C1.60391 29.8767 1.8858 29.935 2.17016 29.9331H3.56766C3.779 30.8097 4.25669 31.5862 4.92562 32.1407C5.59454 32.6951 6.41675 32.996 7.26297 32.996C8.10918 32.996 8.9314 32.6951 9.60032 32.1407C10.2692 31.5862 10.7469 30.8097 10.9583 29.9331H27.3923C27.7781 29.9341 28.1568 29.8222 28.4875 29.6097H31.8469C32.0018 30.5578 32.4644 31.4171 33.1532 32.0364C33.8421 32.6556 34.713 32.9951 35.6127 32.9951C36.5125 32.9951 37.3834 32.6556 38.0722 32.0364C38.7611 31.4171 39.2237 30.5578 39.3786 29.6097H40.8567C41.424 29.6097 41.9681 29.3691 42.3699 28.9407C42.7716 28.5122 42.9982 27.9309 43 27.324V21.3656C42.9988 21.27 42.9797 21.1756 42.9439 21.088C42.9082 21.0004 42.8564 20.9213 42.7917 20.8553ZM7.26297 31.6365C6.76332 31.6365 6.2749 31.478 5.85946 31.1811C5.44402 30.8841 5.12022 30.4621 4.92902 29.9682C4.73781 29.4744 4.68778 28.931 4.78526 28.4068C4.88274 27.8826 5.12334 27.401 5.47664 27.0231C5.82994 26.6451 6.28008 26.3877 6.77012 26.2835C7.26017 26.1792 7.76811 26.2327 8.22972 26.4373C8.69133 26.6418 9.08588 26.9882 9.36347 27.4326C9.64106 27.877 9.78922 28.3995 9.78922 28.934C9.78215 29.6465 9.51309 30.3272 9.04028 30.829C8.56747 31.3308 7.92896 31.6131 7.26297 31.615V31.6365ZM28.2188 27.6259C28.2196 27.7663 28.1889 27.9049 28.1293 28.03C28.0697 28.155 27.9828 28.263 27.8761 28.3447C27.7321 28.47 27.551 28.5363 27.3655 28.5315H11.0725C10.9834 27.5177 10.5438 26.5758 9.8399 25.8903C9.13597 25.2047 8.21827 24.8248 7.26633 24.8248C6.31439 24.8248 5.39669 25.2047 4.69275 25.8903C3.98882 26.5758 3.54929 27.5177 3.46016 28.5315H2.17016C2.05722 28.5325 1.94521 28.5096 1.84053 28.4643C1.73585 28.4189 1.64055 28.3519 1.56007 28.2672C1.47959 28.1824 1.4155 28.0815 1.37147 27.9703C1.32743 27.859 1.30432 27.7395 1.30344 27.6187V9.30498C1.30343 9.18355 1.3259 9.06333 1.36954 8.95124C1.41318 8.83915 1.47713 8.73741 1.5577 8.65188C1.63827 8.56636 1.73387 8.49874 1.83898 8.45293C1.9441 8.40712 2.05666 8.38403 2.17016 8.38498H27.3923C27.6151 8.39248 27.8263 8.49294 27.9808 8.66486C28.1352 8.83679 28.2206 9.06654 28.2188 9.30498V27.6259ZM29.5625 14.0775H34.6419L40.7828 20.6684H29.5625V14.0775ZM38.1491 28.9125C38.1491 29.4464 38.0012 29.9683 37.7242 30.4124C37.4472 30.8565 37.0535 31.2029 36.5926 31.4079C36.1318 31.6128 35.6246 31.6672 35.1349 31.5641C34.6452 31.4609 34.1951 31.205 33.8412 30.8285C33.4874 30.4519 33.2457 29.9717 33.1468 29.4485C33.0478 28.9252 33.0959 28.3823 33.285 27.8882C33.4742 27.3941 33.7959 26.9711 34.2095 26.6724C34.6232 26.3737 35.1103 26.2128 35.6094 26.21C36.28 26.2119 36.9225 26.4982 37.3961 27.0062C37.8697 27.5141 38.1356 28.2023 38.1356 28.9197L38.1491 28.9125ZM41.6966 27.324C41.6974 27.4407 41.6767 27.5565 41.6356 27.6646C41.5945 27.7727 41.5337 27.871 41.4569 27.9538C41.3801 28.0367 41.2887 28.1024 41.188 28.1473C41.0873 28.1922 40.9793 28.2153 40.8702 28.2153H39.392C39.2371 27.2671 38.7745 26.4078 38.0857 25.7886C37.3969 25.1693 36.5259 24.8299 35.6262 24.8299C34.7264 24.8299 33.8555 25.1693 33.1667 25.7886C32.4778 26.4078 32.0153 27.2671 31.8603 28.2153H29.4752C29.5237 28.0231 29.5485 27.825 29.5491 27.6259V22.0628H41.6966V27.324Z" fill="#48CBFF"/>
<path d="M9.7892 28.9125C9.7892 29.447 9.64103 29.9695 9.36345 30.4139C9.08586 30.8583 8.69131 31.2047 8.2297 31.4093C7.76809 31.6138 7.26014 31.6673 6.7701 31.563C6.28005 31.4588 5.82992 31.2014 5.47662 30.8234C5.12331 30.4455 4.88271 29.9639 4.78524 29.4397C4.68776 28.9155 4.73779 28.3721 4.92899 27.8783C5.1202 27.3845 5.444 26.9624 5.85944 26.6654C6.27488 26.3685 6.7633 26.21 7.26295 26.21C7.93295 26.21 8.57551 26.4947 9.04927 27.0015C9.52304 27.5083 9.7892 28.1957 9.7892 28.9125ZM38.149 28.9053C38.1504 29.4395 38.0037 29.9621 37.7275 30.4072C37.4513 30.8522 37.058 31.1997 36.5973 31.4058C36.1366 31.6118 35.6291 31.6672 35.139 31.5649C34.6489 31.4626 34.1981 31.2072 33.8436 30.831C33.4891 30.4548 33.2468 29.9746 33.1472 29.4511C33.0477 28.9276 33.0954 28.3843 33.2844 27.8899C33.4733 27.3954 33.795 26.9719 34.2088 26.6729C34.6226 26.3739 35.11 26.2128 35.6094 26.21C35.9426 26.209 36.2727 26.2784 36.5807 26.4142C36.8888 26.5499 37.1689 26.7494 37.4048 27.0011C37.6407 27.2528 37.8279 27.5518 37.9556 27.881C38.0833 28.2103 38.149 28.5632 38.149 28.9197V28.9053Z" fill="white"/>
<path d="M27.3924 8.38504H2.17019C2.05668 8.38409 1.94413 8.40719 1.83901 8.453C1.7339 8.4988 1.6383 8.56642 1.55773 8.65195C1.47715 8.73747 1.41321 8.83921 1.36957 8.9513C1.32593 9.06339 1.30346 9.18362 1.30347 9.30504V27.626C1.30435 27.7468 1.32746 27.8662 1.37149 27.9775C1.41553 28.0888 1.47962 28.1897 1.5601 28.2744C1.64058 28.3592 1.73588 28.4262 1.84056 28.4715C1.94524 28.5169 2.05725 28.5397 2.17019 28.5388H3.46019C3.54932 27.5249 3.98885 26.5831 4.69278 25.8975C5.39672 25.212 6.31442 24.832 7.26636 24.832C8.2183 24.832 9.136 25.212 9.83993 25.8975C10.5439 26.5831 10.9834 27.5249 11.0725 28.5388H27.3924C27.578 28.5435 27.759 28.4773 27.903 28.3519C28.0097 28.2702 28.0966 28.1623 28.1562 28.0372C28.2158 27.9121 28.2465 27.7736 28.2457 27.6332V9.30504C28.2465 9.18456 28.2251 9.06509 28.1826 8.95351C28.1402 8.84193 28.0774 8.74046 27.9981 8.65493C27.9188 8.56941 27.8244 8.50152 27.7205 8.4552C27.6165 8.40888 27.505 8.38503 27.3924 8.38504ZM15.0433 22.76C14.246 22.76 13.4666 22.5071 12.8037 22.0333C12.1407 21.5594 11.624 20.8859 11.3189 20.0979C11.0138 19.3099 10.934 18.4428 11.0895 17.6062C11.2451 16.7697 11.629 16.0013 12.1928 15.3981C12.7566 14.795 13.4749 14.3843 14.2569 14.2179C15.0388 14.0515 15.8494 14.1369 16.586 14.4633C17.3226 14.7897 17.9522 15.3425 18.3952 16.0516C18.8381 16.7608 19.0746 17.5946 19.0746 18.4475C19.0754 19.0145 18.9718 19.576 18.7696 20.1001C18.5674 20.6241 18.2706 21.1004 17.8962 21.5016C17.5218 21.9028 17.0771 22.2211 16.5876 22.4383C16.098 22.6554 15.5733 22.7672 15.0433 22.7672V22.76Z" fill="#48CBFF"/>
<path d="M41.6966 22.0629V27.3241C41.6975 27.4408 41.6767 27.5566 41.6356 27.6646C41.5945 27.7727 41.5337 27.871 41.4569 27.9539C41.3801 28.0367 41.2887 28.1025 41.188 28.1474C41.0873 28.1923 40.9793 28.2154 40.8702 28.2154H39.392C39.2371 27.2672 38.7745 26.4079 38.0857 25.7887C37.3969 25.1694 36.5259 24.8299 35.6262 24.8299C34.7264 24.8299 33.8555 25.1694 33.1667 25.7887C32.4778 26.4079 32.0153 27.2672 31.8603 28.2154H29.4752C29.5237 28.0232 29.5485 27.8251 29.5491 27.626V22.0629H41.6966Z" fill="#1569E7"/>
<path d="M40.7694 20.6685H29.5491V14.0775H34.6284L40.7694 20.6685Z" fill="#1569E7"/>
<path d="M16.8929 18.9355C16.9221 19.1887 16.897 19.4458 16.8194 19.6888C16.7495 19.9257 16.6204 20.14 16.4449 20.3102C16.2639 20.4948 16.0559 20.649 15.8285 20.767C15.5769 20.8831 15.3122 20.9656 15.0407 21.0127L15.0424 22.014L15.0489 22.0775C15.0394 22.117 15.0162 22.1516 14.9837 22.175L14.8725 22.1879L14.7242 22.2051L14.5388 22.2267L14.4276 22.2396L14.3581 22.1706C14.3407 22.131 14.3362 22.0865 14.3452 22.0437L14.3487 21.0932L14.015 21.132C13.8945 21.1229 13.7752 21.1023 13.6586 21.0707L13.3414 20.9021L13.1679 20.7939C13.1166 20.7544 13.0767 20.7014 13.0522 20.6404C13.0372 20.561 13.0291 20.4803 13.0277 20.3993L13.0084 20.2089L12.9929 20.0566L13.0606 19.9846L13.1842 19.9702L13.4008 20.0092L13.7018 20.1411L14.1498 20.2431C14.3613 20.2679 14.5753 20.2646 14.7865 20.2333C15.1255 20.2232 15.4521 20.0947 15.7123 19.8689C15.8061 19.7826 15.8774 19.6737 15.9197 19.552C15.962 19.4304 15.9738 19.3001 15.9542 19.1731C15.9455 19.0242 15.8918 18.8823 15.8004 18.7672C15.7104 18.6504 15.5937 18.5581 15.4605 18.4986C15.3108 18.4236 15.154 18.3644 14.9924 18.3219L14.4293 18.1947L13.8487 18.0183C13.6647 17.9467 13.4909 17.8503 13.3319 17.7316C13.1752 17.5917 13.0508 17.4176 12.9675 17.2219C12.8601 17.0049 12.7937 16.7687 12.7718 16.5256C12.7488 16.3131 12.7651 16.0978 12.8198 15.8908C12.8704 15.682 12.9712 15.4892 13.113 15.3303C13.2546 15.1531 13.4322 15.0097 13.633 14.9103C13.8519 14.7888 14.0884 14.7049 14.333 14.662L14.3267 13.7382L14.3203 13.6748L14.3978 13.5759C14.4379 13.5638 14.4797 13.5589 14.5214 13.5615L14.8674 13.5213C14.9067 13.5053 14.9494 13.5003 14.991 13.5069C14.991 13.5069 14.9974 13.5704 15.0013 13.6085L14.9927 14.5083L15.2151 14.4824C15.3175 14.4886 15.4192 14.5025 15.5194 14.5241L15.7769 14.5969C15.8428 14.6186 15.905 14.6503 15.9615 14.691L16.0447 14.7712L16.055 14.8727L16.0653 14.9742C16.0653 14.9742 16.0744 15.0631 16.0795 15.1138C16.0847 15.1646 16.0924 15.2407 16.0976 15.2915C16.1055 15.329 16.1094 15.3673 16.1092 15.4057L16.1169 15.4818C16.0779 15.4992 16.0349 15.5042 15.9933 15.4962C15.9254 15.4948 15.8591 15.476 15.8002 15.4416C15.7046 15.4044 15.6055 15.3772 15.5044 15.3604C15.3713 15.3152 15.2341 15.2838 15.0947 15.2668C14.9415 15.2418 14.7855 15.2384 14.631 15.2565C14.4558 15.2745 14.2834 15.3161 14.1184 15.3803C13.9984 15.4207 13.8896 15.4907 13.8015 15.5841C13.7266 15.651 13.6705 15.7374 13.6393 15.8341C13.6303 15.9411 13.6412 16.0488 13.6716 16.1513C13.6827 16.3037 13.7366 16.449 13.8266 16.5699C13.9256 16.673 14.0399 16.7593 14.1652 16.8258C14.3226 16.9023 14.4879 16.9606 14.6581 16.9997L15.2212 17.1268L15.7894 17.3047C15.9784 17.3665 16.1565 17.4584 16.3173 17.5772C16.478 17.7028 16.6163 17.8561 16.7259 18.0304C16.8694 18.3071 16.9276 18.6226 16.8929 18.9355Z" fill="#7740FF"/>
<path d="M13.7321 10.7529C12.345 10.9141 11.0316 11.4909 9.95805 12.4101C8.88446 13.3293 8.09891 14.5498 7.70072 15.9172C7.30253 17.2845 7.30959 18.7374 7.72101 20.092C8.13243 21.4466 8.92973 22.6422 10.0121 23.5274C11.0944 24.4127 12.4132 24.948 13.8017 25.0655C15.1902 25.1831 16.586 24.8776 17.8126 24.1878C19.0392 23.498 20.0415 22.4548 20.6927 21.1902C21.344 19.9255 21.615 18.4962 21.4714 17.083C21.2789 15.1879 20.3554 13.4563 18.904 12.2692C17.4526 11.0821 15.5922 10.5366 13.7321 10.7529ZM14.948 22.7215C14.0094 22.8306 13.063 22.6537 12.2286 22.2131C11.3942 21.7726 10.7093 21.0882 10.2603 20.2464C9.81136 19.4047 9.61862 18.4434 9.70646 17.4842C9.79429 16.525 10.1588 15.611 10.7538 14.8576C11.3488 14.1043 12.1476 13.5455 13.0492 13.2519C13.9509 12.9583 14.9148 12.9431 15.8191 13.2082C16.7235 13.4734 17.5276 14.0069 18.1299 14.7414C18.7321 15.4759 19.1054 16.3784 19.2026 17.3347C19.3328 18.617 18.9578 19.905 18.1599 20.9152C17.362 21.9254 16.2066 22.5751 14.948 22.7215Z" fill="#7740FF"/>
<path d="M14.2839 12.8576C13.3586 12.9651 12.484 13.3639 11.7708 14.0035C11.0575 14.6431 10.5377 15.4947 10.277 16.4504C10.0164 17.4062 10.0267 18.4232 10.3067 19.3727C10.5866 20.3222 11.1236 21.1615 11.8497 21.7844C12.5757 22.4073 13.4582 22.7857 14.3854 22.8718C15.3126 22.9578 16.2428 22.7477 17.0583 22.2679C17.8738 21.7882 18.5379 21.0603 18.9666 20.1766C19.3952 19.2929 19.5692 18.293 19.4663 17.3035C19.3997 16.6472 19.2126 16.0115 18.9159 15.4326C18.6192 14.8538 18.2187 14.3433 17.7373 13.9303C17.2559 13.5173 16.7031 13.21 16.1105 13.0259C15.5179 12.8418 14.8972 12.7846 14.2839 12.8576ZM16.7542 19.6257C16.69 19.8552 16.5704 20.0626 16.4075 20.2269C16.2395 20.4053 16.0462 20.554 15.8346 20.6675C15.6005 20.7789 15.354 20.8579 15.1011 20.9023L15.1066 21.874L15.1129 21.9356C15.1042 21.9738 15.0827 22.0074 15.0525 22.0298L14.9489 22.0419L14.7646 22.0633L14.5919 22.0834L14.4882 22.0954L14.4231 22.0282C14.4068 21.9896 14.4024 21.9465 14.4106 21.905L14.4101 20.9827L14.0992 21.0188C13.9869 21.0094 13.8756 20.989 13.7667 20.9577L13.4703 20.7927L13.3081 20.687C13.2601 20.6484 13.2227 20.5968 13.1997 20.5375C13.1854 20.4604 13.1775 20.3821 13.1759 20.3034L13.1571 20.1186L13.1421 19.9708L13.205 19.9012L13.3201 19.8878L13.5222 19.9266L13.8033 20.056L14.2214 20.157C14.4187 20.182 14.6182 20.1797 14.815 20.1503C15.131 20.142 15.435 20.0187 15.6767 19.8008C15.7638 19.7175 15.8299 19.6121 15.8688 19.4943C15.9078 19.3765 15.9183 19.25 15.8995 19.1267C15.8908 18.9823 15.8402 18.8443 15.7546 18.7322C15.6701 18.6184 15.561 18.5284 15.4366 18.47C15.2967 18.3966 15.1503 18.3384 14.9995 18.2964L14.474 18.1706L13.932 17.9967C13.7602 17.9265 13.5978 17.8322 13.4491 17.7163C13.3024 17.5798 13.1857 17.4104 13.1074 17.22C13.0064 17.009 12.9435 16.7795 12.9221 16.5435C12.8998 16.3373 12.9142 16.1284 12.9644 15.9278C13.0107 15.7254 13.104 15.5388 13.2356 15.3852C13.3669 15.2139 13.5319 15.0756 13.7188 14.98C13.9223 14.8631 14.1425 14.7827 14.3704 14.7422L14.361 13.8458L14.3547 13.7842L14.4265 13.6886C14.4639 13.6771 14.5029 13.6725 14.5417 13.6752L14.8642 13.6377C14.9007 13.6224 14.9405 13.6177 14.9793 13.6244C14.9793 13.6244 14.9856 13.6859 14.9893 13.7229L14.9848 14.596L15.1921 14.5719C15.2876 14.5783 15.3825 14.5923 15.476 14.6137L15.7163 14.6855C15.7778 14.7068 15.8359 14.7379 15.8888 14.7776L15.9667 14.8558L15.9767 14.9544L15.9867 15.0529C15.9867 15.0529 15.9955 15.1392 16.0005 15.1884C16.0055 15.2377 16.013 15.3116 16.018 15.3609C16.0256 15.3973 16.0293 15.4345 16.0293 15.4718L16.0368 15.5457C16.0005 15.5624 15.9604 15.5671 15.9216 15.5591C15.8583 15.5574 15.7963 15.5389 15.7414 15.5053C15.6521 15.4687 15.5595 15.4419 15.4652 15.4252C15.341 15.3807 15.2129 15.3496 15.0829 15.3325C14.94 15.3075 14.7945 15.3035 14.6506 15.3204C14.4873 15.3371 14.3268 15.3767 14.1732 15.4383C14.0614 15.4769 13.9602 15.5443 13.8785 15.6346C13.8089 15.6992 13.757 15.7828 13.7283 15.8764C13.7203 15.9803 13.7309 16.0848 13.7596 16.1844C13.7706 16.3323 13.8213 16.4736 13.9058 16.5912C13.9985 16.6917 14.1053 16.776 14.2224 16.8411C14.3695 16.916 14.5238 16.9733 14.6826 17.012L15.2081 17.1379L15.7386 17.313C15.915 17.3738 16.0814 17.4638 16.2318 17.5798C16.3821 17.7024 16.5116 17.8518 16.6145 18.0214C16.7291 18.2267 16.7965 18.4581 16.8113 18.6966C16.8736 19.0059 16.8538 19.3277 16.7542 19.6257Z" fill="white"/>
</svg>
