<svg width="56" height="41" viewBox="0 0 56 41" fill="none" xmlns="http://www.w3.org/2000/svg">
<path d="M24.9105 31.2828H13.4199V35.0686H24.9105V31.2828Z" fill="#1569E7"/>
<path d="M23.853 35.5974H12.3624C12.0704 35.5974 11.8341 35.3612 11.8341 35.0691V31.2823C11.8341 30.9903 12.0704 30.754 12.3624 30.754H23.853C24.145 30.754 24.3813 30.9903 24.3813 31.2823V35.0691C24.3813 35.3612 24.145 35.5974 23.853 35.5974ZM12.8907 34.5408H23.3247V31.8106H12.8907V34.5408ZM48.1648 25.7264H50.1772C51.6632 25.7264 52.8604 24.5396 52.8604 23.0535V17.2122C52.8604 15.7261 51.6632 14.529 50.1772 14.529H41.2709C39.7848 14.529 38.5876 13.3318 38.5876 11.8457V6.67535C38.5876 5.18924 37.3905 3.99207 35.9147 3.99207H31.3119V38.0074H48.0203C50.6932 38.0074 52.8501 35.8401 52.8501 33.1776C52.8501 31.8462 52.3134 30.6388 51.4362 29.7616C50.5693 28.8843 49.3619 28.3477 48.0203 28.3477H48.1648V25.7264Z" fill="#1569E7"/>
<path d="M48.0208 38.5361H31.3122C31.0202 38.5361 30.7839 38.2998 30.7839 38.0078V3.99217C30.7839 3.70016 31.0202 3.46387 31.3122 3.46387H35.9152C37.6797 3.46387 39.116 4.90432 39.116 6.67495V11.8455C39.116 13.0342 40.0828 14.001 41.2705 14.001H50.1773C51.9479 14.001 53.3884 15.4415 53.3884 17.2121V23.0533C53.3884 24.8188 51.9479 26.2551 50.1773 26.2551H48.6935V27.8607C49.8791 28.0062 50.9687 28.5365 51.8117 29.3899C52.8209 30.399 53.3781 31.7456 53.3781 33.1778C53.3781 36.1319 50.9749 38.5361 48.0208 38.5361ZM31.8405 37.4795H48.0208C50.3919 37.4795 52.3215 35.55 52.3215 33.1778C52.3215 32.0273 51.8747 30.9469 51.0626 30.1349C50.2598 29.3228 49.1805 28.876 48.0208 28.876C47.7287 28.876 47.4925 28.6397 47.4925 28.3477C47.4925 28.2074 47.5471 28.0794 47.6369 27.9845V25.7268C47.6369 25.4348 47.8732 25.1985 48.1652 25.1985H50.1773C51.3649 25.1985 52.3318 24.2358 52.3318 23.0533V17.2121C52.3318 16.0245 51.3649 15.0576 50.1773 15.0576H41.2705C39.4998 15.0576 38.0594 13.6172 38.0594 11.8455V6.67495C38.0594 5.4873 37.0977 4.52047 35.9152 4.52047H31.8405V37.4795Z" fill="#1569E7"/>
<path d="M18.6642 15.0444V23.0506C18.6642 24.5359 19.8597 25.7314 21.345 25.7314H48.135C49.6203 25.7314 50.8158 24.5359 50.8158 23.0506V17.209C50.8158 15.7237 49.6203 14.5282 48.135 14.5282H39.2322C37.7468 14.5282 36.5513 13.3327 36.5513 11.8474V6.6759C36.5513 5.19062 35.3558 3.99512 33.8705 3.99512H24.705C23.6092 3.99512 22.622 4.65625 22.2144 5.67967L18.8544 14.0481C18.7276 14.3652 18.6642 14.7003 18.6642 15.0444Z" fill="#7740FF"/>
<path d="M48.1353 26.2593H21.3446C19.575 26.2593 18.1356 24.8199 18.1356 23.0503V15.0443C18.1356 14.6326 18.2129 14.2312 18.3646 13.8525L21.7243 5.48222C22.2124 4.25846 23.3825 3.46704 24.7053 3.46704H33.8701C35.6397 3.46704 37.0801 4.90646 37.0801 6.67606V11.8476C37.0801 13.0343 38.0459 14.0001 39.2325 14.0001H48.1353C49.9049 14.0001 51.3443 15.4395 51.3443 17.2091V23.0503C51.3443 24.8199 49.9049 26.2593 48.1353 26.2593ZM24.7053 4.52364C23.8179 4.52364 23.0327 5.05401 22.7056 5.87535L19.3449 14.2456C19.2438 14.4984 19.1922 14.7677 19.1922 15.0443V23.0503C19.1922 24.2369 20.158 25.2027 21.3446 25.2027H48.1353C49.3219 25.2027 50.2877 24.2369 50.2877 23.0503V17.2091C50.2877 16.0225 49.3219 15.0567 48.1353 15.0567H39.2325C37.4629 15.0567 36.0235 13.6172 36.0235 11.8476V6.67606C36.0235 5.48945 35.0577 4.52364 33.8701 4.52364H24.7053Z" fill="#7740FF"/>
<path d="M23.4915 14.9357H33.0192C33.626 14.9357 34.0969 14.4104 34.0245 13.8127L33.3815 7.98914C33.3181 7.48197 32.8924 7.09253 32.3671 7.09253H25.8281C25.4115 7.09253 25.0401 7.33708 24.8862 7.72652L22.5495 13.55C22.2869 14.2112 22.7759 14.9357 23.4915 14.9357Z" fill="white"/>
<path d="M33.0188 15.4642H23.4918C22.9811 15.4642 22.5033 15.2114 22.2165 14.7873C21.9296 14.3643 21.8708 13.8287 22.0586 13.3551L24.3957 7.52935C24.6269 6.94429 25.1892 6.56458 25.8279 6.56458H32.3667C33.1478 6.56458 33.8092 7.14963 33.9052 7.92454L34.5501 13.7544C34.6017 14.1816 34.4655 14.6181 34.1755 14.9452C33.8825 15.2754 33.4615 15.4642 33.0188 15.4642ZM25.8279 7.62118C25.6226 7.62118 25.4503 7.73571 25.377 7.92041L23.0399 13.7472C22.9811 13.8958 22.9997 14.0599 23.0905 14.195C23.1823 14.3302 23.3288 14.4076 23.4918 14.4076H33.0188C33.1612 14.4076 33.2912 14.3498 33.3851 14.2435C33.4759 14.1414 33.5162 14.0103 33.5007 13.8752L32.8558 8.04733C32.8259 7.80381 32.6195 7.62118 32.3667 7.62118H25.8279ZM46.9662 17.9581H40.0229C39.7309 17.9581 39.4946 17.7219 39.4946 17.4298C39.4946 17.1378 39.7309 16.9015 40.0229 16.9015H46.9662C47.2582 16.9015 47.4945 17.1378 47.4945 17.4298C47.4945 17.7219 47.2582 17.9581 46.9662 17.9581ZM46.9662 20.8256H40.0229C39.7309 20.8256 39.4946 20.5893 39.4946 20.2973C39.4946 20.0053 39.7309 19.769 40.0229 19.769H46.9662C47.2582 19.769 47.4945 20.0053 47.4945 20.2973C47.4945 20.5893 47.2582 20.8256 46.9662 20.8256ZM46.9662 23.6941H40.0229C39.7309 23.6941 39.4946 23.4579 39.4946 23.1658C39.4946 22.8738 39.7309 22.6375 40.0229 22.6375H46.9662C47.2582 22.6375 47.4945 22.8738 47.4945 23.1658C47.4945 23.4579 47.2582 23.6941 46.9662 23.6941Z" fill="#48CBFF"/>
<path d="M18.661 33.1801C18.661 34.5115 19.2044 35.716 20.0739 36.5945C20.9524 37.464 22.166 38.0074 23.4973 38.0074H45.9854C48.6571 38.0074 50.8127 35.8428 50.8127 33.1801C50.8127 31.8488 50.2783 30.6351 49.3998 29.7567C48.5303 28.8872 47.3258 28.3438 45.9854 28.3438H23.4973C20.8256 28.3438 18.661 30.5083 18.661 33.1801Z" fill="#48CBFF"/>
<path d="M45.9849 38.5361H23.497C22.071 38.5361 20.7224 37.98 19.7019 36.9698C18.6886 35.9452 18.1325 34.6007 18.1325 33.1798C18.1325 30.2216 20.5387 27.8153 23.497 27.8153H45.9849C47.4161 27.8153 48.7616 28.3715 49.7738 29.3827C50.785 30.3949 51.3412 31.7435 51.3412 33.1798C51.3412 36.133 48.938 38.5361 45.9849 38.5361ZM23.497 28.8719C21.1217 28.8719 19.1891 30.8045 19.1891 33.1798C19.1891 34.3211 19.6369 35.4014 20.449 36.2227C21.2672 37.0317 22.3506 37.4795 23.497 37.4795H45.9849C48.3561 37.4795 50.2846 35.551 50.2846 33.1798C50.2846 32.0252 49.8378 30.9418 49.0268 30.1297C48.2147 29.3187 47.1344 28.8719 45.9849 28.8719H23.497Z" fill="#48CBFF"/>
<path d="M23.8591 28.3434L46.1239 28.3434V25.7315L23.8591 25.7315V28.3434Z" fill="#1569E7"/>
<path d="M46.1242 28.8719H23.8592C23.5672 28.8719 23.3309 28.6356 23.3309 28.3436V25.7309C23.3309 25.4389 23.5672 25.2026 23.8592 25.2026H46.1242C46.4162 25.2026 46.6525 25.4389 46.6525 25.7309V28.3436C46.6525 28.6356 46.4162 28.8719 46.1242 28.8719ZM24.3875 27.8153H45.5959V26.2592H24.3875V27.8153Z" fill="#48CBFF"/>
<path d="M45.6358 35.4649C46.9003 35.4649 47.9254 34.4398 47.9254 33.1753C47.9254 31.9107 46.9003 30.8856 45.6358 30.8856C44.3712 30.8856 43.3461 31.9107 43.3461 33.1753C43.3461 34.4398 44.3712 35.4649 45.6358 35.4649Z" fill="white"/>
<path d="M45.6362 35.9937C44.0822 35.9937 42.8182 34.7297 42.8182 33.1757C42.8182 31.6218 44.0822 30.3578 45.6362 30.3578C47.1901 30.3578 48.4541 31.6218 48.4541 33.1757C48.4541 34.7297 47.1901 35.9937 45.6362 35.9937ZM45.6362 31.4144C44.6652 31.4144 43.8748 32.2048 43.8748 33.1757C43.8748 34.1467 44.6652 34.9371 45.6362 34.9371C46.6071 34.9371 47.3975 34.1467 47.3975 33.1757C47.3975 32.2048 46.6071 31.4144 45.6362 31.4144Z" fill="#1569E7"/>
<path d="M38.3695 35.4649C39.634 35.4649 40.6592 34.4398 40.6592 33.1753C40.6592 31.9107 39.634 30.8856 38.3695 30.8856C37.1049 30.8856 36.0798 31.9107 36.0798 33.1753C36.0798 34.4398 37.1049 35.4649 38.3695 35.4649Z" fill="white"/>
<path d="M38.37 35.9937C36.816 35.9937 35.552 34.7297 35.552 33.1757C35.552 31.6218 36.816 30.3578 38.37 30.3578C39.9239 30.3578 41.1879 31.6218 41.1879 33.1757C41.1879 34.7297 39.9239 35.9937 38.37 35.9937ZM38.37 31.4144C37.399 31.4144 36.6086 32.2048 36.6086 33.1757C36.6086 34.1467 37.399 34.9371 38.37 34.9371C39.3409 34.9371 40.1313 34.1467 40.1313 33.1757C40.1313 32.2048 39.3409 31.4144 38.37 31.4144Z" fill="#1569E7"/>
<path d="M31.1043 35.4649C32.3688 35.4649 33.394 34.4398 33.394 33.1753C33.394 31.9107 32.3688 30.8856 31.1043 30.8856C29.8398 30.8856 28.8146 31.9107 28.8146 33.1753C28.8146 34.4398 29.8398 35.4649 31.1043 35.4649Z" fill="white"/>
<path d="M31.1037 35.9937C29.5498 35.9937 28.2858 34.7297 28.2858 33.1757C28.2858 31.6218 29.5498 30.3578 31.1037 30.3578C32.6577 30.3578 33.9217 31.6218 33.9217 33.1757C33.9217 34.7297 32.6577 35.9937 31.1037 35.9937ZM31.1037 31.4144C30.1328 31.4144 29.3424 32.2048 29.3424 33.1757C29.3424 34.1467 30.1328 34.9371 31.1037 34.9371C32.0747 34.9371 32.8651 34.1467 32.8651 33.1757C32.8651 32.2048 32.0747 31.4144 31.1037 31.4144Z" fill="#1569E7"/>
<path d="M23.838 35.4649C25.1026 35.4649 26.1277 34.4398 26.1277 33.1753C26.1277 31.9107 25.1026 30.8856 23.838 30.8856C22.5735 30.8856 21.5484 31.9107 21.5484 33.1753C21.5484 34.4398 22.5735 35.4649 23.838 35.4649Z" fill="white"/>
<path d="M23.8375 35.9937C22.2836 35.9937 21.0196 34.7297 21.0196 33.1757C21.0196 31.6218 22.2836 30.3578 23.8375 30.3578C25.3915 30.3578 26.6555 31.6218 26.6555 33.1757C26.6555 34.7297 25.3915 35.9937 23.8375 35.9937ZM23.8375 31.4144C22.8666 31.4144 22.0762 32.2048 22.0762 33.1757C22.0762 34.1467 22.8666 34.9371 23.8375 34.9371C24.8085 34.9371 25.5989 34.1467 25.5989 33.1757C25.5989 32.2048 24.8085 31.4144 23.8375 31.4144Z" fill="#1569E7"/>
<path d="M16.502 26.5834V32.8487C16.502 35.6973 14.194 38.0053 11.3408 38.0053H2.72664C2.09057 38.0053 1.84069 37.1785 2.37225 36.8241C7.45624 33.4711 10.7911 29.9909 11.6906 26.338C11.8178 25.8247 12.2631 25.4567 12.7901 25.4567H15.3753C15.9977 25.4567 16.502 25.961 16.502 26.5834Z" fill="#48CBFF"/>
<path d="M11.3409 38.5341H2.72711C2.20707 38.5341 1.75718 38.1997 1.60654 37.7014C1.45485 37.203 1.64575 36.6737 2.07912 36.3847C7.30332 32.9384 10.3638 29.5168 11.1779 26.2118C11.3646 25.4555 12.0271 24.9282 12.7896 24.9282H15.3754C16.2875 24.9282 17.0305 25.6711 17.0305 26.5833V32.8486C17.0305 35.9834 14.4777 38.5341 11.3409 38.5341ZM12.7896 25.9848C12.5141 25.9848 12.2737 26.1819 12.2035 26.4646C11.312 30.0864 8.1907 33.6194 2.66314 37.2649C2.64663 37.2762 2.59194 37.3124 2.61774 37.3959C2.6425 37.4775 2.70441 37.4775 2.72711 37.4775H11.3409C13.8957 37.4775 15.9739 35.4014 15.9739 32.8486V26.5833C15.9739 26.2531 15.7056 25.9848 15.3754 25.9848H12.7896Z" fill="#48CBFF"/>
</svg>
