<svg width="49" height="39" viewBox="0 0 49 39" fill="none" xmlns="http://www.w3.org/2000/svg">
<path d="M47.8669 15.9675H1.13312C0.0306178 15.9675 -0.421101 14.5435 0.489993 13.9156L11.7447 6.12924C12.8801 5.34137 14.2291 4.91929 15.6111 4.91956H33.3889C34.767 4.91956 36.1222 5.34065 37.2553 6.12924L48.51 13.9156C49.4211 14.5435 48.977 15.9675 47.8669 15.9675ZM45.3633 36.0805H3.60609C1.28624 36.0805 -0.245007 33.6688 0.742649 31.571L0.911087 31.2188C1.19158 31.6817 1.58731 32.064 2.05966 32.3284C2.532 32.5927 3.06481 32.7301 3.60609 32.7271H45.3633C46.5423 32.7271 47.5147 32.1069 48.0583 31.2188L48.2267 31.571C49.2144 33.6688 47.6831 36.0805 45.3633 36.0805Z" fill="#48CBFF"/>
<path d="M48.0583 31.2111C47.7771 31.6734 47.3812 32.0552 46.909 32.3194C46.4369 32.5837 45.9044 32.7215 45.3633 32.7194H3.60613C2.42707 32.7194 1.45473 32.0993 0.911133 31.2111L8.06207 15.9982H40.9074L48.0583 31.2111Z" fill="#1569E7"/>
<path d="M44.5211 29.3659H4.44824L9.95309 16.0057H39.0162L44.5211 29.3659Z" fill="#7740FF"/>
<path d="M5.7728 31.8312C6.36478 31.8312 6.84468 31.4781 6.84468 31.0426C6.84468 30.6071 6.36478 30.254 5.7728 30.254C5.18082 30.254 4.70093 30.6071 4.70093 31.0426C4.70093 31.4781 5.18082 31.8312 5.7728 31.8312Z" fill="#60E8BB"/>
<path d="M10.7723 31.0426C10.7723 31.479 10.2899 31.8312 9.70041 31.8312C9.11088 31.8312 8.62854 31.479 8.62854 31.0426C8.62854 30.6062 9.11088 30.254 9.70041 30.254C10.2899 30.254 10.7723 30.6062 10.7723 31.0426Z" fill="#48C199"/>
<path d="M24.5 12.75H22.8333C22.6123 12.75 22.4004 12.829 22.2441 12.9697C22.0878 13.1103 22 13.3011 22 13.5C22 13.6989 22.0878 13.8897 22.2441 14.0303C22.4004 14.171 22.6123 14.25 22.8333 14.25H23.6667C23.6667 14.4489 23.7545 14.6397 23.9107 14.7803C24.067 14.921 24.279 15 24.5 15C24.721 15 24.933 14.921 25.0893 14.7803C25.2455 14.6397 25.3333 14.4489 25.3333 14.25V14.112C26.3017 13.8015 27 12.9765 27 12C27 10.7595 25.8783 9.75 24.5 9.75C24.279 9.75 24.067 9.67098 23.9107 9.53033C23.7545 9.38968 23.6667 9.19891 23.6667 9C23.6667 8.80109 23.7545 8.61032 23.9107 8.46967C24.067 8.32902 24.279 8.25 24.5 8.25H26.1667C26.3877 8.25 26.5996 8.17098 26.7559 8.03033C26.9122 7.88968 27 7.69891 27 7.5C27 7.30109 26.9122 7.11032 26.7559 6.96967C26.5996 6.82902 26.3877 6.75 26.1667 6.75H25.3333C25.3333 6.55109 25.2455 6.36032 25.0893 6.21967C24.933 6.07902 24.721 6 24.5 6C24.279 6 24.067 6.07902 23.9107 6.21967C23.7545 6.36032 23.6667 6.55109 23.6667 6.75V6.888C22.6983 7.1985 22 8.0235 22 9C22 10.2405 23.1217 11.25 24.5 11.25C24.721 11.25 24.933 11.329 25.0893 11.4697C25.2455 11.6103 25.3333 11.8011 25.3333 12C25.3333 12.1989 25.2455 12.3897 25.0893 12.5303C24.933 12.671 24.721 12.75 24.5 12.75Z" fill="#1569E7"/>
</svg>
