<svg width="51" height="51" viewBox="0 0 51 51" fill="none" xmlns="http://www.w3.org/2000/svg">
<path d="M29.665 6.29005V12.9201H26.35C25.4726 12.9142 24.6328 12.5631 24.0124 11.9426C23.392 11.3222 23.0409 10.4824 23.035 9.60505C23.0354 8.88213 23.2724 8.17921 23.7099 7.60364C24.1473 7.02808 24.7611 6.61151 25.4575 6.41755C25.7473 6.33213 26.0479 6.28919 26.35 6.29005H29.665Z" fill="#48CBFF"/>
<path d="M29.665 6.29005V11.4326H28.2838C27.4064 11.4267 26.5666 11.0756 25.9462 10.4551C25.3257 9.83473 24.9746 8.99494 24.9688 8.11755C24.9626 7.51537 25.1325 6.9245 25.4575 6.41755C25.7473 6.33213 26.0479 6.28919 26.35 6.29005H29.665Z" fill="#48CBFF"/>
<path d="M50.2031 34.8181C50.2137 35.1581 50.065 36.6138 49.9056 37.6975C49.8525 38.0163 49.81 38.3031 49.7569 38.5156C49.563 39.0735 49.2041 39.5592 48.7278 39.9083C48.2515 40.2575 47.6803 40.4536 47.09 40.4706C46.3888 40.4706 45.0606 40.3963 45.0606 40.3963L36.3694 40.4494H12.7181L3.98438 39.4931C3.27179 39.3144 2.63512 38.9123 2.1675 38.3456C1.73188 37.7294 1.42375 36.4969 1.72125 34.3825C2.08071 32.8912 2.89812 31.5499 4.05875 30.5469L4.10125 28.5069L3.96313 26.2013C3.96313 26.2013 4.39875 25.5 5.41875 23.5556C6.23184 21.9373 7.31725 20.471 8.6275 19.2206C9.7949 18.1474 11.3349 17.5718 12.92 17.6163C13.2388 17.595 13.515 17.5738 13.7275 17.5419C15.8056 17.3186 17.8981 17.2582 19.9856 17.3613C20.4 17.3719 20.8144 17.4038 21.2288 17.425V25.67C21.2293 26.38 21.5116 27.0607 22.0136 27.5627C22.5156 28.0647 23.1963 28.347 23.9063 28.3475H42.6275C43.5625 28.7406 45.1138 29.41 46.2081 29.8881C46.2353 29.9044 46.2638 29.9186 46.2931 29.9306L46.4206 29.9944C47.5721 30.4919 48.5698 31.2879 49.3106 32.3C49.5835 32.6479 49.7954 33.0395 49.9375 33.4581C49.98 33.575 50.0225 33.7025 50.0544 33.8088C50.1425 34.1384 50.1924 34.4771 50.2031 34.8181Z" fill="#7740FF"/>
<path d="M50.2031 34.8181C50.2138 35.1581 50.065 36.6138 49.9056 37.6975L41.6819 37.7506H18.0306C16.7672 37.7354 15.5071 37.6167 14.263 37.3958C13.3751 37.2408 12.5286 36.905 11.7759 36.4091C11.0233 35.9133 10.3806 35.268 9.88782 34.5133C9.39502 33.7587 9.06262 32.9108 8.91124 32.0223C8.75987 31.1338 8.79277 30.2236 9.00789 29.3484L9.37126 27.8481L9.41376 25.8081L9.3787 25.2216C9.31154 24.1342 9.55199 23.0498 10.0725 22.0926C10.2574 21.7526 10.4763 21.3488 10.7313 20.8569C11.3068 19.6803 12.0435 18.5896 12.92 17.6163C13.2388 17.595 13.515 17.5738 13.7275 17.5419C15.8057 17.3186 17.8981 17.2582 19.9856 17.3613C20.4 17.3719 20.8144 17.4038 21.2288 17.425V25.67C21.2288 26.3801 21.5109 27.0612 22.013 27.5633C22.5151 28.0654 23.1961 28.3475 23.9063 28.3475H42.6275C43.5625 28.7406 45.1138 29.41 46.2081 29.8881C46.2354 29.9044 46.2638 29.9186 46.2931 29.9306L46.4206 29.9944C47.5721 30.4919 48.5698 31.2879 49.3106 32.3C49.5835 32.6479 49.7955 33.0395 49.9375 33.4581C49.98 33.575 50.0225 33.7025 50.0544 33.8088C50.1425 34.1384 50.1924 34.4771 50.2031 34.8181Z" fill="#48CBFF"/>
<path d="M40.6194 36.1994C40.1681 36.1982 39.7196 36.27 39.2913 36.4119C38.6704 36.6184 38.1056 36.9656 37.6409 37.4263C37.1762 37.8869 36.8241 38.4487 36.6121 39.0677C36.4002 39.6868 36.334 40.3464 36.4188 40.9953C36.5036 41.6441 36.737 42.2646 37.101 42.8084C37.4649 43.3522 37.9495 43.8046 38.517 44.1304C39.0845 44.4561 39.7195 44.6465 40.3726 44.6866C41.0257 44.7266 41.6793 44.6154 42.2823 44.3614C42.8854 44.1075 43.4217 43.7177 43.8494 43.2225C44.5065 42.4478 44.8679 41.4653 44.8694 40.4494C44.8694 39.3222 44.4216 38.2412 43.6246 37.4442C42.8275 36.6471 41.7465 36.1994 40.6194 36.1994ZM8.4575 36.1994C8.01325 36.1991 7.5719 36.2709 7.15063 36.4119C6.13892 36.7452 5.29006 37.4476 4.77339 38.3791C4.25671 39.3106 4.11021 40.4026 4.36311 41.4373C4.61601 42.4721 5.24971 43.3734 6.1378 43.9616C7.02589 44.5497 8.10307 44.7814 9.15444 44.6105C10.2058 44.4395 11.1541 43.8785 11.8101 43.0392C12.4661 42.2 12.7816 41.1443 12.6936 40.0828C12.6057 39.0212 12.1207 38.0319 11.3355 37.3121C10.5504 36.5923 9.52268 36.195 8.4575 36.1994Z" fill="#8F8F8F"/>
<path d="M40.6194 36.1995C40.1681 36.1983 39.7196 36.2701 39.2913 36.412C38.7635 37.0303 38.4238 37.7867 38.3122 38.5919C38.2006 39.3971 38.3217 40.2174 38.6614 40.956C39.0011 41.6945 39.545 42.3204 40.229 42.7597C40.9129 43.199 41.7084 43.4334 42.5213 43.4351C42.9725 43.4362 43.421 43.3645 43.8494 43.2226C44.5065 42.4479 44.8679 41.4654 44.8694 40.4495C44.8694 39.3223 44.4216 38.2413 43.6246 37.4443C42.8276 36.6472 41.7466 36.1995 40.6194 36.1995ZM8.45751 36.1995C8.01326 36.1992 7.57191 36.271 7.15063 36.412C6.48162 37.1805 6.11527 38.1662 6.12001 39.1851C6.12001 40.3123 6.56778 41.3933 7.36481 42.1903C8.16184 42.9873 9.24284 43.4351 10.37 43.4351C10.8143 43.4354 11.2556 43.3636 11.6769 43.2226C12.2077 42.6061 12.5504 41.8503 12.6644 41.0448C12.7783 40.2393 12.6587 39.418 12.3197 38.6785C11.9807 37.939 11.4366 37.3123 10.752 36.8729C10.0674 36.4334 9.27102 36.1997 8.45751 36.1995Z" fill="white"/>
<path d="M42.6275 28.3475H23.9063C23.1963 28.347 22.5156 28.0647 22.0136 27.5627C21.5116 27.0607 21.2293 26.38 21.2288 25.67V17.425C22.1319 17.4782 23.0456 17.5738 23.9275 17.7119C25.1858 17.8713 26.4225 18.1707 27.6144 18.6044C30.6512 19.7515 33.5179 21.3064 36.1356 23.2263C37.4385 24.1376 38.6872 25.1238 39.8756 26.18C41.0338 27.2107 41.8306 28.0076 41.8306 28.0076C41.8306 28.0076 42.1494 28.1457 42.6275 28.3475Z" fill="#48CBFF"/>
<path d="M39.8756 26.18H29.0615C27.6999 26.18 26.394 25.6391 25.4312 24.6763C24.4684 23.7135 23.9275 22.4077 23.9275 21.046V17.7119C25.1858 17.8713 26.4224 18.1707 27.6144 18.6044C30.6512 19.7515 33.5179 21.3064 36.1356 23.2263C37.4384 24.1376 38.6872 25.1238 39.8756 26.18Z" fill="#7740FF"/>
<path d="M3.93125 28.0681C3.96631 28.1599 4.03046 28.2378 4.11391 28.2898C4.19736 28.3418 4.29553 28.365 4.39344 28.356C5.28275 28.2816 6.8595 28.016 6.8595 27.0725C6.8595 26.0398 5.61318 25.601 4.82481 25.4267C4.72459 25.4033 4.61987 25.4079 4.52207 25.4399C4.42427 25.472 4.33714 25.5302 4.27018 25.6084C4.04144 25.9078 3.89955 26.2643 3.86006 26.639C3.76271 27.1137 3.7872 27.6054 3.93125 28.0681ZM50.0544 33.8088C49.5086 34.0818 48.8966 34.1947 48.2893 34.1345C47.682 34.0744 47.1041 33.8436 46.6225 33.4688C46.1743 33.0039 45.8975 32.4004 45.8376 31.7574C45.7777 31.1145 45.9384 30.4702 46.2931 29.9306L46.4206 29.9944C47.5721 30.4919 48.5698 31.2878 49.3106 32.3C49.5835 32.6479 49.7954 33.0395 49.9375 33.4581C49.98 33.575 50.0225 33.7025 50.0544 33.8088Z" fill="#48CBFF"/>
<path d="M1.59375 30.6967C1.77643 30.6971 1.9537 30.6347 2.09587 30.52C2.23803 30.4053 2.33647 30.2452 2.37469 30.0666C2.4129 29.8879 2.38858 29.7016 2.3058 29.5387C2.22301 29.3759 2.08679 29.2464 1.91994 29.172C1.82312 29.1288 1.74089 29.0584 1.6832 28.9694C1.62551 28.8804 1.59481 28.7766 1.59481 28.6705V23.2624C1.59875 19.8539 2.95451 16.5862 5.36467 14.176C7.77483 11.7659 11.0426 10.4101 14.4511 10.4062H22.3221C22.5072 11.3388 23.0097 12.1785 23.744 12.7824C24.4783 13.3864 25.3992 13.7174 26.35 13.719H29.6618C29.8732 13.719 30.0758 13.6351 30.2253 13.4856C30.3747 13.3362 30.4587 13.1335 30.4587 12.9222V11.9H32.7664C32.9778 11.9 33.1805 11.8161 33.3299 11.6666C33.4794 11.5172 33.5633 11.3145 33.5633 11.1032C33.5633 10.8918 33.4794 10.6891 33.3299 10.5397C33.1805 10.3903 32.9778 10.3063 32.7664 10.3063H30.4587V8.91336H32.7664C32.9778 8.91336 33.1805 8.8294 33.3299 8.67996C33.4794 8.53052 33.5633 8.32783 33.5633 8.11649C33.5633 7.90514 33.4794 7.70245 33.3299 7.55301C33.1805 7.40357 32.9778 7.31961 32.7664 7.31961H30.4587V6.29749C30.4587 6.08614 30.3747 5.88345 30.2253 5.73401C30.0758 5.58457 29.8732 5.50061 29.6618 5.50061H26.35C25.3992 5.502 24.4782 5.83271 23.7436 6.43649C23.0091 7.04027 22.5064 7.87984 22.321 8.81242H14.45C10.6189 8.81664 6.94595 10.3404 4.23697 13.0494C1.52798 15.7584 0.00421848 19.4313 0 23.2624L0 28.6705C0.000307561 29.0839 0.11999 29.4884 0.344663 29.8354C0.569337 30.1824 0.88944 30.4572 1.2665 30.6266C1.36934 30.673 1.48092 30.697 1.59375 30.6967ZM26.35 7.09436H28.8649V12.1253H26.35C26.0153 12.1322 25.6826 12.0722 25.3714 11.9489C25.0602 11.8255 24.7767 11.6414 24.5376 11.4071C24.2985 11.1728 24.1085 10.8932 23.9788 10.5846C23.8491 10.276 23.7823 9.94459 23.7823 9.60983C23.7823 9.27507 23.8491 8.94368 23.9788 8.63507C24.1085 8.32646 24.2985 8.04683 24.5376 7.81256C24.7767 7.5783 25.0602 7.39411 25.3714 7.27078C25.6826 7.14746 26.0153 7.08748 26.35 7.09436Z" fill="#1569E7"/>
</svg>
