<?xml version="1.0" encoding="UTF-8"?>
<svg xmlns="http://www.w3.org/2000/svg" width="37" height="37" viewBox="0 0 37 37" fill="none">
  <g clip-path="url(#clip0_1164_3633)">
    <path d="M36.1617 18.0808C36.1617 8.09506 28.0666 0 18.0808 0C8.09506 0 0 8.09506 0 18.0808C0 27.1055 6.6119 34.5856 15.2557 35.9419V23.3073H10.6649V18.0808H15.2557V14.0974C15.2557 9.56588 17.9551 7.06282 22.0851 7.06282C24.0633 7.06282 26.1324 7.41596 26.1324 7.41596V11.8655H23.8525C21.6064 11.8655 20.906 13.2593 20.906 14.6892V18.0808H25.9206L25.1189 23.3073H20.906V35.9419C29.5498 34.5856 36.1617 27.1055 36.1617 18.0808Z" fill="#111111"></path>
    <path d="M25.1191 23.3073L25.9207 18.0808H20.9061V14.6892C20.9061 13.2593 21.6066 11.8655 23.8526 11.8655H26.1326V7.41596C26.1326 7.41596 24.0635 7.06282 22.0852 7.06282C17.9552 7.06282 15.2559 9.56588 15.2559 14.0974V18.0808H10.665V23.3073H15.2559V35.9419C17.1279 36.2349 19.0341 36.2349 20.9061 35.9419V23.3073H25.1191Z" fill="white"></path>
  </g>
  <defs>
    <clipPath id="clip0_1164_3633">
      <rect width="36.1617" height="36.1617" fill="white"></rect>
    </clipPath>
  </defs>
</svg>
