<svg width="48" height="46" viewBox="0 0 48 46" fill="none" xmlns="http://www.w3.org/2000/svg">
<g clip-path="url(#clip0_5055_10749)">
<path d="M48 23C48 10.2975 37.2548 0 24 0C10.7452 0 0 10.2975 0 23C0 35.7025 10.7452 46 24 46C37.2548 46 48 35.7025 48 23Z" fill="#E5EAFA"/>
<path d="M25.9154 35.984V23.6725H30.2277L30.8744 18.8744H25.9154V15.811C25.9154 14.4219 26.3181 13.4752 28.3968 13.4752H31.0479V9.18508C29.7647 9.05498 28.475 8.99195 27.1846 8.9963C23.362 8.9963 20.7451 11.2322 20.7451 15.3386V18.8744H16.4219V23.6725H20.7451V35.984H25.9154Z" fill="#7698CC"/>
</g>
<defs>
<clipPath id="clip0_5055_10749">
<rect width="48" height="46" fill="white"/>
</clipPath>
</defs>
</svg>
