<svg width="40" height="40" viewBox="0 0 40 40" fill="none" xmlns="http://www.w3.org/2000/svg">
<path d="M34.7567 8.57667L26.4233 0.243333C26.2663 0.0877604 26.0544 0.000331895 25.8333 0L8.33333 0C6.495 0 5 1.495 5 3.33333V36.6667C5 38.505 6.495 40 8.33333 40H31.6667C33.505 40 35 38.505 35 36.6667V9.16667C34.9997 8.94565 34.9122 8.73366 34.7567 8.57667Z" fill="#48CBFF"/>
<path d="M31.6666 38.3333H8.33329C7.41329 38.3333 6.66663 37.585 6.66663 36.6666V3.33329C6.66663 2.41496 7.41329 1.66663 8.33329 1.66663H25V6.66663C25 8.50496 26.495 9.99996 28.3333 9.99996H33.3333V36.6666C33.3333 37.585 32.5866 38.3333 31.6666 38.3333Z" fill="#48CBFF"/>
<path d="M29.1667 23.3334H10.8333C10.6123 23.3334 10.4004 23.4212 10.2441 23.5774C10.0878 23.7337 10 23.9457 10 24.1667C10 24.3877 10.0878 24.5997 10.2441 24.756C10.4004 24.9122 10.6123 25 10.8333 25H29.1667C29.3877 25 29.5996 24.9122 29.7559 24.756C29.9122 24.5997 30 24.3877 30 24.1667C30 23.9457 29.9122 23.7337 29.7559 23.5774C29.5996 23.4212 29.3877 23.3334 29.1667 23.3334ZM29.1667 18.3334H10.8333C10.6123 18.3334 10.4004 18.4212 10.2441 18.5775C10.0878 18.7337 10 18.9457 10 19.1667C10 19.3877 10.0878 19.5997 10.2441 19.756C10.4004 19.9122 10.6123 20 10.8333 20H29.1667C29.3877 20 29.5996 19.9122 29.7559 19.756C29.9122 19.5997 30 19.3877 30 19.1667C30 18.9457 29.9122 18.7337 29.7559 18.5775C29.5996 18.4212 29.3877 18.3334 29.1667 18.3334ZM29.1667 28.3334H10.8333C10.6123 28.3334 10.4004 28.4212 10.2441 28.5774C10.0878 28.7337 10 28.9457 10 29.1667C10 29.3877 10.0878 29.5997 10.2441 29.756C10.4004 29.9122 10.6123 30 10.8333 30H29.1667C29.3877 30 29.5996 29.9122 29.7559 29.756C29.9122 29.5997 30 29.3877 30 29.1667C30 28.9457 29.9122 28.7337 29.7559 28.5774C29.5996 28.4212 29.3877 28.3334 29.1667 28.3334ZM20.8333 33.3334H10.8333C10.6123 33.3334 10.4004 33.4212 10.2441 33.5774C10.0878 33.7337 10 33.9457 10 34.1667C10 34.3877 10.0878 34.5997 10.2441 34.756C10.4004 34.9122 10.6123 35 10.8333 35H20.8333C21.0543 35 21.2663 34.9122 21.4226 34.756C21.5789 34.5997 21.6667 34.3877 21.6667 34.1667C21.6667 33.9457 21.5789 33.7337 21.4226 33.5774C21.2663 33.4212 21.0543 33.3334 20.8333 33.3334ZM29.1667 13.3334H19.1667C18.9457 13.3334 18.7337 13.4212 18.5774 13.5775C18.4211 13.7337 18.3333 13.9457 18.3333 14.1667C18.3333 14.3877 18.4211 14.5997 18.5774 14.756C18.7337 14.9122 18.9457 15 19.1667 15H29.1667C29.3877 15 29.5996 14.9122 29.7559 14.756C29.9122 14.5997 30 14.3877 30 14.1667C30 13.9457 29.9122 13.7337 29.7559 13.5775C29.5996 13.4212 29.3877 13.3334 29.1667 13.3334ZM12.5 13.3334H10.8333C10.6123 13.3334 10.4004 13.4212 10.2441 13.5775C10.0878 13.7337 10 13.9457 10 14.1667C10 14.3877 10.0878 14.5997 10.2441 14.756C10.4004 14.9122 10.6123 15 10.8333 15H11.6667C11.6667 15.2211 11.7545 15.433 11.9107 15.5893C12.067 15.7456 12.279 15.8334 12.5 15.8334C12.721 15.8334 12.933 15.7456 13.0893 15.5893C13.2455 15.433 13.3333 15.2211 13.3333 15V14.8467C14.3017 14.5017 15 13.585 15 12.5C15 11.1217 13.8783 10 12.5 10C12.279 10 12.067 9.91224 11.9107 9.75596C11.7545 9.59968 11.6667 9.38772 11.6667 9.16671C11.6667 8.94569 11.7545 8.73373 11.9107 8.57745C12.067 8.42117 12.279 8.33337 12.5 8.33337H14.1667C14.3877 8.33337 14.5996 8.24558 14.7559 8.0893C14.9122 7.93302 15 7.72105 15 7.50004C15 7.27903 14.9122 7.06707 14.7559 6.91079C14.5996 6.7545 14.3877 6.66671 14.1667 6.66671H13.3333C13.3333 6.44569 13.2455 6.23373 13.0893 6.07745C12.933 5.92117 12.721 5.83337 12.5 5.83337C12.279 5.83337 12.067 5.92117 11.9107 6.07745C11.7545 6.23373 11.6667 6.44569 11.6667 6.66671V6.82004C10.6983 7.16504 10 8.08171 10 9.16671C10 10.545 11.1217 11.6667 12.5 11.6667C12.721 11.6667 12.933 11.7545 13.0893 11.9108C13.2455 12.0671 13.3333 12.279 13.3333 12.5C13.3333 12.7211 13.2455 12.933 13.0893 13.0893C12.933 13.2456 12.721 13.3334 12.5 13.3334Z" fill="#1569E7"/>
<path d="M29.1667 23.3334H10.8333C10.6123 23.3334 10.4004 23.4212 10.2441 23.5774C10.0878 23.7337 10 23.9457 10 24.1667C10 24.3877 10.0878 24.5997 10.2441 24.756C10.4004 24.9122 10.6123 25 10.8333 25H29.1667C29.3877 25 29.5996 24.9122 29.7559 24.756C29.9122 24.5997 30 24.3877 30 24.1667C30 23.9457 29.9122 23.7337 29.7559 23.5774C29.5996 23.4212 29.3877 23.3334 29.1667 23.3334ZM29.1667 18.3334H10.8333C10.6123 18.3334 10.4004 18.4212 10.2441 18.5775C10.0878 18.7337 10 18.9457 10 19.1667C10 19.3877 10.0878 19.5997 10.2441 19.756C10.4004 19.9122 10.6123 20 10.8333 20H29.1667C29.3877 20 29.5996 19.9122 29.7559 19.756C29.9122 19.5997 30 19.3877 30 19.1667C30 18.9457 29.9122 18.7337 29.7559 18.5775C29.5996 18.4212 29.3877 18.3334 29.1667 18.3334ZM29.1667 28.3334H10.8333C10.6123 28.3334 10.4004 28.4212 10.2441 28.5774C10.0878 28.7337 10 28.9457 10 29.1667C10 29.3877 10.0878 29.5997 10.2441 29.756C10.4004 29.9122 10.6123 30 10.8333 30H29.1667C29.3877 30 29.5996 29.9122 29.7559 29.756C29.9122 29.5997 30 29.3877 30 29.1667C30 28.9457 29.9122 28.7337 29.7559 28.5774C29.5996 28.4212 29.3877 28.3334 29.1667 28.3334ZM20.8333 33.3334H10.8333C10.6123 33.3334 10.4004 33.4212 10.2441 33.5774C10.0878 33.7337 10 33.9457 10 34.1667C10 34.3877 10.0878 34.5997 10.2441 34.756C10.4004 34.9122 10.6123 35 10.8333 35H20.8333C21.0543 35 21.2663 34.9122 21.4226 34.756C21.5789 34.5997 21.6667 34.3877 21.6667 34.1667C21.6667 33.9457 21.5789 33.7337 21.4226 33.5774C21.2663 33.4212 21.0543 33.3334 20.8333 33.3334ZM29.1667 13.3334H19.1667C18.9457 13.3334 18.7337 13.4212 18.5774 13.5775C18.4211 13.7337 18.3333 13.9457 18.3333 14.1667C18.3333 14.3877 18.4211 14.5997 18.5774 14.756C18.7337 14.9122 18.9457 15 19.1667 15H29.1667C29.3877 15 29.5996 14.9122 29.7559 14.756C29.9122 14.5997 30 14.3877 30 14.1667C30 13.9457 29.9122 13.7337 29.7559 13.5775C29.5996 13.4212 29.3877 13.3334 29.1667 13.3334ZM12.5 13.3334H10.8333C10.6123 13.3334 10.4004 13.4212 10.2441 13.5775C10.0878 13.7337 10 13.9457 10 14.1667C10 14.3877 10.0878 14.5997 10.2441 14.756C10.4004 14.9122 10.6123 15 10.8333 15H11.6667C11.6667 15.2211 11.7545 15.433 11.9107 15.5893C12.067 15.7456 12.279 15.8334 12.5 15.8334C12.721 15.8334 12.933 15.7456 13.0893 15.5893C13.2455 15.433 13.3333 15.2211 13.3333 15V14.8467C14.3017 14.5017 15 13.585 15 12.5C15 11.1217 13.8783 10 12.5 10C12.279 10 12.067 9.91224 11.9107 9.75596C11.7545 9.59968 11.6667 9.38772 11.6667 9.16671C11.6667 8.94569 11.7545 8.73373 11.9107 8.57745C12.067 8.42117 12.279 8.33337 12.5 8.33337H14.1667C14.3877 8.33337 14.5996 8.24558 14.7559 8.0893C14.9122 7.93302 15 7.72105 15 7.50004C15 7.27903 14.9122 7.06707 14.7559 6.91079C14.5996 6.7545 14.3877 6.66671 14.1667 6.66671H13.3333C13.3333 6.44569 13.2455 6.23373 13.0893 6.07745C12.933 5.92117 12.721 5.83337 12.5 5.83337C12.279 5.83337 12.067 5.92117 11.9107 6.07745C11.7545 6.23373 11.6667 6.44569 11.6667 6.66671V6.82004C10.6983 7.16504 10 8.08171 10 9.16671C10 10.545 11.1217 11.6667 12.5 11.6667C12.721 11.6667 12.933 11.7545 13.0893 11.9108C13.2455 12.0671 13.3333 12.279 13.3333 12.5C13.3333 12.7211 13.2455 12.933 13.0893 13.0893C12.933 13.2456 12.721 13.3334 12.5 13.3334Z" fill="#7740FF"/>
<path d="M28.3334 10C27.5517 10 26.8417 9.71835 26.2717 9.26668L26.2517 9.26501L33.3334 16.345V10H28.3334Z" fill="url(#paint0_linear_2832_4865)"/>
<path d="M34.7567 8.57667L26.4233 0.243333C26.2663 0.0877604 26.0544 0.000331895 25.8333 0L8.33333 0C6.495 0 5 1.495 5 3.33333V36.6667C5 38.505 6.495 40 8.33333 40H31.6667C33.505 40 35 38.505 35 36.6667V9.16667C34.9997 8.94565 34.9122 8.73366 34.7567 8.57667Z" fill="url(#paint1_linear_2832_4865)"/>
<path d="M22.8572 2.41421C22.8572 1.52331 23.9343 1.07714 24.5643 1.70711L32.5786 9.72147C33.2086 10.3514 32.7624 11.4286 31.8715 11.4286H26.3277C24.412 11.4286 22.8572 9.87029 22.8572 7.95801V2.41421Z" fill="#2875E9"/>
<defs>
<linearGradient id="paint0_linear_2832_4865" x1="27.8384" y1="7.67668" x2="34.92" y2="14.7583" gradientUnits="userSpaceOnUse">
<stop stop-opacity="0.1"/>
<stop offset="1" stop-opacity="0"/>
</linearGradient>
<linearGradient id="paint1_linear_2832_4865" x1="0.441666" y1="12.3683" x2="38.4167" y2="30.0767" gradientUnits="userSpaceOnUse">
<stop stop-color="white" stop-opacity="0.2"/>
<stop offset="1" stop-color="white" stop-opacity="0"/>
</linearGradient>
</defs>
</svg>
