<svg width="36" height="36" viewBox="0 0 36 36" fill="none" xmlns="http://www.w3.org/2000/svg">
<path d="M17.9999 28.8524C15.8535 28.8519 13.7555 28.2149 11.9711 27.0221C10.1866 25.8292 8.79603 24.134 7.97508 22.1507C7.15412 20.1675 6.93969 17.9854 7.35891 15.8803C7.77812 13.7753 8.81215 11.8418 10.3302 10.3244C11.8483 8.80696 13.7823 7.7738 15.8875 7.35552C17.9928 6.93725 20.1748 7.15265 22.1577 7.97448C24.1405 8.79632 25.8351 10.1877 27.0272 11.9726C28.2193 13.7576 28.8553 15.8559 28.8548 18.0023C28.8515 20.8798 27.7067 23.6383 25.6716 25.6725C23.6365 27.7067 20.8774 28.8504 17.9999 28.8524ZM17.9999 7.83837C15.9904 7.83885 14.0261 8.43516 12.3554 9.55191C10.6847 10.6687 9.38266 12.2557 8.61386 14.1124C7.84505 15.9691 7.64402 18.012 8.03619 19.9829C8.42835 21.9539 9.39609 23.7642 10.8171 25.1852C12.238 26.6062 14.0484 27.5739 16.0193 27.9661C17.9903 28.3583 20.0332 28.1572 21.8899 27.3884C23.7466 26.6196 25.3336 25.3176 26.4504 23.6469C27.5671 21.9762 28.1634 20.0119 28.1639 18.0023C28.1615 15.3074 27.0899 12.7236 25.1843 10.818C23.2787 8.91236 20.6949 7.84075 17.9999 7.83837Z" fill="#ABBED1" stroke="#ABBED1" stroke-width="0.2"/>
<path d="M18 25.9357C16.4304 25.9353 14.8962 25.4693 13.5913 24.5969C12.2865 23.7245 11.2697 22.4847 10.6695 21.0344C10.0692 19.5841 9.91256 17.9883 10.2193 16.449C10.5259 14.9096 11.2822 13.4958 12.3924 12.3862C13.5027 11.2767 14.917 10.5212 16.4565 10.2155C17.9961 9.90975 19.5917 10.0674 21.0417 10.6685C22.4916 11.2696 23.7308 12.2872 24.6024 13.5925C25.474 14.8979 25.939 16.4324 25.9385 18.002C25.9362 20.1063 25.0989 22.1236 23.6105 23.6111C22.1221 25.0986 20.1043 25.9346 18 25.9357ZM18 10.7544C16.5672 10.7549 15.1668 11.1801 13.9757 11.9764C12.7846 12.7727 11.8563 13.9043 11.3082 15.2281C10.7602 16.5519 10.6169 18.0085 10.8965 19.4137C11.1762 20.8189 11.8662 22.1096 12.8793 23.1227C13.8924 24.1359 15.1831 24.8259 16.5883 25.1055C17.9936 25.3851 19.4501 25.2419 20.7739 24.6938C22.0977 24.1457 23.2293 23.2174 24.0256 22.0263C24.8219 20.8352 25.2472 19.4348 25.2476 18.002C25.2458 16.0804 24.4816 14.238 23.1228 12.8792C21.764 11.5204 19.9216 10.7562 18 10.7544Z" fill="#ABBED1" stroke="#ABBED1" stroke-width="0.2"/>
<path d="M20.611 20.9168C20.3831 21.2505 20.0688 21.5161 19.7017 21.6851C19.2738 21.8847 18.8104 21.9972 18.3386 22.016V22.8106C18.3402 22.8553 18.3326 22.8998 18.3163 22.9414C18.2999 22.983 18.2752 23.0208 18.2436 23.0524C18.1757 23.1128 18.0884 23.1466 17.9977 23.1477C17.9069 23.1488 17.8188 23.117 17.7496 23.0583C17.7174 23.0262 17.6924 22.9877 17.6761 22.9453C17.6597 22.903 17.6524 22.8577 17.6546 22.8123V22.0178C16.8747 21.9715 16.1085 21.7926 15.3887 21.4889C15.2973 21.4508 15.2191 21.3865 15.1642 21.3041C15.0998 21.2141 15.0686 21.1047 15.0757 20.9943C15.0828 20.8839 15.1279 20.7794 15.2032 20.6985C15.2449 20.6526 15.296 20.6162 15.3531 20.5919C15.4102 20.5677 15.4718 20.556 15.5338 20.5579C15.6075 20.5576 15.6803 20.5729 15.7476 20.6028C16.3494 20.871 16.9963 21.0234 17.6546 21.0519V18.471C17.2153 18.3603 16.7858 18.2143 16.3702 18.0343C16.0313 17.8842 15.7332 17.6551 15.501 17.3662C15.2608 17.0535 15.1377 16.6665 15.1531 16.2725C15.1502 15.8945 15.2489 15.5226 15.4388 15.1957C15.645 14.8516 15.9395 14.5689 16.2917 14.377C16.7116 14.1473 17.1769 14.013 17.6546 13.9835V13.198C17.6526 13.1066 17.6868 13.0181 17.7496 12.9517C17.7804 12.9186 17.8179 12.8924 17.8596 12.875C17.9012 12.8575 17.9462 12.8492 17.9914 12.8504C18.0369 12.8504 18.082 12.8594 18.124 12.8769C18.1661 12.8944 18.2043 12.9201 18.2364 12.9524C18.2685 12.9847 18.2939 13.023 18.3111 13.0651C18.3284 13.1073 18.3371 13.1524 18.3368 13.198V13.9721C19.0035 13.9893 19.663 14.1144 20.2897 14.3425C20.3853 14.3704 20.4686 14.4301 20.5257 14.5118C20.5828 14.5934 20.6103 14.6921 20.6037 14.7916C20.6036 14.9114 20.5598 15.0272 20.4804 15.117C20.4407 15.1644 20.3907 15.2021 20.3343 15.2273C20.2778 15.2525 20.2164 15.2645 20.1546 15.2624C20.0927 15.2587 20.0321 15.2435 19.9757 15.2178C19.4477 15.0351 18.8952 14.9331 18.3368 14.9152V17.5852C18.795 17.6863 19.2441 17.825 19.6796 17.9998C20.028 18.1442 20.3347 18.3737 20.5716 18.6672C20.8242 19.0041 20.9512 19.4187 20.9305 19.8393C20.9344 20.2224 20.823 20.5978 20.611 20.9168ZM16.5491 16.9562C16.8873 17.1741 17.2616 17.3299 17.6546 17.4163V14.948C17.2652 14.9851 16.893 15.1266 16.5774 15.3578C16.4486 15.4549 16.3448 15.5814 16.2746 15.7268C16.2044 15.8721 16.1699 16.0321 16.1739 16.1934C16.1671 16.3419 16.1979 16.4896 16.2635 16.623C16.3291 16.7564 16.4273 16.871 16.5491 16.9562ZM19.9197 19.7723C19.9223 19.6335 19.8865 19.4966 19.8163 19.3769C19.7461 19.2571 19.6442 19.159 19.5217 19.0935C19.1488 18.8904 18.7506 18.7376 18.3375 18.6392V21.0512C19.3937 20.9766 19.9214 20.5503 19.9207 19.7723H19.9197ZM18 7.83824C17.9084 7.83824 17.8205 7.80185 17.7557 7.73706C17.6909 7.67227 17.6546 7.58441 17.6546 7.49279V1.76342C17.6546 1.6718 17.6909 1.58394 17.7557 1.51915C17.8205 1.45436 17.9084 1.41797 18 1.41797C18.0916 1.41797 18.1795 1.45436 18.2443 1.51915C18.3091 1.58394 18.3455 1.6718 18.3455 1.76342V7.49279C18.3455 7.58441 18.3091 7.67227 18.2443 7.73706C18.1795 7.80185 18.0916 7.83824 18 7.83824Z" fill="#ABBED1" stroke="#ABBED1" stroke-width="0.2"/>
<path d="M20.2492 4.35846C20.1576 4.35844 20.0698 4.32204 20.005 4.25725L18 2.25223L15.9963 4.25586C15.9316 4.32082 15.8436 4.35739 15.7519 4.35752C15.6602 4.35765 15.5721 4.32133 15.5072 4.25655C15.4422 4.19178 15.4056 4.10385 15.4055 4.01212C15.4054 3.92038 15.4417 3.83235 15.5065 3.76739L17.7557 1.51814C17.8205 1.45337 17.9084 1.41699 18 1.41699C18.0916 1.41699 18.1794 1.45337 18.2442 1.51814L20.4935 3.76739C20.5418 3.8157 20.5747 3.87725 20.588 3.94425C20.6013 4.01126 20.5945 4.0807 20.5683 4.14382C20.5422 4.20693 20.4979 4.26088 20.4411 4.29884C20.3843 4.3368 20.3175 4.35707 20.2492 4.35708V4.35846ZM18 34.5819C17.9084 34.5819 17.8205 34.5455 17.7557 34.4808C17.6909 34.416 17.6545 34.3281 17.6545 34.2365V28.5071C17.6545 28.4155 17.6909 28.3276 17.7557 28.2628C17.8205 28.1981 17.9084 28.1617 18 28.1617C18.0916 28.1617 18.1795 28.1981 18.2442 28.2628C18.309 28.3276 18.3454 28.4155 18.3454 28.5071V34.2365C18.3454 34.3281 18.309 34.416 18.2442 34.4808C18.1795 34.5455 18.0916 34.5819 18 34.5819Z" fill="#ABBED1" stroke="#ABBED1" stroke-width="0.2"/>
<path d="M18 34.5823C17.9084 34.5823 17.8205 34.5458 17.7557 34.4811L15.5065 32.2332C15.4415 32.1682 15.405 32.0801 15.405 31.9883C15.405 31.8964 15.4415 31.8083 15.5065 31.7433C15.5714 31.6784 15.6595 31.6419 15.7514 31.6419C15.8433 31.6419 15.9314 31.6784 15.9963 31.7433L18 33.747L20.0036 31.7433C20.0686 31.6784 20.1567 31.6419 20.2485 31.6419C20.3404 31.6419 20.4285 31.6784 20.4935 31.7433C20.5584 31.8083 20.5949 31.8964 20.5949 31.9883C20.5949 32.0801 20.5584 32.1682 20.4935 32.2332L18.2442 34.4824C18.1792 34.5467 18.0914 34.5826 18 34.5823ZM25.4297 10.9162C25.3614 10.9162 25.2946 10.8959 25.2378 10.858C25.181 10.82 25.1367 10.7661 25.1106 10.703C25.0844 10.6398 25.0776 10.5704 25.0909 10.5034C25.1042 10.4364 25.1371 10.3748 25.1854 10.3265L29.2366 6.27538C29.2684 6.24239 29.3066 6.21607 29.3487 6.19797C29.3909 6.17986 29.4362 6.17033 29.4821 6.16993C29.5279 6.16954 29.5734 6.17828 29.6159 6.19565C29.6583 6.21302 29.6969 6.23867 29.7293 6.2711C29.7618 6.30354 29.7874 6.34211 29.8048 6.38456C29.8222 6.42702 29.8309 6.47251 29.8305 6.51838C29.8301 6.56425 29.8206 6.60958 29.8025 6.65172C29.7844 6.69387 29.758 6.73199 29.725 6.76386L25.6739 10.815C25.6419 10.8472 25.6038 10.8727 25.5619 10.8901C25.52 10.9075 25.475 10.9163 25.4297 10.9162Z" fill="#ABBED1" stroke="#ABBED1" stroke-width="0.2"/>
<path d="M29.4809 10.0457C29.3893 10.0457 29.3014 10.0093 29.2366 9.9445C29.1718 9.87972 29.1354 9.79185 29.1354 9.70023V6.86474H26.2999C26.2083 6.86474 26.1204 6.82834 26.0557 6.76356C25.9909 6.69877 25.9545 6.6109 25.9545 6.51928C25.9545 6.42766 25.9909 6.33979 26.0557 6.27501C26.1204 6.21022 26.2083 6.17383 26.2999 6.17383H29.4809C29.5725 6.17383 29.6604 6.21022 29.7252 6.27501C29.7899 6.33979 29.8263 6.42766 29.8263 6.51928V9.70023C29.8263 9.79185 29.7899 9.87972 29.7252 9.9445C29.6604 10.0093 29.5725 10.0457 29.4809 10.0457ZM6.51921 29.8264C6.4509 29.8264 6.38412 29.8061 6.32732 29.7682C6.27053 29.7302 6.22626 29.6763 6.20012 29.6131C6.17398 29.55 6.16714 29.4806 6.18046 29.4136C6.19379 29.3466 6.22668 29.285 6.27497 29.2367L10.3261 25.1856C10.3913 25.1226 10.4785 25.0878 10.5691 25.0886C10.6597 25.0894 10.7463 25.1257 10.8104 25.1898C10.8744 25.2538 10.9108 25.3405 10.9116 25.4311C10.9123 25.5216 10.8775 25.6089 10.8146 25.674L6.76345 29.7252C6.73145 29.7574 6.69339 29.7829 6.65147 29.8003C6.60955 29.8177 6.56459 29.8265 6.51921 29.8264Z" fill="#ABBED1" stroke="#ABBED1" stroke-width="0.2"/>
<path d="M9.70011 29.826H6.51916C6.42754 29.826 6.33967 29.7896 6.27489 29.7249C6.2101 29.6601 6.17371 29.5722 6.17371 29.4806V26.2996C6.17371 26.208 6.2101 26.1202 6.27489 26.0554C6.33967 25.9906 6.42754 25.9542 6.51916 25.9542C6.61078 25.9542 6.69865 25.9906 6.76343 26.0554C6.82822 26.1202 6.86462 26.208 6.86462 26.2996V29.1351H9.70011C9.79173 29.1351 9.87959 29.1715 9.94438 29.2363C10.0092 29.3011 10.0456 29.389 10.0456 29.4806C10.0456 29.5722 10.0092 29.6601 9.94438 29.7249C9.87959 29.7896 9.79173 29.826 9.70011 29.826ZM34.2364 18.3452H28.5073C28.4157 18.3452 28.3279 18.3088 28.2631 18.244C28.1983 18.1792 28.1619 18.0914 28.1619 17.9998C28.1619 17.9081 28.1983 17.8203 28.2631 17.7555C28.3279 17.6907 28.4157 17.6543 28.5073 17.6543H34.2364C34.328 17.6543 34.4158 17.6907 34.4806 17.7555C34.5454 17.8203 34.5818 17.9081 34.5818 17.9998C34.5818 18.0914 34.5454 18.1792 34.4806 18.244C34.4158 18.3088 34.328 18.3452 34.2364 18.3452Z" fill="#ABBED1" stroke="#ABBED1" stroke-width="0.2"/>
<path d="M31.9871 20.5947C31.9188 20.5947 31.8521 20.5744 31.7953 20.5365C31.7385 20.4985 31.6942 20.4446 31.6681 20.3815C31.6419 20.3183 31.6351 20.2489 31.6484 20.1819C31.6617 20.1149 31.6946 20.0533 31.7429 20.005L33.7465 18.0014L31.7429 15.9978C31.7106 15.9656 31.685 15.9274 31.6676 15.8853C31.6501 15.8433 31.641 15.7982 31.641 15.7526C31.6409 15.7071 31.6498 15.662 31.6672 15.6199C31.6846 15.5777 31.71 15.5395 31.7422 15.5072C31.7744 15.475 31.8126 15.4494 31.8546 15.4319C31.8967 15.4144 31.9418 15.4053 31.9873 15.4053C32.0329 15.4052 32.078 15.4141 32.1201 15.4315C32.1622 15.4489 32.2005 15.4744 32.2328 15.5065L34.482 17.7558C34.5468 17.8206 34.5832 17.9084 34.5832 18C34.5832 18.0916 34.5468 18.1795 34.482 18.2443L32.2328 20.4935C32.2005 20.5258 32.1622 20.5513 32.1201 20.5687C32.0779 20.586 32.0327 20.5949 31.9871 20.5947ZM7.49303 18.3455H1.76367C1.67205 18.3455 1.58418 18.3091 1.51939 18.2443C1.45461 18.1795 1.41821 18.0916 1.41821 18C1.41821 17.9084 1.45461 17.8205 1.51939 17.7557C1.58418 17.691 1.67205 17.6546 1.76367 17.6546H7.49303C7.58465 17.6546 7.67252 17.691 7.7373 17.7557C7.80209 17.8205 7.83849 17.9084 7.83849 18C7.83849 18.0916 7.80209 18.1795 7.7373 18.2443C7.67252 18.3091 7.58465 18.3455 7.49303 18.3455Z" fill="#ABBED1" stroke="#ABBED1" stroke-width="0.2"/>
<path d="M4.01285 20.5949C3.92124 20.5949 3.83338 20.5585 3.76861 20.4937L1.51936 18.2445C1.45459 18.1797 1.41821 18.0918 1.41821 18.0002C1.41821 17.9086 1.45459 17.8208 1.51936 17.756L3.76723 15.5067C3.83219 15.4418 3.92029 15.4053 4.01216 15.4053C4.10402 15.4053 4.19213 15.4418 4.25708 15.5067C4.32204 15.5717 4.35854 15.6598 4.35854 15.7517C4.35854 15.8435 4.32204 15.9316 4.25708 15.9966L2.25207 18.0002L4.2557 20.0039C4.304 20.0522 4.33689 20.1137 4.35021 20.1807C4.36354 20.2477 4.3567 20.3172 4.33056 20.3803C4.30441 20.4434 4.26015 20.4973 4.20335 20.5353C4.14656 20.5733 4.07978 20.5935 4.01147 20.5935L4.01285 20.5949ZM29.4808 29.8265C29.3892 29.8265 29.3013 29.7901 29.2366 29.7253L25.1854 25.6741C25.1225 25.609 25.0877 25.5217 25.0885 25.4311C25.0892 25.3406 25.1256 25.2539 25.1896 25.1899C25.2537 25.1258 25.3403 25.0895 25.4309 25.0887C25.5215 25.0879 25.6087 25.1227 25.6739 25.1857L29.725 29.2368C29.7733 29.2851 29.8062 29.3467 29.8195 29.4137C29.8329 29.4807 29.826 29.5501 29.7999 29.6132C29.7737 29.6764 29.7295 29.7303 29.6727 29.7683C29.6159 29.8062 29.5491 29.8265 29.4808 29.8265Z" fill="#ABBED1" stroke="#ABBED1" stroke-width="0.2"/>
<path d="M29.4808 29.8267H26.2999C26.2082 29.8267 26.1204 29.7904 26.0556 29.7256C25.9908 29.6608 25.9544 29.5729 25.9544 29.4813C25.9544 29.3897 25.9908 29.3018 26.0556 29.237C26.1204 29.1722 26.2082 29.1358 26.2999 29.1358H29.1354V26.3003C29.1354 26.2087 29.1717 26.1209 29.2365 26.0561C29.3013 25.9913 29.3892 25.9549 29.4808 25.9549C29.5724 25.9549 29.6603 25.9913 29.7251 26.0561C29.7899 26.1209 29.8263 26.2087 29.8263 26.3003V29.4813C29.8263 29.5729 29.7899 29.6608 29.7251 29.7256C29.6603 29.7904 29.5724 29.8267 29.4808 29.8267ZM10.5703 10.9162C10.5249 10.9163 10.4799 10.9075 10.438 10.8901C10.3961 10.8727 10.358 10.8472 10.326 10.815L6.2749 6.76386C6.2419 6.73199 6.21558 6.69387 6.19748 6.65172C6.17937 6.60958 6.16985 6.56425 6.16945 6.51838C6.16905 6.47251 6.17779 6.42702 6.19516 6.38456C6.21253 6.34211 6.23818 6.30354 6.27061 6.2711C6.30305 6.23867 6.34162 6.21302 6.38408 6.19565C6.42653 6.17828 6.47202 6.16954 6.51789 6.16993C6.56376 6.17033 6.60909 6.17986 6.65124 6.19797C6.69338 6.21607 6.7315 6.24239 6.76337 6.27538L10.8145 10.3265C10.8628 10.3748 10.8957 10.4364 10.909 10.5034C10.9223 10.5704 10.9155 10.6398 10.8894 10.703C10.8632 10.7661 10.819 10.82 10.7622 10.858C10.7054 10.8959 10.6386 10.9162 10.5703 10.9162Z" fill="#ABBED1" stroke="#ABBED1" stroke-width="0.2"/>
<path d="M6.51916 10.0457C6.42754 10.0457 6.33967 10.0093 6.27489 9.9445C6.2101 9.87972 6.17371 9.79185 6.17371 9.70023V6.51928C6.17371 6.42766 6.2101 6.33979 6.27489 6.27501C6.33967 6.21022 6.42754 6.17383 6.51916 6.17383H9.70011C9.79173 6.17383 9.87959 6.21022 9.94438 6.27501C10.0092 6.33979 10.0456 6.42766 10.0456 6.51928C10.0456 6.6109 10.0092 6.69877 9.94438 6.76356C9.87959 6.82834 9.79173 6.86474 9.70011 6.86474H6.86462V9.70023C6.86462 9.79185 6.82822 9.87972 6.76343 9.9445C6.69865 10.0093 6.61078 10.0457 6.51916 10.0457Z" fill="#ABBED1" stroke="#ABBED1" stroke-width="0.2"/>
</svg>
