<svg width="45" height="45" viewBox="0 0 45 45" fill="none" xmlns="http://www.w3.org/2000/svg">
<g clip-path="url(#clip0_2832_4820)">
<path d="M22.5 30.7969C27.0822 30.7969 30.7969 27.0822 30.7969 22.5C30.7969 17.9178 27.0822 14.2031 22.5 14.2031C17.9178 14.2031 14.2031 17.9178 14.2031 22.5C14.2031 27.0822 17.9178 30.7969 22.5 30.7969Z" fill="#1569E7"/>
<path d="M22.5 35.0859C29.451 35.0859 35.0859 29.451 35.0859 22.5C35.0859 15.549 29.451 9.91406 22.5 9.91406C15.549 9.91406 9.91406 15.549 9.91406 22.5C9.91406 29.451 15.549 35.0859 22.5 35.0859Z" fill="#7740FF"/>
<path d="M22.5 30.7969C27.0822 30.7969 30.7969 27.0822 30.7969 22.5C30.7969 17.9178 27.0822 14.2031 22.5 14.2031C17.9178 14.2031 14.2031 17.9178 14.2031 22.5C14.2031 27.0822 17.9178 30.7969 22.5 30.7969Z" fill="#48CBFF"/>
<path d="M29.3906 17.9297C28.0547 17.0859 26.5078 16.5234 24.8203 16.5234C20.25 16.5234 16.5234 20.25 16.5234 24.8203C16.5234 26.5078 17.0156 28.125 17.9297 29.3906C15.6797 27.9141 14.2031 25.3125 14.2031 22.4297C14.2031 17.8594 17.9297 14.1328 22.5 14.1328C25.3828 14.2031 27.9141 15.6797 29.3906 17.9297Z" fill="#48CBFF"/>
<path d="M22.5 30.7969C27.0822 30.7969 30.7969 27.0822 30.7969 22.5C30.7969 17.9178 27.0822 14.2031 22.5 14.2031C17.9178 14.2031 14.2031 17.9178 14.2031 22.5C14.2031 27.0822 17.9178 30.7969 22.5 30.7969Z" stroke="#48CBFF" stroke-width="2" stroke-miterlimit="10" stroke-linecap="round" stroke-linejoin="round"/>
<path d="M22.5 35.0859C29.451 35.0859 35.0859 29.451 35.0859 22.5C35.0859 15.549 29.451 9.91406 22.5 9.91406C15.549 9.91406 9.91406 15.549 9.91406 22.5C9.91406 29.451 15.549 35.0859 22.5 35.0859Z" stroke="#7740FF" stroke-width="2" stroke-miterlimit="10" stroke-linecap="round" stroke-linejoin="round"/>
<path d="M22.5 4.92188V0.703125M22.5 44.2969V40.0781" stroke="#1569E7" stroke-width="2" stroke-miterlimit="10" stroke-linecap="round" stroke-linejoin="round"/>
<path d="M40.0781 22.5H44.2969ZM0.703125 22.5H4.92188Z" fill="black"/>
<path d="M40.0781 22.5H44.2969M0.703125 22.5H4.92188" stroke="#1569E7" stroke-width="2" stroke-miterlimit="10" stroke-linecap="round" stroke-linejoin="round"/>
<path d="M34.9453 10.0547L37.8984 7.10156ZM7.10156 37.8984L10.0547 34.9453ZM34.9453 34.9453L37.8984 37.8984ZM7.10156 7.10156L10.0547 10.0547Z" fill="black"/>
<path d="M34.9453 10.0547L37.8984 7.10156M7.10156 37.8984L10.0547 34.9453M34.9453 34.9453L37.8984 37.8984M7.10156 7.10156L10.0547 10.0547" stroke="#1569E7" stroke-width="2" stroke-miterlimit="10" stroke-linecap="round" stroke-linejoin="round"/>
<path d="M15.75 6.25781L14.1328 2.39062ZM30.8672 42.6094L29.25 38.7422ZM38.7422 15.75L42.6094 14.1328ZM2.39062 30.8672L6.25781 29.25ZM29.25 6.25781L30.8672 2.39062ZM14.1328 42.6094L15.75 38.7422ZM38.7422 29.25L42.6094 30.8672ZM2.39062 14.1328L6.25781 15.75Z" fill="black"/>
<path d="M15.75 6.25781L14.1328 2.39062M30.8672 42.6094L29.25 38.7422M38.7422 15.75L42.6094 14.1328M2.39062 30.8672L6.25781 29.25M29.25 6.25781L30.8672 2.39062M14.1328 42.6094L15.75 38.7422M38.7422 29.25L42.6094 30.8672M2.39062 14.1328L6.25781 15.75" stroke="#1569E7" stroke-width="2" stroke-miterlimit="10" stroke-linecap="round" stroke-linejoin="round"/>
<path d="M23.5547 24.6797C23.5547 24.3984 23.4844 24.1172 23.2734 23.9062C23.0625 23.6953 22.7813 23.5547 22.2891 23.3437C21.8672 23.2031 21.5156 23.0625 21.2344 22.9219C20.3906 22.5 19.9688 21.7969 19.9688 20.9531C19.9688 20.3906 20.1797 19.8984 20.5313 19.4766C20.8828 19.0547 21.375 18.8437 22.0078 18.7734V17.5781H22.8516V18.7734C23.4844 18.8437 23.9766 19.125 24.2578 19.5469C24.6094 19.9687 24.75 20.5312 24.75 21.2344H23.4844C23.4844 20.8125 23.4141 20.4609 23.2031 20.1797C22.9922 19.8984 22.7109 19.7578 22.3594 19.7578C22.0078 19.7578 21.7266 19.8281 21.5859 20.0391C21.375 20.25 21.3047 20.4609 21.3047 20.8125C21.3047 21.0937 21.375 21.375 21.5859 21.5859C21.7969 21.7969 22.0781 21.9375 22.5703 22.1484C22.9922 22.2891 23.4141 22.5 23.625 22.6406C23.9063 22.7812 24.1172 22.9219 24.2578 23.1328C24.4688 23.3437 24.5391 23.5547 24.6797 23.7656C24.8203 23.9766 24.8203 24.2578 24.8203 24.6094C24.8203 25.2422 24.6094 25.7344 24.2578 26.0859C23.9062 26.4375 23.3437 26.6484 22.7109 26.7187V27.7734H21.8672V26.7187C21.1641 26.6484 20.6016 26.3672 20.25 25.9453C19.8984 25.5234 19.6875 24.9609 19.6875 24.2578H20.9531C20.9531 24.6797 21.0938 25.0312 21.3047 25.3125C21.5156 25.5234 21.8672 25.6641 22.2891 25.6641C22.7109 25.6641 22.9922 25.5937 23.2031 25.3828C23.4844 25.3125 23.5547 25.0312 23.5547 24.6797Z" fill="#080910"/>
</g>
<defs>
<clipPath id="clip0_2832_4820">
<rect width="45" height="45" fill="white"/>
</clipPath>
</defs>
</svg>
