<svg xmlns="http://www.w3.org/2000/svg" width="749" height="741"><path d="M749 369.595v364.447c-3.174 2.047-5.248 4.563-7.315 4.563-143.212-.13-286.916 6.933-429.514-2.61C124.75 723.453-13.4 541.168 1.034 341.176 15.3 143.338 168.152.607 366.614.13L691.168.083v167c-12.9.7-26.388 2.04-39.874 2.062-93.4.185-186.82-.246-280.23.185-111.038.508-196.94 85.58-199.223 196.545-2.3 111.1 80.093 201.616 190.086 205.333 71.35 2.41 142.843.446 220.147.446 0-42.224 1.537-81.493-.484-120.562-1.62-31.4 11.32-47.926 41.15-54.082L749 369.592" fill="#ecf2f6" opacity=".6"/></svg>