<svg width="104" height="78" viewBox="0 0 104 78" fill="none" xmlns="http://www.w3.org/2000/svg">
<path d="M57.6083 38.0702C57.6512 37.9915 57.686 37.9087 57.7238 37.8279L71.4522 7.99122C71.5647 7.74791 71.6781 7.50563 71.7886 7.2613C71.8274 7.17747 71.8662 7.10387 71.9787 7.10489C72.2312 7.10489 72.4847 7.10489 72.773 7.10489C72.7096 7.25823 72.6708 7.37171 72.6176 7.48109C67.7229 18.1525 62.8285 28.8235 57.9344 39.4943C57.7392 39.9195 57.5378 40.3438 57.3497 40.7721C57.184 41.1504 57.2086 41.5184 57.4826 41.8394C57.6017 41.9892 57.7614 42.1016 57.9427 42.1632C58.1239 42.2249 58.3191 42.2331 58.5049 42.187C58.9138 42.1042 59.1182 41.821 59.2777 41.4714C64.1622 30.8416 69.0451 20.2138 73.9262 9.58804C74.3923 8.57393 74.8462 7.55674 75.3267 6.54672C75.5905 5.9865 75.3768 5.19831 74.6408 5.04599V4.97852H70.9544C70.9579 4.9889 70.9592 4.99994 70.9582 5.01087C70.9571 5.02181 70.9537 5.03239 70.9482 5.0419C70.5475 5.12981 70.3349 5.41299 70.1703 5.7575C69.625 6.94473 69.0798 8.13162 68.5346 9.31816C64.658 17.7787 60.7774 26.2371 56.8927 34.6936C56.8375 34.8152 56.7792 34.9348 56.7128 35.0759C56.5594 34.9737 56.5574 34.804 56.4746 34.6844C56.1904 34.2754 56.2599 33.8982 56.4654 33.4515C60.4646 24.7531 64.4515 16.0496 68.4262 7.34104C68.5509 7.06706 68.6798 6.79411 68.8035 6.5232C69.0958 5.87302 68.784 5.22284 68.094 5.03576C68.0906 5.01625 68.0829 4.99774 68.0715 4.98158H64.4577C64.4633 5.00264 64.4603 5.02504 64.4495 5.04394C64.0508 5.1247 63.8147 5.38846 63.6531 5.74115C63.0302 7.1008 62.4063 8.45977 61.7813 9.81806L53.5672 27.7082C53.5293 27.789 53.4905 27.8687 53.4394 27.973C53.2738 27.7972 53.2349 27.5723 53.1225 27.3934C52.9119 27.0601 52.9456 26.7626 53.1122 26.4017C56.1205 19.887 59.1193 13.3681 62.1084 6.84523C62.2362 6.56716 62.3323 6.29012 62.2618 5.97423C62.2223 5.77025 62.1199 5.58375 61.969 5.44092C61.8181 5.2981 61.6263 5.2061 61.4204 5.17786C61.2983 5.16336 61.1753 5.15755 61.0524 5.16048C60.1139 5.16048 59.1755 5.17786 58.238 5.15333C57.6308 5.13697 57.2556 5.39663 57.0113 5.93641C55.3647 9.53761 53.7116 13.1371 52.0521 16.7349C51.4653 18.0128 50.8785 19.2906 50.2917 20.5685C50.2508 20.6595 50.2018 20.7464 50.1343 20.8803C49.9707 20.5225 49.8276 20.2015 49.6753 19.8795C49.6191 19.7558 49.706 19.6648 49.7499 19.5728C50.2345 18.5055 50.7214 17.4396 51.2108 16.3751C52.6883 13.1487 54.1656 9.92199 55.6424 6.69495C55.8469 6.25127 55.7866 5.81066 55.4819 5.48148C55.3981 5.38338 55.2942 5.30434 55.1773 5.24968C55.0604 5.19502 54.9332 5.166 54.8041 5.16457C53.698 5.16457 52.5919 5.15537 51.4858 5.16457C51.0104 5.16457 50.7027 5.4457 50.5105 5.86382L49.4064 8.26724C48.6111 10.0011 47.8147 11.7332 47.0173 13.4636C46.9774 13.5515 46.9601 13.6578 46.8486 13.7222L46.0216 11.9301C45.123 9.97345 44.2173 8.01882 43.3319 6.05601C43.1275 5.59496 42.8862 5.19013 42.4027 4.98158H41.9334C41.8486 5.09199 41.7065 5.11039 41.6002 5.18604C41.2536 5.43548 41.0798 5.76159 41.132 6.193C41.1629 6.34618 41.217 6.49373 41.2925 6.63054C42.7237 9.75604 44.1549 12.8805 45.5861 16.004C45.6339 16.0899 45.66 16.1863 45.6619 16.2847C45.6639 16.3831 45.6417 16.4805 45.5974 16.5683C43.8588 20.3365 42.1256 24.1063 40.398 27.8779C40.3717 27.9626 40.325 28.0395 40.262 28.1018C40.1773 27.9904 40.111 27.8662 40.0657 27.7338C36.7351 20.4837 33.4048 13.2329 30.0748 5.98139C30.0231 5.85805 29.9616 5.73908 29.8908 5.62563C29.5841 5.16764 29.028 5.01225 28.571 5.2576C28.0394 5.53976 27.8411 6.07544 28.0711 6.61725C28.111 6.71028 28.155 6.80025 28.1958 6.89225L39.1835 30.8753C39.2269 30.98 39.2757 31.0823 39.3297 31.182C39.7457 31.8976 40.6791 31.916 41.1238 31.2239C41.203 31.0894 41.273 30.9497 41.3334 30.8058L46.6851 19.1884C46.7263 19.0679 46.7871 18.9549 46.865 18.8541C47.0214 19.078 47.0909 19.3397 47.2238 19.5697C47.3322 19.7558 47.3066 19.9163 47.2187 20.1034C46.7546 21.094 46.2986 22.0897 45.8468 23.0834C44.2111 26.643 42.5754 30.2026 40.9398 33.7623C40.8689 33.902 40.8315 34.0563 40.8306 34.213C40.8298 34.3697 40.8654 34.5244 40.9347 34.6649C41.0216 34.8469 41.1044 35.0299 41.1872 35.2129C41.6237 36.179 42.0623 37.144 42.4937 38.1121C42.6388 38.4372 42.8576 38.6713 43.2093 38.7613C43.7746 38.9054 44.2428 38.6826 44.4984 38.1346C45.03 36.9907 45.5544 35.8447 46.0819 34.6987C47.3768 31.8799 48.6738 29.0617 49.9728 26.2443C50.0147 26.1533 50.029 26.0398 50.1507 25.9805C50.26 26.2187 50.348 26.4498 50.4676 26.6624C50.5872 26.875 50.5637 27.0437 50.4676 27.2553C48.4128 31.7241 46.3607 36.1957 44.3113 40.6699C44.2602 40.7813 44.204 40.8917 44.1641 41.0073C44.1139 41.1415 44.093 41.2849 44.103 41.4278C44.1129 41.5708 44.1534 41.7099 44.2217 41.8359C44.2901 41.9619 44.3846 42.0717 44.499 42.158C44.6134 42.2443 44.7449 42.3051 44.8848 42.3362C45.3806 42.464 45.8437 42.234 46.0809 41.7229C46.6261 40.5472 47.1666 39.3709 47.7023 38.1939C48.989 35.3955 50.2764 32.5975 51.5645 29.7998C51.6115 29.6976 51.6258 29.5657 51.7628 29.5054C51.8436 29.6782 51.9192 29.8397 51.9939 30.0012C52.1482 30.3355 52.2924 30.6759 52.46 31.0031C52.5421 31.1763 52.6712 31.323 52.8326 31.4264C52.994 31.5298 53.1812 31.5858 53.3729 31.5878C53.7931 31.6032 54.0885 31.3834 54.3032 31.0348C54.3633 30.9277 54.4176 30.8175 54.4658 30.7046L64.519 8.86324C64.7569 8.34596 64.9954 7.82901 65.2346 7.31242C65.2816 7.21019 65.3133 7.09876 65.4605 7.10796C65.7039 7.1192 65.9492 7.08649 66.1976 7.12942C66.2078 7.30628 66.1056 7.43611 66.0433 7.57208C62.8632 14.5114 59.6812 21.4494 56.4971 28.386C55.6963 30.1307 54.8951 31.8751 54.0936 33.6191C54.0274 33.7425 53.9895 33.8792 53.9828 34.0191C53.976 34.159 54.0007 34.2986 54.0548 34.4278C54.6 35.6402 55.1473 36.8503 55.6966 38.0579C55.8837 38.4669 56.2251 38.6458 56.6668 38.6488C56.8631 38.6551 57.057 38.6036 57.2243 38.5007C57.3917 38.3979 57.5252 38.2482 57.6083 38.0702ZM48.1214 16.052C48.5474 15.1197 48.976 14.1877 49.4074 13.256C50.2856 11.3515 51.1678 9.44901 52.0347 7.53936C52.137 7.30833 52.2637 7.21632 52.5101 7.24494C52.7083 7.25546 52.9069 7.25546 53.1051 7.24494L48.4904 17.3043C48.3228 16.9414 48.1909 16.6501 48.0549 16.3618C47.9987 16.2411 48.0815 16.1491 48.1255 16.052H48.1214ZM48.8646 23.6661C48.2512 25.0053 47.6379 26.3431 47.0245 27.6796C45.9333 30.0609 44.8415 32.4442 43.749 34.8295C43.6897 34.9594 43.6284 35.0871 43.5497 35.2558C43.5275 35.2324 43.507 35.2075 43.4884 35.1812C43.3463 34.8663 43.1203 34.5607 43.0876 34.2346C43.0569 33.9279 43.3095 33.6406 43.4434 33.3482C45.0613 29.8049 46.682 26.2644 48.3054 22.7266C48.3472 22.5965 48.417 22.4771 48.5099 22.377C48.6632 22.7123 48.8166 23.0322 48.9556 23.3543C49.0047 23.4729 48.9188 23.5679 48.8687 23.6661H48.8646ZM51.7597 24.4267C51.5962 24.0729 51.4684 23.7887 51.3324 23.5066C51.2609 23.3584 51.3457 23.2459 51.3999 23.1283C51.9254 21.9813 52.4529 20.8357 52.9824 19.6914C54.8389 15.6567 56.695 11.6217 58.5509 7.58639C58.5836 7.51585 58.6204 7.44633 58.6531 7.37375C58.6676 7.33243 58.6958 7.29727 58.7329 7.27405C58.7701 7.25084 58.814 7.24093 58.8575 7.24597C59.1019 7.24597 59.3452 7.24597 59.6396 7.24597L51.7597 24.4267Z" fill="#990D81"/>
<path d="M17.4921 51.2111L14.6931 58.8415L13.8108 61.1826C13.7996 61.2143 12.0402 61.2787 12.0402 61.2787C12.0336 61.2353 12.0234 61.1925 12.0095 61.1509C11.1944 59.1349 10.378 57.1193 9.56012 55.104C9.53661 55.0457 9.52639 54.9762 9.44971 54.9589C9.43732 54.9779 9.42605 54.9977 9.41598 55.0181L6.87966 61.2787H5.14176C5.16528 61.1478 5.0886 61.0415 5.04771 60.9291C4.58495 59.6819 4.12185 58.4377 3.65841 57.1967C3.02663 55.4928 2.39452 53.791 1.76206 52.0913L1.75388 52.0688L1.48399 51.3501L1.43799 51.2254C2.17813 51.2254 2.92032 51.2254 3.66046 51.207C3.85572 51.207 3.9007 51.3093 3.95488 51.4544C4.46194 52.7882 4.97138 54.1216 5.48321 55.4547C5.6754 55.9515 5.86657 56.4483 6.08432 57.0137C6.14668 56.8726 6.18655 56.7888 6.22028 56.707C6.9243 54.9779 7.62866 53.2509 8.33337 51.526C8.48262 51.162 8.40391 51.2193 8.81282 51.2121C9.32397 51.2121 9.83512 51.2121 10.3534 51.2121C10.6489 51.2121 10.6499 51.2121 10.7623 51.4902C11.435 53.2138 12.1073 54.9381 12.7793 56.663C12.8182 56.7652 12.8642 56.8675 12.9306 57.0229C12.9889 56.8859 13.0329 56.8021 13.0615 56.7162L15.1245 51.5239C15.2482 51.2111 15.2492 51.2111 15.5702 51.2111H17.4921Z" fill="#990D81"/>
<path d="M40.8193 57.5984C40.8193 55.534 40.8193 53.4694 40.8193 51.4043C40.8193 51.1079 40.8193 51.1058 40.529 51.1048C39.9156 51.1048 39.3023 51.1201 38.6889 51.0966C38.3975 51.0854 38.235 51.1733 38.0857 51.434C37.1483 53.0696 36.1914 54.6941 35.2386 56.3205C35.1804 56.4228 35.1436 56.5393 35.0178 56.6098C34.9514 56.4964 34.8931 56.4054 34.8399 56.3032C33.9199 54.6552 33.0059 53.0093 32.0992 51.3563C32.0644 51.2705 32.0026 51.1984 31.923 51.1511C31.8434 51.1039 31.7505 51.084 31.6586 51.0946C30.989 51.1109 30.3194 51.0946 29.6497 51.1017C29.2204 51.1017 29.2603 51.0506 29.2603 51.4984C29.2603 54.5455 29.2603 57.5926 29.2603 60.6397C29.2603 60.8513 29.2654 61.064 29.2684 61.2756H31.4153V55.3003C31.5236 55.3228 31.5389 55.3933 31.5686 55.4475C32.6154 57.3142 33.6616 59.1813 34.707 61.0486C34.7315 61.098 34.7527 61.1489 34.7704 61.201C34.8675 61.2592 34.9074 61.1918 34.9493 61.1212L35.6148 59.9967C36.5008 58.4973 37.3885 57.001 38.2779 55.5078C38.3251 55.3895 38.4053 55.2873 38.509 55.2134V55.4853C38.509 57.2927 38.509 59.0988 38.509 60.9035C38.509 61.0262 38.5151 61.1488 38.5182 61.2715H40.7979C40.8276 61.1523 40.8356 61.0286 40.8214 60.9066C40.8207 59.8066 40.82 58.7038 40.8193 57.5984Z" fill="#990D81"/>
<path d="M27.3918 59.2623C25.3268 59.2623 23.2614 59.2623 21.1957 59.2623C20.8808 59.2623 20.8788 59.2623 20.8777 58.9627C20.8777 58.4271 20.8777 57.8904 20.8777 57.3547C20.8777 57.0643 20.8777 57.0633 21.1691 57.0603H21.3357C22.6422 57.0603 23.9487 57.0603 25.2552 57.0603C25.5128 57.0603 25.5169 57.0602 25.5179 56.8077C25.5179 56.3283 25.5179 55.8478 25.5179 55.3673C25.5179 55.0535 25.5179 55.0811 25.2184 55.079C24.4374 55.0739 23.6553 55.079 22.8743 55.079C22.2936 55.079 21.7129 55.079 21.1364 55.079C20.8869 55.079 20.8828 55.0729 20.8808 54.8163C20.8808 54.3696 20.8808 53.9228 20.8808 53.4761C20.8808 53.245 20.8869 53.2399 21.1262 53.2399C21.8847 53.2399 22.6443 53.2399 23.4038 53.2399C24.7321 53.2399 26.0611 53.2399 27.3908 53.2399C27.6453 53.2399 27.6484 53.2399 27.6504 52.9813C27.6504 52.5121 27.6504 52.0428 27.6504 51.5746C27.6504 51.1974 27.6954 51.2168 27.2875 51.2168C24.5185 51.2168 21.7498 51.2168 18.9814 51.2168C18.4815 51.2168 18.5489 51.1616 18.5489 51.636C18.5489 54.8507 18.5489 58.0662 18.5489 61.2823H27.7987C27.7987 60.7466 27.8109 60.211 27.8109 59.6753C27.8048 59.203 27.8539 59.2674 27.3918 59.2623Z" fill="#990D81"/>
<path d="M97.285 55.0563C98.8307 53.7579 100.376 52.4586 101.92 51.1582V51.0918C101 51.0918 100.089 51.1082 99.1742 51.0979C98.9307 51.089 98.6929 51.1726 98.5087 51.332C97.1068 52.475 95.6998 53.6111 94.2876 54.7404C94.2079 54.8037 94.1476 54.9203 93.9993 54.8855V54.6146C93.9993 53.531 93.9993 52.4477 93.9993 51.3647C93.9993 51.1102 93.9942 51.1061 93.7387 51.1051C93.1355 51.1051 92.5327 51.1051 91.9302 51.1051C91.6726 51.1051 91.6726 51.1051 91.6665 51.3617C91.6665 51.4281 91.6665 51.4956 91.6665 51.5661V60.1759C91.6665 60.4437 91.6736 60.7126 91.6665 60.9794C91.6603 61.1502 91.7155 61.2146 91.8934 61.2125C92.5191 61.2033 93.1437 61.2043 93.7693 61.2125C93.936 61.2125 94.0259 61.1716 94.0045 60.9886C94.0002 60.9205 94.0002 60.8523 94.0045 60.7842C94.0045 59.8566 94.0045 58.9297 94.0045 58.0035C94.0045 57.9013 93.9779 57.7796 94.0893 57.6968C94.4655 57.4181 94.8403 57.137 95.2138 56.8534C95.2277 56.8397 95.2445 56.8295 95.2631 56.8235C95.2816 56.8176 95.3013 56.8161 95.3205 56.8192C95.3398 56.8223 95.358 56.8298 95.3737 56.8413C95.3895 56.8528 95.4023 56.8678 95.4111 56.8851C95.452 56.9383 95.495 56.9874 95.5379 57.0416C96.6222 58.3617 97.7058 59.6821 98.7888 61.0029C98.8358 61.0698 98.899 61.1237 98.9725 61.1594C99.046 61.1952 99.1273 61.2117 99.209 61.2074C99.991 61.1962 100.773 61.2074 101.554 61.2002C101.624 61.2002 101.711 61.2432 101.759 61.1532C101.715 61.0502 101.65 60.9576 101.568 60.8813C100.125 59.0916 98.6804 57.3019 97.2349 55.5122C97.0356 55.2658 96.9865 55.3067 97.285 55.0563Z" fill="#990D81"/>
<path d="M52.3144 60.0053C50.9752 57.1858 49.6391 54.3656 48.306 51.5448C48.1813 51.279 48.0392 51.187 47.754 51.2054C47.3529 51.2299 46.9507 51.2299 46.5497 51.2054C46.2798 51.1901 46.1408 51.277 46.0242 51.5315C44.9437 53.893 43.8457 56.2463 42.7529 58.6037C42.344 59.4931 41.9351 60.3866 41.5312 61.2781H43.7425C44.1136 60.5277 44.4877 59.7804 44.8496 59.029C44.9283 58.8665 45.0377 58.8389 45.1962 58.8399C46.1561 58.8399 47.1171 58.8399 48.078 58.8399C48.3908 58.8399 48.7037 58.8399 49.0165 58.8399C49.0712 58.8336 49.1266 58.8453 49.174 58.8734C49.2214 58.9014 49.2584 58.9443 49.2792 58.9953C49.6391 59.7262 50.0061 60.4531 50.369 61.183C50.3779 61.2163 50.381 61.2509 50.3782 61.2852H52.8583C52.9073 61.183 52.8337 61.1165 52.798 61.0399C52.6405 60.6943 52.477 60.3478 52.3144 60.0053ZM45.7298 57.0407L47.1007 54.3561C47.5699 55.2895 48.0014 56.1513 48.4512 57.0468L45.7298 57.0407Z" fill="#990D81"/>
<path d="M66.0566 56.1239C65.9482 56.0513 65.8143 56.0114 65.7325 55.9041C65.7407 55.8857 65.7428 55.8744 65.7499 55.8683C65.7939 55.8335 65.8378 55.7998 65.8828 55.7661C66.4512 55.3572 66.7865 54.8112 66.8336 54.11C66.9358 52.6593 66.2202 51.5839 64.8207 51.2404C64.3847 51.1421 63.9385 51.0964 63.4917 51.1044C61.4812 51.1044 59.4706 51.1044 57.4601 51.1044C57.1657 51.1044 57.1616 51.1044 57.1616 51.3937C57.1616 54.5656 57.1616 57.7377 57.1616 60.9103C57.1616 61.2016 57.1616 61.2016 57.455 61.2047H57.5889C59.4659 61.2047 61.3425 61.2047 63.2187 61.2047C63.6207 61.2071 64.0225 61.1859 64.422 61.1413C66.03 60.9563 67.2322 59.8634 67.1484 58.055C67.1412 57.6677 67.0376 57.2884 66.847 56.9512C66.6564 56.614 66.3847 56.3297 66.0566 56.1239ZM59.4935 53.3995C59.4935 53.1551 59.4996 53.147 59.7266 53.147C60.9206 53.147 62.1153 53.1487 63.3107 53.1521C63.5343 53.1492 63.757 53.1805 63.9711 53.2451C64.3545 53.3678 64.5221 53.6223 64.516 54.0629C64.5099 54.479 64.332 54.7274 63.9619 54.8419C63.6916 54.9133 63.4122 54.9443 63.1328 54.9339C62.6299 54.939 62.1279 54.9339 61.625 54.9339C61.0003 54.9339 60.3747 54.9339 59.749 54.9339C59.4986 54.9339 59.4955 54.9278 59.4935 54.6702C59.4907 54.2476 59.4907 53.8241 59.4935 53.3995ZM64.242 58.9699C63.8464 59.1529 63.4181 59.1601 62.9948 59.1744C62.5368 59.1867 62.0748 59.1744 61.6209 59.1744C61.0075 59.1744 60.3941 59.1744 59.7807 59.1744C59.4996 59.1744 59.4955 59.1744 59.4945 58.9066C59.4945 58.3361 59.4945 57.7667 59.4945 57.1973C59.4945 57.0378 59.5466 56.9846 59.7061 56.9857C60.9329 56.9928 62.1596 56.9857 63.3864 57C63.6553 57.0025 63.9217 57.052 64.1735 57.1462C64.5743 57.2964 64.7665 57.598 64.7869 58.0192C64.8074 58.4404 64.6469 58.7839 64.242 58.9699Z" fill="#990D81"/>
<path d="M89.9938 51.1002C89.4683 51.1094 88.9439 51.1002 88.4184 51.1002C88.0341 51.1002 88.0617 51.0685 88.0617 51.4662C88.0617 53.2525 88.0617 55.0391 88.0617 56.8261C88.0617 56.9375 88.0995 57.0622 87.9901 57.1941C87.895 57.0857 87.8173 56.9896 87.7314 56.9027C85.9084 55.0449 84.0863 53.187 82.2652 51.3292C82.1978 51.25 82.1127 51.1875 82.0169 51.1469C81.9211 51.1063 81.8171 51.0885 81.7132 51.0951C81.2777 51.1114 80.8422 51.0951 80.4067 51.1002C79.9978 51.1002 80.0193 51.0562 80.0193 51.4703V60.8171C80.0193 60.8846 80.0193 60.951 80.0193 61.0216C80.0121 61.1442 80.0591 61.2056 80.191 61.2046C80.7942 61.2046 81.3973 61.2046 82.0005 61.2046C82.1252 61.2046 82.1896 61.1626 82.1855 61.0328C82.1855 60.9429 82.1855 60.8539 82.1855 60.764C82.1855 58.9668 82.1855 57.1689 82.1855 55.3703C82.1701 55.2495 82.1787 55.1269 82.2111 55.0095C82.3256 55.0207 82.3685 55.1117 82.4278 55.1679C82.8295 55.5707 83.2282 55.9776 83.629 56.3824C85.1502 57.924 86.6713 59.4667 88.1925 61.0103C88.25 61.0766 88.3219 61.1287 88.4027 61.1627C88.4836 61.1968 88.5711 61.2118 88.6587 61.2066C89.0676 61.1933 89.4857 61.2066 89.8987 61.2066C90.2248 61.2066 90.2248 61.2066 90.2279 60.8774V51.5275C90.2279 51.46 90.2228 51.3926 90.2279 51.3231C90.2443 51.1513 90.1666 51.0971 89.9938 51.1002Z" fill="#990D81"/>
<path d="M76.9204 56.8601C76.0495 55.0261 75.1798 53.1921 74.3116 51.3581C74.2247 51.173 74.1245 51.0902 73.9118 51.0984C73.4549 51.1148 72.9918 51.1168 72.5399 51.0984C72.316 51.0892 72.2066 51.1628 72.1126 51.3673C70.6473 54.5473 69.1776 57.7253 67.7034 60.9012C67.6636 60.9881 67.5869 61.0689 67.6329 61.2079C68.2933 61.2079 68.9619 61.2079 69.6274 61.2079C69.792 61.2079 69.8319 61.0965 69.8819 60.9891C70.2162 60.3205 70.5577 59.6601 70.8807 58.9813C70.9108 58.8998 70.9676 58.8309 71.0418 58.7857C71.1161 58.7406 71.2034 58.722 71.2897 58.7329C72.5062 58.7421 73.7227 58.7442 74.9392 58.7329C75.1723 58.7329 75.295 58.7983 75.3962 59.0151C75.709 59.6806 76.0495 60.3338 76.3797 60.9912C76.4338 61.1005 76.4706 61.2099 76.6342 61.2089C77.3927 61.2018 78.1513 61.2089 78.9354 61.2089C78.9277 61.094 78.8926 60.9825 78.8332 60.8838C78.1946 59.5405 77.557 58.1993 76.9204 56.8601ZM71.8468 56.9623C71.8724 56.7374 72.8691 54.7409 73.1758 54.3043L74.5119 56.9623H71.8468Z" fill="#990D81"/>
</svg>
