<svg width="50" height="46" viewBox="0 0 50 46" fill="none" xmlns="http://www.w3.org/2000/svg">
<g clip-path="url(#clip0_5055_10753)">
<path d="M50 23C50 10.2975 38.8071 0 25 0C11.1929 0 0 10.2975 0 23C0 35.7025 11.1929 46 25 46C38.8071 46 50 35.7025 50 23Z" fill="#7698CC"/>
<path d="M35.1523 15.9334C34.9354 15.4165 34.6032 14.9471 34.1771 14.5555C33.751 14.1639 33.2405 13.8588 32.6784 13.6597C31.9044 13.396 31.087 13.2566 30.2617 13.2477C28.8893 13.1902 28.4779 13.1758 25.0013 13.1758C21.5247 13.1758 21.1133 13.1902 19.7409 13.2477C18.9147 13.2564 18.0964 13.3957 17.3216 13.6597C16.7598 13.8593 16.2496 14.165 15.8239 14.557C15.3983 14.949 15.0666 15.4187 14.8503 15.9358C14.5636 16.6478 14.4121 17.3999 14.4023 18.1591C14.3398 19.4217 14.3242 19.8003 14.3242 22.9987C14.3242 26.1971 14.3398 26.5757 14.4023 27.8383C14.4118 28.5983 14.5633 29.3512 14.8503 30.064C15.0672 30.5809 15.3994 31.0503 15.8255 31.4419C16.2516 31.8335 16.7621 32.1386 17.3242 32.3377C18.0982 32.6014 18.9156 32.7408 19.7409 32.7497C21.1133 32.8072 21.5247 32.8216 25.0013 32.8216C28.4779 32.8216 28.8893 32.8072 30.2617 32.7497C31.0879 32.741 31.9062 32.6016 32.681 32.3377C33.2428 32.1381 33.753 31.8324 34.1787 31.4404C34.6043 31.0484 34.936 30.5787 35.1523 30.0616C35.439 29.3496 35.5905 28.5975 35.6003 27.8383C35.6628 26.5757 35.6784 26.1971 35.6784 22.9987C35.6784 19.8003 35.6628 19.4217 35.6003 18.1591C35.5908 17.3991 35.4393 16.6462 35.1523 15.9334ZM25.0013 29.1512C23.6786 29.1512 22.3857 28.7904 21.2859 28.1143C20.1862 27.4383 19.329 26.4774 18.8229 25.3532C18.3167 24.2289 18.1843 22.9919 18.4423 21.7984C18.7003 20.6049 19.3373 19.5087 20.2725 18.6482C21.2078 17.7878 22.3994 17.2018 23.6966 16.9644C24.9939 16.727 26.3385 16.8489 27.5605 17.3145C28.7825 17.7802 29.8269 18.5688 30.5618 19.5806C31.2966 20.5923 31.6888 21.7818 31.6888 22.9987C31.6888 24.6304 30.9842 26.1954 29.7301 27.3492C28.4759 28.503 26.7749 29.1512 25.0013 29.1512ZM31.9518 18.0417C31.6428 18.0417 31.3407 17.9574 31.0837 17.7995C30.8268 17.6415 30.6265 17.417 30.5083 17.1543C30.39 16.8917 30.3591 16.6026 30.4193 16.3238C30.4796 16.0449 30.6284 15.7888 30.847 15.5878C31.0655 15.3867 31.3439 15.2498 31.647 15.1943C31.9501 15.1389 32.2643 15.1673 32.5498 15.2761C32.8353 15.3849 33.0793 15.5692 33.251 15.8056C33.4227 16.042 33.5143 16.3199 33.5143 16.6042C33.5143 16.9855 33.3497 17.3511 33.0567 17.6207C32.7637 17.8903 32.3662 18.0417 31.9518 18.0417Z" fill="#E5EAFA"/>
<path d="M25.0013 26.9955C27.3989 26.9955 29.3424 25.2074 29.3424 23.0017C29.3424 20.7959 27.3989 19.0078 25.0013 19.0078C22.6038 19.0078 20.6602 20.7959 20.6602 23.0017C20.6602 25.2074 22.6038 26.9955 25.0013 26.9955Z" fill="#E5EAFA"/>
<path d="M25 0C20.0555 0 15.222 1.34893 11.1108 3.8762C6.99953 6.40347 3.79521 9.99558 1.90302 14.1983C0.0108321 18.401 -0.484251 23.0255 0.480379 27.4871C1.44501 31.9486 3.82603 36.0468 7.32234 39.2635C10.8187 42.4801 15.2732 44.6706 20.1228 45.5581C24.9723 46.4455 29.9989 45.99 34.5671 44.2492C39.1353 42.5084 43.0397 39.5604 45.7867 35.7781C48.5338 31.9958 50 27.549 50 23C50 16.9 47.3661 11.0499 42.6777 6.73654C37.9893 2.42321 31.6304 0 25 0ZM37.9427 27.9402C37.9204 28.9335 37.7152 29.9161 37.3359 30.8464C37.0015 31.642 36.4901 32.3645 35.8345 32.9677C35.1788 33.5709 34.3934 34.0414 33.5287 34.3491C32.5175 34.698 31.4495 34.8867 30.3698 34.9073C28.9792 34.9648 28.5365 34.9792 25 34.9792C21.4636 34.9792 21.0208 34.9648 19.6302 34.9073C18.5505 34.8867 17.4825 34.698 16.4714 34.3491C15.6066 34.0414 14.8212 33.5709 14.1656 32.9677C13.5099 32.3645 12.9985 31.642 12.6641 30.8464C12.2848 29.9161 12.0796 28.9335 12.0573 27.9402C11.9948 26.6608 11.9792 26.2535 11.9792 23C11.9792 19.7465 11.9948 19.3392 12.0573 18.0598C12.0796 17.0665 12.2848 16.0839 12.6641 15.1536C12.9985 14.358 13.5099 13.6355 14.1656 13.0323C14.8212 12.4291 15.6066 11.9586 16.4714 11.6509C17.4825 11.302 18.5505 11.1133 19.6302 11.0927C21.0208 11.0352 21.4636 11.0208 25 11.0208C28.5365 11.0208 28.9792 11.0352 30.3698 11.0927C31.4495 11.1133 32.5175 11.302 33.5287 11.6509C34.3934 11.9586 35.1788 12.4291 35.8345 13.0323C36.4901 13.6355 37.0015 14.358 37.3359 15.1536C37.7152 16.0839 37.9204 17.0665 37.9427 18.0598C38.0052 19.3392 38.0208 19.7465 38.0208 23C38.0208 26.2535 38.0052 26.6608 37.9427 27.9402Z" fill="#E5EAFA"/>
</g>
<defs>
<clipPath id="clip0_5055_10753">
<rect width="50" height="46" fill="white"/>
</clipPath>
</defs>
</svg>
