<svg width="47" height="46" viewBox="0 0 47 46" fill="none" xmlns="http://www.w3.org/2000/svg">
<g clip-path="url(#clip0_5055_10758)">
<path d="M42.1387 22.9992C42.1387 12.9248 33.4314 4.75781 22.6905 4.75781C11.9495 4.75781 3.24219 12.9248 3.24219 22.9992C3.24219 33.0736 11.9495 41.2406 22.6905 41.2406C33.4314 41.2406 42.1387 33.0736 42.1387 22.9992Z" fill="#7698CC"/>
<path d="M23.5 0C10.5212 0 0 10.2973 0 23C0 35.7026 10.5212 45.9999 23.5 45.9999C36.4787 45.9999 47 35.7026 47 23C46.9999 10.2973 36.4785 0 23.5 0ZM17.2301 34.1194H12.0705V17.8047H17.2301V34.1194ZM14.6257 15.6681C12.9406 15.6681 11.5746 14.3202 11.5746 12.6578C11.5746 10.9952 12.9408 9.64737 14.6257 9.64737C16.3106 9.64737 17.6767 10.9952 17.6767 12.6578C17.6768 14.3203 16.3107 15.6681 14.6257 15.6681ZM36.5659 34.1194H31.4313V25.5555C31.4313 23.2067 30.5197 21.8956 28.622 21.8956C26.5568 21.8956 25.4778 23.2611 25.4778 25.5555V34.1194H20.5291V17.8047H25.4778V20.002C25.4778 20.002 26.9664 17.307 30.501 17.307C34.0357 17.307 36.566 19.4194 36.566 23.7891L36.5659 34.1194Z" fill="#E5EAFA"/>
</g>
<defs>
<clipPath id="clip0_5055_10758">
<rect width="47" height="46" fill="white"/>
</clipPath>
</defs>
</svg>
