<?xml version="1.0" encoding="UTF-8"?>
<svg xmlns="http://www.w3.org/2000/svg" width="37" height="37" viewBox="0 0 37 37" fill="none">
  <ellipse cx="17.97" cy="18.0808" rx="14.2064" ry="13.7759" fill="white"></ellipse>
  <path d="M20.1509 15.9506H20.1786V15.9072L20.1509 15.9506ZM20.1509 15.9506H20.1786V15.9072L20.1509 15.9506ZM20.1509 15.9506H20.1786V15.9072L20.1509 15.9506ZM20.1509 15.9506H20.1786V15.9072L20.1509 15.9506ZM20.1509 15.9506H20.1786V15.9072L20.1509 15.9506ZM20.1509 15.9506H20.1786V15.9072L20.1509 15.9506ZM20.1509 15.9506H20.1786V15.9072L20.1509 15.9506ZM20.1509 15.9506H20.1786V15.9072L20.1509 15.9506ZM20.1509 15.9506H20.1786V15.9072L20.1509 15.9506ZM20.1509 15.9506H20.1786V15.9072L20.1509 15.9506ZM20.1509 15.9506H20.1786V15.9072L20.1509 15.9506ZM20.1509 15.9506H20.1786V15.9072L20.1509 15.9506ZM20.1509 15.9506H20.1786V15.9072L20.1509 15.9506ZM20.1509 15.9506H20.1786V15.9072L20.1509 15.9506ZM20.1509 15.9506H20.1786V15.9072L20.1509 15.9506ZM20.1509 15.9506H20.1786V15.9072L20.1509 15.9506ZM18.3545 0C14.7883 0 11.3021 1.05752 8.33689 3.03882C5.37166 5.02012 3.06054 7.83622 1.6958 11.131C0.331055 14.4258 -0.0260245 18.0513 0.669716 21.549C1.36546 25.0467 3.08277 28.2596 5.60449 30.7813C8.12621 33.303 11.3391 35.0203 14.8368 35.7161C18.3345 36.4118 21.96 36.0547 25.2548 34.69C28.5496 33.3253 31.3657 31.0141 33.347 28.0489C35.3283 25.0837 36.3858 21.5975 36.3858 18.0313C36.3806 13.2507 34.4792 8.6674 31.0988 5.28701C27.7184 1.90662 23.1351 0.00522526 18.3545 0ZM13.8457 26.1487C13.8447 26.2287 13.8122 26.305 13.7553 26.3611C13.6984 26.4173 13.6217 26.4488 13.5417 26.4488H10.0673C9.98774 26.4488 9.91142 26.4172 9.85515 26.3609C9.79888 26.3046 9.76726 26.2283 9.76726 26.1487V14.474C9.76674 14.4342 9.77412 14.3948 9.78896 14.3579C9.80381 14.3211 9.82583 14.2875 9.85374 14.2592C9.88166 14.231 9.91491 14.2085 9.95158 14.1932C9.98824 14.1779 10.0276 14.17 10.0673 14.17H13.5417C13.5816 14.17 13.6212 14.1778 13.6581 14.1931C13.6949 14.2084 13.7284 14.2308 13.7567 14.259C13.7849 14.2872 13.8073 14.3208 13.8226 14.3576C13.8379 14.3945 13.8457 14.4341 13.8457 14.474V26.1487ZM11.6821 12.6104C11.2503 12.6104 10.8282 12.4824 10.4691 12.2425C10.1101 12.0026 9.83024 11.6616 9.66499 11.2626C9.49973 10.8637 9.4565 10.4247 9.54074 10.0012C9.62499 9.57763 9.83293 9.1886 10.1383 8.88326C10.4436 8.57791 10.8327 8.36997 11.2562 8.28572C11.6797 8.20148 12.1187 8.24472 12.5177 8.40997C12.9166 8.57522 13.2576 8.85506 13.4975 9.21411C13.7374 9.57316 13.8655 9.99529 13.8655 10.4271C13.866 10.714 13.8099 10.9981 13.7003 11.2632C13.5908 11.5284 13.43 11.7693 13.2271 11.9721C13.0243 12.175 12.7834 12.3358 12.5183 12.4453C12.2531 12.5548 11.969 12.611 11.6821 12.6104ZM28.5487 26.1487C28.5477 26.2287 28.5152 26.305 28.4583 26.3611C28.4014 26.4173 28.3246 26.4488 28.2447 26.4488H24.7703C24.7309 26.4488 24.6919 26.441 24.6555 26.4259C24.6191 26.4108 24.586 26.3887 24.5581 26.3609C24.5303 26.333 24.5082 26.2999 24.4931 26.2635C24.478 26.2271 24.4702 26.1881 24.4702 26.1487V19.8751C24.4702 18.2247 23.882 17.1114 22.4053 17.1114C21.9452 17.1139 21.4972 17.2587 21.1225 17.5259C20.7479 17.7931 20.4651 18.1696 20.3128 18.6038C20.2087 18.9247 20.1633 19.2617 20.1786 19.5987V26.1487C20.1786 26.2293 20.1466 26.3067 20.0895 26.3637C20.0325 26.4207 19.9552 26.4527 19.8746 26.4527H16.4002C16.3604 26.4527 16.3211 26.4448 16.2844 26.4295C16.2478 26.4142 16.2145 26.3917 16.1866 26.3634C16.1587 26.3352 16.1367 26.3016 16.1218 26.2648C16.107 26.2279 16.0996 26.1884 16.1001 26.1487C16.1001 24.4826 16.1436 16.3928 16.1001 14.4898C16.0996 14.45 16.107 14.4106 16.1218 14.3737C16.1367 14.3369 16.1587 14.3033 16.1866 14.275C16.2145 14.2468 16.2478 14.2243 16.2844 14.209C16.3211 14.1936 16.3604 14.1858 16.4002 14.1858H19.8667C19.9067 14.1852 19.9465 14.1927 19.9836 14.2078C20.0208 14.2229 20.0545 14.2453 20.0828 14.2736C20.1112 14.302 20.1335 14.3357 20.1486 14.3728C20.1637 14.4099 20.1712 14.4497 20.1707 14.4898V15.923C20.54 15.2819 21.0778 14.7542 21.7258 14.3971C22.3738 14.0401 23.1072 13.8673 23.8464 13.8975C26.5272 13.8975 28.5408 15.6505 28.5408 19.425L28.5487 26.1487ZM20.1786 15.9624V15.919L20.1509 15.9624H20.1786ZM20.1509 15.9624H20.1786V15.919L20.1509 15.9624ZM20.1509 15.9624H20.1786V15.919L20.1509 15.9624ZM20.1509 15.9624H20.1786V15.919L20.1509 15.9624ZM20.1509 15.9624H20.1786V15.919L20.1509 15.9624ZM20.1509 15.9624H20.1786V15.919L20.1509 15.9624ZM20.1509 15.9624H20.1786V15.919L20.1509 15.9624ZM20.1509 15.9624H20.1786V15.919L20.1509 15.9624ZM20.1509 15.9624H20.1786V15.919L20.1509 15.9624ZM20.1509 15.9624H20.1786V15.919L20.1509 15.9624ZM20.1509 15.9624H20.1786V15.919L20.1509 15.9624ZM20.1509 15.9624H20.1786V15.919L20.1509 15.9624ZM20.1509 15.9624H20.1786V15.919L20.1509 15.9624ZM20.1509 15.9624H20.1786V15.919L20.1509 15.9624ZM20.1509 15.9624H20.1786V15.919L20.1509 15.9624Z" fill="#111111"></path>
</svg>
