<svg width="170" height="128" viewBox="0 0 170 128" fill="none" xmlns="http://www.w3.org/2000/svg">
<g id="Group">
<g id="Group_2">
<path id="Vector" d="M110.856 108C110.856 108 118.181 114.46 108 127.381H136C136 127.381 126.049 118.113 131.141 108L110.856 108Z" fill="#A1AABF" fill-opacity="0.47"/>
</g>
<g id="Group_3">
<path id="Vector_2" d="M78.3068 35.1187H162C166.142 35.1187 169.5 38.4765 169.5 42.6187V99.9487C169.5 104.091 166.142 107.449 162 107.449H78.3068C74.1646 107.449 70.8068 104.091 70.8068 99.9486V42.6186C70.8068 38.4765 74.1646 35.1187 78.3068 35.1187Z" stroke="white" stroke-opacity="0.38"/>
</g>
<g id="Group_4">
<g id="Group_5">
<g id="Group_6">
<path id="Vector_3" d="M69.5035 66.7914C76.2984 66.7914 81.8067 61.3447 81.8067 54.6259C81.8067 47.9071 76.2984 42.4604 69.5035 42.4604C62.7087 42.4604 57.2004 47.9071 57.2004 54.6259C57.2004 61.3447 62.7087 66.7914 69.5035 66.7914Z" fill="#6B40D7"/>
</g>
<g id="Group_7">
<path id="Vector_4" d="M68.2737 66.8077C75.0685 66.8077 80.5768 61.3611 80.5768 54.6423C80.5768 47.9235 75.0685 42.4768 68.2737 42.4768C61.4788 42.4768 55.9705 47.9235 55.9705 54.6423C55.9705 61.3611 61.4788 66.8077 68.2737 66.8077Z" fill="#7E4EF3"/>
</g>
<g id="Group_8">
<path id="Vector_5" d="M68.2736 64.5812C73.8248 64.5812 78.3249 60.1314 78.3249 54.6424C78.3249 49.1534 73.8248 44.7036 68.2736 44.7036C62.7225 44.7036 58.2224 49.1534 58.2224 54.6424C58.2224 60.1314 62.7225 64.5812 68.2736 64.5812Z" fill="#9F83E5"/>
</g>
<g id="Group_9">
<path id="Vector_6" d="M68.3775 54.0435V54.0349C67.113 54.0521 66.0693 53.217 66.052 52.1679C66.0347 51.1231 67.0524 50.2538 68.3212 50.2367C69.5857 50.2196 70.6294 51.0546 70.6467 52.1037L72.1278 52.0823C72.1018 50.3866 70.6597 49.0034 68.8192 48.8022L68.7976 47.2007L67.3165 47.2221L67.3425 48.905C65.7315 49.3075 64.5536 50.6349 64.5753 52.1936C64.6012 53.9835 66.1992 55.4223 68.1826 55.4951V55.5037C69.4471 55.4866 70.4908 56.3216 70.5081 57.3707C70.5255 58.4155 69.5078 59.2848 68.2389 59.3019C66.9701 59.319 65.9307 58.484 65.9134 57.4349L64.4324 57.4563C64.4584 59.0835 65.7835 60.4281 67.5157 60.7107L67.5374 62.0981L69.0184 62.0767L68.9968 60.6893C70.7203 60.3553 72.0065 58.9765 71.9849 57.3493C71.9546 55.5551 70.3566 54.1163 68.3775 54.0435Z" fill="#6B40D7"/>
</g>
</g>
<g id="Vector_7" filter="url(#filter0_b_2914_1571)">
<path d="M161.26 105.186H79.0276C75.8869 105.186 73.3406 103.006 73.3406 100.316V42.5048C73.3406 39.8155 75.8869 37.6353 79.0276 37.6353H161.26C164.4 37.6353 166.946 39.8155 166.946 42.5048V100.316C166.946 103.006 164.4 105.186 161.26 105.186Z" fill="#DCDCDC" fill-opacity="0.21"/>
</g>
</g>
<g id="Group_10">
<path id="Vector_8" d="M48.9128 123.538H5.5566C2.75404 123.538 0.5 121.316 0.5 118.599V50.7738C0.5 48.0563 2.75404 45.8347 5.5566 45.8347H48.9128C51.7154 45.8347 53.9694 48.0563 53.9694 50.7738V118.598C53.9666 121.316 51.712 123.538 48.9128 123.538Z" stroke="white" stroke-opacity="0.32"/>
</g>
<g id="Group_11">
<g id="Group_12">
<g id="Group_13">
<path id="Vector_9" d="M152.118 44.3193C157.271 44.3193 161.448 40.2307 161.448 35.1872C161.448 30.1437 157.271 26.0552 152.118 26.0552C146.966 26.0552 142.789 30.1437 142.789 35.1872C142.789 40.2307 146.966 44.3193 152.118 44.3193Z" fill="#6B40D7"/>
</g>
<g id="Group_14">
<path id="Vector_10" d="M151.186 44.3319C156.338 44.3319 160.515 40.2434 160.515 35.1999C160.515 30.1564 156.338 26.0679 151.186 26.0679C146.033 26.0679 141.856 30.1564 141.856 35.1999C141.856 40.2434 146.033 44.3319 151.186 44.3319Z" fill="#7E4EF3"/>
</g>
<g id="Group_15">
<path id="Vector_11" d="M151.186 42.6604C155.395 42.6604 158.807 39.3202 158.807 35.1998C158.807 31.0795 155.395 27.7393 151.186 27.7393C146.976 27.7393 143.564 31.0795 143.564 35.1998C143.564 39.3202 146.976 42.6604 151.186 42.6604Z" fill="#9F83E5"/>
</g>
<g id="Group_16">
<path id="Vector_12" d="M151.264 34.7501V34.7437C150.306 34.7565 149.514 34.1297 149.501 33.3422C149.488 32.5579 150.26 31.9054 151.222 31.8925C152.181 31.8797 152.972 32.5065 152.985 33.294L154.108 33.2779C154.089 32.005 152.995 30.9668 151.599 30.8157L151.583 29.6135L150.46 29.6296L150.48 30.8928C149.258 31.195 148.365 32.1915 148.381 33.3615C148.401 34.7051 149.613 35.7851 151.117 35.8398V35.8462C152.076 35.8333 152.867 36.4601 152.88 37.2477C152.893 38.032 152.122 38.6845 151.159 38.6973C150.197 38.7102 149.409 38.0834 149.396 37.2959L148.273 37.3119C148.293 38.5334 149.297 39.5427 150.611 39.7549L150.627 40.7963L151.75 40.7803L151.734 39.7388C153.041 39.4881 154.016 38.453 154 37.2316C153.977 35.8848 152.765 34.8047 151.264 34.7501Z" fill="#6B40D7"/>
</g>
</g>
<path id="Vector_13" d="M49.8435 53.095H4.62592V116.277H49.8435V53.095Z" fill="#08338D"/>
</g>
<g id="Group_17">
<g id="Group_18">
<g id="Vector_14" filter="url(#filter1_b_2914_1571)">
<path d="M63.2935 68.345H20.1968C17.9876 68.345 16.1968 70.1358 16.1968 72.345V96.9885C16.1968 99.1977 17.9876 100.989 20.1968 100.989H63.2935C65.5027 100.989 67.2935 99.1977 67.2935 96.9885V72.345C67.2935 70.1358 65.5027 68.345 63.2935 68.345Z" fill="#EAEEFF" fill-opacity="0.21"/>
</g>
</g>
<g id="Group_19">
<path id="Vector_15" d="M28.8365 73.0835H19.6923V77.5574H28.8365V73.0835Z" fill="#ADDCEE"/>
</g>
<g id="Group_20">
<path id="Vector_16" d="M41.2091 73.0835H32.0648V77.5574H41.2091V73.0835Z" fill="#ADDCEE"/>
</g>
<g id="Group_21">
<path id="Vector_17" d="M53.5787 73.0833H44.4344V77.5572H53.5787V73.0833Z" fill="#ADDCEE"/>
<path id="Vector_18" d="M53.7322 77.7077H44.2808V72.9331H53.7322V77.7077ZM44.5879 77.4071H53.425V73.2338H44.5879V77.4071Z" fill="#7E4EF3"/>
</g>
<g id="Group_22">
<path id="Vector_19" d="M60.3025 82.2961H50.6207V87.8254H60.3025V82.2961Z" fill="#7740FF"/>
</g>
<g id="Group_23">
<path id="Vector_20" d="M29.1038 91.7732H19.6923V95.1948H29.1038V91.7732Z" fill="#ADDCEE"/>
</g>
<g id="Group_24">
<path id="Vector_21" d="M60.3024 91.7732H39.8637V95.1948H60.3024V91.7732Z" fill="#ADDCEE"/>
</g>
</g>
<g id="Group_25">
<path id="Vector_22" d="M27.8568 72.9813H26.6281V70.5759H27.8568V72.9813ZM27.8568 68.1706H26.6281V65.7653H27.8568V68.1706ZM27.8568 63.3599H26.6281V60.9546H27.8568V63.3599ZM120.63 59.7519H119.401V59.4061H120.63V59.7519ZM27.8568 58.5492H26.6281V58.1674C26.6281 57.4848 26.6435 56.7963 26.6742 56.1198L27.9028 56.1739C27.8721 56.8354 27.8568 57.5059 27.8568 58.1704V58.5492ZM119.386 57.0158C119.364 56.2281 119.324 55.4313 119.26 54.6465L120.485 54.5533C120.55 55.3591 120.593 56.1769 120.614 56.9857L119.386 57.0158ZM28.0718 53.8047L26.8493 53.6904C26.9291 52.8846 27.0305 52.0698 27.1534 51.273L28.3697 51.4504C28.2499 52.2262 28.1486 53.0199 28.0718 53.8047ZM119.011 52.2863C118.906 51.5046 118.777 50.7168 118.633 49.9441L119.84 49.7246C119.991 50.5184 120.123 51.3272 120.23 52.1299L119.011 52.2863ZM28.7936 49.1142L27.5895 48.8737C27.7554 48.0799 27.9458 47.2832 28.1547 46.5014L29.3434 46.8051C29.1407 47.5658 28.9533 48.3415 28.7936 49.1142ZM118.126 47.6229C117.939 46.8592 117.727 46.0895 117.496 45.3318L118.673 44.9891C118.909 45.7648 119.128 46.5556 119.321 47.3403L118.126 47.6229ZM30.0192 44.526L28.8489 44.1592C29.1008 43.3865 29.3772 42.6108 29.6721 41.8531L30.8209 42.2801C30.5322 43.0197 30.2649 43.7744 30.0192 44.526ZM116.741 43.0768C116.471 42.3372 116.176 41.5945 115.865 40.8699L116.999 40.4039C117.318 41.1465 117.619 41.9102 117.896 42.6709L116.741 43.0768ZM31.7393 40.0822L30.6151 39.5951C30.9499 38.8524 31.3093 38.1128 31.684 37.3912L32.7806 37.9354C32.4151 38.639 32.0649 39.3606 31.7393 40.0822ZM114.873 38.7111C114.523 38.0015 114.151 37.295 113.764 36.6064L114.84 36.0262C115.236 36.7327 115.62 37.4603 115.979 38.188L114.873 38.7111ZM33.9355 35.8458L32.8697 35.2444C33.2813 34.5439 33.7175 33.8433 34.169 33.1638L35.2011 33.8192C34.7618 34.4807 34.3349 35.1632 33.9355 35.8458ZM112.539 34.5619C112.115 33.8944 111.667 33.2269 111.206 32.5805L112.213 31.892C112.686 32.5564 113.147 33.239 113.58 33.9245L112.539 34.5619ZM36.5741 31.8619L35.5789 31.1553C36.0642 30.4999 36.5741 29.8504 37.0963 29.222L38.0515 29.9797C37.5447 30.5901 37.0471 31.2245 36.5741 31.8619ZM109.771 30.6713C109.28 30.0519 108.761 29.4355 108.232 28.8372L109.16 28.0494C109.701 28.6628 110.232 29.2942 110.739 29.9316L109.771 30.6713ZM39.6273 28.1757L38.715 27.3699C39.2679 26.7686 39.8454 26.1733 40.429 25.605L41.2983 26.4559C40.727 27.0091 40.1648 27.5894 39.6273 28.1757ZM106.598 27.0873C106.039 26.519 105.459 25.9598 104.872 25.4216L105.711 24.5436C106.313 25.0969 106.912 25.6711 107.483 26.2544L106.598 27.0873ZM43.0553 24.8233L42.2351 23.9273C42.8495 23.3861 43.4884 22.8569 44.1303 22.3487L44.9013 23.2838C44.2747 23.7799 43.6542 24.2971 43.0553 24.8233ZM103.057 23.8491C102.439 23.341 101.8 22.8449 101.158 22.3698L101.899 21.4107C102.556 21.8977 103.213 22.4089 103.846 22.929L103.057 23.8491ZM46.8272 21.8466L46.1085 20.8725C46.7781 20.4004 47.4661 19.9374 48.1603 19.4984L48.8269 20.5087C48.1511 20.9326 47.4784 21.3836 46.8272 21.8466ZM99.1834 20.9927C98.5137 20.5508 97.8257 20.1238 97.1376 19.7179L97.7704 18.6866C98.4799 19.1015 99.1864 19.5435 99.8714 19.9945L99.1834 20.9927ZM50.891 19.2729L50.2798 18.2296C50.9954 17.8297 51.7296 17.4388 52.4668 17.075L53.0197 18.1484C52.307 18.5032 51.5883 18.882 50.891 19.2729ZM95.0244 18.5483C94.3117 18.1785 93.5807 17.8237 92.8496 17.493L93.3657 16.4015C94.1152 16.7413 94.8677 17.1081 95.5988 17.4869L95.0244 18.5483ZM55.2097 17.1382L54.7152 16.0377C55.4678 15.713 56.2418 15.4033 57.0159 15.1177L57.449 16.2422C56.6995 16.5218 55.9439 16.8225 55.2097 17.1382ZM90.6196 16.5519C89.8701 16.2572 89.1053 15.9806 88.3405 15.728L88.7367 14.5885C89.52 14.8471 90.3063 15.1327 91.0773 15.4334L90.6196 16.5519ZM59.7404 15.4634L59.3687 14.3179C60.1551 14.0744 60.9599 13.8459 61.7585 13.6414L62.0687 14.805C61.2885 15.0034 60.5052 15.2259 59.7404 15.4634ZM86.0275 15.0275C85.2535 14.814 84.4641 14.6186 83.6777 14.4472L83.948 13.2746C84.7559 13.452 85.5668 13.6504 86.3623 13.8699L86.0275 15.0275ZM64.4277 14.2698L64.182 13.0912C64.9898 12.9288 65.8161 12.7875 66.6332 12.6672L66.8144 13.8579C66.0188 13.9721 65.2141 14.1104 64.4277 14.2698ZM81.3003 13.9902C80.5078 13.8579 79.6999 13.7466 78.9013 13.6564L79.0426 12.4628C79.8658 12.556 80.6951 12.6702 81.5061 12.8055L81.3003 13.9902ZM69.2195 13.5692L69.1028 12.3726C69.9229 12.2944 70.7584 12.2403 71.5847 12.2042L71.6369 13.4069C70.8321 13.4399 70.0181 13.4941 69.2195 13.5692ZM76.4839 13.449C75.6822 13.4009 74.8682 13.3738 74.0604 13.3648L74.0727 12.1621C74.899 12.1681 75.7344 12.1982 76.5576 12.2493L76.4839 13.449Z" fill="#48CBFF"/>
</g>
<g id="Group_26">
<g id="Group_27">
<path id="Vector_23" d="M138.51 61.3813H98.7502V59.5984H138.51V61.3813ZM99.0573 61.0807H138.202V59.8991H99.0573V61.0807Z" fill="black"/>
</g>
<g id="Group_28">
<path id="Vector_24" d="M106.681 62.4067H101.462V93.8717H106.681V62.4067Z" fill="#ADDCEE"/>
</g>
<g id="Group_29">
<path id="Vector_25" d="M107.357 91.854H100.781C100.016 91.854 99.3983 91.2496 99.3983 90.501C99.3983 89.7523 100.016 89.1479 100.781 89.1479H107.357C108.122 89.1479 108.739 89.7523 108.739 90.501C108.739 91.2496 108.122 91.854 107.357 91.854Z" fill="#B396FB"/>
</g>
<g id="Group_30">
<path id="Vector_26" d="M107.357 68.1525H100.781C100.016 68.1525 99.3983 67.5482 99.3983 66.7995C99.3983 66.0509 100.016 65.4465 100.781 65.4465H107.357C108.122 65.4465 108.739 66.0509 108.739 66.7995C108.739 67.5482 108.122 68.1525 107.357 68.1525Z" fill="#B396FB"/>
</g>
<g id="Group_31">
<path id="Vector_27" d="M120.663 62.4067H115.445V93.8717H120.663V62.4067Z" fill="#ADDCEE"/>
</g>
<g id="Group_32">
<path id="Vector_28" d="M121.342 91.854H114.766C114.001 91.854 113.383 91.2496 113.383 90.501C113.383 89.7523 114.001 89.1479 114.766 89.1479H121.342C122.107 89.1479 122.724 89.7523 122.724 90.501C122.724 91.2496 122.107 91.854 121.342 91.854Z" fill="#B396FB"/>
</g>
<g id="Group_33">
<path id="Vector_29" d="M121.342 68.1525H114.766C114.001 68.1525 113.383 67.5482 113.383 66.7995C113.383 66.0509 114.001 65.4465 114.766 65.4465H121.342C122.107 65.4465 122.724 66.0509 122.724 66.7995C122.724 67.5482 122.107 68.1525 121.342 68.1525Z" fill="#B396FB"/>
</g>
<g id="Group_34">
<path id="Vector_30" d="M135.902 62.4067H130.683V93.8717H135.902V62.4067Z" fill="#ADDCEE"/>
</g>
<g id="Group_35">
<path id="Vector_31" d="M136.581 91.854H130.004C129.239 91.854 128.622 91.2496 128.622 90.501C128.622 89.7523 129.239 89.1479 130.004 89.1479H136.581C137.345 89.1479 137.963 89.7523 137.963 90.501C137.963 91.2496 137.342 91.854 136.581 91.854Z" fill="#B396FB"/>
</g>
<g id="Group_36">
<path id="Vector_32" d="M136.581 68.1525H130.004C129.239 68.1525 128.622 67.5482 128.622 66.7995C128.622 66.0509 129.239 65.4465 130.004 65.4465H136.581C137.345 65.4465 137.963 66.0509 137.963 66.7995C137.963 67.5482 137.342 68.1525 136.581 68.1525Z" fill="#B396FB"/>
</g>
<g id="Group_37">
<path id="Vector_33" d="M140.494 96.3251H96.7659C96.7659 94.915 97.9331 93.7725 99.3737 93.7725H137.886C139.327 93.7695 140.494 94.912 140.494 96.3251Z" fill="#C8D6DB"/>
</g>
<g id="Group_38">
<path id="Vector_34" d="M138.353 60.4644H98.9037V63.2726H138.353V60.4644Z" fill="#C6EBFA"/>
</g>
<g id="Group_39">
<path id="Vector_35" d="M140.497 95.6096H96.7659V97.5519H140.497V95.6096Z" fill="#B396FB"/>
</g>
<g id="Group_40">
<path id="Vector_36" d="M141.753 61.1801H93.5161C93.0737 61.1801 92.9109 60.6119 93.2888 60.3864L118.578 45.2417L141.996 60.3924C142.355 60.6299 142.186 61.1801 141.753 61.1801Z" fill="#B396FB"/>
</g>
<g id="Group_41">
<path id="Vector_37" d="M136.362 59.3188H98.8669C98.6089 59.3188 98.5137 58.985 98.7318 58.8527L118.344 47.1086L136.504 58.8588C136.716 58.9941 136.617 59.3188 136.362 59.3188Z" fill="#ADDCEE"/>
</g>
<g id="Group_42">
<path id="Vector_38" d="M118.317 57.4515C120.094 57.4515 121.536 55.7366 121.536 53.621C121.536 51.5055 120.094 49.7905 118.317 49.7905C116.539 49.7905 115.097 51.5055 115.097 53.621C115.097 55.7366 116.539 57.4515 118.317 57.4515Z" fill="#ECF8FD"/>
</g>
<g id="Group_43">
<path id="Vector_39" d="M107.984 65.1909H100.157C99.3922 65.1909 98.7748 64.5865 98.7748 63.8379C98.7748 63.0892 99.3922 62.4849 100.157 62.4849H107.984C108.748 62.4849 109.366 63.0892 109.366 63.8379C109.366 64.5865 108.748 65.1909 107.984 65.1909Z" fill="#B396FB"/>
</g>
<g id="Group_44">
<path id="Vector_40" d="M121.969 65.1909H114.142C113.377 65.1909 112.76 64.5865 112.76 63.8379C112.76 63.0892 113.377 62.4849 114.142 62.4849H121.969C122.734 62.4849 123.351 63.0892 123.351 63.8379C123.351 64.5865 122.734 65.1909 121.969 65.1909Z" fill="#B396FB"/>
</g>
<g id="Group_45">
<path id="Vector_41" d="M137.207 65.1909H129.381C128.616 65.1909 127.998 64.5865 127.998 63.8379C127.998 63.0892 128.616 62.4849 129.381 62.4849H137.207C137.972 62.4849 138.589 63.0892 138.589 63.8379C138.589 64.5865 137.969 65.1909 137.207 65.1909Z" fill="#B396FB"/>
</g>
<g id="Group_46">
<path id="Vector_42" d="M107.984 95.0202H100.157C99.3922 95.0202 98.7748 94.4159 98.7748 93.6672C98.7748 92.9186 99.3922 92.3142 100.157 92.3142H107.984C108.748 92.3142 109.366 92.9186 109.366 93.6672C109.366 94.4159 108.748 95.0202 107.984 95.0202Z" fill="#B396FB"/>
</g>
<g id="Group_47">
<path id="Vector_43" d="M121.969 95.0202H114.142C113.377 95.0202 112.76 94.4159 112.76 93.6672C112.76 92.9186 113.377 92.3142 114.142 92.3142H121.969C122.734 92.3142 123.351 92.9186 123.351 93.6672C123.351 94.4159 122.734 95.0202 121.969 95.0202Z" fill="#B396FB"/>
</g>
<g id="Group_48">
<path id="Vector_44" d="M137.207 95.0202H129.381C128.616 95.0202 127.998 94.4159 127.998 93.6672C127.998 92.9186 128.616 92.3142 129.381 92.3142H137.207C137.972 92.3142 138.589 92.9186 138.589 93.6672C138.589 94.4159 137.969 95.0202 137.207 95.0202Z" fill="#B396FB"/>
</g>
<g id="Group_49">
<path id="Vector_45" d="M118.363 53.3595V53.3565C117.8 53.3625 117.34 52.9927 117.337 52.5326C117.331 52.0726 117.785 51.6938 118.347 51.6878C118.817 51.6817 119.217 51.9403 119.336 52.2921C119.382 52.4214 119.508 52.5086 119.65 52.5056C119.871 52.5026 120.031 52.2891 119.96 52.0846C119.769 51.5404 119.229 51.1285 118.571 51.0563L118.565 50.3528L118.237 50.3558C118.055 50.3588 117.911 50.5031 117.911 50.6805L117.914 51.0984C117.198 51.2728 116.673 51.8531 116.679 52.5386C116.689 53.3234 117.395 53.9578 118.274 53.9939V53.9969C118.836 53.9909 119.296 54.3607 119.299 54.8207C119.306 55.2807 118.851 55.6596 118.292 55.6656C117.822 55.6716 117.423 55.413 117.303 55.0612C117.257 54.932 117.131 54.8448 116.99 54.8478C116.765 54.8508 116.609 55.0673 116.682 55.2747C116.864 55.7919 117.358 56.1827 117.969 56.285L117.972 56.5736C117.976 56.751 118.123 56.8923 118.304 56.8923C118.485 56.8893 118.63 56.745 118.63 56.5676L118.627 56.282C119.392 56.1376 119.966 55.5363 119.957 54.8207C119.945 54.03 119.241 53.3955 118.363 53.3595Z" fill="#5214EB"/>
</g>
</g>
<g id="Group_50">
<g id="Group_51">
<path id="Vector_46" d="M68.3318 25.5087C75.528 25.5087 81.3617 19.7984 81.3617 12.7543C81.3617 5.71032 75.528 0 68.3318 0C61.1356 0 55.3019 5.71032 55.3019 12.7543C55.3019 19.7984 61.1356 25.5087 68.3318 25.5087Z" fill="#6B40D7"/>
</g>
<g id="Group_52">
<path id="Vector_47" d="M67.0294 25.5294C74.2256 25.5294 80.0593 19.8191 80.0593 12.7751C80.0593 5.73107 74.2256 0.020752 67.0294 0.020752C59.8331 0.020752 53.9995 5.73107 53.9995 12.7751C53.9995 19.8191 59.8331 25.5294 67.0294 25.5294Z" fill="#7E4EF3"/>
</g>
<g id="Group_53">
<path id="Vector_48" d="M67.0294 23.1937C72.9075 23.1937 77.6726 18.5294 77.6726 12.7756C77.6726 7.02179 72.9075 2.35742 67.0294 2.35742C61.1513 2.35742 56.3862 7.02179 56.3862 12.7756C56.3862 18.5294 61.1513 23.1937 67.0294 23.1937Z" fill="#9F83E5"/>
</g>
<g id="Group_54">
<path id="Vector_49" d="M67.1369 12.1442V12.1351C65.7946 12.1532 64.6918 11.2782 64.6765 10.1808C64.6611 9.08336 65.7362 8.17534 67.0785 8.1573C68.4177 8.13926 69.5235 9.01421 69.5389 10.1116L71.1085 10.0906C71.0809 8.31064 69.5542 6.86142 67.6068 6.65095L67.5823 4.97021L66.0126 4.99126L66.0403 6.75318C64.3325 7.17712 63.0854 8.56921 63.1099 10.2018C63.1376 12.078 64.8301 13.5874 66.928 13.6625V13.6716C68.2672 13.6535 69.373 14.5285 69.3884 15.6259C69.4037 16.7233 68.3287 17.6314 66.9864 17.6524C65.6471 17.6704 64.5413 16.7955 64.526 15.6981L62.9564 15.7191C62.9809 17.4269 64.3877 18.834 66.2246 19.1317L66.2461 20.5839L67.8157 20.5629L67.7942 19.1106C69.6218 18.7619 70.9826 17.3157 70.958 15.6079C70.9273 13.7317 69.2348 12.2223 67.1369 12.1442Z" fill="#6B40D7"/>
</g>
</g>
</g>
<defs>
<filter id="filter0_b_2914_1571" x="60.5406" y="24.8353" width="119.206" height="93.1505" filterUnits="userSpaceOnUse" color-interpolation-filters="sRGB">
<feFlood flood-opacity="0" result="BackgroundImageFix"/>
<feGaussianBlur in="BackgroundImageFix" stdDeviation="6.4"/>
<feComposite in2="SourceAlpha" operator="in" result="effect1_backgroundBlur_2914_1571"/>
<feBlend mode="normal" in="SourceGraphic" in2="effect1_backgroundBlur_2914_1571" result="shape"/>
</filter>
<filter id="filter1_b_2914_1571" x="6.59678" y="58.745" width="70.2967" height="51.8436" filterUnits="userSpaceOnUse" color-interpolation-filters="sRGB">
<feFlood flood-opacity="0" result="BackgroundImageFix"/>
<feGaussianBlur in="BackgroundImageFix" stdDeviation="4.8"/>
<feComposite in2="SourceAlpha" operator="in" result="effect1_backgroundBlur_2914_1571"/>
<feBlend mode="normal" in="SourceGraphic" in2="effect1_backgroundBlur_2914_1571" result="shape"/>
</filter>
</defs>
</svg>
