<svg width="154" height="118" viewBox="0 0 154 118" fill="none" xmlns="http://www.w3.org/2000/svg">
<g filter="url(#filter0_b_2913_972)">
<path d="M145.373 117.908H20.6232C15.8586 117.908 11.9958 114.102 11.9958 109.408V8.4996C11.9958 3.80552 15.8586 0 20.6232 0H145.373C150.137 0 154 3.80552 154 8.4996V109.408C154 114.102 150.137 117.908 145.373 117.908Z" fill="#DCDCDC" fill-opacity="0.21"/>
</g>
<path d="M154 10.8213H11.9958V8.4996C11.9958 3.80552 15.8586 0 20.6232 0H145.373C150.137 0 154 3.80552 154 8.4996V10.8213Z" fill="#000C39"/>
<path d="M20.9639 5.84643C21.3895 4.8342 20.9016 3.67374 19.8742 3.25446C18.8467 2.83518 17.6688 3.31586 17.2432 4.32809C16.8177 5.34031 17.3056 6.50078 18.333 6.92006C19.3605 7.33934 20.5384 6.85866 20.9639 5.84643Z" fill="#48CBFF"/>
<path d="M29.1435 5.55043C29.399 4.48412 28.7288 3.4156 27.6465 3.16381C26.5641 2.91202 25.4796 3.57232 25.224 4.63862C24.9684 5.70493 25.6386 6.77345 26.721 7.02524C27.8033 7.27703 28.8879 6.61673 29.1435 5.55043Z" fill="#C9F2FF"/>
<path d="M36.3172 6.78351C37.2632 6.20756 37.5562 4.9851 36.9716 4.05307C36.387 3.12104 35.1462 2.83237 34.2001 3.40832C33.2541 3.98427 32.9611 5.20673 33.5457 6.13877C34.1303 7.0708 35.3712 7.35946 36.3172 6.78351Z" fill="#040C1D"/>
<path d="M76.7268 81.1014H26.8866C23.0753 81.1014 19.9847 78.0575 19.9847 74.3017V25.5187C19.9847 21.7638 23.0744 18.719 26.8866 18.719H76.7268C80.5382 18.719 83.6287 21.7629 83.6287 25.5187V74.3026C83.6287 78.0575 80.5382 81.1014 76.7268 81.1014Z" fill="#1E2351"/>
<path d="M67.6282 65.5432C76.3611 56.9393 76.3608 42.9899 67.6276 34.3864C58.8944 25.7828 44.7354 25.783 36.0025 34.3869C27.2696 42.9908 27.2698 56.9401 36.003 65.5437C44.7362 74.1473 58.8953 74.147 67.6282 65.5432Z" fill="#FFFFFD"/>
<path d="M61.4169 59.4194C66.7191 54.1956 66.7189 45.7261 61.4165 40.5024C56.1141 35.2787 47.5174 35.2789 42.2151 40.5027C36.9129 45.7266 36.9131 54.1961 42.2155 59.4198C47.5179 64.6435 56.1146 64.6433 61.4169 59.4194Z" fill="#3F53FF"/>
<path d="M53.6234 54.2527C56.0306 53.2704 57.1736 50.5516 56.1766 48.1801C55.1795 45.8086 52.4198 44.6824 50.0127 45.6647C47.6056 46.647 46.4625 49.3658 47.4595 51.7373C48.4566 54.1088 51.2163 55.235 53.6234 54.2527Z" fill="#FFFFFD"/>
<path d="M51.306 48.0943L50.7062 45.2134C50.5721 44.5701 49.7659 44.3317 49.295 44.7965L48.5628 45.5179L35.7463 32.8388L35.9195 32.669V28.6276C35.9195 28.3651 35.8142 28.113 35.627 27.926L31.4709 23.7766C30.8336 23.1402 29.7332 23.5862 29.7358 24.4807L29.7428 26.9002L29.6618 26.8205C29.1726 26.3367 28.3786 26.335 27.8867 26.817C27.3957 27.299 27.394 28.0813 27.8833 28.5658L27.9007 28.583L25.7669 28.4552C24.8485 28.4003 24.3366 29.481 24.9695 30.1388L28.928 34.2548C29.1186 34.4529 29.3833 34.5653 29.6601 34.567L33.9651 34.5825L46.7868 47.2667L46.113 47.9305C45.6299 48.4065 45.898 49.2205 46.5718 49.3277L49.6362 49.8123C50.6496 49.9709 51.5114 49.0841 51.306 48.0943ZM79.3758 109.493H24.2478C21.865 109.493 19.9341 107.591 19.9341 105.243V93.3798C19.9341 91.0323 21.865 89.13 24.2478 89.13H79.3758C81.7585 89.13 83.6895 91.0323 83.6895 93.3798V105.243C83.6895 107.591 81.7577 109.493 79.3758 109.493Z" fill="#48CBFF"/>
<path d="M38.2371 105.977C35.9745 105.977 34.2159 104.55 33.2513 103.768C32.5592 103.206 31.6721 102.952 30.96 102.839C30.2269 102.722 29.6846 102.276 29.6445 101.736C29.5853 100.938 30.6126 100.316 31.6851 100.514C32.7063 100.702 33.9182 101.095 34.9124 101.901C35.6097 102.467 37.0618 103.643 38.3685 103.569C39.1921 103.522 40.0522 102.995 40.9271 102.003C43.955 98.5728 45.1694 97.7837 47.4251 97.7837C49.2776 97.7837 50.6819 98.3292 52.2724 99.6672C52.3804 99.7581 54.7718 101.792 56.0986 101.792C56.9839 101.792 58.5231 101.395 60.8214 99.5008C62.2822 98.2974 63.4636 97.7837 64.7721 97.7837C67.3324 97.7837 70.2767 100.239 73.5744 102.973C73.8617 103.211 74.1124 103.471 74.1124 103.787V103.853C74.1124 104.713 72.6708 105.462 71.7906 104.882C70.1914 103.827 66.0701 100.189 64.7721 100.189C64.5379 100.189 63.9146 100.189 62.4955 101.358C60.1772 103.269 58.0843 104.197 56.0986 104.197C53.7411 104.197 52.2315 102.913 50.8995 101.78C50.7942 101.69 50.6888 101.6 50.5844 101.512C49.2681 100.405 48.4297 100.189 47.4259 100.189C46.4909 100.189 45.8728 100.189 42.8041 103.666C41.5348 105.103 40.1027 105.878 38.547 105.968C38.4425 105.975 38.3389 105.977 38.2371 105.977Z" fill="#FFFFFD"/>
<path d="M64.8828 99.3865C64.8828 99.7999 64.5764 100.185 64.0732 100.383C63.6701 100.543 63.1312 100.832 62.494 101.357C60.1765 103.267 58.0836 104.196 56.0979 104.196C53.7404 104.196 52.2308 102.912 50.898 101.779C50.7935 101.688 50.689 101.601 50.5819 101.511C49.2674 100.405 48.4273 100.188 47.4235 100.188C46.4894 100.188 45.8713 100.188 42.8025 103.665C41.5323 105.103 40.1003 105.877 38.5463 105.967C38.4418 105.973 38.3374 105.977 38.2346 105.977C35.9729 105.977 34.2135 104.55 33.2489 103.767C32.5568 103.206 31.6696 102.953 30.9584 102.839C30.2262 102.722 29.6839 102.276 29.6438 101.736C29.5838 100.938 30.611 100.314 31.6844 100.513C32.7056 100.701 33.9183 101.094 34.9125 101.901C35.609 102.467 37.0611 103.642 38.3687 103.569C39.1914 103.52 40.0524 102.995 40.9264 102.003C43.9551 98.5717 45.1696 97.7835 47.4252 97.7835C49.2778 97.7835 50.6829 98.3289 52.2735 99.6678C52.3805 99.7578 52.4894 99.8487 52.5956 99.9422C53.7143 100.893 54.7703 101.792 56.0979 101.792C56.9832 101.792 58.6338 101.462 60.8216 99.5014C61.3605 99.0177 61.9211 98.6703 62.447 98.4207C63.4925 97.9241 64.8828 98.485 64.8828 99.3865ZM42.4029 93.815H30.2811C29.9024 93.815 29.5959 94.1169 29.5959 94.49C29.5959 94.8631 29.9024 95.165 30.2811 95.165H42.4029C42.7816 95.165 43.0881 94.8631 43.0881 94.49C43.0881 94.1177 42.7816 93.815 42.4029 93.815ZM30.322 92.5936H35.7901C36.1688 92.5936 36.4752 92.2917 36.4752 91.9187C36.4752 91.5456 36.1688 91.2437 35.7901 91.2437H30.322C29.9433 91.2437 29.6369 91.5456 29.6369 91.9187C29.6369 92.2917 29.9433 92.5936 30.322 92.5936Z" fill="#FFFFFD"/>
<path d="M140.915 109.468H96.5647C94.1819 109.468 92.251 107.565 92.251 105.218V93.2576C92.251 90.9101 94.1819 89.0078 96.5647 89.0078H140.915C143.298 89.0078 145.229 90.9101 145.229 93.2576V105.218C145.229 107.565 143.297 109.468 140.915 109.468Z" fill="#3F53FF"/>
<path d="M135.673 98.7757H101.785C101.232 98.7757 100.784 99.2174 100.784 99.762V99.8649C100.784 100.41 101.232 100.851 101.785 100.851H135.673C136.226 100.851 136.674 100.41 136.674 99.8649V99.762C136.674 99.2165 136.226 98.7757 135.673 98.7757ZM101.898 96.8991H118.727C119.279 96.8991 119.728 96.4574 119.728 95.9127V95.8098C119.728 95.2652 119.279 94.8235 118.727 94.8235H101.898C101.345 94.8235 100.896 95.2652 100.896 95.8098V95.9127C100.896 96.4574 101.345 96.8991 101.898 96.8991ZM135.673 102.754H101.893C101.34 102.754 100.892 103.195 100.892 103.74V103.843C100.892 104.387 101.34 104.829 101.893 104.829H135.673C136.226 104.829 136.674 104.387 136.674 103.843V103.74C136.674 103.194 136.226 102.754 135.673 102.754Z" fill="#FFFFFD"/>
<path d="M139.592 44.3055H97.4915C94.6325 44.3055 92.3151 42.0223 92.3151 39.2057V23.7675C92.3151 20.9509 94.6325 18.6677 97.4915 18.6677H139.592C142.451 18.6677 144.769 20.9509 144.769 23.7675V39.2057C144.769 42.0223 142.45 44.3055 139.592 44.3055Z" fill="#3F53FF"/>
<path d="M115.356 38.7648C119.45 34.731 119.45 28.191 115.355 24.1573C111.261 20.1237 104.623 20.1238 100.528 24.1576C96.4341 28.1914 96.4342 34.7314 100.529 38.765C104.623 42.7987 111.261 42.7986 115.356 38.7648Z" fill="#FFFFFD"/>
<path d="M118.429 31.4642C118.429 35.0021 116.622 38.125 113.87 39.9861L107.93 31.4385L117.921 28.2822C118.251 29.2849 118.429 30.3544 118.429 31.4642Z" fill="#48CBFF"/>
<path d="M117.921 28.2828L107.93 31.439V21.1357H107.944C112.608 21.1357 116.56 24.1359 117.921 28.2828Z" fill="#000C39"/>
<path d="M125.741 26.911H124.405C123.929 26.911 123.542 26.5302 123.542 26.061V24.7445C123.542 24.2753 123.929 23.8945 124.405 23.8945H125.741C126.217 23.8945 126.604 24.2753 126.604 24.7445V26.061C126.604 26.5302 126.217 26.911 125.741 26.911Z" fill="#FFFFFD"/>
<path d="M125.741 32.9454H124.405C123.929 32.9454 123.542 32.5646 123.542 32.0955V30.7789C123.542 30.3098 123.929 29.929 124.405 29.929H125.741C126.218 29.929 126.604 30.3098 126.604 30.7789V32.0955C126.604 32.5646 126.218 32.9454 125.741 32.9454Z" fill="#48CBFF"/>
<path d="M125.741 38.9757H124.405C123.929 38.9757 123.542 38.5949 123.542 38.1257V36.8092C123.542 36.34 123.929 35.9592 124.405 35.9592H125.741C126.218 35.9592 126.604 36.34 126.604 36.8092V38.1257C126.604 38.5949 126.218 38.9757 125.741 38.9757Z" fill="#000C39"/>
<path d="M139.027 24.8547H129.756C129.431 24.8547 129.166 25.1146 129.166 25.4362C129.166 25.757 129.43 26.0177 129.756 26.0177H139.027C139.352 26.0177 139.617 25.7579 139.617 25.4362C139.617 25.1155 139.352 24.8547 139.027 24.8547ZM139.027 30.8877H129.756C129.431 30.8877 129.166 31.1475 129.166 31.4692C129.166 31.7899 129.43 32.0507 129.756 32.0507H139.027C139.352 32.0507 139.617 31.7908 139.617 31.4692C139.617 31.1475 139.352 30.8877 139.027 30.8877ZM139.027 36.9197H129.756C129.431 36.9197 129.166 37.1796 129.166 37.5012C129.166 37.822 129.43 38.0827 129.756 38.0827H139.027C139.352 38.0827 139.617 37.8228 139.617 37.5012C139.617 37.1796 139.352 36.9197 139.027 36.9197Z" fill="#FFFFFD"/>
<path d="M139.592 81.0991H97.4915C94.6325 81.0991 92.3151 78.816 92.3151 75.9994V57.9753C92.3151 55.1586 94.6325 52.8755 97.4915 52.8755H139.592C142.451 52.8755 144.769 55.1586 144.769 57.9753V75.9994C144.769 78.816 142.45 81.0991 139.592 81.0991Z" fill="#C9F2FF"/>
<path d="M121.851 63.0456H121.603C120.832 63.0456 120.206 63.6622 120.206 64.4221V75.4802C120.206 76.2401 120.832 76.8568 121.603 76.8568H121.851C122.623 76.8568 123.248 76.2401 123.248 75.4802V64.4221C123.248 63.6622 122.622 63.0456 121.851 63.0456ZM128.226 57.1584H127.978C127.207 57.1584 126.581 57.7751 126.581 58.535V75.4793C126.581 76.2392 127.207 76.8559 127.978 76.8559H128.226C128.997 76.8559 129.623 76.2392 129.623 75.4793V58.535C129.623 57.7751 128.997 57.1584 128.226 57.1584ZM134.601 66.2155H134.354C133.582 66.2155 132.956 66.8322 132.956 67.5921V75.4802C132.956 76.2401 133.582 76.8568 134.354 76.8568H134.601C135.372 76.8568 135.998 76.2401 135.998 75.4802V67.5921C135.998 66.8314 135.373 66.2155 134.601 66.2155ZM102.724 57.1584H102.477C101.706 57.1584 101.08 57.7751 101.08 58.535V75.4793C101.08 76.2392 101.706 76.8559 102.477 76.8559H102.724C103.496 76.8559 104.121 76.2392 104.121 75.4793V58.535C104.121 57.7751 103.496 57.1584 102.724 57.1584ZM109.099 66.2155H108.852C108.081 66.2155 107.455 66.8322 107.455 67.5921V75.4802C107.455 76.2401 108.081 76.8568 108.852 76.8568H109.099C109.871 76.8568 110.497 76.2401 110.497 75.4802V67.5921C110.497 66.8314 109.871 66.2155 109.099 66.2155ZM115.475 57.1584H115.228C114.457 57.1584 113.831 57.7751 113.831 58.535V75.4793C113.831 76.2392 114.457 76.8559 115.228 76.8559H115.475C116.248 76.8559 116.873 76.2392 116.873 75.4793V58.535C116.873 57.7751 116.247 57.1584 115.475 57.1584Z" fill="#7740FF"/>
<path d="M35.5357 62.0566L1.02674 88.4174C-0.122112 89.2936 -0.339044 90.9131 0.539384 92.0511C1.42494 93.1984 3.09027 93.4252 4.26112 92.5583L39.3026 66.5474L35.5357 62.0566Z" fill="#7740FF"/>
<path d="M52.7044 25.8949C38.9389 25.5338 27.4831 36.2342 27.1166 49.7958C26.75 63.3574 37.6122 74.6436 51.3768 75.0047C65.1422 75.3658 76.5981 64.6645 76.9646 51.1038C77.3311 37.543 66.469 26.2559 52.7044 25.8949ZM51.5709 67.8105C41.8388 67.5549 34.1595 59.5759 34.4189 49.9879C34.6783 40.3999 42.7773 32.8343 52.5094 33.0899C62.2415 33.3455 69.9208 41.3245 69.6614 50.9125C69.4028 60.4996 61.303 68.0652 51.5709 67.8105Z" fill="#7740FF"/>
<defs>
<filter id="filter0_b_2913_972" x="-0.804151" y="-12.8" width="167.604" height="143.508" filterUnits="userSpaceOnUse" color-interpolation-filters="sRGB">
<feFlood flood-opacity="0" result="BackgroundImageFix"/>
<feGaussianBlur in="BackgroundImageFix" stdDeviation="6.4"/>
<feComposite in2="SourceAlpha" operator="in" result="effect1_backgroundBlur_2913_972"/>
<feBlend mode="normal" in="SourceGraphic" in2="effect1_backgroundBlur_2913_972" result="shape"/>
</filter>
</defs>
</svg>
