<svg width="14" height="16" viewBox="0 0 14 16" fill="none" xmlns="http://www.w3.org/2000/svg">
<path d="M13.3453 6.22224C13.24 5.12643 12.8527 4.07656 12.2212 3.17486C11.5896 2.27316 10.7354 1.55037 9.74152 1.07686C8.74769 0.60336 7.64819 0.395284 6.55006 0.472896C5.45194 0.550508 4.39263 0.911164 3.47528 1.51974C2.68717 2.04673 2.02557 2.74172 1.53798 3.55479C1.0504 4.36786 0.748948 5.27882 0.655277 6.22224C0.563389 7.15949 0.681282 8.10543 1.0004 8.99145C1.31953 9.87747 1.83187 10.6813 2.50028 11.3447L6.47528 15.3272C6.545 15.3975 6.62795 15.4533 6.71934 15.4914C6.81074 15.5295 6.90877 15.5491 7.00778 15.5491C7.10679 15.5491 7.20481 15.5295 7.29621 15.4914C7.3876 15.4533 7.47055 15.3975 7.54028 15.3272L11.5003 11.3447C12.1687 10.6813 12.681 9.87747 13.0002 8.99145C13.3193 8.10543 13.4372 7.15949 13.3453 6.22224ZM10.4503 10.2872L7.00028 13.7372L3.55028 10.2872C3.04184 9.77878 2.65238 9.16399 2.40988 8.48706C2.16738 7.81014 2.07787 7.08789 2.14778 6.37224C2.21814 5.64557 2.4491 4.94361 2.82395 4.31713C3.19881 3.69064 3.70819 3.15527 4.31528 2.74974C5.11099 2.22117 6.04501 1.93921 7.00028 1.93921C7.95555 1.93921 8.88957 2.22117 9.68528 2.74974C10.2905 3.15371 10.7988 3.6867 11.1735 4.31045C11.5483 4.93419 11.7803 5.63319 11.8528 6.35724C11.925 7.07531 11.8366 7.80045 11.594 8.48015C11.3514 9.15986 10.9608 9.77712 10.4503 10.2872ZM7.00028 3.49974C6.33277 3.49974 5.68024 3.69768 5.12523 4.06853C4.57021 4.43938 4.13763 4.96649 3.88218 5.58319C3.62674 6.19989 3.5599 6.87849 3.69013 7.53317C3.82035 8.18786 4.14179 8.78923 4.61379 9.26123C5.08579 9.73323 5.68716 10.0547 6.34185 10.1849C6.99653 10.3151 7.67513 10.2483 8.29183 9.99284C8.90853 9.73739 9.43564 9.30481 9.80649 8.74979C10.1773 8.19478 10.3753 7.54226 10.3753 6.87474C10.3733 5.98025 10.0171 5.12295 9.38457 4.49045C8.75207 3.85794 7.89477 3.50172 7.00028 3.49974ZM7.00028 8.74974C6.62944 8.74974 6.26693 8.63978 5.95858 8.43375C5.65024 8.22772 5.40992 7.93489 5.268 7.59228C5.12609 7.24966 5.08896 6.87266 5.1613 6.50895C5.23365 6.14523 5.41223 5.81114 5.67445 5.54892C5.93668 5.2867 6.27077 5.10812 6.63448 5.03577C6.9982 4.96342 7.3752 5.00056 7.71781 5.14247C8.06042 5.28438 8.35325 5.52471 8.55928 5.83305C8.76531 6.14139 8.87528 6.5039 8.87528 6.87474C8.87528 7.37202 8.67773 7.84894 8.3261 8.20057C7.97447 8.5522 7.49756 8.74974 7.00028 8.74974Z" fill="#1569E7"/>
</svg>
