<svg width="103" height="29" viewBox="0 0 103 29" fill="none" xmlns="http://www.w3.org/2000/svg">
<path d="M0.046875 11.1094V17.6175C0.924578 17.5867 1.75609 17.2138 2.3597 16.576C2.96023 15.9412 3.2836 15.0938 3.25896 14.2217C3.24356 13.3897 2.89864 12.5947 2.29811 12.0123C1.69757 11.4299 0.890702 11.1063 0.0499547 11.1094H0.046875Z" fill="#2237CA"/>
<path d="M0.046875 10.2184V9.50045C0.838347 9.34329 1.66062 9.41108 2.41821 9.70074C3.37291 10.0335 4.20134 10.6437 4.79879 11.4541C5.39624 12.2646 5.72885 13.2352 5.75964 14.2367C5.78736 15.2567 5.49171 16.2613 4.90966 17.1056C4.3276 17.9499 3.49301 18.5909 2.526 18.936C1.74993 19.2349 0.899941 19.2811 0.0961495 19.0654V18.3844C0.810631 18.4399 1.53127 18.3289 2.1934 18.0547C2.90788 17.725 3.51149 17.198 3.93033 16.5386C4.34916 15.8792 4.57089 15.1119 4.56166 14.3292C4.5555 13.5495 4.3276 12.7884 3.91185 12.129C3.49609 11.4695 2.89864 10.9364 2.1934 10.5944C1.52203 10.2955 0.782914 10.1661 0.0499547 10.2184H0.046875Z" fill="#2237CA"/>
<path d="M0.0499547 9.10326V8.72731C1.05084 8.29898 2.15952 8.19421 3.22508 8.42224C4.59861 8.69034 5.83664 9.42373 6.72974 10.493C7.62284 11.5623 8.1125 12.9089 8.11866 14.2956C8.14022 15.6853 7.66595 17.0412 6.77593 18.1166C5.88591 19.1921 4.64173 19.9193 3.25896 20.172C2.1934 20.4216 1.07548 20.3569 0.046875 19.984V19.5126C1.04468 19.8053 2.10717 19.8053 3.10498 19.5126C4.24753 19.189 5.2515 18.5018 5.96598 17.562C6.68046 16.619 7.06542 15.4727 7.06234 14.2956C7.08082 13.1215 6.71126 11.9752 6.0091 11.0323C5.30693 10.0863 4.3122 9.39908 3.17581 9.06936C2.15952 8.73348 1.06316 8.73348 0.046875 9.06936V9.10326H0.0499547Z" fill="#2237CA"/>
<path d="M0.046875 8.26841V7.9048C1.24486 7.2053 2.66151 6.96186 4.02887 7.22378C5.76272 7.47339 7.34567 8.33004 8.50054 9.63352C9.65541 10.937 10.3052 12.6072 10.3299 14.3451C10.2867 16.0862 9.6277 17.7564 8.46666 19.0629C7.30563 20.3695 5.71653 21.2292 3.9796 21.4881C2.63687 21.7068 1.25718 21.4911 0.046875 20.8779V20.4773C1.25718 20.9704 2.58451 21.1152 3.87489 20.8995C5.40856 20.616 6.79749 19.8117 7.80146 18.6253C8.80543 17.439 9.35977 15.9413 9.37208 14.3944C9.3844 12.8475 8.8547 11.3407 7.86921 10.1389C6.8868 8.9371 5.51019 8.10818 3.9796 7.80003C2.65227 7.54118 1.27566 7.70758 0.046875 8.27149V8.26841Z" fill="#2237CA"/>
<path d="M0.0499547 7.44379V7.2096C1.50047 6.28823 3.23432 5.90304 4.94353 6.11566C7.00998 6.31904 8.92553 7.27123 10.3299 8.79041C11.7342 10.3065 12.5226 12.2848 12.5503 14.3402C12.578 16.4325 11.7989 18.454 10.3761 19.9978C8.95325 21.5417 6.98843 22.4877 4.88502 22.6448C3.18197 22.8605 1.46044 22.4415 0.0499547 21.4708V21.2243C1.37421 22.0039 2.91096 22.3583 4.44463 22.235C4.66944 22.2227 4.89734 22.2011 5.11907 22.1641C6.99767 21.8406 8.69456 20.8637 9.91102 19.4093C11.1275 17.9548 11.7804 16.1182 11.7527 14.2293C11.7249 12.3403 11.0197 10.5222 9.7632 9.10164C8.5067 7.68107 6.77901 6.75353 4.89426 6.48236C3.28668 6.24817 1.64214 6.55015 0.225495 7.33902L0.046875 7.44379H0.0499547Z" fill="#2237CA"/>
<path fill-rule="evenodd" clip-rule="evenodd" d="M0.046875 6.72822V6.52792C1.72837 5.31073 3.78558 4.71292 5.86435 4.83618C8.3404 4.94403 10.6717 6.00715 12.3686 7.7975C14.0624 9.58785 14.9832 11.9668 14.9309 14.4227C14.8878 16.8848 13.9146 19.2422 12.2054 21.0295C10.4962 22.8167 8.17718 23.9045 5.69805 24.0802C3.63776 24.1541 1.62058 23.4608 0.046875 22.1419V21.8954C1.70989 23.1711 3.78866 23.8028 5.88899 23.6703C10.2498 23.4823 14.1825 19.2422 14.1825 14.4227C14.2379 12.1393 13.4218 9.91757 11.9005 8.20426C10.3791 6.48786 8.26341 5.40318 5.97214 5.1659C3.88105 5.01491 1.79612 5.55725 0.046875 6.70357V6.72822Z" fill="#2237CA"/>
<path fill-rule="evenodd" clip-rule="evenodd" d="M0.046875 6.08227V5.88197C2.02094 4.295 4.5247 3.49997 7.06234 3.65097C9.85559 3.80812 12.4856 5.02223 14.4073 7.03754C16.329 9.05284 17.4008 11.7245 17.4008 14.5009C17.4008 17.2774 16.329 19.9459 14.4073 21.9643C12.4856 23.9827 9.85867 25.1937 7.06234 25.3509C4.49698 25.3601 2.0117 24.4634 0.046875 22.8241V22.5529C1.9963 24.0998 4.42307 24.9287 6.92068 24.9041C12.692 24.5867 16.5908 20.2972 16.8249 14.3284C16.7602 11.7091 15.7316 9.20383 13.9331 7.28406C12.1345 5.36428 9.69237 4.1625 7.06234 3.90673C4.65405 3.76498 2.27039 4.46756 0.333283 5.89122L0.0499547 6.07919L0.046875 6.08227Z" fill="#2237CA"/>
<path d="M0.046875 5.29373C2.31043 3.22605 5.2669 2.06432 8.34348 2.02734C14.897 2.02734 20.194 7.70347 20.194 14.4242C20.2217 17.6259 18.9806 20.7074 16.7386 23.0093C14.4966 25.3112 11.4293 26.6455 8.20181 26.7256C5.19299 26.6393 2.30735 25.5145 0.0499547 23.5424V23.3205C2.32582 25.1139 5.1006 26.1709 8.00164 26.3527C9.55686 26.3527 11.0936 26.0446 12.5257 25.4437C13.9577 24.8428 15.2542 23.9645 16.3352 22.8583C17.4192 21.752 18.2661 20.4424 18.8297 19.0064C19.3933 17.5704 19.6581 16.0358 19.612 14.4951C19.612 7.87911 14.7184 2.48649 7.977 2.47416C5.06056 2.58201 2.26423 3.6667 0.0499547 5.55258V5.29373H0.046875Z" fill="#2237CA"/>
<path fill-rule="evenodd" clip-rule="evenodd" d="M22.6774 14.399C22.7144 12.6426 22.3972 10.8954 21.7443 9.2591C21.0914 7.62591 20.1151 6.13754 18.8771 4.88029C17.6391 3.62304 16.1578 2.62463 14.5225 1.94362C12.8872 1.26261 11.1348 0.911317 9.36096 0.908235C7.64559 0.91748 5.9487 1.26261 4.37192 1.92513C2.78897 2.59073 1.35693 3.55524 0.152783 4.76627L0.0234375 4.8957V4.6615L0.081951 4.60295C1.27378 3.33338 2.71506 2.31956 4.31648 1.62314C5.91791 0.926724 7.64559 0.560026 9.39484 0.550781C11.2149 0.556944 13.0134 0.920561 14.6888 1.62006C16.3672 2.31956 17.8885 3.33954 19.1666 4.62144C20.4447 5.90335 21.4579 7.42253 22.1416 9.09578C22.8283 10.766 23.1732 12.5532 23.1609 14.359C23.1609 21.8902 17.0108 27.9176 10.3033 28.0224C8.42167 28.1025 6.54308 27.8036 4.77843 27.1472C3.01379 26.4878 1.40312 25.4832 0.0419155 24.1921V23.9086C2.54876 26.2382 5.83783 27.5601 9.27166 27.6218C16.0007 28.0224 22.6743 21.8285 22.6743 14.4052L22.6774 14.399Z" fill="#2237CA"/>
<path d="M28.8672 5.52943V12.167H26V1.58203H28.7378L31.7836 5.42466V1.58203H34.6046V12.167H31.7836V9.19334L28.8702 5.52635L28.8672 5.52943Z" fill="#231F20"/>
<path d="M44.3047 1.58199V12.1577H40.951C40.2242 12.1762 39.4943 12.1454 38.7706 12.0622C38.361 12.0159 37.9606 11.9112 37.5849 11.7448C36.9104 11.452 36.3592 10.9313 36.0327 10.2749C35.6447 9.48911 35.4568 8.62321 35.4876 7.74807C35.5 6.77431 35.6539 5.8098 35.9496 4.88227C36.313 3.73595 36.7903 2.62353 37.3724 1.56966H40.335C39.7653 2.7129 39.2664 3.89003 38.8414 5.0949C38.5673 5.8776 38.4164 6.69728 38.3918 7.5262C38.3486 8.13326 38.5273 8.73415 38.8999 9.21794C39.1062 9.409 39.3526 9.55383 39.6205 9.64627C39.8885 9.73872 40.1718 9.77261 40.452 9.74796H41.4345V1.52344L44.3016 1.58199H44.3047Z" fill="#231F20"/>
<path d="M51.6366 12.1682C50.8328 12.1775 50.0352 12.0635 49.2653 11.8262C48.5878 11.5858 47.9657 11.2099 47.439 10.723C46.7492 10.1067 46.201 9.34865 45.8407 8.50124C45.4496 7.63534 45.2525 6.69856 45.2587 5.75254C45.2463 5.10542 45.3695 4.46139 45.6128 3.8605C45.8253 3.32124 46.1702 2.8436 46.6199 2.47382C47.0141 2.15027 47.476 1.91915 47.9718 1.79281C48.6463 1.63566 49.3392 1.56478 50.0321 1.58019H51.6921L52.3788 3.99917H50.3278C49.7088 3.94678 49.0897 4.10394 48.5754 4.44598C48.3876 4.6432 48.2428 4.88048 48.1535 5.13624C48.0642 5.39509 48.0303 5.66626 48.055 5.93743C48.0334 6.46437 48.1289 6.98514 48.3352 7.47202C48.5385 7.95581 48.8495 8.3903 49.2407 8.74468C50.0937 9.47191 51.1993 9.84477 52.3203 9.78006H52.5451L51.8214 12.1312L51.6305 12.1651L51.6366 12.1682Z" fill="#231F20"/>
<path d="M53.3937 1.58203H56.2609V9.58469H59.9688L59.2327 12.1701H53.3906V1.58203H53.3937Z" fill="#231F20"/>
<path d="M68.012 3.94246H63.7344V5.57566H67.6332L66.9218 7.97306H63.7344V9.7819H68.3662L67.5962 12.167H60.8672V1.58203H67.3591L68.012 3.94246Z" fill="#231F20"/>
<path d="M78.0836 1.58199V12.1577H74.6959C73.9691 12.1762 73.2393 12.1454 72.5155 12.0622C72.1059 12.0159 71.7056 11.9112 71.3299 11.7448C70.6554 11.4489 70.1072 10.9282 69.7777 10.2749C69.3989 9.48603 69.2172 8.62013 69.2449 7.74807C69.2573 6.77431 69.4112 5.8098 69.7069 4.88227C70.0795 3.73904 70.56 2.63586 71.142 1.58199H74.1293C73.5472 2.72214 73.0514 3.89927 72.6356 5.10722C72.3585 5.88992 72.2045 6.7096 72.186 7.53853C72.1367 8.13942 72.3123 8.74031 72.6849 9.21794C72.8913 9.409 73.1376 9.55691 73.4025 9.64627C73.6704 9.73872 73.9537 9.77261 74.2371 9.74488H75.2195V1.52344L78.0866 1.58199H78.0836Z" fill="#231F20"/>
<path d="M85.5748 4.00027H82.7539C82.6091 3.98794 82.4675 4.01568 82.3381 4.08347C82.295 4.11429 82.2611 4.15435 82.2365 4.20057C82.2149 4.24679 82.2026 4.29918 82.2057 4.35156C82.1903 4.42552 82.1903 4.50256 82.2057 4.57343C82.2673 4.66587 82.335 4.75216 82.409 4.83228L84.7772 7.41765C85.1037 7.76586 85.3716 8.1603 85.5718 8.59171C85.7473 8.95841 85.8366 9.359 85.8335 9.76576C85.8366 10.1355 85.7504 10.5022 85.5841 10.835C85.4301 11.1617 85.193 11.4452 84.8973 11.6578C84.6017 11.8612 84.266 12.0029 83.9149 12.0676C83.3267 12.1632 82.7323 12.2032 82.1379 12.1847H79.6958L78.9844 9.74111H82.101C82.2303 9.75343 82.3597 9.71954 82.4675 9.64558C82.5106 9.6086 82.5445 9.56546 82.566 9.51307C82.5876 9.46069 82.5999 9.4083 82.5968 9.34976C82.6091 9.28813 82.6091 9.22341 82.5968 9.16178C82.5537 9.07858 82.5013 8.99846 82.4428 8.92759L79.8836 6.09569C79.628 5.80603 79.4217 5.47631 79.28 5.12194C79.1414 4.78605 79.0675 4.4286 79.0675 4.06498C79.0675 3.78457 79.1106 3.50723 79.1969 3.24222C79.28 2.98338 79.4094 2.73994 79.5757 2.52423C79.8282 2.19759 80.17 1.94799 80.5581 1.80624C81.1463 1.64292 81.7591 1.57205 82.372 1.59362H84.9774L85.6303 4.0126L85.5718 3.98794L85.5748 4.00027Z" fill="#231F20"/>
<path d="M102.34 18.2192H98.0625V19.8647H101.961L101.25 22.2498H98.0625V24.071H102.694L101.924 26.456H95.1953V15.8711H101.687L102.34 18.2223V18.2192Z" fill="#231F20"/>
<path d="M91.5975 21.9098C92.0409 22.7479 92.5306 23.5584 93.0664 24.3411C93.55 25.0436 94.0889 25.7062 94.6771 26.3255L92.4598 28.0173C91.6406 27.0928 90.8984 26.1037 90.2455 25.056C89.5187 23.9004 88.875 22.6955 88.3268 21.4475C89.0044 21.0346 89.6357 20.5539 90.2116 20.0146C90.538 19.7311 90.7505 19.3367 90.8029 18.9115C90.806 18.8221 90.7906 18.7327 90.7536 18.6495C90.7167 18.5663 90.6612 18.4955 90.5904 18.44C90.4118 18.3106 90.1931 18.2489 89.9745 18.2643H84.8438L85.4966 15.9132H90.498C91.385 15.8608 92.2627 16.1073 92.9864 16.6188C93.282 16.853 93.5192 17.155 93.6731 17.497C93.8271 17.8391 93.898 18.215 93.8764 18.591C93.8795 19.2412 93.6824 19.879 93.3067 20.4121C92.8539 21.0377 92.2719 21.5646 91.6005 21.9498V21.9036L91.5975 21.9098Z" fill="#231F20"/>
<path d="M85.3438 18.793H88.2109V26.4536H85.3438V18.793Z" fill="#231F20"/>
<path d="M81.5783 15.8708H83.2968L83.9497 18.222H81.8062C80.9439 18.1758 80.0847 18.3761 79.3302 18.7982C78.6742 19.242 78.1846 19.8922 77.9444 20.644H80.6206V18.8106H83.5001V26.4588H80.6206V23.1092H77.6241C77.6456 23.6886 77.7534 24.2648 77.9444 24.8133C78.1353 25.3896 78.394 25.9411 78.7143 26.4588L76.4384 27.938C75.8995 27.1275 75.4683 26.2524 75.1573 25.331C74.8647 24.4743 74.7076 23.5807 74.6953 22.6748C74.6953 21.6887 74.877 20.7118 75.2404 19.7966C75.5484 18.9492 76.035 18.1788 76.6755 17.541C77.2607 16.9678 77.969 16.5333 78.7481 16.2714C79.6628 15.9756 80.6175 15.8307 81.5814 15.8492V15.8739L81.5783 15.8708Z" fill="#231F20"/>
<path d="M64.9955 22.9516L66.369 15.8672H69.1315L70.505 23.0224L71.8077 15.8672H74.8288L72.0325 26.4521H69.0114L67.7549 20.6374L66.4737 26.4521H63.4526L60.6562 15.8672H63.6651L64.9924 22.9516H64.9955Z" fill="#231F20"/>
<path d="M57.6234 26.4521H54.7562V18.3231H51.7812L52.4218 15.8672H59.9701L60.6106 18.3231H57.6234V26.4521Z" fill="#231F20"/>
<path d="M50.5957 15.8694L51.2486 18.2884H47.0911V19.9093H50.8821L50.1831 22.3529H47.0911V25.7118C47.1003 25.9614 47.1403 26.211 47.2081 26.4513L44.7659 28.0136C44.5442 27.6562 44.3995 27.2556 44.3379 26.8396C44.2301 26.06 44.187 25.2742 44.2085 24.4884V15.8633H50.5957V15.8694Z" fill="#231F20"/>
<path fill-rule="evenodd" clip-rule="evenodd" d="M36.2937 20.0403C36.2937 20.5364 36.343 21.0326 36.4477 21.5194C36.5431 22.0125 36.6941 22.4932 36.8973 22.9523C37.039 23.3129 37.2484 23.6457 37.5132 23.9261C37.7042 24.1295 37.969 24.2527 38.2493 24.2681C38.4279 24.2681 38.6004 24.2127 38.7482 24.1141C38.9176 24.0001 39.0654 23.8521 39.1763 23.6796C39.5058 23.1588 39.7583 22.5918 39.9215 22.0002C40.1002 21.3869 40.1925 20.7491 40.1925 20.1081C40.2541 19.8431 40.2449 19.5658 40.171 19.3038C40.094 19.0419 39.9523 18.8046 39.7583 18.6105C39.5643 18.4195 39.3241 18.2777 39.0592 18.2007C38.7944 18.1267 38.5172 18.1175 38.2493 18.1791C37.7227 18.1421 37.1991 18.2962 36.7803 18.6136C36.614 18.8108 36.4877 19.0388 36.4138 19.2854C36.3399 19.5319 36.3153 19.7907 36.343 20.0465L36.2968 20.0342L36.2937 20.0403ZM38.2493 15.7416C39.5551 15.6338 40.8547 15.9882 41.9233 16.74C42.3421 17.1437 42.6624 17.6368 42.8688 18.1791C43.072 18.7214 43.1552 19.3008 43.109 19.877C43.109 20.8538 42.9519 21.8276 42.647 22.7551C42.3575 23.6334 41.9172 24.4561 41.3443 25.1864C40.9655 25.6702 40.4882 26.0708 39.9462 26.3605C39.4226 26.6132 38.8467 26.7426 38.2647 26.7426C37.6826 26.7426 37.1067 26.6132 36.5832 26.3605C36.0412 26.0739 35.5669 25.6733 35.1973 25.1864C34.6153 24.4623 34.1749 23.6364 33.8946 22.7551C33.5774 21.8276 33.4173 20.8569 33.4204 19.877C33.3711 19.3008 33.4512 18.7184 33.6544 18.176C33.8608 17.6337 34.1841 17.1437 34.606 16.74C35.6747 15.9912 36.9743 15.6369 38.2801 15.7416H38.2554H38.2493Z" fill="#231F20"/>
<path d="M32.5874 18.2883H29.7787C29.634 18.2729 29.4923 18.3037 29.363 18.3715C29.3168 18.3992 29.2798 18.4393 29.2552 18.4886C29.2306 18.5379 29.2244 18.5903 29.2306 18.6427C29.209 18.7105 29.209 18.7844 29.2306 18.8553C29.2829 18.9539 29.3476 19.0433 29.4215 19.1265L31.7928 21.7118C32.1131 22.0631 32.3811 22.4606 32.5874 22.8859C32.7537 23.2557 32.8368 23.6563 32.8368 24.0599C32.843 24.4359 32.7568 24.8057 32.5874 25.1415C32.4334 25.4713 32.1963 25.7517 31.9006 25.9643C31.6111 26.1677 31.2785 26.3094 30.9305 26.3741C30.3392 26.4635 29.7387 26.5036 29.1413 26.4912H26.7114L26 24.0476H29.1166C29.249 24.0538 29.3815 24.0199 29.4954 23.9521C29.5385 23.9151 29.5724 23.872 29.594 23.8196C29.6155 23.7672 29.6278 23.7117 29.6248 23.6563C29.6186 23.5854 29.597 23.5176 29.5662 23.456C29.5201 23.3758 29.4646 23.3019 29.3999 23.2341L26.8531 20.4022C26.5975 20.1125 26.3911 19.7828 26.2495 19.4284C26.1109 19.0895 26.037 18.7259 26.037 18.3592C26.0216 17.8045 26.1971 17.2622 26.5359 16.8215C26.7884 16.4918 27.1333 16.2453 27.5306 16.1158C28.1188 15.9494 28.7317 15.8786 29.3445 15.9032H31.9407L32.5936 18.3222V18.2883H32.5874Z" fill="#231F20"/>
</svg>
