<svg width="45" height="45" viewBox="0 0 45 45" fill="none" xmlns="http://www.w3.org/2000/svg">
<ellipse cx="22.5" cy="20.2478" rx="14.5" ry="16.7767" fill="#48CBFF"/>
<path fill-rule="evenodd" clip-rule="evenodd" d="M26.1994 3.70345C28.722 4.19022 31.066 5.16576 33.1261 6.52453L36.82 4.91265L39.9999 8.03684L38.3599 11.665C39.7435 13.6893 40.7361 15.9931 41.2316 18.472L45 19.8972V24.3156L41.2306 25.7412C40.7352 28.2197 39.7423 30.5226 38.3593 32.5467L39.9998 36.176L36.82 39.3003L33.1273 37.6889C31.0671 39.0483 28.7221 40.0236 26.1991 40.5104L24.7486 44.213H20.2516L18.8006 40.5096C16.278 40.0228 13.9341 39.0473 11.874 37.6885L8.18016 39.3004L5.00019 36.1761L6.64022 32.548C5.25665 30.5237 4.2641 28.2197 3.76849 25.7409L0 24.3157V19.8973L3.7691 18.4719C4.26445 15.9932 5.25727 13.6899 6.64058 11.666L5.00019 8.03701L8.18007 4.91274L11.8738 6.52462C13.934 5.16584 16.278 4.19031 18.8006 3.70353L20.2515 0H24.7485L26.1994 3.70345ZM22.5 8.7357C14.9841 8.7357 8.89119 14.7221 8.89119 22.1065C8.89119 29.491 14.9841 35.4773 22.5 35.4773C30.016 35.4773 36.1089 29.491 36.1089 22.1065C36.1089 14.7221 30.016 8.7357 22.5 8.7357Z" fill="#7740FF"/>
<path fill-rule="evenodd" clip-rule="evenodd" d="M13.4831 22.784L18.7385 28.0122C19.3826 28.6531 20.4271 28.6531 21.0712 28.0122C24.2357 24.864 27.3719 21.6752 30.5215 18.5106C31.1621 17.8698 31.1591 16.8336 30.515 16.1963C29.8709 15.559 28.8294 15.5619 28.1888 16.2027L19.9023 24.5287L15.8159 20.4634C15.1718 19.8226 14.1274 19.8226 13.4832 20.4634C12.8389 21.1041 12.8389 22.1432 13.4831 22.784Z" fill="#1569E7"/>
</svg>
