<?xml version="1.0" standalone="no"?>
<!DOCTYPE svg PUBLIC "-//W3C//DTD SVG 20010904//EN"
 "http://www.w3.org/TR/2001/REC-SVG-20010904/DTD/svg10.dtd">
<svg version="1.0" xmlns="http://www.w3.org/2000/svg"
 width="286.000000pt" height="286.000000pt" viewBox="0 0 286.000000 286.000000"
 preserveAspectRatio="xMidYMid meet">
<metadata>
Created by potrace 1.14, written by Peter Selinger 2001-2017
</metadata>
<g transform="translate(0.000000,286.000000) scale(0.100000,-0.100000)"
fill="#000000" stroke="none">
<path d="M1542 2811 c-15 -16 -33 -36 -40 -45 -16 -19 -32 -21 -32 -3 0 8 -15
22 -34 32 -30 16 -39 17 -81 5 -51 -14 -65 -35 -65 -96 0 -47 45 -94 90 -94
35 0 71 16 83 36 11 19 23 18 31 -2 4 -9 -4 -28 -19 -46 -17 -20 -25 -41 -25
-66 0 -74 45 -120 125 -127 28 -2 64 -7 80 -10 64 -14 104 60 59 108 -13 14
-24 36 -24 48 0 12 -17 38 -37 59 -35 34 -37 39 -27 68 5 18 15 37 22 44 18
18 15 73 -5 90 -10 8 -31 18 -46 22 -23 5 -33 1 -55 -23z"/>
<path d="M1072 2760 c-28 -26 -32 -119 -6 -144 25 -26 94 -14 94 16 0 6 6 19
14 27 13 15 20 41 17 69 -2 23 -41 52 -69 52 -16 0 -38 -9 -50 -20z"/>
<path d="M1796 2766 c-62 -18 -103 -111 -77 -179 22 -56 103 -107 152 -94 29
8 23 -8 -18 -47 -35 -33 -38 -39 -38 -93 0 -41 4 -57 13 -55 6 1 12 -2 12 -7
0 -5 16 -16 35 -26 61 -28 124 -3 151 61 19 44 3 89 -50 146 -43 47 -43 48
-24 65 20 18 57 85 63 115 5 22 -97 118 -127 119 -13 0 -30 2 -38 3 -8 2 -32
-2 -54 -8z"/>
<path d="M915 2755 c-53 -22 -74 -68 -54 -116 36 -88 167 -62 171 33 2 62 -61
107 -117 83z"/>
<path d="M701 2646 c-19 -20 -22 -31 -16 -58 9 -40 30 -57 72 -58 65 0 96 75
50 118 -31 30 -77 29 -106 -2z"/>
<path d="M2060 2650 c-11 -11 -20 -23 -21 -27 0 -5 -2 -16 -4 -26 -4 -24 33
-63 68 -71 36 -8 77 30 77 72 0 60 -78 94 -120 52z"/>
<path d="M1174 2625 c-15 -23 -15 -27 0 -50 18 -28 42 -31 69 -11 21 16 22 49
1 70 -23 23 -51 20 -70 -9z"/>
<path d="M1294 2600 c-26 -10 -48 -61 -39 -89 4 -15 2 -21 -9 -21 -24 0 -55
-48 -50 -78 16 -92 147 -82 147 11 0 15 10 29 28 39 51 30 51 106 -1 133 -32
17 -45 18 -76 5z"/>
<path d="M1013 2590 c-57 -24 -67 -105 -19 -147 15 -13 34 -23 42 -23 14 0 14
-27 1 -86 -12 -51 52 -84 86 -46 21 23 21 27 -7 87 l-24 50 24 24 c30 30 32
86 4 119 -21 26 -73 37 -107 22z"/>
<path d="M824 2535 c-15 -23 -15 -27 -1 -49 21 -32 51 -38 76 -14 25 22 27 51
5 72 -24 24 -61 20 -80 -9z"/>
<path d="M2205 2535 c-64 -63 -9 -166 79 -149 39 7 43 10 62 45 45 88 -72 174
-141 104z"/>
<path d="M572 2538 c-52 -11 -101 -59 -117 -114 -11 -35 -9 -44 13 -86 33 -62
85 -89 151 -76 47 8 96 46 107 81 8 25 23 10 30 -29 6 -38 33 -74 72 -96 29
-16 34 -16 68 -2 78 33 104 96 64 161 -31 52 -63 62 -160 49 -25 -3 -47 -11
-48 -16 -6 -16 -22 -1 -22 20 0 10 -14 41 -31 69 -35 56 -43 58 -127 39z"/>
<path d="M2057 2498 c-34 -25 -25 -84 13 -88 35 -5 51 1 62 25 9 19 8 29 -6
50 -18 27 -43 32 -69 13z"/>
<path d="M2344 2396 c-56 -25 -54 -90 4 -120 78 -40 149 48 87 109 -27 28 -46
30 -91 11z"/>
<path d="M1395 2385 c-41 -22 -44 -27 -60 -71 -12 -35 -16 -39 -44 -36 -40 4
-81 -35 -81 -78 0 -36 38 -80 69 -80 32 0 70 21 77 42 4 13 11 17 22 13 48
-20 71 -22 105 -10 34 11 36 11 39 -9 2 -15 10 -21 28 -21 20 0 25 5 25 25 0
17 -7 26 -25 31 -14 4 -20 7 -13 8 17 2 36 68 29 105 -14 72 -106 116 -171 81z"/>
<path d="M2123 2366 c-20 -18 -28 -36 -35 -86 -5 -43 -5 -66 2 -70 16 -10 112
-2 136 11 25 13 44 49 44 83 0 22 -39 75 -57 77 -53 8 -66 6 -90 -15z"/>
<path d="M1649 2339 c-35 -13 -53 -56 -40 -92 19 -49 71 -61 115 -26 34 27 34
68 0 103 -29 28 -35 29 -75 15z"/>
<path d="M335 2320 c-31 -12 -46 -35 -47 -72 0 -48 -17 -98 -34 -98 -7 0 -28
-12 -44 -27 -32 -29 -33 -32 -27 -130 3 -52 19 -72 43 -52 9 7 27 12 40 11 35
-5 84 26 99 62 16 38 44 54 60 34 21 -29 61 -48 97 -48 50 0 81 16 102 51 9
16 25 29 34 29 46 0 84 67 58 102 -18 24 -55 40 -77 33 -11 -4 -36 1 -56 10
-34 16 -69 16 -120 0 -24 -8 -26 -5 -37 47 -4 17 -18 34 -36 43 -16 8 -30 15
-32 14 -2 0 -12 -4 -23 -9z"/>
<path d="M1068 2233 c-22 -25 -26 -44 -17 -75 6 -23 3 -28 -21 -38 -17 -7 -38
-9 -52 -4 -42 14 -60 11 -89 -13 -35 -30 -39 -78 -9 -111 12 -12 24 -22 28
-23 4 0 19 -2 34 -4 15 -2 30 1 34 6 12 19 32 -24 23 -48 -11 -30 6 -67 38
-82 34 -16 47 -14 78 11 24 19 27 26 22 64 -3 30 0 47 12 58 21 22 20 91 -2
113 -16 16 -16 18 8 38 35 29 41 65 15 98 -26 32 -78 37 -102 10z"/>
<path d="M2535 2240 c-3 -5 -1 -10 4 -10 6 0 11 5 11 10 0 6 -2 10 -4 10 -3 0
-8 -4 -11 -10z"/>
<path d="M1821 2213 c-12 -8 -21 -22 -21 -32 0 -29 -29 -34 -49 -10 -15 18
-21 20 -39 10 -24 -13 -29 -40 -10 -59 7 -7 13 -33 14 -60 1 -26 3 -54 4 -62
1 -8 -1 -31 -4 -50 -7 -44 8 -91 38 -120 19 -17 23 -29 19 -54 -6 -40 16 -66
56 -66 34 0 59 26 56 58 -1 18 6 28 29 39 95 45 104 180 16 243 -16 12 -30 30
-30 40 0 10 -5 22 -10 25 -7 4 -5 14 4 26 34 49 -24 107 -73 72z"/>
<path d="M2020 2223 c-19 -7 -40 -33 -40 -50 0 -18 37 -53 55 -53 8 0 24 9 35
20 11 11 20 27 20 35 0 16 -35 56 -47 54 -5 0 -15 -3 -23 -6z"/>
<path d="M2301 2208 c-15 -14 -20 -26 -15 -41 3 -12 6 -24 6 -27 0 -25 -5 -30
-31 -28 -45 3 -80 -20 -87 -59 -14 -74 86 -117 131 -56 8 11 20 14 36 10 14
-4 37 0 54 9 28 14 31 14 47 -5 9 -12 30 -24 46 -27 16 -3 39 -19 51 -35 12
-16 28 -29 37 -29 8 0 19 -11 24 -24 28 -74 124 -65 143 13 4 18 -2 31 -24 53
-16 16 -32 41 -35 54 -4 14 -20 35 -36 47 -16 12 -36 36 -43 54 -26 61 -117
80 -160 33 -16 -18 -19 -18 -41 -3 -13 8 -24 23 -24 33 0 37 -50 56 -79 28z"/>
<path d="M753 2128 c-27 -13 -35 -32 -27 -64 8 -32 36 -46 77 -39 28 5 33 11
32 33 -2 35 -14 72 -25 72 -5 0 -14 2 -22 4 -7 3 -23 0 -35 -6z"/>
<path d="M2032 2054 c-34 -23 -43 -67 -22 -102 10 -17 28 -33 39 -37 20 -6 20
-6 1 -38 -11 -18 -20 -49 -20 -71 0 -30 7 -44 34 -70 69 -64 74 -66 124 -41
83 42 109 135 54 196 -15 17 -43 34 -62 38 -23 5 -34 13 -32 22 10 41 10 53 0
73 -23 44 -76 58 -116 30z"/>
<path d="M660 1989 c-108 -23 -126 -181 -25 -225 27 -12 27 -13 7 -14 -52 -1
-89 -73 -60 -120 10 -15 9 -22 -4 -37 -21 -23 -30 -71 -18 -94 7 -13 5 -27 -8
-51 -10 -18 -18 -40 -17 -48 1 -8 3 -22 3 -30 2 -14 18 -35 77 -102 20 -23 67
-23 96 1 21 16 23 26 21 82 -1 35 -7 76 -13 92 -9 20 -8 31 0 41 18 21 16 70
-2 96 -14 20 -14 25 0 55 14 29 14 38 3 65 -7 18 -22 35 -33 39 -17 6 -13 9
19 14 83 14 129 109 86 179 -31 50 -76 69 -132 57z"/>
<path d="M394 1936 c-51 -23 -60 -82 -19 -129 37 -42 76 -50 109 -23 32 26 40
58 22 100 -23 55 -63 73 -112 52z"/>
<path d="M2391 1937 c-73 -37 -83 -117 -26 -203 20 -29 43 -55 51 -55 7 -1 20
-2 27 -3 32 -5 127 102 127 143 0 97 -96 161 -179 118z"/>
<path d="M258 1888 c-24 -20 -28 -44 -12 -67 17 -23 53 -28 72 -9 13 13 16 47
4 64 -12 19 -47 25 -64 12z"/>
<path d="M837 1893 c-14 -22 -18 -106 -8 -131 27 -64 114 -76 164 -22 40 45
34 101 -17 142 -22 18 -130 26 -139 11z"/>
<path d="M142 1837 c-33 -15 -39 -63 -11 -93 l22 -24 -34 2 c-46 1 -78 -17
-93 -54 -16 -38 -10 -71 19 -98 63 -59 166 -3 150 83 -4 19 -1 27 9 27 9 0 13
-6 10 -15 -11 -28 16 -82 48 -98 52 -25 96 -9 124 45 18 34 18 32 0 66 -22 42
-41 54 -86 55 -26 1 -40 6 -40 14 0 22 -54 91 -76 95 -11 3 -30 0 -42 -5z"/>
<path d="M2640 1802 c-87 -40 -118 -129 -71 -207 l19 -33 -22 2 c-13 2 -29 7
-36 11 -24 15 -82 6 -116 -17 -33 -23 -40 -44 -34 -103 13 -119 192 -123 215
-4 3 12 9 27 15 33 5 5 10 23 10 38 0 25 2 27 19 19 10 -6 46 -10 79 -10 67 1
84 13 96 64 23 96 19 117 -33 182 -23 30 -31 33 -76 32 -27 0 -57 -3 -65 -7z"/>
<path d="M1076 1784 c-21 -21 -20 -60 2 -69 32 -14 43 -14 62 5 23 23 16 66
-13 74 -31 8 -34 8 -51 -10z"/>
<path d="M1962 1774 c-29 -20 -28 -52 2 -65 53 -25 89 35 41 67 -18 12 -24 11
-43 -2z"/>
<path d="M2247 1672 c-21 -23 -22 -66 -2 -82 22 -18 66 -15 82 6 43 58 -32
129 -80 76z"/>
<path d="M438 1617 c-32 -14 -48 -27 -48 -39 0 -18 33 -42 43 -31 4 3 13 0 22
-7 36 -30 97 19 75 60 -19 35 -41 40 -92 17z"/>
<path d="M2164 1580 c-12 -5 -24 -15 -27 -23 -18 -48 39 -85 76 -49 35 35 -2
89 -49 72z"/>
<path d="M184 1533 c-6 -5 -16 -18 -23 -31 -10 -19 -8 -26 14 -48 37 -37 85
-19 85 31 0 11 -4 25 -8 32 -9 15 -54 25 -68 16z"/>
<path d="M50 1502 c-59 -21 -61 -111 -3 -133 59 -22 111 22 99 85 -8 41 -52
63 -96 48z"/>
<path d="M355 1500 c-49 -11 -75 -33 -87 -75 -6 -22 -15 -44 -20 -49 -16 -20
-8 -56 15 -65 95 -36 149 -37 183 -3 10 9 22 17 28 17 7 0 10 21 9 52 -2 86
-57 138 -128 123z"/>
<path d="M2764 1503 c-27 -5 -56 -55 -51 -90 2 -18 14 -34 33 -45 28 -17 32
-17 64 0 47 23 61 63 34 98 -22 30 -48 42 -80 37z"/>
<path d="M2185 1470 c-61 -23 -79 -110 -33 -157 35 -35 89 -41 127 -14 16 12
32 32 36 44 3 12 11 39 17 59 16 55 -6 77 -75 76 -29 0 -61 -4 -72 -8z"/>
<path d="M2607 1410 c-28 -39 1 -84 50 -78 33 4 54 48 37 76 -17 26 -69 27
-87 2z"/>
<path d="M168 1345 c-1 -1 -23 -5 -46 -8 -56 -6 -71 -21 -73 -77 -3 -75 0 -87
30 -118 21 -21 27 -32 19 -40 -17 -17 -1 -42 27 -42 20 0 25 5 25 26 0 14 4
23 9 19 17 -10 89 26 107 53 27 41 22 107 -11 142 -25 26 -78 54 -87 45z"/>
<path d="M2360 1333 c-39 -16 -46 -66 -13 -90 24 -18 47 -16 66 5 22 25 21 48
-3 72 -21 21 -26 22 -50 13z"/>
<path d="M2689 1291 c-24 -25 -28 -36 -24 -66 2 -21 10 -44 17 -52 10 -12 9
-17 -4 -24 -25 -14 -59 -74 -55 -97 9 -62 88 -84 127 -35 16 21 20 36 16 74
-4 44 -3 48 23 59 57 23 71 101 26 145 -35 36 -88 34 -126 -4z"/>
<path d="M2518 1299 c-10 -5 -18 -7 -18 -4 0 3 -9 1 -20 -5 -16 -9 -20 -18
-16 -48 3 -20 5 -43 5 -50 1 -7 13 -24 27 -37 35 -33 84 -33 120 -1 36 30 39
95 7 128 -24 23 -79 32 -105 17z"/>
<path d="M479 1249 c-22 -22 -20 -66 4 -81 40 -26 100 8 92 51 -10 53 -58 68
-96 30z"/>
<path d="M2146 1234 c-39 -38 -21 -97 32 -110 15 -4 36 -13 47 -20 32 -22 65
-16 95 16 25 27 27 35 19 63 -14 51 -40 66 -114 66 -43 0 -70 -5 -79 -15z"/>
<path d="M595 1210 c-3 -5 -1 -10 4 -10 6 0 11 5 11 10 0 6 -2 10 -4 10 -3 0
-8 -4 -11 -10z"/>
<path d="M372 1170 c-12 -12 -22 -25 -22 -30 0 -6 -3 -9 -7 -8 -16 5 -69 -24
-86 -47 -10 -15 -18 -44 -19 -70 -1 -56 -15 -67 -40 -32 -35 48 -108 24 -108
-35 0 -25 38 -56 65 -54 19 3 24 -3 29 -33 4 -20 6 -55 6 -78 -1 -50 20 -85
62 -106 78 -38 166 48 131 130 -7 18 -11 43 -9 55 3 13 5 26 5 31 1 4 8 7 16
7 8 0 29 13 47 29 30 27 33 35 35 93 1 35 5 76 9 91 14 60 -67 100 -114 57z"/>
<path d="M1863 1145 c-82 -34 -85 -141 -5 -184 31 -16 82 -4 115 27 l28 27 -5
-28 c-9 -49 29 -107 82 -128 25 -10 73 -4 102 11 19 10 71 75 66 81 -2 2 -6
18 -9 36 -7 45 -43 92 -75 99 -15 3 -33 7 -40 10 -20 6 -83 -24 -99 -46 -17
-25 -33 -26 -27 -2 3 9 -3 32 -13 51 -23 45 -75 65 -120 46z"/>
<path d="M777 1135 c-11 -11 -23 -12 -46 -5 -90 26 -175 -40 -175 -136 0 -91
60 -148 150 -141 45 3 50 1 52 -17 1 -27 47 -66 76 -66 13 0 35 9 50 21 l26
20 29 -20 c16 -12 38 -21 48 -21 31 0 34 -11 13 -40 -35 -49 -21 -113 31 -144
16 -9 34 -14 39 -11 6 3 13 -2 16 -12 16 -49 28 -63 55 -63 30 0 59 31 59 62
0 10 -9 27 -20 38 -16 16 -18 25 -10 40 20 38 -16 111 -64 129 -18 7 -18 8 4
28 51 48 65 120 33 174 -13 22 -15 34 -7 47 17 28 -1 79 -32 86 -29 8 -74 -16
-74 -38 0 -15 -21 -26 -50 -26 -28 0 -77 -46 -92 -86 -8 -22 -17 -33 -26 -29
-7 3 -17 5 -22 5 -4 0 -5 19 -3 43 3 26 -1 57 -10 80 -9 21 -12 39 -6 42 15
10 10 42 -7 49 -21 8 -20 8 -37 -9z"/>
<path d="M892 1133 c-10 -19 0 -57 18 -68 18 -11 58 4 65 25 3 10 1 28 -5 40
-14 26 -65 27 -78 3z"/>
<path d="M2312 1057 c-48 -51 -8 -135 59 -125 23 4 42 -2 68 -19 19 -13 42
-21 50 -18 9 3 1 -7 -18 -23 -28 -23 -36 -38 -40 -77 -7 -58 -25 -68 -40 -23
-16 47 -56 73 -111 73 -45 0 -99 -28 -100 -51 0 -6 -7 -18 -16 -25 -24 -20
-33 -51 -21 -76 14 -31 90 -82 123 -84 51 -3 61 0 94 31 30 28 34 29 45 13 10
-14 9 -20 -6 -37 -39 -41 -18 -101 38 -112 32 -6 40 -3 59 19 20 24 24 48 11
86 -1 3 8 16 21 29 12 12 22 31 22 42 0 11 6 20 13 20 21 0 58 45 63 77 9 60
-30 110 -89 115 l-27 2 25 21 c16 13 27 34 30 60 8 59 -3 70 -78 70 -47 1 -69
5 -81 18 -25 24 -68 21 -94 -6z"/>
<path d="M1717 979 c-19 -27 -10 -58 20 -70 31 -11 29 -12 47 7 22 21 20 61
-3 74 -29 15 -48 12 -64 -11z"/>
<path d="M2648 913 c-27 -31 -4 -83 36 -83 46 1 68 39 46 81 -13 24 -61 25
-82 2z"/>
<path d="M1825 908 c-43 -15 -64 -36 -75 -76 -10 -39 5 -80 40 -105 15 -11 19
-21 14 -44 -11 -57 60 -86 92 -38 11 17 11 25 0 46 -12 23 -11 27 6 38 22 14
58 92 58 125 0 55 -62 79 -135 54z"/>
<path d="M517 867 c-23 -16 -46 -84 -41 -119 2 -19 -1 -28 -11 -28 -20 0 -44
-38 -38 -61 6 -23 45 -41 68 -33 8 4 18 17 21 30 5 19 13 24 38 24 57 0 82 47
77 142 -3 45 -76 74 -114 45z"/>
<path d="M1990 810 c-43 -43 -9 -108 48 -95 34 7 53 40 41 71 -14 40 -61 52
-89 24z"/>
<path d="M665 796 c-34 -51 33 -108 76 -65 24 24 24 51 1 72 -26 24 -59 21
-77 -7z"/>
<path d="M808 742 c-25 -5 -42 -62 -24 -80 13 -13 13 -18 -1 -36 l-16 -21 -29
29 c-24 24 -34 28 -65 23 -46 -8 -71 -31 -79 -74 -5 -29 -9 -33 -28 -27 -11 4
-32 15 -45 25 -54 43 -130 0 -117 -66 8 -40 18 -48 68 -55 31 -4 42 -10 40
-20 -12 -48 -11 -64 4 -90 10 -15 27 -33 38 -38 49 -22 119 12 128 63 7 34
-17 83 -47 97 -14 6 -25 15 -25 21 0 5 8 6 18 1 9 -4 34 -9 54 -12 31 -3 41 1
63 23 15 17 25 40 25 58 0 24 3 27 14 18 22 -18 48 -2 44 28 -2 17 3 29 16 36
60 32 31 112 -36 97z"/>
<path d="M1508 719 c-19 -11 -23 -45 -9 -68 5 -8 23 -14 41 -14 23 0 29 -4 25
-15 -11 -29 14 -79 46 -93 47 -19 77 -3 115 61 40 66 41 84 10 115 -30 30 -55
25 -115 -24 -32 -26 -43 -31 -38 -17 9 24 -17 66 -41 66 -9 0 -25 -5 -34 -11z"/>
<path d="M1312 690 c-18 -11 -40 -33 -50 -50 -11 -16 -22 -27 -25 -23 -4 3 -7
1 -7 -5 0 -6 5 -14 10 -17 6 -3 10 -15 10 -26 0 -63 71 -116 139 -104 116 19
135 178 28 228 -45 22 -65 21 -105 -3z"/>
<path d="M1958 648 c-128 -61 -75 -241 61 -212 20 4 42 6 49 5 8 -1 23 4 35
12 21 13 22 13 23 -18 1 -36 67 -125 92 -125 7 0 37 11 67 25 50 24 85 67 85
104 0 6 6 11 14 11 7 0 19 7 26 15 16 19 -5 49 -31 42 -10 -3 -29 7 -45 24
-50 52 -124 51 -177 -2 -28 -29 -31 -29 -41 -12 -5 10 -11 29 -12 41 -4 37
-31 70 -72 90 -35 17 -39 17 -74 0z"/>
<path d="M343 614 c-3 -8 1 -23 10 -32 15 -14 18 -14 36 2 11 10 17 24 14 32
-7 19 -52 18 -60 -2z"/>
<path d="M903 606 c-33 -12 -72 -50 -74 -73 -6 -57 0 -77 31 -113 17 -19 35
-41 41 -47 5 -7 19 -13 31 -13 21 0 86 59 106 97 14 25 12 113 -2 113 -5 0
-17 7 -26 15 -27 25 -71 33 -107 21z"/>
<path d="M1758 588 c-14 -5 -29 -16 -32 -24 -11 -28 5 -64 30 -70 33 -8 52 1
66 31 10 23 9 29 -13 49 -20 20 -29 22 -51 14z"/>
<path d="M1168 469 c-33 -13 -38 -27 -52 -149 -6 -48 37 -105 90 -119 23 -6
29 -13 29 -36 0 -22 -5 -29 -25 -32 -33 -5 -42 -16 -42 -49 0 -27 24 -54 49
-54 8 0 25 11 39 25 20 20 29 23 49 15 14 -5 25 -7 25 -4 0 2 13 -2 30 -11 35
-18 89 -19 111 -2 73 57 51 165 -38 182 -71 13 -83 24 -78 69 6 51 -20 98 -67
122 -18 9 -35 20 -38 24 -5 7 -46 31 -52 29 -2 0 -15 -5 -30 -10z"/>
<path d="M1813 467 c-4 -8 -21 -20 -37 -28 -43 -20 -66 -65 -54 -107 9 -35 58
-72 86 -67 10 2 22 4 28 4 6 1 23 13 37 27 20 20 25 33 23 64 -2 22 -9 47 -17
56 -8 9 -14 22 -15 28 0 6 -2 17 -2 24 -3 16 -39 15 -49 -1z"/>
<path d="M736 441 c-36 -39 11 -101 61 -78 28 12 36 46 17 74 -18 28 -55 30
-78 4z"/>
<path d="M1473 445 c-30 -21 -37 -60 -16 -95 9 -17 23 -30 29 -30 7 0 14 -10
18 -22 3 -13 17 -36 31 -52 14 -16 25 -33 25 -38 0 -13 56 -9 67 5 19 24 35
96 29 122 -4 14 -20 34 -36 43 -17 9 -30 23 -30 30 0 22 -39 52 -68 52 -15 0
-37 -7 -49 -15z"/>
<path d="M1960 390 c-34 -34 -19 -79 29 -87 45 -7 74 54 42 86 -26 26 -46 26
-71 1z"/>
<path d="M718 332 c-13 -9 -26 -21 -30 -26 -14 -19 -8 -63 10 -84 49 -59 131
-16 123 65 -1 16 -38 50 -61 56 -10 3 -29 -2 -42 -11z"/>
<path d="M2072 334 c-18 -8 -41 -57 -37 -80 2 -10 4 -22 4 -26 1 -4 14 -14 31
-23 73 -38 144 42 93 104 -18 21 -67 35 -91 25z"/>
<path d="M947 319 c-30 -18 -107 -95 -107 -107 0 -20 106 -122 129 -123 11 -1
27 -2 34 -3 6 -1 30 3 52 10 44 12 60 35 69 100 11 71 -48 134 -124 134 -19
-1 -43 -5 -53 -11z"/>
<path d="M1857 257 c-13 -12 -31 -21 -41 -19 -9 2 -25 0 -34 -4 -9 -4 -21 -6
-26 -5 -27 6 -68 -13 -81 -39 -39 -76 57 -139 121 -79 24 23 52 24 78 4 61
-46 155 33 127 108 -22 57 -102 76 -144 34z"/>
<path d="M1566 109 c-31 -24 -33 -52 -7 -78 38 -38 90 -3 82 54 -7 47 -34 56
-75 24z"/>
</g>
</svg>
