<svg width="44" height="44" viewBox="0 0 44 44" fill="none" xmlns="http://www.w3.org/2000/svg">
<path d="M43.0834 24.2184V34.8334H7.33337V10.0834H23.76L25.6667 18.3334L39.985 20.5975C40.8482 20.733 41.6346 21.1721 42.2026 21.836C42.7707 22.4998 43.083 23.3447 43.0834 24.2184Z" fill="#7740FF"/>
<path d="M43.0834 24.2184V32.0834H32.0834C26.2486 32.0834 20.6528 29.7655 16.527 25.6397C12.4012 21.5139 10.0834 15.9181 10.0834 10.0834H23.76L25.6667 18.3334L39.985 20.5975C40.8482 20.733 41.6346 21.1721 42.2026 21.836C42.7707 22.4998 43.083 23.3447 43.0834 24.2184Z" fill="#48CBFF"/>
<path d="M17.5909 36.4009C12.5125 43.7342 0.916687 40.1317 0.916687 31.1667C0.916568 29.216 1.53876 27.316 2.69279 25.7433C3.84681 24.1705 5.47247 23.0069 7.33335 22.4217C15.7575 19.7634 22.5684 29.4617 17.5909 36.4009Z" fill="#777575"/>
<path d="M19.25 31.1666C19.2556 33.0416 18.6755 34.8714 17.5909 36.4008C15.8248 37.6114 13.6907 38.1657 11.5587 37.9673C9.42676 37.769 7.43149 36.8306 5.91909 35.3149C4.40669 33.7992 3.47258 31.8019 3.27883 29.6695C3.08508 27.5372 3.64391 25.4042 4.85837 23.6408C6.23303 22.6871 7.84247 22.1279 9.51228 22.0237C11.1821 21.9194 12.8486 22.2742 14.3312 23.0495C15.8137 23.8248 17.0559 24.991 17.9229 26.4219C18.79 27.8527 19.249 29.4936 19.25 31.1666Z" fill="white"/>
<path d="M43.0834 34.8333C43.0842 35.7935 42.8336 36.7372 42.3565 37.5706C41.8794 38.4039 41.1925 39.0978 40.364 39.5832C39.5355 40.0687 38.5944 40.3288 37.6342 40.3377C36.674 40.3465 35.7282 40.1039 34.8909 39.6338C34.0536 39.1637 33.354 38.4827 32.8616 37.6583C32.3692 36.8339 32.1012 35.895 32.0842 34.9349C32.0673 33.9749 32.302 33.0271 32.765 32.1859C33.228 31.3446 33.9032 30.6393 34.7234 30.14C35.557 29.6325 36.5106 29.356 37.4863 29.3387C38.4621 29.3215 39.4248 29.5642 40.2758 30.042C41.1268 30.5197 41.8353 31.2153 42.3287 32.0573C42.8221 32.8993 43.0826 33.8574 43.0834 34.8333Z" fill="#777575"/>
<path d="M42.2767 37.6934C37.4183 40.6817 31.7075 35.0351 34.7233 30.1401C39.6 27.1334 45.2742 32.8259 42.2767 37.6934Z" fill="white"/>
<path d="M43.0834 27.5H42.1667C41.6805 27.5 41.2142 27.3069 40.8703 26.9631C40.5265 26.6193 40.3334 26.1529 40.3334 25.6667C40.3334 25.1805 40.5265 24.7142 40.8703 24.3703C41.2142 24.0265 41.6805 23.8334 42.1667 23.8334H43.0834V27.5Z" fill="#48CBFF"/>
<path d="M26.5833 10.0833H7.33333C6.8471 10.0833 6.38079 9.89014 6.03697 9.54632C5.69315 9.2025 5.5 8.73619 5.5 8.24996C5.5 7.76373 5.69315 7.29741 6.03697 6.9536C6.38079 6.60978 6.8471 6.41663 7.33333 6.41663H22.9167C23.8891 6.41663 24.8218 6.80293 25.5094 7.49057C26.197 8.1782 26.5833 9.11083 26.5833 10.0833Z" fill="#48CBFF"/>
<path d="M26.0883 8.25001H7.79167C7.40005 8.24981 7.01879 8.12422 6.70373 7.89164C6.38867 7.65905 6.15636 7.33169 6.04083 6.95751C6.7925 6.18751 6.27 6.41667 22.9167 6.41667C23.5597 6.41733 24.1912 6.58707 24.7479 6.90885C25.3046 7.23064 25.7668 7.69315 26.0883 8.25001Z" fill="#48CBFF"/>
<path d="M25.6667 18.3334H14.6667V10.0834H23.76C25.465 17.4167 25.1075 15.895 25.6667 18.3334Z" fill="#48CBFF"/>
<path d="M25.245 16.5H22.9167C21.2149 16.5 19.5828 15.824 18.3794 14.6206C17.176 13.4173 16.5 11.7852 16.5 10.0834H23.76L25.245 16.5Z" fill="#1569E7"/>
<path d="M7.33337 10.0834H11V18.3334H7.33337V10.0834Z" fill="#48CBFF"/>
<path d="M38.5 11L37.5834 14.6667H35.75V19.9284L32.0834 19.3509C32.0834 14.85 31.7809 13.5484 33.055 12.1825C34.3292 10.8167 35.9517 11 38.5 11Z" fill="white"/>
<path d="M29.3333 22.9167H25.6667C25.4236 22.9167 25.1904 22.8201 25.0185 22.6482C24.8466 22.4763 24.75 22.2432 24.75 22.0001C24.75 21.7569 24.8466 21.5238 25.0185 21.3519C25.1904 21.18 25.4236 21.0834 25.6667 21.0834H29.3333C29.5764 21.0834 29.8096 21.18 29.9815 21.3519C30.1534 21.5238 30.25 21.7569 30.25 22.0001C30.25 22.2432 30.1534 22.4763 29.9815 22.6482C29.8096 22.8201 29.5764 22.9167 29.3333 22.9167ZM29.3333 26.5834H25.6667C25.4236 26.5834 25.1904 26.4868 25.0185 26.3149C24.8466 26.143 24.75 25.9098 24.75 25.6667C24.75 25.4236 24.8466 25.1904 25.0185 25.0185C25.1904 24.8466 25.4236 24.7501 25.6667 24.7501H29.3333C29.5764 24.7501 29.8096 24.8466 29.9815 25.0185C30.1534 25.1904 30.25 25.4236 30.25 25.6667C30.25 25.9098 30.1534 26.143 29.9815 26.3149C29.8096 26.4868 29.5764 26.5834 29.3333 26.5834ZM29.3333 30.2501H25.6667C25.4236 30.2501 25.1904 30.1535 25.0185 29.9816C24.8466 29.8097 24.75 29.5765 24.75 29.3334C24.75 29.0903 24.8466 28.8571 25.0185 28.6852C25.1904 28.5133 25.4236 28.4167 25.6667 28.4167H29.3333C29.5764 28.4167 29.8096 28.5133 29.9815 28.6852C30.1534 28.8571 30.25 29.0903 30.25 29.3334C30.25 29.5765 30.1534 29.8097 29.9815 29.9816C29.8096 30.1535 29.5764 30.2501 29.3333 30.2501ZM38.5 11.0001L38.0417 12.8334C34.8608 12.8334 34.0542 13.0259 33.055 12.1826C34.4025 10.7067 35.9517 11.0001 38.5 11.0001Z" fill="#1569E7"/>
</svg>
