<svg width="45" height="41" viewBox="0 0 45 41" fill="none" xmlns="http://www.w3.org/2000/svg">
<path d="M36.5625 37.9688C40.4458 37.9688 43.5938 34.8208 43.5938 30.9375C43.5938 27.0542 40.4458 23.9062 36.5625 23.9062C32.6792 23.9062 29.5312 27.0542 29.5312 30.9375C29.5312 34.8208 32.6792 37.9688 36.5625 37.9688Z" fill="#7740FF"/>
<path d="M36.5625 39.375C31.9106 39.375 28.125 35.5894 28.125 30.9375C28.125 26.2856 31.9106 22.5 36.5625 22.5C41.2144 22.5 45 26.2856 45 30.9375C45 35.5894 41.2144 39.375 36.5625 39.375ZM36.5625 25.3125C33.4603 25.3125 30.9375 27.8353 30.9375 30.9375C30.9375 34.0397 33.4603 36.5625 36.5625 36.5625C39.6647 36.5625 42.1875 34.0397 42.1875 30.9375C42.1875 27.8353 39.6647 25.3125 36.5625 25.3125Z" fill="#1569E7"/>
<path d="M8.4375 37.9688C12.3208 37.9688 15.4688 34.8208 15.4688 30.9375C15.4688 27.0542 12.3208 23.9062 8.4375 23.9062C4.55425 23.9062 1.40625 27.0542 1.40625 30.9375C1.40625 34.8208 4.55425 37.9688 8.4375 37.9688Z" fill="#7740FF"/>
<path d="M8.4375 39.375C3.78562 39.375 0 35.5894 0 30.9375C0 26.2856 3.78562 22.5 8.4375 22.5C13.0894 22.5 16.875 26.2856 16.875 30.9375C16.875 35.5894 13.0894 39.375 8.4375 39.375ZM8.4375 25.3125C5.33531 25.3125 2.8125 27.8353 2.8125 30.9375C2.8125 34.0397 5.33531 36.5625 8.4375 36.5625C11.5397 36.5625 14.0625 34.0397 14.0625 30.9375C14.0625 27.8353 11.5397 25.3125 8.4375 25.3125Z" fill="#1569E7"/>
<path d="M30.9375 14.3438C30.6376 14.3434 30.3457 14.2474 30.104 14.0699C29.8623 13.8925 29.6833 13.6426 29.5931 13.3566L28.4231 9.61037L23.5659 8.39537C23.2117 8.29823 22.9095 8.06633 22.724 7.74928C22.5386 7.43223 22.4845 7.05518 22.5734 6.69879C22.6623 6.34239 22.8872 6.03493 23.1998 5.84215C23.5125 5.64938 23.8882 5.5866 24.2466 5.66725L29.8716 7.0735C30.1056 7.13172 30.3207 7.24926 30.496 7.41478C30.6714 7.58031 30.8012 7.78823 30.8728 8.0185L32.2791 12.5185C32.3448 12.729 32.3601 12.9519 32.3237 13.1694C32.2874 13.3868 32.2004 13.5927 32.0698 13.7704C31.9393 13.948 31.7687 14.0925 31.572 14.1921C31.3753 14.2917 31.158 14.3437 30.9375 14.3438ZM36.5625 32.3438C36.2626 32.3434 35.9707 32.2474 35.729 32.0699C35.4873 31.8925 35.3083 31.6426 35.2181 31.3566L31.7025 20.1347C31.5914 19.7786 31.6263 19.3928 31.7995 19.0624C31.9728 18.7319 32.2702 18.4839 32.6264 18.3727C32.9826 18.2616 33.3683 18.2965 33.6988 18.4697C34.0292 18.643 34.2773 18.9404 34.3884 19.2966L37.9041 30.5185C37.9698 30.729 37.9851 30.9519 37.9487 31.1694C37.9124 31.3868 37.8254 31.5927 37.6948 31.7704C37.5643 31.948 37.3937 32.0925 37.197 32.1921C37.0003 32.2917 36.783 32.3437 36.5625 32.3438ZM8.43751 32.3438C8.15959 32.3437 7.88792 32.2613 7.65681 32.107C7.42569 31.9526 7.24549 31.7333 7.13896 31.4766C7.03244 31.2199 7.00436 30.9374 7.05827 30.6648C7.11218 30.3921 7.24567 30.1416 7.44188 29.9447L16.3856 21.001C16.6509 20.7448 17.0061 20.6031 17.3748 20.6063C17.7435 20.6095 18.0962 20.7574 18.3569 21.0181C18.6177 21.2789 18.7656 21.6316 18.7688 22.0003C18.772 22.369 18.6302 22.7242 18.3741 22.9894L9.43032 31.9332C9.3 32.0636 9.14522 32.167 8.97485 32.2375C8.80448 32.3079 8.62188 32.3441 8.43751 32.3438Z" fill="white"/>
<path d="M38.4553 12.7434C38.07 12.5971 28.8928 9.31213 17.9888 14.0624C11.6916 13.9865 7.8469 11.5087 7.80752 11.4834C7.64488 11.3751 7.46141 11.302 7.26887 11.2687C7.07633 11.2354 6.87895 11.2427 6.68939 11.2901C6.49983 11.3375 6.32225 11.4239 6.16803 11.5439C6.0138 11.6639 5.88633 11.8147 5.79377 11.9868L2.19377 18.6524C2.05512 18.9111 2.00067 19.2065 2.03801 19.4975C2.07534 19.7886 2.20262 20.0607 2.40206 20.276C2.6015 20.4912 2.86316 20.6388 3.15052 20.6982C3.43789 20.7575 3.73662 20.7257 4.00502 20.6071C5.61755 19.9117 7.37073 19.6041 9.12368 19.7093C10.8766 19.8144 12.5805 20.3293 14.0983 21.2126C15.6161 22.0958 16.9056 23.3228 17.8632 24.7948C18.8207 26.2669 19.4195 27.9431 19.6116 29.6887C19.6503 30.0323 19.8143 30.3496 20.0721 30.5799C20.33 30.8103 20.6636 30.9375 21.0094 30.9374H23.9906C24.3368 30.9375 24.6709 30.8098 24.9288 30.5789C25.1867 30.3479 25.3504 30.03 25.3885 29.6859C25.9313 24.7499 32.5603 20.3765 38.1235 19.7634C38.4676 19.7253 38.7855 19.5616 39.0164 19.3037C39.2474 19.0458 39.375 18.7118 39.375 18.3656V14.0624C39.375 13.7749 39.2868 13.4943 39.1223 13.2585C38.9579 13.0226 38.7251 12.8429 38.4553 12.7434Z" fill="#48CBFF"/>
</svg>
