<svg width="168" height="159" viewBox="0 0 168 159" fill="none" xmlns="http://www.w3.org/2000/svg">
<g id="Group 1782">
<g id="Group 1764">
<path id="Vector" d="M130.281 138C122.509 138 116.209 131.54 116.209 123.572C116.209 115.603 122.509 109.143 130.281 109.143C138.052 109.143 144.353 115.603 144.353 123.572C144.353 131.54 138.052 138 130.281 138Z" fill="#1E2351"/>
<path id="Vector_2" d="M73.3748 138C65.6031 138 59.3029 131.54 59.3029 123.572C59.3029 115.603 65.6031 109.143 73.3748 109.143C81.1466 109.143 87.4468 115.603 87.4468 123.572C87.4468 131.54 81.1466 138 73.3748 138Z" fill="#1E2351"/>
<path id="Vector_3" d="M41.5324 117.452H159.276L159.087 116.482L158.098 111.321L157.882 110.194C157.863 110.089 157.841 109.989 157.813 109.889C157.623 109.169 157.257 108.511 156.749 107.977C156.242 107.442 155.61 107.05 154.913 106.836L124.285 97.4925L117.046 81.2864C116.731 80.5827 116.226 79.9865 115.591 79.5685C114.955 79.1504 114.216 78.9282 113.461 78.9282H66.0864L57.8995 96.3862L43.9005 102.152L41.5324 117.452Z" fill="#48CBFF"/>
<path id="Vector_4" d="M90.3061 119.06V128.085C90.3064 128.512 90.4718 128.921 90.766 129.223C91.0603 129.524 91.4593 129.694 91.8754 129.694H162.606C162.944 129.695 163.272 129.584 163.543 129.378C163.814 129.171 164.013 128.881 164.109 128.549C164.154 128.399 164.176 128.242 164.175 128.085V119.06C164.176 118.849 164.135 118.64 164.056 118.444C163.978 118.249 163.862 118.072 163.716 117.922C163.57 117.773 163.397 117.655 163.207 117.574C163.016 117.493 162.812 117.452 162.606 117.452H91.8754C91.4593 117.452 91.0603 117.622 90.7661 117.923C90.4718 118.225 90.3064 118.634 90.3061 119.06Z" fill="#D5DFE2"/>
<path id="Vector_5" d="M3.00007 119.893V127.25C3.00007 128.597 4.31281 129.69 5.93408 129.69H74.9829C73.3645 129.69 72.0489 128.597 72.0489 127.25V119.893C72.0489 118.546 73.3626 117.452 74.9829 117.452H5.92747C4.31281 117.452 3.00007 118.551 3.00007 119.893Z" fill="#A5B2B5"/>
<path id="Vector_6" d="M149.137 116.487L148.655 112.279C148.61 111.887 148.427 111.526 148.139 111.264C147.852 111.003 147.481 110.858 147.097 110.858H124.149C123.927 110.858 123.708 110.906 123.506 110.999C123.304 111.092 123.123 111.227 122.976 111.397C122.828 111.567 122.718 111.767 122.651 111.983C122.585 112.2 122.564 112.429 122.59 112.654L123.029 116.487H149.137ZM109.318 106.841L78.6856 97.4845L71.4471 81.291C71.1325 80.5877 70.6276 79.9918 69.9924 79.5739C69.3572 79.1561 68.6185 78.934 67.8638 78.9338H36.4414C35.1241 78.9338 33.8335 79.3152 32.7182 80.034C31.6029 80.7528 30.7082 81.7799 30.1371 82.997L23.8545 96.3889L10.6817 101.814C10.4299 101.917 10.2087 102.086 10.0396 102.304C9.87057 102.521 9.75949 102.78 9.71725 103.055L7.49118 117.451H113.678L112.29 110.195C112.14 109.411 111.784 108.685 111.26 108.093C110.736 107.502 110.064 107.069 109.318 106.841Z" fill="#3F53FF"/>
<path id="Vector_7" d="M84.6822 138C76.9105 138 70.6103 131.54 70.6103 123.572C70.6103 115.603 76.9105 109.143 84.6822 109.143C92.4539 109.143 98.7542 115.603 98.7542 123.572C98.7542 131.54 92.4539 138 84.6822 138Z" fill="#1E2351"/>
<path id="Vector_8" d="M84.6822 131.044C80.6573 131.044 77.3945 127.698 77.3945 123.572C77.3945 119.445 80.6573 116.099 84.6822 116.099C88.7071 116.099 91.97 119.445 91.97 123.572C91.97 127.698 88.7071 131.044 84.6822 131.044Z" fill="#58C3FF"/>
<path id="Vector_9" d="M84.6823 126.922C82.8779 126.922 81.4151 125.422 81.4151 123.572C81.4151 121.722 82.8779 120.222 84.6823 120.222C86.4867 120.222 87.9495 121.722 87.9495 123.572C87.9495 125.422 86.4867 126.922 84.6823 126.922Z" fill="#3F53FF"/>
<path id="Vector_10" d="M27.7766 138C20.0049 138 13.7046 131.54 13.7046 123.572C13.7046 115.603 20.0049 109.143 27.7766 109.143C35.5483 109.143 41.8485 115.603 41.8485 123.572C41.8485 131.54 35.5483 138 27.7766 138Z" fill="#1E2351"/>
<path id="Vector_11" d="M27.7766 131.044C23.7517 131.044 20.4889 127.698 20.4889 123.572C20.4889 119.445 23.7517 116.099 27.7766 116.099C31.8015 116.099 35.0643 119.445 35.0643 123.572C35.0643 127.698 31.8015 131.044 27.7766 131.044Z" fill="#58C3FF"/>
<path id="Vector_12" d="M27.7765 126.922C25.9721 126.922 24.5094 125.422 24.5094 123.572C24.5094 121.722 25.9721 120.222 27.7765 120.222C29.5809 120.222 31.0437 121.722 31.0437 123.572C31.0437 125.422 29.5809 126.922 27.7765 126.922Z" fill="#3F53FF"/>
<path id="Vector_13" d="M74.895 82.8574L81.1653 96.9209C81.2395 97.0887 81.3593 97.2311 81.5104 97.3309C81.6614 97.4307 81.8373 97.4838 82.0171 97.4837H120.243C120.479 97.4827 120.706 97.391 120.88 97.2266C121.054 97.0623 121.161 96.8373 121.181 96.5958C121.194 96.4314 121.166 96.2665 121.099 96.1164L117.061 87.0565L114.829 82.053C114.754 81.886 114.633 81.7445 114.483 81.6448C114.332 81.5452 114.156 81.4915 113.977 81.4901H75.7563C75.5985 81.4905 75.4434 81.5314 75.3049 81.6089C75.1665 81.6864 75.0492 81.7982 74.9636 81.934C74.878 82.0699 74.8269 82.2256 74.8149 82.3868C74.8029 82.5481 74.8305 82.7099 74.895 82.8574Z" fill="#E9DDF8"/>
<path id="Vector_14" d="M94.6798 119.893V127.25C94.6798 128.597 95.9934 129.69 97.6138 129.69H115.087C113.469 129.69 112.153 128.597 112.153 127.25V119.893C112.153 118.546 113.466 117.452 115.087 117.452H97.6119C95.9944 117.452 94.6798 118.551 94.6798 119.893ZM38.8956 119.893V127.25C38.8956 128.597 40.2083 129.69 41.8296 129.69H59.3031C57.6846 129.69 56.3691 128.597 56.3691 127.25V119.893C56.3691 118.546 57.6827 117.452 59.3031 117.452H41.8267C40.2083 117.452 38.8956 118.551 38.8956 119.893Z" fill="#A5B2B5"/>
<path id="Vector_15" d="M77.6474 81.4901L93.2459 97.4837H103.614L88.0149 81.4901H77.6474Z" fill="#FCF4F2"/>
<path id="Vector_16" d="M92.1953 81.4901L107.712 97.4837C107.724 97.3265 112.978 97.4837 112.978 97.4837L97.3791 81.4901H92.1953Z" fill="#FCF4F2"/>
<path id="Vector_17" d="M49.0974 81.2864V97.4799H76.3894L70.0131 83.2146C69.7567 82.6377 69.3436 82.1488 68.8233 81.8063C68.303 81.4638 67.6974 81.2823 67.0791 81.2835L49.0974 81.2864ZM25.5533 97.4838H46.5438V81.2864H35.4125C34.9624 81.2864 34.5173 81.3832 34.106 81.5706C33.6947 81.758 33.3263 82.0317 33.0246 82.3742C32.8241 82.5976 32.6552 82.8488 32.523 83.1205L25.5533 97.4838Z" fill="#48CBFF"/>
<path id="Vector_18" d="M57.5171 97.4838L49.0974 88.8547V97.4838H57.5171Z" fill="#73D6FE"/>
<path id="Vector_19" d="M33.0247 82.3781L46.5439 96.2387V86.2356L41.717 81.2864H35.4089C34.9591 81.2874 34.5146 81.3851 34.104 81.5732C33.6933 81.7612 33.3257 82.0354 33.0247 82.3781Z" fill="#73D6FE"/>
<path id="Vector_20" d="M49.0974 81.2903V83.8328L62.4122 97.4838H68.4904L52.694 81.2903H49.0974Z" fill="#73D6FE"/>
<path id="Vector_21" d="M106.953 111.825V115.521C106.953 115.649 106.976 115.775 107.024 115.894C107.071 116.012 107.141 116.119 107.229 116.209C107.317 116.3 107.421 116.371 107.537 116.42C107.652 116.468 107.775 116.492 107.9 116.492H121.184L120.566 114.484C120.384 113.89 120.049 113.357 119.596 112.943C119.143 112.528 118.589 112.247 117.993 112.129L112.041 110.954L111.591 110.867H107.9C107.776 110.866 107.654 110.89 107.54 110.938C107.425 110.985 107.321 111.056 107.233 111.145C107.145 111.234 107.075 111.34 107.027 111.456C106.979 111.573 106.954 111.698 106.953 111.825ZM150.873 116.487H159.092L158.103 111.326L154.064 112.124C153.468 112.242 152.915 112.523 152.461 112.937C152.008 113.351 151.672 113.882 151.488 114.475L150.873 116.487Z" fill="#E9DDF8"/>
<path id="Vector_22" d="M106.953 111.825V115.521C106.953 115.649 106.977 115.775 107.024 115.893C107.071 116.011 107.141 116.119 107.229 116.209C107.317 116.299 107.422 116.371 107.537 116.419C107.652 116.468 107.775 116.492 107.9 116.492H112.859L111.77 111.658C111.719 111.432 111.595 111.231 111.419 111.087C111.242 110.943 111.023 110.864 110.797 110.864H107.895C107.646 110.864 107.407 110.965 107.231 111.145C107.054 111.325 106.954 111.569 106.953 111.825Z" fill="#58C3FF"/>
<path id="Vector_23" d="M115.087 129.119C115.087 129.271 115.146 129.416 115.251 129.524C115.356 129.631 115.498 129.691 115.646 129.691H162.606C162.944 129.692 163.272 129.581 163.543 129.375C163.814 129.168 164.013 128.878 164.109 128.546H130.282L129.648 123.888L128.898 127.338C128.825 127.68 128.64 127.986 128.374 128.206C128.108 128.425 127.777 128.545 127.436 128.546H115.646C115.498 128.546 115.356 128.606 115.251 128.714C115.146 128.821 115.087 128.967 115.087 129.119Z" fill="#A5B2B5"/>
<path id="Vector_24" d="M129.76 123.572H148.143C148.206 123.572 148.257 123.624 148.257 123.688V131.493C148.257 131.557 148.206 131.61 148.143 131.61H129.76C129.697 131.61 129.647 131.557 129.647 131.493V123.688C129.647 123.624 129.697 123.572 129.76 123.572Z" fill="#E9DDF8"/>
<g id="Group 1767">
<g id="Vector_25" filter="url(#filter0_b_2967_462)">
<path d="M95.7626 24.2969L50.3813 7L4.99999 24.2969C9.09226 64.1919 23.0335 93.3367 50.3813 107.847C77.7291 93.3328 91.6703 64.188 95.7626 24.2969Z" fill="#DCDCDC" fill-opacity="0.21"/>
</g>
<path id="Vector_26" d="M73.6471 36.3245L51.297 25.9976H48.4451L23.2445 36.3245C25.5168 60.145 33.2589 77.546 48.4451 86.2106C48.7643 86.0283 50.9862 86.4001 51.297 86.2106C65.8615 77.3709 71.4224 59.6454 73.6471 36.3245Z" fill="#C5DDEA"/>
<path id="Vector_27" d="M76.499 36.3245L51.2984 25.9976L26.0978 36.3245C28.3715 60.145 36.1137 77.546 51.2984 86.2106C66.4846 77.546 74.2268 60.145 76.499 36.3245Z" fill="#E9DDF8"/>
<path id="Vector_28" d="M73.8556 37.957C72.6418 49.0102 70.1847 58.3725 66.539 65.8155C62.8009 73.4538 57.6782 79.3235 51.2969 83.2883C46.6222 80.3829 42.6167 76.4554 39.3476 71.5589C38.124 69.7236 37.0234 67.8052 36.0533 65.817C32.4104 58.3754 29.9436 49.0102 28.7395 37.957L51.2969 28.7124L70.6425 36.6435L73.8556 37.957Z" fill="#7740FF"/>
<path id="Vector_29" d="M73.8556 37.9568C72.6418 49.0101 70.1847 58.3723 66.539 65.8153C62.8009 73.4536 57.6782 79.3233 51.2969 83.2881C46.6222 80.3827 42.6167 76.4552 39.3476 71.5587L70.6425 36.6433L73.8556 37.9568Z" fill="#7853D3"/>
<path id="Vector_30" d="M40.1402 53.4802L40.3754 52.3619C40.4251 52.1252 40.5521 51.913 40.7353 51.7603C40.9186 51.6076 41.1472 51.5236 41.3834 51.5222L42.3634 51.5136L43.8433 47.3004C44.1476 46.4345 44.7051 45.6859 45.4398 45.1569C46.1744 44.6279 47.0504 44.3443 47.9481 44.3447H54.6445C55.542 44.3446 56.4176 44.6284 57.152 45.1573C57.8864 45.6863 58.4437 46.4347 58.748 47.3004L60.2292 51.5136L61.2093 51.5222C61.4452 51.5239 61.6734 51.6081 61.8564 51.7608C62.0394 51.9134 62.1662 52.1255 62.2159 52.3619L62.4511 53.4802C62.4632 53.538 62.4626 53.5978 62.4492 53.6553C62.4358 53.7128 62.4101 53.7665 62.3738 53.8125C62.3376 53.8585 62.2917 53.8956 62.2397 53.921C62.1877 53.9465 62.1307 53.9597 62.0731 53.9596H61.0931L61.2975 54.5338V62.6774C61.2975 62.7944 61.275 62.9104 61.2313 63.0185C61.1876 63.1267 61.1235 63.2249 61.0428 63.3077C60.9621 63.3905 60.8662 63.4562 60.7608 63.5009C60.6553 63.5457 60.5422 63.5688 60.428 63.5688H57.5804C57.3499 63.5684 57.129 63.4744 56.966 63.3073C56.803 63.1402 56.7113 62.9137 56.711 62.6774V61.0682H45.8817V62.6917C45.8817 62.8088 45.8592 62.9247 45.8155 63.0329C45.7718 63.141 45.7078 63.2393 45.627 63.3221C45.5463 63.4048 45.4505 63.4705 45.345 63.5153C45.2395 63.5601 45.1264 63.5832 45.0123 63.5832H42.1688C42.0547 63.5832 41.9417 63.5601 41.8363 63.5153C41.7309 63.4705 41.6351 63.4048 41.5545 63.322C41.4739 63.2392 41.41 63.1409 41.3665 63.0328C41.3229 62.9246 41.3006 62.8087 41.3008 62.6917V54.541L41.5038 53.9668H40.5238C40.4649 53.968 40.4066 53.9553 40.3532 53.9298C40.2998 53.9043 40.2528 53.8667 40.2158 53.8197C40.1788 53.7728 40.1528 53.7178 40.1396 53.6589C40.1265 53.6001 40.1267 53.539 40.1402 53.4802ZM56.1005 57.4421H59.1918C59.4421 57.4421 59.6821 57.3402 59.8591 57.1588C60.036 56.9773 60.1354 56.7312 60.1354 56.4746V55.6564C60.1359 55.5389 60.1104 55.4229 60.0609 55.317C60.0114 55.2111 59.9391 55.1181 59.8496 55.0449C59.76 54.9717 59.6554 54.9202 59.5437 54.8944C59.432 54.8685 59.316 54.8689 59.2044 54.8956C57.957 55.1942 56.7403 55.7899 55.8079 56.3311C55.6974 56.3968 55.6111 56.4981 55.5623 56.6192C55.5136 56.7403 55.5051 56.8745 55.5383 57.001C55.5715 57.1275 55.6444 57.2393 55.7458 57.3191C55.8472 57.3988 55.9714 57.4421 56.0991 57.4421H56.1005ZM51.4454 52.6691C53.0695 52.6591 56.4337 52.5414 58.4316 51.7763L57.3046 48.5679C57.0583 47.8665 56.6069 47.26 56.0121 46.8313C55.4173 46.4025 54.708 46.1723 53.9809 46.1721H48.6146C47.8877 46.1724 47.1785 46.4027 46.584 46.8314C45.9894 47.2602 45.5383 47.8666 45.2923 48.5679L44.1639 51.7763C46.1631 52.5414 49.526 52.6591 51.15 52.6691H51.4454ZM42.4586 56.4746C42.4586 56.7312 42.558 56.9773 42.735 57.1588C42.912 57.3402 43.152 57.4421 43.4022 57.4421H46.4935C46.6208 57.4401 46.7439 57.3953 46.8439 57.3146C46.944 57.2339 47.0154 57.1217 47.0472 56.9953C47.079 56.869 47.0694 56.7354 47.02 56.6151C46.9705 56.4948 46.884 56.3945 46.7735 56.3296C45.8425 55.7899 44.6245 55.1942 43.377 54.8941C43.2658 54.8682 43.1504 54.8684 43.0392 54.8946C42.9281 54.9208 42.8242 54.9724 42.7352 55.0455C42.6462 55.1186 42.5745 55.2114 42.5254 55.317C42.4763 55.4225 42.4511 55.538 42.4516 55.655L42.4586 56.4746Z" fill="white"/>
<path id="Vector_31" d="M48.4661 55.8458C48.5137 55.7108 48.5704 55.5794 48.6355 55.4524L48.1959 54.6069C48.3677 54.361 48.5674 54.1369 48.7909 53.9394L49.6519 54.3084C49.8865 54.1519 50.1409 54.0293 50.408 53.9437L50.6796 53.0293C50.9708 52.9788 51.267 52.9648 51.5616 52.9877L51.9158 53.8734C52.0526 53.9033 52.1873 53.9426 52.319 53.9911C52.4507 54.0396 52.5789 54.0976 52.7026 54.1648L53.5258 53.7141C53.7669 53.8892 53.9864 54.0936 54.1797 54.3227L53.817 55.207C53.9707 55.4468 54.0904 55.7078 54.1727 55.9821L55.0659 56.2606C55.115 56.5593 55.1291 56.8629 55.1079 57.165L54.2427 57.5282C54.1873 57.8089 54.093 58.0801 53.9626 58.3335L54.4023 59.179C54.2297 59.4243 54.0301 59.6483 53.8072 59.8465L52.9476 59.4761C52.7127 59.6328 52.4578 59.7555 52.1902 59.8407L51.9186 60.7566C51.6272 60.8062 51.3312 60.8207 51.0366 60.7996L50.6824 59.9125C50.5455 59.8828 50.4108 59.8435 50.2792 59.7948C50.1479 59.7463 50.0202 59.6883 49.897 59.6211L49.0723 60.0733C48.8317 59.8971 48.6126 59.6917 48.4199 59.4618L48.7811 58.5804C48.6277 58.3398 48.508 58.0784 48.4255 57.8038L47.5323 57.5253C47.4832 57.2271 47.4691 56.924 47.4903 56.6224L48.3555 56.2592C48.3829 56.1189 48.4199 55.9807 48.4661 55.8458ZM50.6642 58.6722C51.0074 58.7994 51.3798 58.8193 51.7341 58.7294C52.0884 58.6396 52.4087 58.444 52.6546 58.1675C52.9005 57.8909 53.0609 57.5458 53.1155 57.1758C53.1701 56.8058 53.1165 56.4275 52.9614 56.0888C52.8063 55.75 52.5567 55.466 52.2441 55.2727C51.9316 55.0794 51.5702 54.9855 51.2056 55.0028C50.841 55.0202 50.4896 55.148 50.1959 55.37C49.9021 55.5921 49.6792 55.8986 49.5553 56.2506C49.3893 56.7225 49.4128 57.2427 49.6207 57.6968C49.8286 58.151 50.204 58.5018 50.6642 58.6722Z" fill="#217AFF"/>
</g>
</g>
</g>
<defs>
<filter id="filter0_b_2967_462" x="-4.8" y="-2.8" width="110.363" height="120.447" filterUnits="userSpaceOnUse" color-interpolation-filters="sRGB">
<feFlood flood-opacity="0" result="BackgroundImageFix"/>
<feGaussianBlur in="BackgroundImageFix" stdDeviation="4.9"/>
<feComposite in2="SourceAlpha" operator="in" result="effect1_backgroundBlur_2967_462"/>
<feBlend mode="normal" in="SourceGraphic" in2="effect1_backgroundBlur_2967_462" result="shape"/>
</filter>
</defs>
</svg>
