<svg width="1445" height="589" viewBox="0 0 1445 589" fill="none" xmlns="http://www.w3.org/2000/svg">
<path d="M3.96875 475.658C40.1991 449.572 146.571 405.227 282.217 436.53C451.775 475.658 569.123 475.658 622.782 420.105C696.506 343.78 685.291 277.639 720.846 222.529C769.153 147.653 899.099 168.908 940.16 254.412C981.221 339.915 1098.61 343.297 1143.53 311.414C1188.46 279.531 1239.66 210.452 1323.72 222.529C1390.96 232.191 1434.5 291.769 1444 298.371" stroke="black" stroke-opacity="0.15"/>
<path d="M1231 218.538L1241.28 217.154L1243.14 211.154L1248.28 207L1254.35 209.308L1258.09 216.231H1274.9L1276.77 210.692L1280.98 207L1286.58 210.231L1288.92 216.231L1297.79 219.462V227.769L1304.8 228.692L1309 232.846L1307.13 240.231L1299.19 242.077L1295.46 249H1231V218.538Z" fill="#F9F9F9"/>
<path d="M1303.43 225.882C1302.24 225.882 1301.08 226.138 1300.01 226.613V217.966C1300.01 216.979 1299.24 216.193 1298.26 216.193H1289.73C1290.2 215.115 1290.45 213.945 1290.45 212.738C1290.45 207.967 1286.6 204.073 1281.88 204.073C1277.16 204.073 1273.33 207.967 1273.33 212.738C1273.33 213.945 1273.58 215.115 1274.03 216.193H1265.5H1265.48H1256.96C1257.43 215.115 1257.69 213.945 1257.69 212.738C1257.69 207.967 1253.84 204.073 1249.12 204.073C1244.4 204.073 1240.56 207.967 1240.56 212.738C1240.56 213.945 1240.82 215.115 1241.29 216.193H1232.75C1231.78 216.193 1231 216.979 1231 217.966V230.105C1231 230.855 1231.45 231.513 1232.14 231.769C1232.83 232.025 1233.6 231.824 1234.07 231.257C1235.07 230.069 1236.44 229.429 1237.94 229.429C1240.73 229.429 1243.01 231.714 1243.01 234.547C1243.01 237.363 1240.75 239.666 1237.94 239.666C1236.44 239.666 1235.09 239.026 1234.07 237.838C1233.6 237.271 1232.83 237.07 1232.14 237.326C1231.45 237.582 1231 238.24 1231 238.99V251.129C1231 251.604 1231.18 252.043 1231.51 252.39C1231.83 252.719 1232.28 252.902 1232.75 252.902H1265.5H1298.26C1299.24 252.902 1300.01 252.116 1300.01 251.129V242.5C1301.08 242.975 1302.24 243.231 1303.43 243.231C1308.15 243.231 1312 239.337 1312 234.566C1312 229.758 1308.17 225.882 1303.43 225.882ZM1234.51 242.463C1235.57 242.939 1236.73 243.195 1237.94 243.195C1242.66 243.195 1246.51 239.319 1246.51 234.529C1246.51 229.758 1242.68 225.864 1237.94 225.864C1236.73 225.864 1235.57 226.12 1234.51 226.595V219.721H1244.74C1245.48 219.721 1246.13 219.246 1246.39 218.551C1246.64 217.857 1246.42 217.071 1245.86 216.595C1244.72 215.626 1244.07 214.219 1244.07 212.72C1244.07 209.904 1246.33 207.601 1249.12 207.601C1251.9 207.601 1254.18 209.904 1254.18 212.72C1254.18 214.219 1253.53 215.626 1252.39 216.595C1251.83 217.071 1251.61 217.857 1251.86 218.551C1252.12 219.246 1252.77 219.721 1253.51 219.721H1263.74L1263.76 230.105C1263.76 230.855 1264.23 231.513 1264.92 231.769C1265.61 232.025 1266.38 231.805 1266.85 231.239C1267.81 230.087 1269.2 229.429 1270.7 229.429C1273.49 229.429 1275.77 231.732 1275.77 234.547C1275.77 237.363 1273.49 239.648 1270.7 239.648C1269.2 239.648 1267.81 238.99 1266.87 237.838C1266.4 237.271 1265.62 237.052 1264.94 237.308C1264.25 237.564 1263.78 238.222 1263.78 238.972L1263.76 249.337H1234.53V242.463H1234.51ZM1303.43 239.648C1301.95 239.648 1300.56 238.99 1299.6 237.838C1299.13 237.271 1298.35 237.052 1297.64 237.308C1296.96 237.564 1296.49 238.222 1296.49 238.972V249.319H1267.25V242.463C1268.32 242.939 1269.49 243.195 1270.69 243.195C1275.41 243.195 1279.26 239.319 1279.26 234.547C1279.26 229.776 1275.41 225.882 1270.69 225.882C1269.47 225.882 1268.32 226.138 1267.25 226.613V219.74H1277.48C1278.23 219.74 1278.88 219.264 1279.13 218.57C1279.38 217.875 1279.17 217.089 1278.61 216.595C1277.48 215.645 1276.83 214.237 1276.83 212.72C1276.83 209.904 1279.09 207.601 1281.88 207.601C1284.66 207.601 1286.94 209.904 1286.94 212.72C1286.94 214.219 1286.29 215.626 1285.15 216.595C1284.59 217.071 1284.37 217.857 1284.63 218.57C1284.88 219.264 1285.53 219.74 1286.27 219.74H1296.51V230.105C1296.51 230.855 1296.98 231.513 1297.66 231.769C1298.35 232.025 1299.13 231.805 1299.6 231.239C1300.56 230.087 1301.95 229.429 1303.43 229.429C1306.21 229.429 1308.49 231.714 1308.49 234.529C1308.49 237.345 1306.23 239.648 1303.43 239.648ZM1271.5 185.846C1272.48 185.901 1273.25 185.042 1273.25 184.073L1273.24 175.773C1273.24 174.786 1272.46 174 1271.5 174C1270.52 174 1269.75 174.804 1269.75 175.773L1269.76 184.073C1269.75 185.06 1270.54 185.846 1271.5 185.846ZM1246.04 191.459C1246.37 192.025 1246.96 192.336 1247.56 192.336C1247.85 192.336 1248.16 192.263 1248.43 192.098C1249.26 191.605 1249.55 190.526 1249.06 189.685L1244.96 182.501C1244.47 181.642 1243.4 181.349 1242.57 181.843C1241.74 182.336 1241.45 183.415 1241.94 184.256L1246.04 191.459ZM1248.45 272.92C1247.62 272.426 1246.53 272.719 1246.04 273.56L1241.94 280.726C1241.45 281.567 1241.74 282.664 1242.57 283.157C1242.84 283.322 1243.15 283.395 1243.46 283.395C1244.05 283.395 1244.65 283.084 1244.98 282.518L1249.08 275.351C1249.57 274.51 1249.28 273.413 1248.45 272.92ZM1271.52 279.172C1270.54 279.172 1269.76 279.958 1269.76 280.945L1269.75 289.227C1269.75 290.214 1270.52 291 1271.5 291C1272.46 291 1273.25 290.214 1273.25 289.227L1273.27 280.945C1273.27 279.976 1272.49 279.172 1271.52 279.172ZM1296.99 273.56C1296.51 272.719 1295.44 272.426 1294.61 272.902C1293.77 273.395 1293.49 274.474 1293.96 275.315L1298.04 282.481C1298.37 283.048 1298.96 283.377 1299.56 283.377C1299.85 283.377 1300.16 283.304 1300.43 283.139C1301.26 282.645 1301.55 281.567 1301.08 280.726L1296.99 273.56ZM1294.59 192.098C1294.86 192.263 1295.17 192.336 1295.46 192.336C1296.07 192.336 1296.65 192.025 1296.98 191.44L1301.06 184.256C1301.55 183.415 1301.26 182.318 1300.41 181.843C1299.58 181.349 1298.49 181.642 1298.02 182.501L1293.94 189.685C1293.45 190.526 1293.74 191.605 1294.59 192.098Z" fill="url(#paint0_linear_160_3459)" stroke="url(#paint1_linear_160_3459)" stroke-width="2"/>
<g clip-path="url(#clip0_160_3459)">
<rect x="849.336" y="171.809" width="63.7653" height="67.6299" fill="#F9F9F9"/>
<path d="M910.131 203.532L906.305 200.355L909.661 196.309L913.488 199.486L910.131 203.532Z" fill="url(#paint2_linear_160_3459)"/>
<path d="M898.205 162.159C892.654 163.308 888.253 166.683 885.495 171.739C883.08 167.293 879.061 163.885 874.176 162.479C865.993 160.126 856.96 163.354 851.234 169.431C844.417 176.666 842.685 186.998 846.482 197.777L851.439 196.029C847.166 183.903 851.872 176.422 855.058 173.041C859.752 168.059 866.852 165.85 872.724 167.539C877.73 168.979 881.245 173.089 882.699 179.147L876.115 193.248C874.263 197.215 875.521 201.919 879.106 204.433C883.535 207.538 889.884 205.941 892.321 201.123L896.761 192.344L903.024 197.544L906.38 193.497L897.582 186.193C896.309 185.135 894.303 185.559 893.559 187.029L887.631 198.748C886.616 200.756 883.97 201.423 882.122 200.126C880.63 199.08 880.106 197.124 880.877 195.474L887.523 181.239C887.786 180.913 887.976 180.524 888.062 180.093C889.463 173.063 893.443 168.515 899.269 167.309C905.93 165.929 913.531 169.236 917.753 175.349C920.894 179.895 924.746 189.756 915.26 204.721C914.617 205.736 914.743 207.058 915.566 207.932L915.651 208.021C915.667 208.037 918.971 211.969 918.971 211.969C920.021 213.219 919.848 215.14 918.601 216.185C917.335 217.248 915.438 217.083 914.374 215.816C913.441 214.704 911.783 214.56 910.672 215.494C909.561 216.428 909.417 218.086 910.35 219.198L910.35 219.198C910.352 219.2 910.353 219.202 910.355 219.204L910.661 219.568C911.559 220.639 911.426 222.248 910.363 223.156C909.269 224.092 907.579 223.918 906.682 222.798C905.748 221.687 904.091 221.544 902.98 222.478C901.869 223.412 901.726 225.07 902.659 226.182C903.589 227.29 903.433 229.002 902.32 229.925C901.198 230.856 899.523 230.704 898.586 229.588C898.425 229.397 898.215 229.214 898.02 229.052C896.972 228.135 895.392 228.194 894.416 229.187C893.44 230.18 893.407 231.762 894.341 232.795C895.333 233.891 895.292 235.57 894.248 236.617C893.221 237.646 891.554 237.708 890.455 236.757L889.416 235.859L885.98 239.839L887.019 240.737C891.75 244.534 896.13 242.211 897.968 240.331C899.231 239.039 900.003 237.446 900.237 235.779C902.145 235.873 904.094 235.284 905.673 233.975C907.195 232.713 908.172 230.968 908.453 229.027C910.406 229.091 912.281 228.433 913.776 227.155C915.324 225.833 916.226 224.024 916.451 222.139C918.397 222.192 920.372 221.563 921.978 220.215C925.424 217.326 925.89 212.035 922.995 208.586L920.716 205.871C926.683 195.7 929.721 184.973 922.077 172.359C917.352 164.563 907.297 160.277 898.205 162.159Z" fill="url(#paint3_linear_160_3459)"/>
<path d="M886.964 220.317C885.388 218.996 883.448 218.387 881.538 218.455C881.286 216.502 880.337 214.637 878.73 213.306C877.099 211.939 875.079 211.336 873.105 211.454C872.823 209.562 871.882 207.763 870.32 206.47C868.744 205.148 866.804 204.54 864.894 204.607C864.642 202.655 863.693 200.789 862.086 199.458C858.703 196.622 853.642 197.065 850.803 200.446L846.791 205.224C843.906 208.661 844.398 213.809 847.823 216.547C849.552 217.929 851.444 218.459 853.205 218.42C853.452 220.383 854.417 222.247 856.057 223.558C857.851 224.992 859.819 225.508 861.636 225.424C861.916 227.325 862.873 229.121 864.466 230.394C866.195 231.776 868.087 232.307 869.849 232.267C870.095 234.231 871.061 236.094 872.7 237.405C876.904 240.766 882.072 239.1 883.983 236.418L887.996 231.639C890.822 228.273 890.341 223.115 886.964 220.317ZM851.202 212.518C849.999 211.592 849.853 209.752 850.815 208.607L854.827 203.828C855.804 202.664 857.546 202.513 858.706 203.485C859.898 204.403 860.052 206.217 859.119 207.365C859.092 207.396 859.064 207.425 859.038 207.457L855.025 212.236C855.022 212.24 855.019 212.244 855.015 212.249C854.029 213.343 852.341 213.471 851.202 212.518ZM859.436 219.53C858.317 218.668 858.114 217.016 858.866 215.868C858.95 215.767 859.031 215.664 859.106 215.559L863.118 210.78C863.122 210.776 863.125 210.772 863.129 210.768C864.116 209.673 865.806 209.545 866.941 210.497C868.144 211.423 868.291 213.263 867.329 214.409L863.316 219.188C862.34 220.351 860.6 220.504 859.436 219.53ZM867.845 226.366C866.643 225.44 866.497 223.6 867.459 222.454L871.471 217.676C872.448 216.512 874.189 216.36 875.35 217.333C876.541 218.251 876.696 220.064 875.763 221.212C875.736 221.243 875.708 221.273 875.681 221.305L871.669 226.083C871.665 226.088 871.662 226.092 871.659 226.096C870.672 227.19 868.984 227.319 867.845 226.366ZM883.972 228.257L879.96 233.036C878.984 234.198 877.244 234.351 876.079 233.377C874.961 232.516 874.758 230.864 875.51 229.715C875.594 229.614 875.675 229.512 875.75 229.407L879.762 224.628C879.765 224.624 879.769 224.62 879.772 224.615C880.759 223.52 882.449 223.393 883.584 224.344C884.787 225.271 884.934 227.111 883.972 228.257Z" fill="url(#paint4_linear_160_3459)"/>
</g>
<g clip-path="url(#clip1_160_3459)">
<rect x="717.945" y="201.754" width="27.052" height="57.0023" fill="#F9F9F9"/>
<path d="M764.145 229.861H752.024C750.812 229.861 750.004 230.669 750.004 231.881C750.004 233.093 750.812 233.901 752.024 233.901H762.125C762.125 238.346 758.489 241.982 754.044 241.982C749.6 241.982 745.964 238.346 745.964 233.901V232.285L754.044 211.276L759.095 224.609C759.499 225.619 760.711 226.225 761.721 225.821C762.731 225.417 763.337 224.205 762.933 223.195L757.681 209.66H760.105C761.317 209.66 762.125 208.852 762.125 207.64C762.125 206.428 761.317 205.62 760.105 205.62H756.873C756.671 205.62 756.267 205.62 756.065 205.62L755.863 205.014C755.661 204.206 754.852 203.6 754.044 203.6C753.236 203.6 752.428 204.206 752.226 204.812V205.014C749.802 204.408 747.378 203.6 745.156 202.388C740.51 199.559 735.055 198.953 730.005 200.367C728.995 199.155 727.581 198.347 725.965 197.741V185.419C725.965 184.206 725.157 183.398 723.945 183.398C722.733 183.398 721.925 184.206 721.925 185.419V197.741C720.309 198.145 718.894 199.155 717.884 200.367C712.834 198.953 707.178 199.559 702.734 202.388C700.309 203.6 697.885 204.61 695.461 205.014V204.812C695.057 204.206 694.249 203.6 693.441 203.6C692.633 203.6 691.825 204.206 691.623 204.812L691.219 205.62C691.017 205.62 690.613 205.62 690.411 205.62H687.381C686.169 205.62 685.361 206.428 685.361 207.64C685.361 208.852 686.169 209.66 687.381 209.66H689.805L681.522 231.073C681.32 231.477 681.32 231.679 681.32 231.881V233.901C681.32 240.568 686.775 246.022 693.441 246.022C700.107 246.022 705.562 240.568 705.562 233.901V231.881C705.562 230.669 704.754 229.861 703.542 229.861H691.421C690.209 229.861 689.401 230.669 689.401 231.881C689.401 233.093 690.209 233.901 691.421 233.901H701.521C701.521 238.346 697.885 241.982 693.441 241.982C688.997 241.982 685.361 238.346 685.361 233.901V232.285L693.441 211.276L698.491 224.609C698.895 225.619 700.107 226.225 701.117 225.821C702.127 225.417 702.734 224.205 702.329 223.195L696.875 209.054C699.501 208.448 702.127 207.438 704.552 206.024C707.986 204.004 712.026 203.398 715.864 204.206C715.864 204.61 715.662 205.216 715.662 205.822C715.662 208.246 716.672 210.266 718.288 211.68L716.066 253.092C715.864 256.729 713.844 259.961 710.612 261.577L706.572 263.597C704.956 264.405 703.542 266.425 703.542 268.243C702.329 268.243 701.521 269.051 701.521 270.263C701.521 271.475 702.329 272.283 703.542 272.283H743.944C745.156 272.283 745.964 271.475 745.964 270.263C745.964 269.051 745.156 268.243 743.944 268.243C743.944 266.425 742.53 264.405 740.914 263.597L736.873 261.577C733.641 259.961 731.621 256.729 731.419 253.092L729.601 219.76C729.601 218.548 728.591 217.74 727.379 217.942C726.167 217.942 725.359 218.952 725.561 220.165L727.379 253.496C727.581 258.547 730.611 262.991 735.055 265.415L739.298 267.637C739.5 267.839 739.904 268.243 739.904 268.647H707.582C707.582 268.445 707.986 267.839 708.39 267.637L712.43 265.617C716.874 263.395 719.904 258.749 720.107 253.698L722.127 213.902C722.531 213.902 723.137 214.104 723.541 214.104C727.985 214.104 731.621 210.468 731.621 206.024C731.621 205.418 731.621 205.014 731.419 204.408C735.257 203.6 739.298 204.004 742.732 206.226C745.156 207.64 747.58 208.65 750.408 209.256L741.924 231.477C741.924 231.679 741.722 231.881 741.722 232.285V234.305C741.722 240.972 747.176 246.426 753.842 246.426C760.509 246.426 765.963 240.972 765.963 234.305V232.285C766.165 230.669 765.357 229.861 764.145 229.861ZM723.743 209.66C721.521 209.66 719.702 207.842 719.702 205.62C719.702 203.398 721.521 201.579 723.743 201.579C725.965 201.579 727.783 203.398 727.783 205.62C727.783 207.842 725.965 209.66 723.743 209.66Z" fill="url(#paint5_linear_160_3459)" stroke="url(#paint6_linear_160_3459)" stroke-width="1.5"/>
</g>
<g clip-path="url(#clip2_160_3459)">
<rect x="1123.72" y="274.215" width="47.3409" height="69.5622" fill="#F9F9F9"/>
<path d="M1123.39 322.188V336.393C1123.39 339.971 1126.31 342.894 1129.89 342.894H1146.54C1150.12 342.894 1153.04 339.971 1153.04 336.393V322.188C1164.15 316.591 1171.25 305.148 1171.25 292.679C1171.27 274.47 1156.44 259.645 1138.22 259.645C1119.99 259.645 1105.16 274.47 1105.16 292.696C1105.16 305.148 1112.28 316.591 1123.39 322.188ZM1149.5 323.428V329.45H1126.93V323.428H1149.5ZM1146.54 339.351H1129.89C1128.26 339.351 1126.93 338.023 1126.93 336.393V333.01H1149.52V336.393C1149.5 338.023 1148.17 339.351 1146.54 339.351ZM1138.22 263.187C1154.48 263.187 1167.72 276.418 1167.72 292.696C1167.72 304.156 1160.98 314.66 1150.54 319.478C1150.33 319.584 1150.15 319.726 1149.99 319.903H1126.44C1126.28 319.743 1126.1 319.584 1125.89 319.478C1115.46 314.66 1108.71 304.156 1108.71 292.696C1108.71 276.418 1121.96 263.187 1138.22 263.187Z" fill="url(#paint7_linear_160_3459)" stroke="url(#paint8_linear_160_3459)" stroke-width="2"/>
<path d="M1138.21 301.977C1143.33 301.977 1147.49 297.814 1147.49 292.695C1147.49 287.577 1143.33 283.414 1138.21 283.414C1133.09 283.414 1128.93 287.577 1128.93 292.695C1128.93 297.814 1133.09 301.977 1138.21 301.977ZM1138.21 286.939C1141.38 286.939 1143.95 289.525 1143.95 292.678C1143.95 295.831 1141.38 298.434 1138.21 298.434C1135.04 298.434 1132.47 295.848 1132.47 292.695C1132.47 289.543 1135.04 286.939 1138.21 286.939Z" fill="url(#paint9_linear_160_3459)" stroke="url(#paint10_linear_160_3459)" stroke-width="2"/>
<path d="M1121.38 301.977L1118.35 305.537C1117.75 306.246 1117.8 307.291 1118.44 307.946L1122.96 312.463C1123.61 313.118 1124.66 313.154 1125.37 312.552L1128.93 309.523C1130.19 310.231 1131.51 310.78 1132.9 311.17L1133.27 315.828C1133.34 316.75 1134.12 317.458 1135.04 317.458H1141.42C1142.34 317.458 1143.12 316.75 1143.19 315.828L1143.56 311.17C1144.94 310.78 1146.27 310.214 1147.53 309.523L1151.09 312.552C1151.8 313.154 1152.84 313.118 1153.5 312.463L1158.01 307.946C1158.67 307.291 1158.7 306.246 1158.1 305.537L1155.04 301.977C1155.75 300.72 1156.29 299.391 1156.68 298.01L1161.34 297.638C1162.26 297.567 1162.97 296.787 1162.97 295.866V289.49C1162.97 288.569 1162.26 287.789 1161.34 287.719L1156.68 287.347C1156.29 285.965 1155.73 284.637 1155.04 283.379L1158.07 279.819C1158.67 279.11 1158.61 278.065 1157.98 277.41L1153.46 272.929C1152.8 272.273 1151.76 272.238 1151.05 272.84L1147.49 275.869C1146.23 275.16 1144.9 274.611 1143.52 274.222L1143.17 269.563C1143.1 268.642 1142.32 267.934 1141.4 267.934H1135.02C1134.1 267.934 1133.32 268.642 1133.25 269.563L1132.88 274.222C1131.5 274.611 1130.17 275.178 1128.91 275.869L1125.35 272.84C1124.64 272.238 1123.6 272.291 1122.94 272.929L1118.42 277.445C1117.77 278.101 1117.73 279.146 1118.34 279.854L1121.36 283.414C1120.66 284.672 1120.11 286 1119.72 287.382L1115.06 287.754C1114.14 287.825 1113.43 288.604 1113.43 289.525V295.902C1113.43 296.823 1114.14 297.602 1115.06 297.673L1119.72 298.045C1120.14 299.391 1120.69 300.72 1121.38 301.977ZM1116.99 291.137L1121.28 290.801C1122.06 290.73 1122.71 290.163 1122.87 289.401C1123.26 287.541 1124 285.788 1125.05 284.176C1125.47 283.521 1125.42 282.653 1124.91 282.068L1122.11 278.791L1124.31 276.595L1127.58 279.394C1128.18 279.907 1129.03 279.96 1129.69 279.535C1131.3 278.49 1133.06 277.764 1134.92 277.357C1135.68 277.197 1136.24 276.542 1136.31 275.763L1136.65 271.476H1139.75L1140.09 275.763C1140.16 276.542 1140.72 277.197 1141.49 277.357C1143.35 277.746 1145.1 278.49 1146.71 279.535C1147.37 279.96 1148.23 279.907 1148.82 279.394L1152.1 276.595L1154.29 278.791L1151.49 282.068C1150.98 282.67 1150.93 283.521 1151.35 284.176C1152.4 285.788 1153.12 287.541 1153.53 289.401C1153.69 290.163 1154.35 290.73 1155.13 290.801L1159.41 291.137V294.237L1155.13 294.573C1154.35 294.644 1153.69 295.211 1153.53 295.973C1153.14 297.832 1152.4 299.586 1151.35 301.198C1150.93 301.853 1150.98 302.721 1151.49 303.306L1154.31 306.582L1152.11 308.779L1148.84 305.998C1148.23 305.484 1147.38 305.431 1146.73 305.856C1145.12 306.901 1143.36 307.628 1141.5 308.035C1140.74 308.194 1140.18 308.85 1140.1 309.629L1139.77 313.915H1136.67L1136.33 309.629C1136.26 308.85 1135.69 308.194 1134.93 308.035C1133.07 307.645 1131.32 306.901 1129.71 305.856C1129.05 305.431 1128.18 305.484 1127.6 305.998L1124.32 308.797L1122.11 306.582L1124.91 303.306C1125.42 302.703 1125.47 301.853 1125.05 301.198C1124 299.586 1123.28 297.832 1122.87 295.973C1122.71 295.211 1122.06 294.644 1121.28 294.573L1116.99 294.237V291.137Z" fill="url(#paint11_linear_160_3459)" stroke="url(#paint12_linear_160_3459)" stroke-width="2"/>
</g>
<g clip-path="url(#clip3_160_3459)">
<rect x="960.445" y="266.488" width="60.8669" height="85.0205" fill="#F9F9F9"/>
<path fill-rule="evenodd" clip-rule="evenodd" d="M1011.22 270.907C1012.49 266.159 1014.53 262.176 1017.31 258.963C1018.1 258.044 1019.33 257.621 1020.52 257.858C1021.71 258.094 1022.69 258.953 1023.07 260.106C1023.07 260.106 1023.14 260.296 1023.24 260.627C1024.93 265.676 1028.89 269.635 1033.94 271.319C1034.27 271.428 1034.46 271.492 1034.46 271.492C1035.61 271.877 1036.47 272.851 1036.71 274.041C1036.94 275.232 1036.52 276.459 1035.6 277.254C1032.39 280.04 1028.42 282.089 1023.67 283.358C1027.68 289.65 1030.01 297.124 1030.01 305.134C1030.01 327.53 1011.83 345.712 989.429 345.712C967.034 345.712 948.852 327.53 948.852 305.134C948.852 282.739 967.034 264.556 989.429 264.556C997.447 264.556 1004.92 266.886 1011.22 270.907ZM1009.93 278.251C1004.24 273.903 997.136 271.319 989.429 271.319C970.767 271.319 955.615 286.472 955.615 305.134C955.615 323.797 970.767 338.949 989.429 338.949C1008.09 338.949 1023.24 323.797 1023.24 305.134C1023.24 297.529 1020.73 290.506 1016.48 284.856C1016.43 284.785 1016.38 284.713 1016.33 284.639C1015.75 284.693 1015.17 284.737 1014.57 284.774L1005.97 293.38C1008.33 296.698 1009.72 300.755 1009.72 305.134C1009.72 316.33 1000.63 325.423 989.429 325.423C978.233 325.423 969.141 316.33 969.141 305.134C969.141 293.938 978.233 284.845 989.429 284.845C993.809 284.845 997.866 286.235 1001.18 288.599L1009.79 279.99C1009.83 279.401 1009.88 278.82 1009.93 278.251ZM996.301 293.482C994.285 292.291 991.935 291.608 989.429 291.608C981.963 291.608 975.904 297.668 975.904 305.134C975.904 312.601 981.963 318.66 989.429 318.66C996.896 318.66 1002.96 312.601 1002.96 305.134C1002.96 302.629 1002.27 300.279 1001.08 298.263L991.82 307.525C990.501 308.844 988.358 308.844 987.039 307.525C985.72 306.206 985.72 304.062 987.039 302.744L996.301 293.482ZM1019.39 268.097C1018.07 270.883 1017.22 274.123 1016.78 277.795C1020.46 277.362 1023.69 276.507 1026.48 275.184C1023.63 273.355 1021.22 270.937 1019.39 268.097Z" fill="url(#paint13_linear_160_3459)"/>
</g>
<defs>
<linearGradient id="paint0_linear_160_3459" x1="1271.5" y1="174" x2="1271.5" y2="291" gradientUnits="userSpaceOnUse">
<stop stop-color="#1657FF"/>
<stop offset="1" stop-color="#B557FF"/>
</linearGradient>
<linearGradient id="paint1_linear_160_3459" x1="1271.5" y1="174" x2="1271.5" y2="291" gradientUnits="userSpaceOnUse">
<stop stop-color="#1657FF"/>
<stop offset="1" stop-color="#B557FF"/>
</linearGradient>
<linearGradient id="paint2_linear_160_3459" x1="909.896" y1="196.309" x2="909.896" y2="203.532" gradientUnits="userSpaceOnUse">
<stop stop-color="#1657FF"/>
<stop offset="1" stop-color="#B557FF"/>
</linearGradient>
<linearGradient id="paint3_linear_160_3459" x1="885.569" y1="161.707" x2="885.569" y2="242.776" gradientUnits="userSpaceOnUse">
<stop stop-color="#1657FF"/>
<stop offset="1" stop-color="#B557FF"/>
</linearGradient>
<linearGradient id="paint4_linear_160_3459" x1="867.374" y1="197.59" x2="867.374" y2="239.282" gradientUnits="userSpaceOnUse">
<stop stop-color="#1657FF"/>
<stop offset="1" stop-color="#B557FF"/>
</linearGradient>
<linearGradient id="paint5_linear_160_3459" x1="723.657" y1="183.398" x2="723.657" y2="272.283" gradientUnits="userSpaceOnUse">
<stop stop-color="#1B58FF"/>
<stop offset="1" stop-color="#AF58FF"/>
</linearGradient>
<linearGradient id="paint6_linear_160_3459" x1="723.657" y1="183.398" x2="723.657" y2="272.283" gradientUnits="userSpaceOnUse">
<stop stop-color="#1C58FF"/>
<stop offset="1" stop-color="#B358FF"/>
</linearGradient>
<linearGradient id="paint7_linear_160_3459" x1="1138.21" y1="259.645" x2="1138.21" y2="342.894" gradientUnits="userSpaceOnUse">
<stop stop-color="#1657FF"/>
<stop offset="1" stop-color="#B557FF"/>
</linearGradient>
<linearGradient id="paint8_linear_160_3459" x1="1138.21" y1="259.645" x2="1138.21" y2="342.894" gradientUnits="userSpaceOnUse">
<stop stop-color="#1657FF"/>
<stop offset="1" stop-color="#B557FF"/>
</linearGradient>
<linearGradient id="paint9_linear_160_3459" x1="1138.21" y1="283.414" x2="1138.21" y2="301.977" gradientUnits="userSpaceOnUse">
<stop stop-color="#1657FF"/>
<stop offset="1" stop-color="#B557FF"/>
</linearGradient>
<linearGradient id="paint10_linear_160_3459" x1="1138.21" y1="283.414" x2="1138.21" y2="301.977" gradientUnits="userSpaceOnUse">
<stop stop-color="#1657FF"/>
<stop offset="1" stop-color="#B557FF"/>
</linearGradient>
<linearGradient id="paint11_linear_160_3459" x1="1138.2" y1="267.934" x2="1138.2" y2="317.458" gradientUnits="userSpaceOnUse">
<stop stop-color="#1657FF"/>
<stop offset="1" stop-color="#B557FF"/>
</linearGradient>
<linearGradient id="paint12_linear_160_3459" x1="1138.2" y1="267.934" x2="1138.2" y2="317.458" gradientUnits="userSpaceOnUse">
<stop stop-color="#1657FF"/>
<stop offset="1" stop-color="#B557FF"/>
</linearGradient>
<linearGradient id="paint13_linear_160_3459" x1="992.811" y1="257.793" x2="992.811" y2="345.712" gradientUnits="userSpaceOnUse">
<stop stop-color="#1657FF"/>
<stop offset="1" stop-color="#B557FF"/>
</linearGradient>
<clipPath id="clip0_160_3459">
<rect width="82.122" height="82.122" fill="white" transform="translate(844.508 161.18)"/>
</clipPath>
<clipPath id="clip1_160_3459">
<rect width="88.885" height="88.885" fill="white" transform="translate(679.297 183.398)"/>
</clipPath>
<clipPath id="clip2_160_3459">
<rect width="85.0204" height="85.0204" fill="white" transform="translate(1095.7 258.758)"/>
</clipPath>
<clipPath id="clip3_160_3459">
<rect width="108.208" height="108.208" fill="white" transform="translate(935.328 251.031)"/>
</clipPath>
</defs>
</svg>
