<?xml version="1.0" encoding="utf-8" ?>
<svg xmlns="http://www.w3.org/2000/svg" xmlns:xlink="http://www.w3.org/1999/xlink" width="18" height="18">
	<defs>
		<clipPath id="clip_0">
			<rect x="-151" y="-11" width="1440" height="2131" clip-rule="evenodd"/>
		</clipPath>
	</defs>
	<g clip-path="url(#clip_0)">
		<path fill="rgb(191,191,191)" stroke="none" d="M15.7308 14.9654C17.141 13.3762 18 11.2869 18 9C18 6.62059 17.0702 4.45562 15.557 2.84462L15.557 2.84431C15.5557 2.84245 15.5539 2.84183 15.5529 2.84028C13.9767 1.16472 11.7683 0.0921724 9.3119 0.00806897L9.31159 0.00775862L9.13624 0.00310345C9.09093 0.00155172 9.04562 0 9 0C8.95438 0 8.90907 0.00155172 8.86376 0.00310345L8.68903 0.00775862L8.68872 0.00806897C6.23235 0.0921724 4.02393 1.16472 2.44769 2.84028C2.44645 2.84183 2.44459 2.84245 2.44366 2.84431L2.44334 2.84493C0.929793 4.45562 0 6.62059 0 9C0 11.2869 0.859034 13.3762 2.26924 14.9654C2.2711 14.9682 2.2711 14.9713 2.27328 14.9741C2.27886 14.9819 2.28693 14.9856 2.29283 14.9928C3.87745 16.7642 6.15103 17.9053 8.68841 17.9922L8.68872 17.9926L8.86345 17.9972C8.90907 17.9984 8.95438 18 9 18C9.04562 18 9.09093 17.9984 9.13624 17.9969L9.31097 17.9922L9.31128 17.9919C11.8514 17.9047 14.1275 16.7614 15.7121 14.9862C15.7162 14.981 15.7227 14.9794 15.7264 14.9738C15.7289 14.9713 15.7289 14.9682 15.7308 14.9654ZM5.45928 4.05683C4.66883 3.78403 3.91035 3.41907 3.19562 2.96534C4.45469 1.75376 6.09021 0.931966 7.90759 0.694241C6.88283 1.66966 6.05545 2.80769 5.45928 4.05683ZM10.0927 0.694241C11.1172 1.66966 11.9446 2.80769 12.5407 4.05683C13.3312 3.78403 14.0897 3.41907 14.8047 2.96534C13.5453 1.75376 11.9101 0.931966 10.0927 0.694241ZM6.06072 4.24552C6.91169 4.48448 7.79245 4.61824 8.68966 4.64369L8.68966 0.820552C7.578 1.79038 6.68979 2.9551 6.06072 4.24552ZM9.31034 4.64369L9.31034 0.820552C10.422 1.79038 11.3102 2.9551 11.9393 4.24552C11.0883 4.48448 10.2076 4.61824 9.31034 4.64369ZM5.20697 4.62569C4.34948 4.32528 3.52738 3.92307 2.75524 3.42093C1.49338 4.83145 0.702621 6.67024 0.628448 8.68966L4.35352 8.68966C4.39138 7.27448 4.68186 5.90028 5.20697 4.62569ZM17.3716 8.68966L13.6465 8.68966C13.6086 7.27448 13.3181 5.90028 12.793 4.62569C13.6505 4.32528 14.4726 3.92307 15.2448 3.42093C16.5066 4.83145 17.2974 6.67024 17.3716 8.68966ZM8.68966 5.26438L8.68966 8.68966L4.97421 8.68966C5.01238 7.34028 5.29541 6.03155 5.80159 4.8181C6.73448 5.08841 7.70307 5.238 8.68966 5.26438ZM12.1987 4.8181C11.2655 5.08872 10.2969 5.238 9.31034 5.26438L9.31034 8.68966L13.0261 8.68966C12.9879 7.34028 12.7049 6.03155 12.1987 4.8181ZM0.628448 9.31034L4.35352 9.31034C4.38859 10.6259 4.64555 11.9042 5.103 13.1018C4.22038 13.4212 3.37655 13.8494 2.58579 14.3839C1.42293 13.0007 0.699207 11.2376 0.628448 9.31034ZM8.68966 9.31034L4.97421 9.31034C5.00928 10.5576 5.25476 11.7695 5.69141 12.9038C6.65783 12.613 7.66334 12.4529 8.68966 12.4256L8.68966 9.31034ZM9.31034 12.4256L9.31034 9.31034L13.0258 9.31034C12.9907 10.5576 12.7452 11.7695 12.3083 12.9041C11.3422 12.613 10.3367 12.4529 9.31034 12.4256ZM17.3716 9.31034L13.6465 9.31034C13.6114 10.6259 13.3548 11.9042 12.897 13.1018C13.7796 13.4212 14.6234 13.8494 15.4142 14.3839C16.5774 13.0007 17.3008 11.2376 17.3716 9.31034ZM8.68966 13.0463L8.68966 17.1794C7.49979 16.1413 6.5669 14.8801 5.93255 13.4811C6.82231 13.2188 7.74652 13.073 8.68966 13.0463ZM9.31034 13.0463L9.31034 17.1794C10.5002 16.1413 11.4331 14.8801 12.0674 13.4808C11.1777 13.2188 10.2535 13.0727 9.31034 13.0463ZM3.00755 14.8488C3.74183 14.3609 4.52359 13.9686 5.34041 13.6753C5.94403 15.0284 6.81052 16.2614 7.90728 17.3058C5.99834 17.0559 4.2899 16.1621 3.00755 14.8488ZM12.6596 13.6753C12.056 15.0288 11.1895 16.2618 10.0927 17.3058C12.0017 17.0559 13.7101 16.1621 14.9924 14.8488C14.2579 14.3609 13.4764 13.9686 12.6596 13.6753Z" fill-rule="evenodd"/>
	</g>

</svg>