<svg width="47" height="46" viewBox="0 0 47 46" fill="none" xmlns="http://www.w3.org/2000/svg">
<g clip-path="url(#clip0_5055_10745)">
<path d="M23.5 46C36.4787 46 47 35.7025 47 23C47 10.2975 36.4787 0 23.5 0C10.5213 0 0 10.2975 0 23C0 35.7025 10.5213 46 23.5 46Z" fill="#E5EAFA"/>
<path d="M38.7052 19.9032C38.7736 17.9666 38.3409 16.0446 37.4473 14.3155C36.841 13.606 35.9995 13.1272 35.0696 12.9626C31.2232 12.621 27.361 12.481 23.4993 12.5432C19.6517 12.4782 15.8034 12.6136 11.9705 12.949C11.2127 13.0839 10.5114 13.4318 9.95226 13.9502C8.70814 15.0732 8.56991 16.9943 8.43167 18.6179C8.23111 21.5369 8.23111 24.4659 8.43167 27.3849C8.47166 28.2987 8.61068 29.2057 8.84638 30.0908C9.01306 30.7741 9.35028 31.4063 9.82785 31.9308C10.3908 32.4767 11.1084 32.8443 11.8876 32.9861C14.8678 33.3461 17.8707 33.4953 20.8728 33.4326C25.7111 33.5002 29.9549 33.4326 34.9728 33.0537C35.7711 32.9207 36.5089 32.5525 37.0878 31.9984C37.4749 31.6195 37.7639 31.1557 37.9311 30.6455C38.4255 29.1608 38.6683 27.6069 38.6499 26.0455C38.7052 25.2879 38.7052 20.7149 38.7052 19.9032ZM20.3752 26.8573V18.4826L28.5587 22.6902C26.264 23.9349 23.2367 25.342 20.3752 26.8573Z" fill="#7699CC"/>
</g>
<defs>
<clipPath id="clip0_5055_10745">
<rect width="47" height="46" fill="white"/>
</clipPath>
</defs>
</svg>
